<svg width="24" height="24" viewBox="0 0 24 24" fill="none" xmlns="http://www.w3.org/2000/svg">
<path d="M16.145 8.85188C16.6752 8.85188 17.105 8.42208 17.105 7.89188C17.105 7.36169 16.6752 6.93188 16.145 6.93188C15.6148 6.93188 15.185 7.36169 15.185 7.89188C15.185 8.42208 15.6148 8.85188 16.145 8.85188Z" fill="#212529"/>
<path d="M12 16C11.2089 16 10.4355 15.7654 9.77772 15.3259C9.11992 14.8864 8.60723 14.2616 8.30448 13.5307C8.00173 12.7998 7.92252 11.9956 8.07686 11.2196C8.2312 10.4437 8.61216 9.73098 9.17157 9.17157C9.73098 8.61216 10.4437 8.2312 11.2196 8.07686C11.9956 7.92252 12.7998 8.00173 13.5307 8.30448C14.2616 8.60723 14.8864 9.11992 15.3259 9.77772C15.7654 10.4355 16 11.2089 16 12C16 13.0609 15.5786 14.0783 14.8284 14.8284C14.0783 15.5786 13.0609 16 12 16ZM12 10C11.6044 10 11.2178 10.1173 10.8889 10.3371C10.56 10.5568 10.3036 10.8692 10.1522 11.2346C10.0009 11.6001 9.96126 12.0022 10.0384 12.3902C10.1156 12.7781 10.3061 13.1345 10.5858 13.4142C10.8655 13.6939 11.2219 13.8844 11.6098 13.9616C11.9978 14.0387 12.3999 13.9991 12.7654 13.8478C13.1308 13.6964 13.4432 13.44 13.6629 13.1111C13.8827 12.7822 14 12.3956 14 12C14 11.4696 13.7893 10.9609 13.4142 10.5858C13.0391 10.2107 12.5304 10 12 10V10Z" fill="#212529"/>
<path d="M16 20H8C6.95588 19.9482 5.96829 19.5101 5.22907 18.7709C4.48986 18.0317 4.0518 17.0441 4 16V8C4.0518 6.95588 4.48986 5.96829 5.22907 5.22907C5.96829 4.48986 6.95588 4.0518 8 4H16C17.0441 4.0518 18.0317 4.48986 18.7709 5.22907C19.5101 5.96829 19.9482 6.95588 20 8V16C19.9482 17.0441 19.5101 18.0317 18.7709 18.7709C18.0317 19.5101 17.0441 19.9482 16 20V20ZM8 6C7.48917 6.05697 7.0129 6.28599 6.64945 6.64945C6.28599 7.0129 6.05697 7.48917 6 8V16C6.05088 16.5131 6.27794 16.9928 6.64256 17.3574C7.00718 17.7221 7.48686 17.9491 8 18H16C16.5108 17.943 16.9871 17.714 17.3506 17.3506C17.714 16.9871 17.943 16.5108 18 16V8C17.943 7.48917 17.714 7.0129 17.3506 6.64945C16.9871 6.28599 16.5108 6.05697 16 6H8Z" fill="#212529"/>
</svg>
