<svg width="200" height="200" viewBox="0 0 200 200" fill="none" xmlns="http://www.w3.org/2000/svg">
<path d="M85.814 36.26C85.8097 35.2899 86.0933 34.3404 86.6291 33.5317C87.1649 32.723 87.9286 32.0916 88.8236 31.7173C89.7185 31.3431 90.7044 31.2429 91.6564 31.4295C92.6084 31.6161 93.4835 32.081 94.171 32.7654C94.8585 33.4498 95.3273 34.3228 95.5182 35.2739C95.709 36.225 95.6133 37.2114 95.2431 38.108C94.8729 39.0047 94.2449 39.7713 93.4386 40.3106C92.6323 40.85 91.6841 41.138 90.714 41.138C89.4175 41.1407 88.1729 40.6283 87.254 39.7135C86.3352 38.7988 85.8172 37.5566 85.814 36.26" fill="#00B2B2"/>
<path d="M163.721 40.557C163.717 39.587 164 38.6374 164.536 37.8287C165.072 37.0201 165.836 36.3886 166.731 36.0143C167.626 35.6401 168.611 35.5399 169.563 35.7265C170.515 35.9131 171.39 36.378 172.078 37.0624C172.765 37.7468 173.234 38.6198 173.425 39.5709C173.616 40.5221 173.52 41.5084 173.15 42.405C172.78 43.3017 172.152 44.0683 171.346 44.6077C170.539 45.1471 169.591 45.435 168.621 45.435C167.325 45.4374 166.08 44.9249 165.161 44.0103C164.242 43.0956 163.724 41.8535 163.721 40.557" fill="#00B2B2"/>
<path d="M98.108 34.939L108.59 37.673C108.59 37.673 105.408 42.249 101.85 41.396C98.139 40.512 98.108 34.939 98.108 34.939Z" fill="#FF0E11"/>
<path d="M162.356 23.679C162.353 23.0898 162.525 22.5129 162.85 22.0216C163.175 21.5302 163.639 21.1464 164.183 20.9189C164.726 20.6913 165.325 20.6302 165.903 20.7434C166.482 20.8565 167.013 21.1387 167.431 21.5543C167.849 21.9699 168.134 22.5002 168.25 23.0779C168.366 23.6556 168.308 24.2547 168.083 24.7994C167.858 25.344 167.477 25.8097 166.987 26.1374C166.497 26.4651 165.921 26.64 165.332 26.64C164.942 26.6412 164.556 26.5655 164.195 26.4173C163.835 26.2691 163.507 26.0513 163.23 25.7763C162.954 25.5013 162.734 25.1745 162.584 24.8147C162.434 24.4548 162.357 24.0689 162.356 23.679" fill="#FFD2E1"/>
<path d="M174.693 91.675L187.486 91.316L182.702 103.329L174.693 91.675Z" fill="#FF0E11"/>
<path d="M159.559 103.85L163.148 96.916L168.148 103.016L159.559 103.85Z" fill="#FFBE00"/>
<path d="M168.032 101.29L174.768 97.344L175.739 105.17L168.032 101.29Z" fill="#00B2B2"/>
<path d="M105.894 39.257C105.879 38.7102 106.08 38.1796 106.455 37.7812C106.83 37.3828 107.347 37.149 107.894 37.131C108.441 37.149 108.958 37.3828 109.333 37.7812C109.708 38.1796 109.909 38.7102 109.894 39.257C109.909 39.8034 109.707 40.3336 109.333 40.7313C108.958 41.1291 108.44 41.362 107.894 41.379C107.348 41.362 106.83 41.1291 106.455 40.7313C106.081 40.3336 105.879 39.8034 105.894 39.257" fill="#FFD2E1"/>
<path d="M177.455 43.601C177.439 43.0545 177.641 42.5242 178.016 42.1264C178.391 41.7286 178.909 41.4957 179.455 41.479C180.002 41.4952 180.519 41.7279 180.894 42.1258C181.27 42.5238 181.471 43.0544 181.455 43.601C181.471 44.1474 181.269 44.6778 180.894 45.0755C180.519 45.4733 180.001 45.7058 179.455 45.722C178.909 45.7053 178.391 45.4726 178.017 45.075C177.642 44.6774 177.44 44.1473 177.455 43.601" fill="#FF0E11"/>
<path d="M172.802 39.401C172.787 38.8542 172.988 38.3236 173.363 37.9252C173.738 37.5268 174.255 37.293 174.802 37.275C175.349 37.293 175.866 37.5268 176.241 37.9252C176.616 38.3236 176.817 38.8542 176.802 39.401C176.817 39.9474 176.615 40.4776 176.241 40.8753C175.866 41.2731 175.348 41.506 174.802 41.523C174.256 41.506 173.738 41.2731 173.363 40.8753C172.989 40.4776 172.787 39.9474 172.802 39.401" fill="black"/>
<path d="M110.747 36.055L112.669 36.969C112.669 36.969 112.269 38.469 113.382 39.078C114.495 39.687 115.575 38.496 115.575 38.496L117.457 39.296C116.783 40.0834 115.931 40.6985 114.971 41.09C114.247 41.2644 113.488 41.208 112.798 40.9288C112.108 40.6496 111.523 40.1615 111.124 39.533C110.747 39.0442 110.512 38.4608 110.446 37.8471C110.379 37.2334 110.484 36.6132 110.747 36.055" fill="#00B2B2"/>
<path d="M109.671 98.501L114.462 96.341C114.595 96.2812 114.738 96.2481 114.883 96.2435C115.028 96.2389 115.173 96.263 115.309 96.3144C115.445 96.3658 115.569 96.4435 115.675 96.543C115.781 96.6426 115.867 96.762 115.927 96.8945C115.986 97.027 116.019 97.17 116.024 97.3153C116.029 97.4606 116.004 97.6054 115.953 97.7414C115.902 97.8774 115.824 98.0019 115.724 98.1079C115.625 98.2139 115.506 98.2992 115.373 98.359L110.582 100.518C110.449 100.583 110.304 100.62 110.157 100.627C110.009 100.635 109.861 100.613 109.722 100.563C109.583 100.512 109.456 100.434 109.347 100.334C109.239 100.233 109.151 100.112 109.09 99.9775C109.03 99.8427 108.996 99.6971 108.993 99.5492C108.989 99.4014 109.015 99.2543 109.069 99.1167C109.123 98.979 109.204 98.8537 109.308 98.7479C109.411 98.6422 109.535 98.5582 109.671 98.501" fill="#FFBE00"/>
<path d="M95.557 23.329H100.657C100.735 23.3279 100.813 23.3424 100.886 23.3717C100.958 23.4009 101.025 23.4442 101.08 23.4992C101.136 23.5542 101.181 23.6197 101.211 23.6919C101.241 23.7641 101.257 23.8417 101.257 23.92V29.537C101.257 29.6153 101.241 29.6929 101.211 29.7651C101.181 29.8373 101.136 29.9028 101.08 29.9578C101.025 30.0128 100.958 30.0561 100.886 30.0854C100.813 30.1146 100.735 30.1291 100.657 30.128H95.557C95.4787 30.1291 95.4009 30.1146 95.3283 30.0854C95.2556 30.0561 95.1894 30.0128 95.1336 29.9578C95.0778 29.9028 95.0334 29.8373 95.0031 29.7651C94.9728 29.6929 94.9572 29.6153 94.957 29.537V23.92C94.9572 23.8417 94.9728 23.7641 95.0031 23.6919C95.0334 23.6197 95.0778 23.5542 95.1336 23.4992C95.1894 23.4442 95.2556 23.4009 95.3283 23.3717C95.4009 23.3424 95.4787 23.3279 95.557 23.329" fill="black"/>
<path d="M113.895 87.199H117.221C117.272 87.1986 117.322 87.2083 117.37 87.2274C117.417 87.2466 117.46 87.2748 117.496 87.3106C117.532 87.3463 117.561 87.3889 117.581 87.4358C117.6 87.4827 117.611 87.5331 117.611 87.584V91.246C117.611 91.2969 117.6 91.3473 117.581 91.3942C117.561 91.4411 117.532 91.4837 117.496 91.5194C117.46 91.5552 117.417 91.5835 117.37 91.6026C117.322 91.6217 117.272 91.6314 117.221 91.631H113.895C113.844 91.6314 113.794 91.6217 113.746 91.6026C113.699 91.5835 113.656 91.5552 113.62 91.5194C113.584 91.4837 113.555 91.4411 113.535 91.3942C113.516 91.3473 113.505 91.2969 113.505 91.246V87.584C113.505 87.5331 113.516 87.4827 113.535 87.4358C113.555 87.3889 113.584 87.3463 113.62 87.3106C113.656 87.2748 113.699 87.2466 113.746 87.2274C113.794 87.2083 113.844 87.1986 113.895 87.199" fill="black"/>
<path d="M118.577 101.049L125.798 101.877C126.021 101.903 126.224 102.016 126.363 102.192C126.502 102.367 126.567 102.59 126.542 102.813L125.627 110.753C125.614 110.863 125.58 110.97 125.526 111.067C125.472 111.164 125.4 111.249 125.313 111.318C125.226 111.387 125.126 111.439 125.02 111.469C124.913 111.5 124.801 111.509 124.691 111.496L117.47 110.665C117.36 110.652 117.253 110.618 117.156 110.564C117.059 110.511 116.973 110.438 116.904 110.351C116.835 110.264 116.784 110.165 116.753 110.058C116.723 109.951 116.713 109.839 116.726 109.729L117.64 101.793C117.666 101.57 117.779 101.367 117.955 101.227C118.13 101.088 118.354 101.024 118.577 101.049" fill="#00B2B2"/>
<path d="M111.19 106.198L114.367 105.215C114.416 105.2 114.467 105.195 114.518 105.2C114.569 105.205 114.618 105.219 114.663 105.243C114.709 105.267 114.749 105.3 114.781 105.339C114.814 105.379 114.838 105.424 114.853 105.473L115.93 108.973C115.946 109.021 115.951 109.072 115.947 109.123C115.942 109.173 115.928 109.222 115.904 109.267C115.881 109.312 115.848 109.351 115.809 109.384C115.77 109.416 115.725 109.44 115.676 109.454L112.494 110.434C112.396 110.463 112.29 110.453 112.2 110.406C112.109 110.358 112.041 110.277 112.009 110.18L110.932 106.68C110.903 106.582 110.914 106.476 110.962 106.386C111.011 106.296 111.092 106.228 111.19 106.198" fill="#FFD2E1"/>
<path d="M112.818 83.454C112.741 83.454 112.668 83.4238 112.613 83.3698C112.559 83.3159 112.528 83.2426 112.527 83.166L112.071 43.013C112.071 42.9748 112.078 42.9369 112.092 42.9014C112.106 42.8659 112.127 42.8336 112.154 42.8063C112.181 42.779 112.213 42.7573 112.248 42.7423C112.283 42.7273 112.321 42.7194 112.359 42.719V42.719C112.397 42.7186 112.435 42.7257 112.471 42.74C112.506 42.7543 112.538 42.7754 112.566 42.8021C112.593 42.8288 112.615 42.8607 112.63 42.8959C112.645 42.931 112.653 42.9688 112.653 43.007L113.109 83.159C113.109 83.1972 113.102 83.2351 113.088 83.2706C113.074 83.306 113.053 83.3383 113.026 83.3656C112.999 83.3929 112.967 83.4147 112.932 83.4297C112.897 83.4447 112.859 83.4526 112.821 83.453L112.818 83.454Z" fill="black"/>
<path d="M116.001 42.811H84.722C83.6989 42.8099 82.718 42.4032 81.9944 41.68C81.2708 40.9567 80.8636 39.9761 80.862 38.953V14.503C80.8628 13.4792 81.2696 12.4976 81.9933 11.7734C82.7169 11.0492 83.6982 10.6416 84.722 10.64H116.001C117.025 10.6413 118.007 11.0488 118.73 11.773C119.454 12.4973 119.861 13.4791 119.862 14.503V38.953C119.86 39.9762 119.453 40.9571 118.729 41.6803C118.005 42.4036 117.024 42.8102 116.001 42.811V42.811ZM84.722 11.223C83.8527 11.2243 83.0194 11.5704 82.4049 12.1853C81.7903 12.8002 81.4448 13.6337 81.444 14.503V38.953C81.4453 39.8217 81.7912 40.6544 82.4057 41.2684C83.0203 41.8824 83.8533 42.2275 84.722 42.228H116.001C116.87 42.2275 117.703 41.8822 118.318 41.268C118.932 40.6538 119.278 39.8209 119.279 38.952V14.503C119.278 13.6337 118.933 12.8002 118.318 12.1853C117.704 11.5704 116.87 11.2243 116.001 11.223H84.722Z" fill="black"/>
<path d="M125.583 65.976C125.507 65.9758 125.433 65.9456 125.379 65.8919C125.325 65.8383 125.293 65.7654 125.292 65.689L124.892 38.719L119.541 38.665C119.464 38.665 119.39 38.6343 119.335 38.5796C119.28 38.525 119.25 38.4508 119.25 38.3735C119.25 38.2962 119.28 38.222 119.335 38.1674C119.39 38.1127 119.464 38.082 119.541 38.082V38.082L125.177 38.139C125.253 38.14 125.325 38.1706 125.379 38.2241C125.433 38.2777 125.464 38.3501 125.465 38.426L125.865 65.389L146.481 65.089L146.353 23.628C146.353 23.5512 146.383 23.4776 146.437 23.4229C146.491 23.3683 146.564 23.3371 146.641 23.336L160.218 23.186C160.257 23.1837 160.295 23.1896 160.332 23.2032C160.368 23.2168 160.401 23.2378 160.429 23.2649C160.456 23.2921 160.478 23.3247 160.492 23.3607C160.507 23.3967 160.513 23.4353 160.512 23.474C160.512 23.5123 160.505 23.5503 160.491 23.5858C160.477 23.6213 160.455 23.6537 160.429 23.681C160.402 23.7083 160.37 23.7301 160.334 23.745C160.299 23.7599 160.261 23.7677 160.223 23.768L146.934 23.915L147.068 65.373C147.068 65.4497 147.038 65.5233 146.985 65.578C146.931 65.6327 146.858 65.664 146.781 65.665L125.587 65.976H125.583Z" fill="black"/>
<path d="M180.675 47.212H164.074C163.05 47.2104 162.069 46.8027 161.345 46.0783C160.621 45.3539 160.215 44.3719 160.214 43.348V21.594C160.215 20.5702 160.622 19.5886 161.345 18.8644C162.069 18.1402 163.05 17.7326 164.074 17.731H180.674C181.697 17.7331 182.678 18.141 183.401 18.8652C184.124 19.5894 184.53 20.5708 184.53 21.594V43.348C184.53 44.3712 184.124 45.3527 183.401 46.0771C182.679 46.8015 181.698 47.2096 180.675 47.212V47.212ZM164.074 18.314C163.205 18.3153 162.371 18.6614 161.757 19.2763C161.142 19.8912 160.797 20.7247 160.796 21.594V43.348C160.796 44.2178 161.141 45.0521 161.756 45.6677C162.37 46.2832 163.204 46.6297 164.074 46.631H180.674C181.543 46.6291 182.375 46.2828 182.989 45.6678C183.602 45.0529 183.947 44.2197 183.947 43.351V21.594C183.947 20.7255 183.603 19.8924 182.989 19.2775C182.376 18.6626 181.544 18.3161 180.675 18.314H164.074Z" fill="black"/>
<path d="M124.782 112.558H108.181C107.158 112.556 106.177 112.148 105.454 111.424C104.731 110.7 104.325 109.718 104.325 108.695V86.941C104.326 85.9183 104.732 84.9377 105.455 84.2142C106.178 83.4908 107.158 83.0836 108.181 83.082H124.781C125.804 83.0831 126.785 83.4899 127.509 84.2134C128.233 84.9368 128.64 85.9178 128.641 86.941V108.695C128.64 109.719 128.234 110.7 127.51 111.424C126.787 112.148 125.806 112.556 124.782 112.558V112.558ZM108.181 83.665C107.313 83.6663 106.48 84.012 105.867 84.6261C105.253 85.2402 104.908 86.0727 104.907 86.941V108.695C104.907 109.564 105.252 110.397 105.866 111.012C106.48 111.627 107.312 111.973 108.181 111.975H124.781C125.65 111.974 126.484 111.628 127.098 111.013C127.713 110.398 128.058 109.564 128.059 108.695V86.941C128.058 86.0723 127.712 85.2395 127.098 84.6253C126.484 84.0112 125.651 83.6658 124.782 83.665H108.181Z" fill="black"/>
<path d="M182.3 105.997H160.352C158.714 105.994 157.145 105.341 155.988 104.182C154.831 103.023 154.181 101.453 154.18 99.815V68.086C154.181 66.4485 154.831 64.8782 155.988 63.7194C157.145 62.5607 158.714 61.9082 160.352 61.905H182.3C183.939 61.9066 185.51 62.5583 186.669 63.7172C187.827 64.876 188.479 66.4473 188.48 68.086V99.815C188.479 101.454 187.828 103.025 186.669 104.184C185.51 105.344 183.939 105.995 182.3 105.997V105.997ZM160.352 62.488C158.869 62.4906 157.447 63.0818 156.399 64.1317C155.351 65.1816 154.762 66.6045 154.762 68.088V99.815C154.762 101.298 155.351 102.721 156.399 103.771C157.447 104.821 158.869 105.412 160.352 105.415H182.3C183.784 105.413 185.207 104.823 186.256 103.773C187.305 102.723 187.894 101.299 187.894 99.815V68.086C187.893 66.6022 187.304 65.1792 186.255 64.1296C185.206 63.08 183.784 62.4896 182.3 62.488H160.352Z" fill="black"/>
<path d="M139.223 86.653C139.146 86.653 139.072 86.6226 139.018 86.5685C138.963 86.5143 138.933 86.4408 138.932 86.364L138.361 26.364H119.903C119.832 26.3557 119.767 26.3216 119.72 26.2683C119.672 26.2151 119.646 26.1463 119.646 26.075C119.646 26.0037 119.672 25.9349 119.72 25.8816C119.767 25.8284 119.832 25.7943 119.903 25.786H138.65C138.727 25.786 138.801 25.8164 138.855 25.8705C138.91 25.9247 138.94 25.9982 138.941 26.075L139.512 86.068L154.08 85.956C154.157 85.956 154.231 85.9867 154.286 86.0414C154.341 86.096 154.371 86.1702 154.371 86.2475C154.371 86.3248 154.341 86.399 154.286 86.4536C154.231 86.5083 154.157 86.539 154.08 86.539L139.222 86.653H139.223Z" fill="black"/>
<path d="M74.749 31.853C73.374 32.308 71.549 34.616 70.677 35.701C70.156 36.345 65.462 43.774 66.093 44.724C66.796 45.3105 67.5942 45.7725 68.453 46.09C72.275 47.185 70.922 48.144 73.799 43.353C74.81 41.667 75.799 39.89 76.754 38.182C77.5724 36.9678 78.1464 35.6057 78.444 34.172" fill="#FFBE00"/>
<path d="M30.726 142.981L10.622 147.32L9.63196 154.491C9.63196 154.491 17.732 153.563 27.942 152.727C38.152 151.891 30.726 142.981 30.726 142.981Z" fill="white"/>
<path d="M9.63195 154.782C9.59286 154.782 9.55427 154.773 9.51852 154.757C9.48277 154.741 9.4506 154.719 9.42395 154.69C9.39314 154.659 9.36969 154.621 9.35533 154.58C9.34096 154.539 9.33605 154.494 9.34095 154.451L10.334 147.28C10.3421 147.221 10.3682 147.165 10.4088 147.122C10.4494 147.078 10.5025 147.048 10.561 147.035L30.665 142.696C30.6847 142.692 30.7048 142.69 30.725 142.69C30.7675 142.689 30.8096 142.698 30.8485 142.715C30.8873 142.732 30.922 142.758 30.95 142.79C31.6194 143.619 32.2005 144.515 32.684 145.464C33.0778 146.217 33.3639 147.021 33.534 147.854C33.7125 148.663 33.6492 149.506 33.352 150.279C32.693 151.853 30.881 152.773 27.967 153.013C17.931 153.838 9.74095 154.771 9.66495 154.78L9.63195 154.782ZM30.611 143.303L10.883 147.561L9.97095 154.161C11.983 153.937 19.224 153.15 27.918 152.438C30.597 152.218 32.244 151.418 32.818 150.06C33.0593 149.43 33.1172 148.745 32.985 148.083C32.8554 147.377 32.6303 146.693 32.316 146.048C31.8466 145.075 31.2751 144.155 30.611 143.303V143.303Z" fill="black"/>
<path d="M46.039 150.809C51.478 149.22 62.051 118.967 65.528 105.048C68.409 93.52 56.16 89.203 54.043 89.733C49.326 90.915 42.906 90.433 40.992 106.962C39.078 123.491 37.464 138.752 37.464 138.752L22.551 142.63L21.851 154.64C21.851 154.64 36.876 153.49 46.039 150.809Z" fill="black"/>
<path d="M12.78 146.02L6.80798 145.358L6.87398 162.547C6.99518 162.725 7.16032 162.868 7.35333 162.963C7.54635 163.058 7.76068 163.102 7.97549 163.09C8.19029 163.077 8.39827 163.01 8.57919 162.893C8.76012 162.777 8.90783 162.615 9.00798 162.425C9.99998 160.936 12.853 155.38 12.853 155.38L12.78 146.02Z" fill="#FFBE00"/>
<path d="M8.271 163.07C8.19382 163.07 8.11981 163.039 8.06523 162.985C8.01066 162.93 7.98 162.856 7.98 162.779L7.961 145.692C7.96087 145.654 7.9683 145.616 7.98286 145.58C7.99743 145.545 8.01884 145.513 8.04588 145.486C8.07291 145.458 8.10504 145.437 8.14041 145.422C8.17578 145.408 8.2137 145.4 8.252 145.4V145.4C8.32918 145.4 8.4032 145.431 8.45777 145.485C8.51234 145.54 8.543 145.614 8.543 145.691L8.561 162.778C8.56113 162.816 8.5537 162.854 8.53914 162.89C8.52457 162.925 8.50316 162.957 8.47612 162.984C8.44909 163.012 8.41696 163.033 8.38159 163.048C8.34622 163.062 8.3083 163.07 8.27 163.07H8.271Z" fill="white"/>
<path d="M10.904 159.545C10.8555 159.545 10.8078 159.533 10.7652 159.51C10.7226 159.487 10.6864 159.454 10.66 159.413L9.52398 157.671C9.5031 157.639 9.48873 157.603 9.48171 157.566C9.47468 157.528 9.47512 157.489 9.48302 157.452C9.49091 157.414 9.50609 157.379 9.52771 157.347C9.54932 157.316 9.57694 157.289 9.60898 157.268C9.64102 157.247 9.67686 157.233 9.71446 157.226C9.75205 157.219 9.79066 157.219 9.82808 157.227C9.86551 157.235 9.90101 157.25 9.93256 157.272C9.96411 157.293 9.9911 157.321 10.012 157.353L11.147 159.095C11.1756 159.139 11.1919 159.19 11.194 159.242C11.1961 159.295 11.1841 159.347 11.1591 159.393C11.1341 159.439 11.0971 159.477 11.052 159.504C11.0069 159.531 10.9554 159.545 10.903 159.545" fill="white"/>
<path d="M11.52 158.048C11.4716 158.049 11.4238 158.037 11.381 158.015C11.3382 157.992 11.3017 157.959 11.275 157.919L10.141 156.168C10.1004 156.103 10.0869 156.025 10.1034 155.951C10.1199 155.876 10.165 155.811 10.229 155.769C10.2931 155.728 10.3709 155.713 10.4457 155.728C10.5205 155.744 10.5863 155.788 10.629 155.851L11.764 157.598C11.7926 157.642 11.8089 157.693 11.811 157.745C11.8131 157.798 11.8011 157.85 11.7761 157.896C11.7511 157.942 11.7141 157.98 11.669 158.007C11.6239 158.034 11.5724 158.048 11.52 158.048" fill="white"/>
<path d="M9.93799 156.465C9.84309 156.465 9.74895 156.448 9.65999 156.415C9.35699 156.315 9.24799 155.855 9.24799 155.68C9.26099 155.16 9.48499 154.966 9.67099 154.894C9.73966 154.868 9.81254 154.855 9.88599 154.855C10.0184 154.858 10.1482 154.893 10.265 154.955C10.3831 155.015 10.4903 155.095 10.582 155.191C10.6721 155.265 10.7378 155.365 10.7705 155.477C10.8031 155.589 10.8012 155.708 10.765 155.819C10.7076 155.997 10.5981 156.154 10.4507 156.269C10.3032 156.384 10.1246 156.452 9.93799 156.465V156.465ZM9.89299 155.436H9.87999C9.84398 155.517 9.82688 155.605 9.82999 155.693C9.84012 155.758 9.86144 155.82 9.89299 155.878C9.90629 155.879 9.91969 155.879 9.93299 155.878C10.033 155.878 10.121 155.797 10.203 155.638C10.1263 155.537 10.0167 155.465 9.89299 155.436V155.436Z" fill="white"/>
<path d="M52.303 162.994L52.461 181.023L58.833 183.567C58.833 183.567 59.998 175.222 62.047 163.161C64.096 151.1 52.303 162.994 52.303 162.994Z" fill="white"/>
<path d="M58.833 183.858C58.796 183.858 58.7593 183.851 58.725 183.837L52.354 181.293C52.3002 181.272 52.2539 181.235 52.2213 181.187C52.1887 181.139 52.1712 181.083 52.171 181.025L52.012 162.996C52.0116 162.957 52.0188 162.919 52.0332 162.884C52.0476 162.848 52.069 162.815 52.096 162.788L52.102 162.783C53.2072 161.695 54.3795 160.678 55.612 159.737C57.621 158.233 59.229 157.471 60.397 157.471C60.7257 157.465 61.0511 157.537 61.346 157.683C62.54 158.297 62.863 160.106 62.334 163.212C60.355 174.859 59.172 183.249 59.122 183.601V183.607C59.116 183.651 59.1002 183.693 59.0755 183.729C59.0509 183.766 59.0182 183.797 58.98 183.819C58.9352 183.845 58.8846 183.858 58.833 183.858V183.858ZM60.386 158.049C59.712 158.094 59.0563 158.288 58.466 158.616C57.6964 159.011 56.9606 159.468 56.266 159.983C54.9686 160.937 53.7417 161.983 52.595 163.113L52.751 180.825L58.597 183.159C58.812 181.677 59.953 173.748 61.76 163.115C62.227 160.371 61.992 158.671 61.079 158.201C60.8633 158.096 60.6257 158.044 60.386 158.05V158.049Z" fill="black"/>
<path d="M68.387 150.498C71.82 136.505 77.363 97.685 69.907 91.985C57.648 82.597 45.989 93.354 47.798 103.901C49.445 113.494 52.142 144.478 52.142 144.478L50.212 173.985H62.569C62.569 173.985 65.997 160.259 68.388 150.496" fill="black"/>
<path d="M51.388 179.749L51.052 185.749L67.787 186.423C67.9566 186.288 68.0893 186.113 68.1727 185.913C68.2562 185.713 68.2876 185.495 68.2641 185.28C68.2407 185.065 68.1631 184.859 68.0385 184.682C67.914 184.505 67.7466 184.362 67.552 184.267C66.052 183.203 60.497 180.082 60.497 180.082L51.388 179.749Z" fill="#FFBE00"/>
<path d="M67.941 185.314H67.928L51.291 184.597C51.2528 184.595 51.2152 184.586 51.1805 184.57C51.1458 184.554 51.1146 184.531 51.0886 184.503C51.0627 184.475 51.0426 184.442 51.0295 184.406C51.0163 184.37 51.0104 184.332 51.012 184.294C51.0123 184.256 51.0205 184.218 51.0359 184.183C51.0514 184.147 51.0738 184.116 51.1019 184.09C51.1299 184.063 51.163 184.043 51.1992 184.03C51.2353 184.017 51.2737 184.012 51.312 184.014L67.953 184.734C68.0302 184.736 68.1035 184.768 68.157 184.823C68.2104 184.879 68.2396 184.954 68.238 185.031C68.2364 185.108 68.2042 185.182 68.1485 185.235C68.0928 185.288 68.0182 185.318 67.941 185.316" fill="white"/>
<path d="M62.765 183.757C62.7022 183.757 62.6411 183.737 62.5907 183.699C62.5404 183.662 62.5035 183.609 62.4856 183.549C62.4677 183.489 62.4698 183.424 62.4915 183.365C62.5132 183.307 62.5534 183.256 62.606 183.222L64.244 182.154C64.2759 182.131 64.3121 182.116 64.3503 182.107C64.3885 182.099 64.428 182.099 64.4664 182.106C64.5048 182.113 64.5413 182.128 64.5738 182.15C64.6062 182.172 64.634 182.2 64.6553 182.233C64.6767 182.265 64.6913 182.302 64.6982 182.341C64.705 182.379 64.7041 182.419 64.6954 182.457C64.6867 182.495 64.6704 182.531 64.6474 182.562C64.6245 182.594 64.5955 182.621 64.562 182.641L62.924 183.707C62.8767 183.738 62.8214 183.754 62.765 183.754" fill="white"/>
<path d="M61.443 182.803C61.3802 182.803 61.3191 182.783 61.2687 182.745C61.2184 182.708 61.1815 182.655 61.1636 182.595C61.1457 182.535 61.1478 182.47 61.1695 182.411C61.1912 182.353 61.2313 182.302 61.284 182.268L62.922 181.199C62.9539 181.176 62.9901 181.161 63.0283 181.152C63.0665 181.144 63.106 181.144 63.1444 181.151C63.1828 181.158 63.2193 181.173 63.2517 181.195C63.2842 181.217 63.312 181.245 63.3333 181.278C63.3547 181.31 63.3693 181.347 63.3761 181.386C63.383 181.424 63.3821 181.464 63.3734 181.502C63.3646 181.54 63.3483 181.576 63.3254 181.607C63.3025 181.639 63.2734 181.666 63.24 181.686L61.602 182.752C61.5547 182.783 61.4994 182.799 61.443 182.799" fill="white"/>
<path d="M61.103 183.725C60.9684 183.724 60.8351 183.699 60.709 183.652C60.5768 183.592 60.4625 183.499 60.3769 183.382C60.2914 183.264 60.2377 183.127 60.221 182.983C60.1943 182.862 60.2004 182.735 60.2387 182.617C60.277 182.499 60.3462 182.393 60.439 182.31C60.5467 182.225 60.6807 182.18 60.818 182.183C60.9467 182.186 61.0736 182.214 61.192 182.264C61.792 182.503 61.926 182.964 61.803 183.287C61.7534 183.415 61.6645 183.524 61.549 183.599C61.4158 183.684 61.2608 183.727 61.103 183.725ZM60.82 182.765C60.8124 182.763 60.8046 182.763 60.797 182.765C60.7846 182.826 60.7887 182.889 60.809 182.947C60.8214 183.011 60.8571 183.067 60.909 183.106C60.971 183.13 61.0366 183.143 61.103 183.144C61.194 183.144 61.246 183.112 61.258 183.08C61.28 183.023 61.209 182.896 60.975 182.804C60.9262 182.781 60.8736 182.768 60.82 182.765V182.765Z" fill="white"/>
<path d="M38.425 138.094C37.9949 138.104 37.5659 138.048 37.153 137.927C37.1124 137.919 37.0741 137.902 37.0406 137.878C37.007 137.853 36.979 137.822 36.9585 137.786C36.9379 137.751 36.9252 137.711 36.9213 137.669C36.9174 137.628 36.9223 137.587 36.9357 137.548C36.9491 137.508 36.9707 137.473 36.9991 137.442C37.0274 137.412 37.0619 137.389 37.1002 137.373C37.1384 137.357 37.1796 137.35 37.221 137.351C37.2623 137.352 37.3029 137.363 37.34 137.381C38.3409 137.615 39.3886 137.551 40.353 137.195C40.3894 137.183 40.4278 137.179 40.4659 137.182C40.504 137.186 40.5411 137.196 40.575 137.214C40.6089 137.232 40.6391 137.256 40.6637 137.285C40.6883 137.314 40.7069 137.348 40.7185 137.384C40.7301 137.421 40.7343 137.459 40.7311 137.497C40.7278 137.535 40.717 137.573 40.6995 137.606C40.6819 137.64 40.6577 137.671 40.6285 137.695C40.5993 137.72 40.5654 137.738 40.529 137.75C39.8508 137.972 39.1425 138.088 38.429 138.094" fill="white"/>
<path d="M40.115 141.057C40.0765 141.057 40.0384 141.05 40.0029 141.035C39.9673 141.02 39.9351 140.998 39.908 140.971L39.676 140.736C39.5043 140.541 39.308 140.37 39.092 140.226C38.922 140.105 38.652 139.915 38.168 139.549C38.1063 139.503 38.0656 139.434 38.0549 139.357C38.0441 139.281 38.0641 139.203 38.1105 139.141C38.1569 139.08 38.2259 139.039 38.3023 139.028C38.3788 139.018 38.4563 139.038 38.518 139.084C38.998 139.445 39.261 139.633 39.429 139.752C39.6728 139.915 39.8949 140.108 40.09 140.327L40.321 140.561C40.3629 140.602 40.3917 140.654 40.4035 140.711C40.4153 140.768 40.4097 140.827 40.3874 140.881C40.3651 140.935 40.3271 140.981 40.2784 141.013C40.2296 141.045 40.1723 141.062 40.114 141.061" fill="white"/>
<path d="M51.607 145.01C51.5608 145.01 51.5152 144.999 51.4741 144.978C51.4329 144.957 51.3974 144.926 51.3704 144.889C51.3435 144.851 51.3258 144.808 51.319 144.762C51.3121 144.716 51.3162 144.67 51.331 144.626C54.966 133.744 60.316 112.152 60.373 111.935C60.3897 111.868 60.4298 111.809 60.486 111.768C60.537 111.732 65.602 108.104 68.247 104.189C68.2909 104.127 68.3575 104.084 68.4324 104.07C68.5074 104.057 68.5848 104.073 68.6479 104.116C68.711 104.158 68.7549 104.224 68.7701 104.299C68.7852 104.373 68.7705 104.451 68.729 104.515C66.216 108.229 61.607 111.671 60.916 112.178C60.504 113.82 55.396 134.295 51.884 144.811C51.8647 144.869 51.8277 144.92 51.7782 144.955C51.7287 144.991 51.6691 145.011 51.608 145.011" fill="white"/>
<path d="M74.985 51.227C74.6433 49.7513 74.5223 48.2332 74.626 46.722C74.665 43.565 74.604 40.19 74.604 40.19L71.176 38.101C69.438 43.201 70.112 43.167 66.237 48.924C65.19 50.487 54.719 50.877 54.719 50.877C54.719 50.877 54.701 54.852 54.54 55.364C50.926 66.922 70.274 75.564 70.274 75.564L81.255 57.864C81.255 57.864 75.455 53.197 74.985 51.227" fill="white"/>
<path d="M70.274 75.857C70.233 75.8572 70.1924 75.8486 70.155 75.832C70.143 75.827 68.922 75.279 67.129 74.266C66.103 73.686 65.101 73.073 64.152 72.443C63.0167 71.6929 61.9203 70.8855 60.867 70.024C55.03 65.224 52.746 60.124 54.267 55.277C54.3978 53.8141 54.4532 52.3455 54.433 50.877C54.4329 50.8018 54.4621 50.7295 54.5144 50.6754C54.5666 50.6213 54.6378 50.5896 54.713 50.587C58.702 50.439 65.294 49.812 66 48.763C68.936 44.4 69.243 43.38 69.983 40.917V40.904C70.221 40.111 70.492 39.212 70.901 38.009C70.9148 37.9676 70.9378 37.9299 70.9683 37.8987C70.9988 37.8676 71.0359 37.8437 71.077 37.829C71.109 37.817 71.1428 37.8109 71.177 37.811C71.2306 37.8111 71.2832 37.826 71.329 37.854L74.757 39.942C74.799 39.9674 74.8338 40.0029 74.8583 40.0454C74.8828 40.0879 74.8961 40.136 74.897 40.185V40.21C74.907 40.8 74.954 43.89 74.918 46.725L74.907 47.25C74.8365 48.5639 74.9578 49.881 75.267 51.16C75.632 52.695 79.844 56.36 81.436 57.638C81.4913 57.6825 81.5285 57.7457 81.5404 57.8157C81.5524 57.8857 81.5384 57.9576 81.501 58.018L70.52 75.718C70.4944 75.7603 70.4583 75.7954 70.4152 75.8197C70.3721 75.8441 70.3235 75.8569 70.274 75.857V75.857ZM71.336 38.54C70.996 39.554 70.757 40.348 70.547 41.049L70.537 41.083C69.779 43.606 69.465 44.65 66.481 49.083C66.3 49.353 65.747 50.173 60.118 50.772C57.928 51.005 55.818 51.115 55.011 51.152C55.0323 52.5878 54.9685 54.0237 54.82 55.452C54.4295 56.6862 54.3027 57.9887 54.448 59.275C54.6011 60.5118 54.9668 61.7128 55.529 62.825C56.7624 65.1425 58.4344 67.1983 60.452 68.878C62.3016 70.4777 64.2909 71.9084 66.396 73.153C68.196 74.234 69.633 74.939 70.166 75.192L80.873 57.928C80.325 57.479 78.904 56.292 77.56 54.983C76.9039 54.3561 76.2852 53.6913 75.707 52.992C75.2615 52.4992 74.9212 51.9208 74.707 51.292C74.3854 49.9658 74.2591 48.5997 74.332 47.237L74.34 46.716C74.374 44.016 74.334 41.164 74.321 40.353L71.336 38.54Z" fill="black"/>
<path d="M82.3979 72.137L88.9649 62.531L99.1489 69.343C99.1489 69.343 111.398 58.192 117.127 54.895C119.929 53.512 122.846 52.3744 125.844 51.495C126.426 52.082 122.205 54.468 122.205 54.468C122.205 54.468 125.068 54.668 126.347 53.549C127.013 52.962 125.375 51.82 126.269 51.316C126.917 50.957 128.569 53.509 127.924 54.534C127.098 55.845 123.952 55.884 123.952 55.884C123.952 55.884 127.722 56.155 127.552 57.084C127.403 57.92 126.852 57.215 123.839 57.25C127.052 57.964 127.315 57.697 127.311 58.375C127.311 59.189 126.992 58.826 123.599 58.686C125.56 59.128 127.124 59.443 126.611 60.096C126.125 60.709 124.334 59.785 120.811 59.229C120.298 59.147 104.132 80.849 97.9979 79.361C93.6589 78.306 82.3979 72.137 82.3979 72.137Z" fill="white"/>
<path d="M98.629 79.725C98.3933 79.7264 98.1583 79.6995 97.929 79.645C93.599 78.595 82.719 72.645 82.258 72.395C82.2223 72.3755 82.1911 72.3486 82.1664 72.3163C82.1418 72.2839 82.1241 72.2468 82.1147 72.2072C82.1053 72.1676 82.1043 72.1265 82.1117 72.0865C82.1192 72.0465 82.1349 72.0085 82.158 71.975L88.726 62.369C88.7692 62.3062 88.8352 62.2629 88.91 62.2483C88.9848 62.2337 89.0624 62.249 89.126 62.291L99.126 68.977C99.985 68.2 103.067 65.435 106.626 62.452C108.684 60.725 110.548 59.222 112.164 57.986C113.703 56.7747 115.314 55.6586 116.989 54.644C118.73 53.7333 120.539 52.959 122.4 52.328C123.526 51.8432 124.699 51.4746 125.9 51.228H125.907C125.972 51.1643 126.045 51.1098 126.125 51.066C126.211 51.0184 126.308 50.9939 126.407 50.995C126.576 51.0148 126.739 51.0683 126.887 51.1522C127.036 51.2362 127.165 51.349 127.269 51.484C127.986 52.244 128.721 53.824 128.169 54.693C127.654 55.3386 126.914 55.7669 126.098 55.893C126.695 55.9651 127.256 56.2184 127.705 56.619C127.764 56.6904 127.806 56.7737 127.83 56.8631C127.854 56.9524 127.858 57.0459 127.842 57.137C127.837 57.2754 127.789 57.4088 127.705 57.5188C127.621 57.6288 127.505 57.71 127.373 57.751C127.462 57.8274 127.53 57.9251 127.571 58.0349C127.611 58.1448 127.623 58.2632 127.606 58.379C127.619 58.4917 127.608 58.6059 127.573 58.714C127.539 58.8221 127.482 58.9217 127.406 59.006C127.318 59.0754 127.216 59.1266 127.108 59.1568C127 59.187 126.887 59.1956 126.775 59.182C126.682 59.182 126.575 59.182 126.437 59.169C126.675 59.2585 126.868 59.4381 126.974 59.669C127.008 59.7723 127.014 59.8828 126.992 59.9893C126.969 60.0958 126.919 60.1943 126.846 60.275C126.751 60.3856 126.63 60.4717 126.494 60.5261C126.359 60.5806 126.212 60.6018 126.067 60.588C125.418 60.5357 124.777 60.415 124.154 60.228H124.145C123.285 60.015 122.215 59.75 120.877 59.535C120.604 59.782 119.723 60.835 118.703 62.044C116.247 64.965 112.536 69.379 108.783 73.069C107.083 74.7896 105.241 76.3648 103.278 77.778C102.497 78.3314 101.665 78.8076 100.792 79.2C100.114 79.5184 99.3779 79.6969 98.629 79.725V79.725ZM89.043 62.934L82.821 72.034C83.627 72.47 86.502 74.015 89.656 75.562C91.415 76.425 92.978 77.149 94.3 77.714C95.5192 78.2634 96.7785 78.7191 98.067 79.077C98.2636 79.1235 98.465 79.1463 98.667 79.145C99.3846 79.1132 100.088 78.9316 100.731 78.612C101.586 78.2067 102.401 77.7212 103.165 77.162C105.106 75.721 106.931 74.1291 108.622 72.401C112.349 68.701 116.047 64.301 118.257 61.669C120.341 59.189 120.578 58.933 120.784 58.933C120.811 58.9339 120.837 58.9369 120.863 58.942C122.263 59.164 123.383 59.442 124.279 59.661H124.286C124.868 59.8324 125.464 59.9486 126.068 60.008C126.234 60.008 126.34 59.977 126.39 59.914C126.406 59.8968 126.418 59.8763 126.426 59.854C126.326 59.594 124.867 59.267 123.803 59.028L123.543 58.97C123.472 58.9543 123.409 58.9125 123.368 58.8528C123.326 58.7931 123.309 58.72 123.319 58.648C123.328 58.5799 123.361 58.5173 123.412 58.471C123.463 58.4248 123.528 58.3979 123.597 58.395H123.614C124.605 58.436 125.337 58.495 125.871 58.54H125.887C126.241 58.569 126.575 58.597 126.787 58.597C126.864 58.6038 126.942 58.5946 127.016 58.57C127.016 58.57 127.016 58.565 127.016 58.555C127.016 58.545 127.023 58.479 127.024 58.372C127.03 58.3163 127.025 58.26 127.01 58.206C126.698 58.0885 126.371 58.0122 126.039 57.979H126.014C125.495 57.887 124.785 57.761 123.78 57.538C123.709 57.5234 123.647 57.4831 123.604 57.4249C123.561 57.3666 123.542 57.2946 123.549 57.2228C123.557 57.1511 123.591 57.0846 123.644 57.0364C123.698 56.9882 123.768 56.9617 123.84 56.962H124.085C124.904 56.9611 125.722 57.0226 126.532 57.146H126.54C126.732 57.1773 126.926 57.198 127.12 57.208C127.154 57.2108 127.188 57.206 127.22 57.194C127.246 57.1452 127.262 57.0919 127.268 57.037C127.268 57.028 127.268 57.014 127.244 56.979C126.923 56.566 125.113 56.26 123.93 56.174C123.856 56.168 123.786 56.1336 123.737 56.0779C123.687 56.0222 123.66 55.9496 123.663 55.8749C123.665 55.8003 123.696 55.7294 123.749 55.6769C123.802 55.6245 123.873 55.5944 123.948 55.593C124.779 55.583 127.068 55.347 127.676 54.385C127.952 53.949 127.646 53.031 127.201 52.35C126.825 51.77 126.507 51.575 126.413 51.575H126.407C126.245 51.667 126.217 51.746 126.513 52.326C126.731 52.754 127.03 53.339 126.543 53.769C125.981 54.2106 125.314 54.499 124.608 54.606C123.991 54.7222 123.365 54.7795 122.737 54.777C122.416 54.777 122.21 54.763 122.188 54.761C122.125 54.7568 122.066 54.7325 122.018 54.6917C121.971 54.651 121.938 54.596 121.924 54.5348C121.91 54.4737 121.916 54.4098 121.942 54.3525C121.967 54.2952 122.01 54.2477 122.065 54.217C123.259 53.5768 124.379 52.8086 125.407 51.926C124.594 52.176 123.112 52.668 121.607 53.226C120.115 53.7537 118.665 54.3945 117.271 55.143C115.477 56.2335 113.754 57.4359 112.112 58.743C110.399 60.066 108.424 61.672 106.244 63.518C102.526 66.664 99.473 69.435 99.344 69.551C99.2959 69.5949 99.2345 69.6214 99.1696 69.6263C99.1047 69.6312 99.0401 69.6142 98.986 69.578L89.043 62.934ZM125.843 52.282C125.066 53.0144 124.204 53.6522 123.277 54.182C124.3 54.1978 125.304 53.9028 126.156 53.336C126.283 53.224 126.212 53.026 125.992 52.595C125.945 52.502 125.891 52.395 125.843 52.282V52.282Z" fill="black"/>
<path d="M50.136 66.629C50.136 66.629 35.812 101.204 37.419 102.644C37.606 102.815 54.009 99.444 64.019 102.312C71.401 104.427 73.713 107.876 76.002 107.312C75.87 106.243 85.343 74.269 85.343 74.269L88.268 76.038L93.431 64.419C93.431 64.419 82.533 55.845 77.853 54.585L70.253 56.192L62.078 49.519C62.078 49.519 52.324 50.36 47.712 52.107C43.1 53.854 35.743 61.331 35.743 61.331L46.963 72.054L50.136 66.629Z" fill="#00B2B2"/>
<path d="M69.806 58.957C69.738 58.9571 69.6722 58.9334 69.62 58.89L59.09 50.164C59.0605 50.1396 59.0362 50.1096 59.0184 50.0758C59.0006 50.0419 58.9896 50.0049 58.986 49.9669C58.9825 49.9288 58.9865 49.8904 58.9978 49.8539C59.0091 49.8173 59.0275 49.7834 59.052 49.754C59.0764 49.7246 59.1064 49.7003 59.1402 49.6824C59.174 49.6646 59.211 49.6536 59.2491 49.6501C59.2872 49.6465 59.3256 49.6506 59.3621 49.6619C59.3986 49.6732 59.4325 49.6916 59.462 49.716L69.875 58.349L80.569 55.368C80.6058 55.3577 80.6443 55.3549 80.6822 55.3595C80.7202 55.3641 80.7569 55.3762 80.7901 55.395C80.8234 55.4138 80.8527 55.439 80.8763 55.4691C80.8998 55.4992 80.9172 55.5337 80.9275 55.5705C80.9377 55.6073 80.9406 55.6458 80.936 55.6838C80.9313 55.7217 80.9193 55.7584 80.9005 55.7917C80.8817 55.825 80.8565 55.8542 80.8264 55.8778C80.7963 55.9013 80.7618 55.9187 80.725 55.929L69.885 58.949C69.8596 58.9562 69.8333 58.9599 69.807 58.96" fill="black"/>
<path d="M86.64 75.108C86.5913 75.1079 86.5434 75.0956 86.5007 75.0721C86.458 75.0487 86.4219 75.015 86.3956 74.974C86.3693 74.933 86.3538 74.8861 86.3503 74.8375C86.3469 74.7889 86.3557 74.7403 86.376 74.696L91.573 63.378C91.6052 63.3078 91.664 63.2534 91.7363 63.2265C91.8087 63.1997 91.8888 63.2028 91.959 63.235C92.0291 63.2672 92.0836 63.326 92.1104 63.3984C92.1372 63.4708 92.1342 63.5508 92.102 63.621L86.905 74.942C86.8817 74.9928 86.8444 75.0358 86.7974 75.0659C86.7504 75.0961 86.6958 75.1121 86.64 75.112" fill="black"/>
<path d="M41.63 61.095L50.024 65.806L44.774 76.095C44.774 76.095 51.805 74.352 58.215 73.529C62.471 72.982 69.131 73.029 69.249 73.805C69.367 74.581 64.814 74.978 64.814 74.978C64.814 74.978 73.168 76.567 72.651 77.504C72.187 78.345 66.626 76.357 66.626 76.357C66.626 76.357 73.307 79.172 72.532 79.829C71.757 80.486 66.21 77.719 66.21 77.719C66.21 77.719 71.433 80.99 71.101 81.319C70.201 82.212 65.685 78.797 65.252 79.169C64.819 79.541 69.792 82.098 69.368 82.812C68.968 83.482 64.105 79.412 60.537 79.327C60.012 79.314 36.819 88.937 32.418 83.927C28.017 78.917 41.63 61.095 41.63 61.095Z" fill="white"/>
<path d="M37.211 85.655C36.1707 85.6775 35.1327 85.5478 34.13 85.27C33.3916 85.0721 32.723 84.6725 32.199 84.116C31.6309 83.4259 31.3068 82.5674 31.277 81.674C31.2307 80.5782 31.36 79.482 31.66 78.427C32.4302 75.7846 33.5189 73.2456 34.902 70.866C36.066 68.748 37.477 66.482 39.091 64.131C40.319 62.341 41.229 61.141 41.399 60.919C41.4261 60.8835 41.4611 60.8547 41.5011 60.8349C41.5412 60.8152 41.5853 60.8049 41.63 60.805C41.6796 60.8054 41.7284 60.8181 41.772 60.842L50.166 65.553C50.2316 65.5898 50.2804 65.6505 50.3022 65.7224C50.324 65.7944 50.3171 65.872 50.283 65.939L45.321 75.66C46.994 75.26 52.865 73.919 58.178 73.236C60.3328 72.9969 62.499 72.875 64.667 72.871C65.7844 72.8536 66.9017 72.9171 68.01 73.061C68.975 73.21 69.489 73.444 69.537 73.761C69.5472 73.8319 69.5423 73.9042 69.5226 73.9731C69.503 74.0421 69.469 74.1061 69.423 74.161C69.1204 74.4364 68.7477 74.6233 68.346 74.701C67.7894 74.8542 67.2235 74.9717 66.652 75.053C68.222 75.389 69.534 75.72 70.552 76.036C71.96 76.473 72.752 76.867 72.916 77.208C72.9496 77.2763 72.9662 77.3517 72.9643 77.4278C72.9623 77.504 72.942 77.5785 72.905 77.645C72.78 77.87 72.454 77.984 71.934 77.984C71.4221 77.9695 70.9129 77.9041 70.414 77.789C71.99 78.611 72.819 79.23 72.88 79.629C72.8927 79.7071 72.8848 79.7872 72.8569 79.8612C72.829 79.9353 72.7821 80.0007 72.721 80.051C72.5517 80.167 72.3475 80.2211 72.143 80.204C71.212 80.1157 70.3016 79.8759 69.448 79.494C70.716 80.385 71.374 80.973 71.404 81.241C71.4101 81.2933 71.4043 81.3463 71.387 81.396C71.3696 81.4457 71.3413 81.4908 71.304 81.528C71.2173 81.6092 71.1149 81.672 71.0032 81.7124C70.8914 81.7528 70.7726 81.77 70.654 81.763C69.3788 81.5076 68.1668 81.0023 67.088 80.276C66.861 80.15 66.638 80.028 66.42 79.911C66.637 80.063 66.869 80.221 67.074 80.359L67.128 80.395C68.955 81.634 69.972 82.364 69.615 82.963C69.5766 83.0345 69.5185 83.0935 69.4476 83.133C69.3767 83.1725 69.296 83.1909 69.215 83.186C68.3891 82.9803 67.609 82.6218 66.915 82.129C65.081 81.092 62.57 79.671 60.52 79.62C60.446 79.638 59.82 79.867 59.095 80.131L59.01 80.162C54.4581 81.8797 49.8127 83.3383 45.096 84.531C42.5176 85.1978 39.8729 85.5748 37.211 85.655V85.655ZM41.71 61.474C41.339 61.974 40.344 63.322 39.115 65.151C37.572 67.451 36.234 69.635 35.139 71.651C33.8811 73.8532 32.8882 76.1965 32.181 78.632C31.9119 79.585 31.7941 80.5744 31.832 81.564C31.8511 82.3553 32.1325 83.1179 32.632 83.732C33.1011 84.2269 33.6998 84.58 34.36 84.751C35.2649 84.9968 36.2005 85.1113 37.138 85.091C38.4278 85.0747 39.7146 84.9601 40.987 84.748C42.439 84.52 44.087 84.175 45.887 83.72C49.487 82.809 53.842 81.427 58.818 79.613L59.218 79.469C59.6363 79.2827 60.0717 79.1374 60.518 79.035H60.545C62.74 79.089 65.324 80.551 67.21 81.618C67.7877 81.9666 68.3869 82.2782 69.004 82.551C68.3247 81.9238 67.5881 81.3617 66.804 80.872C65.404 79.926 64.956 79.591 64.935 79.248C64.9314 79.1917 64.941 79.1353 64.9628 79.0832C64.9847 79.0312 65.0183 78.9849 65.061 78.948C65.1397 78.8801 65.2411 78.8444 65.345 78.848C66.0708 79.0259 66.7578 79.3353 67.372 79.761C68.3815 80.4051 69.486 80.8866 70.645 81.188H70.702C69.2275 80.0115 67.6768 78.9338 66.06 77.962C66.0062 77.9285 65.9649 77.8784 65.9422 77.8193C65.9195 77.7602 65.9167 77.6953 65.9342 77.6344C65.9517 77.5736 65.9886 77.5201 66.0393 77.4821C66.09 77.4442 66.1517 77.4237 66.215 77.424C66.2601 77.424 66.3047 77.4346 66.345 77.455C68.1594 78.4634 70.1108 79.2025 72.138 79.649C72.1789 79.6493 72.2198 79.6456 72.26 79.638C71.83 79.084 69.001 77.669 66.516 76.622C66.4546 76.5955 66.4042 76.5487 66.3732 76.4895C66.3422 76.4303 66.3324 76.3622 66.3455 76.2967C66.3586 76.2312 66.3938 76.1721 66.4452 76.1294C66.4966 76.0867 66.5612 76.0629 66.628 76.062C66.6621 76.062 66.696 76.0681 66.728 76.08C68.4306 76.7517 70.2114 77.205 72.028 77.429C72.1333 77.4336 72.2385 77.4198 72.339 77.388C71.805 76.858 68.065 75.888 64.758 75.26C64.6888 75.247 64.6266 75.2094 64.583 75.1542C64.5394 75.0989 64.5173 75.0296 64.5209 74.9593C64.5244 74.889 64.5533 74.8224 64.6023 74.7717C64.6512 74.7211 64.7168 74.6899 64.787 74.684C66.1991 74.6384 67.5937 74.3568 68.913 73.851C67.4457 73.4922 65.9326 73.3574 64.425 73.451C62.3615 73.4477 60.2997 73.57 58.251 73.817C51.945 74.627 44.911 76.359 44.842 76.377C44.7877 76.3907 44.7307 76.3884 44.6777 76.3705C44.6247 76.3525 44.578 76.3197 44.5431 76.2759C44.5083 76.2321 44.4869 76.1792 44.4813 76.1235C44.4758 76.0679 44.4864 76.0118 44.512 75.962L49.637 65.924L41.71 61.474Z" fill="black"/>
<path d="M43.098 56.345C41.59 57.102 36.79 61.196 36.79 61.634C36.79 62.245 47.304 72.115 47.741 71.612C48.467 70.776 53.072 63.56 53.072 62.702" fill="#00B2B2"/>
<path d="M48.487 70.1C48.4122 70.0996 48.3405 70.0702 48.287 70.018C46.666 68.45 44.893 66.808 43.177 65.219C41.314 63.494 39.387 61.71 37.641 60C37.6136 59.9732 37.5918 59.9413 37.5767 59.9061C37.5617 59.8708 37.5537 59.833 37.5533 59.7947C37.5525 59.7173 37.5824 59.6428 37.6365 59.5875C37.6906 59.5322 37.7644 59.5007 37.8418 59.4998C37.9192 59.499 37.9937 59.5289 38.049 59.583C39.789 61.283 41.713 63.069 43.573 64.792C45.291 66.382 47.067 68.027 48.689 69.6C48.7305 69.6402 48.759 69.6918 48.7711 69.7482C48.7832 69.8047 48.7781 69.8635 48.7567 69.9171C48.7353 69.9707 48.6983 70.0167 48.6507 70.0493C48.603 70.0819 48.5467 70.0995 48.489 70.1" fill="black"/>
<path d="M77.432 43.521C78.332 44.348 79.468 42.935 78.715 42.168C78.6232 42.0781 78.5116 42.0111 78.3891 41.9724C78.2666 41.9337 78.1368 41.9243 78.01 41.945" fill="white"/>
<path d="M78.018 44.063C77.725 44.0582 77.4451 43.9412 77.236 43.736C77.1791 43.6837 77.1453 43.611 77.142 43.5339C77.1387 43.4567 77.1662 43.3814 77.2185 43.3245C77.2707 43.2676 77.3434 43.2338 77.4206 43.2305C77.4978 43.2272 77.5731 43.2547 77.63 43.307C77.683 43.3634 77.7475 43.4079 77.8191 43.4376C77.8906 43.4672 77.9677 43.4813 78.0451 43.479C78.1225 43.4766 78.1986 43.4578 78.2682 43.4239C78.3378 43.3899 78.3994 43.3415 78.449 43.282C78.5765 43.1685 78.6542 43.0094 78.6652 42.8391C78.6763 42.6688 78.6198 42.501 78.508 42.372C78.4485 42.3152 78.3765 42.2731 78.2979 42.2489C78.2193 42.2248 78.1361 42.2193 78.055 42.233C78.0171 42.2388 77.9785 42.2372 77.9414 42.2281C77.9042 42.219 77.8692 42.2027 77.8383 42.1801C77.7759 42.1344 77.7343 42.0659 77.7225 41.9895C77.7107 41.9131 77.7297 41.8352 77.7753 41.7728C77.821 41.7105 77.8896 41.6688 77.966 41.657C78.1384 41.6285 78.3151 41.6414 78.4816 41.6948C78.648 41.7482 78.7993 41.8405 78.923 41.964C79.1434 42.2003 79.2612 42.5143 79.2505 42.8373C79.2398 43.1602 79.1015 43.4658 78.866 43.687C78.7566 43.8026 78.6252 43.8953 78.4796 43.9597C78.3341 44.0241 78.1771 44.0589 78.018 44.062" fill="black"/>
<path d="M79.679 35.256C79.1887 39.2313 78.3225 43.1512 77.092 46.963C76.7246 47.8218 76.0554 48.5163 75.2107 48.9152C74.3661 49.3141 73.4046 49.3898 72.508 49.128C71.5669 48.9416 70.7359 48.3946 70.1926 47.6039C69.6493 46.8132 69.4366 45.8414 69.6 44.896C70.1448 41.529 70.9234 38.2039 71.93 34.945C72.6545 33.7009 73.8278 32.7813 75.209 32.375C77.309 31.675 79.909 33.597 79.679 35.256" fill="white"/>
<path d="M73.566 49.539C73.1873 49.539 72.8098 49.4954 72.441 49.409C71.4265 49.2099 70.5305 48.6209 69.9454 47.7685C69.3604 46.9161 69.133 45.8682 69.312 44.85C69.8613 41.4535 70.6489 38.0999 71.669 34.814C72.4307 33.5023 73.6643 32.5309 75.118 32.098C75.447 31.9909 75.791 31.9372 76.137 31.939C77.1237 31.957 78.074 32.3144 78.828 32.951C79.1991 33.2152 79.4979 33.5683 79.6969 33.9781C79.8959 34.3878 79.9888 34.841 79.967 35.296C79.4741 39.2952 78.6015 43.2383 77.361 47.072C77.0544 47.866 76.4913 48.5348 75.761 48.972C75.0932 49.3539 74.3352 49.5497 73.566 49.539V49.539ZM76.143 32.519C75.8568 32.5173 75.5722 32.5615 75.3 32.65C73.9933 33.0335 72.8814 33.8998 72.19 35.073C71.1974 38.305 70.4282 41.6014 69.888 44.939C69.7367 45.8114 69.9332 46.7083 70.4356 47.4374C70.9379 48.1665 71.706 48.6697 72.575 48.839C72.8909 48.911 73.214 48.9469 73.538 48.946C74.1732 48.953 74.8005 48.8044 75.365 48.513C76.0337 48.1481 76.5504 47.5567 76.822 46.845C78.0441 43.0583 78.9039 39.1642 79.39 35.215C79.3962 34.8583 79.3138 34.5056 79.1503 34.1885C78.9868 33.8714 78.7472 33.5998 78.453 33.398C77.8065 32.8489 76.991 32.5386 76.143 32.519V32.519Z" fill="black"/>
<path d="M76.102 43.872C75.836 43.8547 75.577 43.7797 75.343 43.652C75.2736 43.6179 75.2207 43.5577 75.1957 43.4845C75.1708 43.4114 75.1759 43.3313 75.21 43.262C75.2441 43.1926 75.3043 43.1397 75.3774 43.1147C75.4506 43.0898 75.5306 43.0949 75.6 43.129C75.993 43.323 76.154 43.296 76.179 43.272C76.315 43.142 76.179 42.407 75.896 41.759C75.8652 41.6882 75.8638 41.608 75.8922 41.5362C75.9205 41.4644 75.9762 41.4068 76.047 41.376C76.1178 41.3452 76.1979 41.3439 76.2698 41.3722C76.3416 41.4005 76.3992 41.4562 76.43 41.527C76.596 41.91 77.1 43.198 76.581 43.693C76.4513 43.8136 76.279 43.878 76.102 43.872" fill="black"/>
<path d="M75.059 41.057C75.0818 40.9793 75.073 40.8957 75.0347 40.8244C74.9963 40.7531 74.9314 40.6998 74.854 40.676C74.8142 40.6681 74.7732 40.6684 74.7335 40.6768C74.6938 40.6852 74.6562 40.7016 74.623 40.725C74.5898 40.7484 74.5617 40.7782 74.5404 40.8128C74.5191 40.8473 74.505 40.8858 74.499 40.926C74.4868 40.9645 74.4825 41.005 74.4863 41.0452C74.4901 41.0853 74.502 41.1243 74.5212 41.1598C74.5404 41.1953 74.5666 41.2265 74.5982 41.2516C74.6298 41.2768 74.6661 41.2952 74.705 41.306C74.7848 41.3188 74.8665 41.3 74.9327 41.2535C74.9988 41.207 75.0441 41.1365 75.059 41.057Z" fill="black"/>
<path d="M77.901 41.604C77.9238 41.5263 77.915 41.4427 77.8766 41.3714C77.8383 41.3001 77.7734 41.2468 77.696 41.223C77.6562 41.2151 77.6152 41.2154 77.5755 41.2238C77.5357 41.2322 77.4982 41.2486 77.465 41.272C77.4318 41.2954 77.4037 41.3252 77.3824 41.3598C77.3611 41.3943 77.347 41.4328 77.341 41.473C77.3288 41.5114 77.3244 41.552 77.3282 41.5922C77.3321 41.6323 77.3439 41.6713 77.3632 41.7068C77.3824 41.7423 77.4086 41.7735 77.4402 41.7986C77.4718 41.8237 77.5081 41.8422 77.547 41.853C77.6268 41.8658 77.7085 41.847 77.7746 41.8005C77.8408 41.754 77.8861 41.6835 77.901 41.604Z" fill="black"/>
<path d="M70.734 42.418C69.57 42.794 69.123 41.038 70.13 40.653C70.2517 40.6079 70.3824 40.5928 70.5112 40.6088C70.64 40.6248 70.763 40.6715 70.87 40.745" fill="white"/>
<path d="M70.42 42.762C70.1824 42.7575 69.9522 42.6787 69.7617 42.5366C69.5712 42.3946 69.43 42.1964 69.358 41.97C69.2365 41.6708 69.2385 41.3356 69.3638 41.0379C69.489 40.7403 69.7271 40.5044 70.026 40.382C70.1904 40.3214 70.3669 40.3009 70.5409 40.3223C70.7148 40.3437 70.8811 40.4063 71.026 40.505C71.0897 40.5485 71.1336 40.6155 71.148 40.6914C71.1623 40.7673 71.1459 40.8457 71.1025 40.9095C71.059 40.9733 70.9919 41.0172 70.916 41.0315C70.8402 41.0459 70.7617 41.0295 70.698 40.986C70.6309 40.94 70.5539 40.9105 70.4733 40.8999C70.3926 40.8893 70.3106 40.8979 70.234 40.925C70.0785 40.9954 69.9571 41.1241 69.8959 41.2834C69.8347 41.4427 69.8387 41.6196 69.907 41.776C69.9274 41.851 69.9635 41.9207 70.0129 41.9807C70.0623 42.0407 70.1238 42.0896 70.1935 42.1241C70.2631 42.1585 70.3392 42.1779 70.4169 42.1808C70.4945 42.1837 70.5719 42.1702 70.644 42.141C70.6803 42.1292 70.7187 42.1248 70.7568 42.1278C70.7949 42.1309 70.832 42.1414 70.866 42.1588C70.9001 42.1762 70.9303 42.2002 70.9551 42.2293C70.9799 42.2584 70.9987 42.2921 71.0105 42.3285C71.0222 42.3649 71.0267 42.4032 71.0236 42.4413C71.0206 42.4794 71.01 42.5165 70.9926 42.5506C70.9752 42.5846 70.9513 42.6149 70.9221 42.6397C70.893 42.6644 70.8593 42.6832 70.823 42.695C70.6939 42.7379 70.559 42.7605 70.423 42.762" fill="black"/>
<path d="M76.697 43.907C76.71 43.859 76.723 43.807 76.736 43.767Z" fill="#6295E6"/>
<path d="M73.959 31.687C76.477 29.318 77.991 29.695 79.659 31.787C79.7379 31.521 79.8809 31.2785 80.0756 31.0808C80.2702 30.8831 80.5104 30.7363 80.7751 30.6532C81.0398 30.5701 81.3209 30.5534 81.5936 30.6045C81.8663 30.6555 82.1222 30.7728 82.339 30.946C82.755 31.209 83.28 31.9 83.771 31.953C83.871 31.966 88.571 30.132 87.344 32.43C86.544 33.93 79.87 39.177 78.439 39.019C76.627 38.815 75.73 37.085 73.505 37.559C71.793 37.93 70.406 39.992 69.771 39.397C68.103 37.83 73.659 31.971 73.959 31.687Z" fill="#FFBE00"/>
<path d="M123.541 49.62C123.529 49.0738 123.734 48.5452 124.111 48.15C124.488 47.7548 125.007 47.5254 125.553 47.512C126.099 47.5251 126.618 47.7544 126.995 48.1496C127.373 48.5449 127.578 49.0737 127.566 49.62C127.578 50.1665 127.373 50.6956 126.996 51.091C126.618 51.4864 126.099 51.7159 125.553 51.729C125.007 51.7156 124.488 51.486 124.111 51.0906C123.734 50.6952 123.529 50.1663 123.541 49.62" fill="#FF0E11"/>
</svg>
