<svg xmlns="http://www.w3.org/2000/svg" width="132" height="24" viewBox="0 0 132 24"><g transform="translate(-253 565)"><g transform="translate(253 -565)"><rect width="24" height="24" fill="rgba(255,255,255,0)"/><g transform="translate(4 4)"><path d="M6.023,16,6,9H3V6H6V4c0-2.7,1.672-4,4.079-4a22.346,22.346,0,0,1,2.434.124V2.945h-1.67c-1.31,0-1.563.622-1.563,1.535V6H13L12,9H9.28v7Z" fill="#212529"/></g></g><g transform="translate(289 -565)"><rect width="24" height="24" fill="rgba(255,255,255,0)"/><g transform="translate(4 4)"><path d="M8,0A8.024,8.024,0,0,0,0,8a7.838,7.838,0,0,0,5.1,7.4,8.845,8.845,0,0,1,0-2.3c.1-.6.9-4,.9-4A2.653,2.653,0,0,1,5.8,8c0-1.1.7-2,1.5-2a.972.972,0,0,1,1,1.1,11.98,11.98,0,0,1-.7,2.7,1.125,1.125,0,0,0,1.2,1.4c1.4,0,2.5-1.5,2.5-3.7A3.206,3.206,0,0,0,8,4.2,3.44,3.44,0,0,0,4.4,7.7,3.216,3.216,0,0,0,5,9.5v.4a5.073,5.073,0,0,0-.2.9c0,.1-.1.2-.3.1A3.577,3.577,0,0,1,2.9,7.8C2.9,5.3,4.7,3,8.2,3a4.662,4.662,0,0,1,4.9,4.6c0,2.8-1.7,5-4.2,5a2,2,0,0,1-1.8-.9s-.4,1.5-.5,1.9a10.243,10.243,0,0,1-1,2.1A9.863,9.863,0,0,0,8,16,8,8,0,0,0,8,0Z" fill="#212529"/></g></g><g transform="translate(325 -565)"><rect width="24" height="24" fill="rgba(255,255,255,0)"/><g transform="translate(4 4.5)"><path d="M16,3a5.918,5.918,0,0,1-1.9.5,2.827,2.827,0,0,0,1.4-1.8,6.561,6.561,0,0,1-2.1.8,3.492,3.492,0,0,0-2.4-1A3.311,3.311,0,0,0,7.8,4.8a1.483,1.483,0,0,0,.1.7A9.2,9.2,0,0,1,1.1,2.1,3.064,3.064,0,0,0,.7,3.8,3.282,3.282,0,0,0,2.2,6.5,4.191,4.191,0,0,1,.7,6.1h0A3.228,3.228,0,0,0,3.3,9.3a2.769,2.769,0,0,1-.9.1,1.268,1.268,0,0,1-.6-.1,3.24,3.24,0,0,0,3.1,2.3A6.359,6.359,0,0,1,.8,13H0a9.757,9.757,0,0,0,5,1.5,9.256,9.256,0,0,0,9.3-9.3V4.8A5.814,5.814,0,0,0,16,3Z" fill="#212529"/></g></g><g transform="translate(361 -565)"><rect width="24" height="24" fill="rgba(255,255,255,0)"/><g transform="translate(4 4)"><circle cx="0.96" cy="0.96" r="0.96" transform="translate(11.185 2.932)" fill="#212529"/><path d="M8,12a4,4,0,1,1,4-4A4,4,0,0,1,8,12ZM8,6a2,2,0,1,0,2,2A2,2,0,0,0,8,6Z" fill="#212529"/><path d="M12,16H4a4.214,4.214,0,0,1-4-4V4A4.214,4.214,0,0,1,4,0h8a4.214,4.214,0,0,1,4,4v8A4.214,4.214,0,0,1,12,16ZM4,2A2.265,2.265,0,0,0,2,4v8a2.231,2.231,0,0,0,2,2h8a2.265,2.265,0,0,0,2-2V4a2.265,2.265,0,0,0-2-2Z" fill="#212529"/></g></g></g></svg>