<svg xmlns="http://www.w3.org/2000/svg" xmlns:xlink="http://www.w3.org/1999/xlink" width="78" height="137" viewBox="0 0 78 137"><defs><clipPath id="a"><path d="M0,0H11.616V10.034H0Z" fill="none"/></clipPath><clipPath id="b"><path d="M0,0H12.561V17.118H0Z" fill="none"/></clipPath></defs><g transform="translate(0 -0.112)"><g transform="translate(3.643 0.112)"><path d="M11.66,9.789c.367-1.1,10.233-4.208,10.233-4.208L22.015,0S-3.878,4.61.5,11.646C3.189,15.977,13.626,25.6,13.626,25.6l7.239-11.084s-10.111-2.01-9.2-4.725" transform="translate(11.403 7.809)" fill="#ffd2e1"/><path d="M12.689,24.974a45.835,45.835,0,0,1-.639-6.411C12,17.657-.095,6.449,0,5.545.635-.569,15.09-.959,17.659,1.179c3.656,3.037,5.975,13.282,7.583,22.757s.716,13.282-1.151,15.141c-3.4,3.394-17.432,2.988-18.518.455-1.853-4.309,4.661-7.116,4.389-8.468" transform="translate(35.839 15.108)" fill="#ffbe00"/><path d="M.957.19A30.661,30.661,0,0,0,.005,7.08,3.829,3.829,0,0,0,1.346,10.1c.362.481.766-.256.879-.308s.33.41.7.426.475-.4.661-.478.389.453.688.354a1.558,1.558,0,0,0,.571-.45,1.532,1.532,0,0,0,1.9-.007c.865-.812.72-2.494.145-4.243S5.817,1.961,5.383.657C5.2.114,4.223,1.109,4.091.222c-.072-.495-.933-.03-1.35.107C2.447.423,1.152-.033.957.19" transform="translate(66.994 54.442)"/><path d="M.877,8.145a31,31,0,0,0,6.931-.716,3.834,3.834,0,0,0,2.623-2.02c.381-.467-.43-.678-.507-.776s.317-.417.245-.785-.5-.366-.621-.524.349-.488.181-.752a1.539,1.539,0,0,0-.575-.446A1.525,1.525,0,0,0,8.7.283c-1-.648-2.6-.108-4.163.867S1.443,3.012.279,3.745C-.206,4.05.994,4.758.161,5.1c-.462.189.195.912.425,1.287.164.259.023,1.625.29,1.762" transform="translate(32.209 4.456)"/><path d="M0,.172l.027,3.1,5.051-.542L4.607,0Z" transform="translate(67.303 52.77)"/><path d="M0,13.42,4.616,0s14.392,2.661,21.49,11,6.908,22.351,6.908,22.351l-7.026,2.7s-2.31-11.417-6-16.95-8.751-5.182-8.751-5.182l-.331,13.653Z" transform="translate(41.015 18.965)" fill="#ffd2e1"/><path d="M4.439,0,6.428,8.258l-3.764,1.3L0,1.155Z" transform="translate(41.362 118.115)" fill="#fff"/><path d="M2.965,10.164a.307.307,0,0,1-.135-.032.3.3,0,0,1-.152-.179L.014,1.546a.3.3,0,0,1,.211-.381L4.664.01A.3.3,0,0,1,4.9.043a.3.3,0,0,1,.138.188L7.022,8.489a.3.3,0,0,1-.194.354l-3.764,1.3A.308.308,0,0,1,2.965,10.164ZM4.519.669l-3.836,1L3.159,9.477,6.373,8.364Z" transform="translate(41.06 117.813)"/><path d="M1.22.633C1.451.478,1.165-.058.731.005A1.1,1.1,0,0,0,.01,1.1a.9.9,0,0,0,.512.585" transform="translate(33.345 8.427)" fill="#fff"/><path d="M.823,2.289A.3.3,0,0,1,.675,2.25a1.189,1.189,0,0,1-.658-.783A1.333,1.333,0,0,1,.278.507a1.094,1.094,0,0,1,.71-.5.824.824,0,0,1,.87.519.528.528,0,0,1-.169.655.3.3,0,0,1-.4-.446A.254.254,0,0,0,1.225.648.186.186,0,0,0,1.075.6a.544.544,0,0,0-.3.246.79.79,0,0,0-.168.49c.033.151.132.256.366.388a.3.3,0,0,1-.149.562" transform="translate(33.043 8.127)"/><path d="M5.358,8.116c-.172-2.328-.52-6.983-.52-6.983L2.142,0C1.441,3.861.7,5.688,0,9.548c2.306.2,3.048-1.63,5.358-1.433" transform="translate(33.18 11.465)" fill="#fff"/><path d="M.648,10.165c-.118,0-.244-.006-.372-.016A.3.3,0,0,1,0,9.8C.357,7.844.726,6.389,1.083,4.983,1.434,3.6,1.8,2.17,2.147.247A.3.3,0,0,1,2.443,0a.306.306,0,0,1,.118.024L5.256,1.157a.3.3,0,0,1,.183.254c0,.047.352,4.7.521,6.983a.3.3,0,0,1-.089.236.3.3,0,0,1-.212.086H5.634C5.528,8.707,5.423,8.7,5.32,8.7a4.41,4.41,0,0,0-2.2.7A4.938,4.938,0,0,1,.648,10.165ZM2.672.723c-.33,1.75-.673,3.1-1,4.407l0,.012C1.332,6.453.988,7.808.66,9.563a4.4,4.4,0,0,0,2.175-.695A4.945,4.945,0,0,1,5.314,8.1h.02c-.152-2.049-.406-5.453-.482-6.461Z" transform="translate(32.878 11.164)"/><path d="M17.957,19.5,0,21.173A9.781,9.781,0,0,1,1.024,17.33c.847-1.206,5.228-1.569,7.121-2.852,1.074-.729-1.672-9.344-1.672-9.344L15.452,0Z" transform="translate(2.983 107.058)" fill="#ffbe00"/><path d="M11.373,11.76C9.112,13.178,0,12.7,0,12.7s-.131-3.241,1.626-4.7c1-.83-.2-7.5-.2-7.5L9.665,0S12.4,11.113,11.373,11.76" transform="translate(37.329 124.188)" fill="#ffbe00"/><path d="M17.594,47.267c-.267,8.821-2.147,21.968-1.935,23.7-4.245,1.494-5.386-.734-9.63.759C4.09,65.967-2,10.889.662,5.2,5.812-5.8,17.979,4.074,17.979,4.074s-.118,34.372-.385,43.194" transform="translate(33.206 57.459)"/><path d="M16.79,27.009c-.838,2.425,4.235,31.715,4.235,31.715L10.376,60.1S-1.787,37.223.225,26.29C1.892,17.223,23.563,0,23.563,0s11.909,9.91,14.7,10.844c0,0-20.081,12.15-21.467,16.165" transform="translate(0 55.758)"/><path d="M29.1,2.98s1.526,5.262.443,9.4-3.715-.555-4.856.268c-1.939,1.393-4.158,2.111-5.522.36-.031-.043-6.718,4.189-6.718,4.189S1.893,10.3.013,9.189C-.222,9.05,2.722,4.577,2.672,1.158S29.1,2.98,29.1,2.98" transform="translate(21.253 50.63)"/><path d="M4.284,0S.542,6.391.03,8.733C-.35,10.5,2.948,12.5,4.343,11.153,5.9,9.658,9.167,2.927,9.167,2.927Z" transform="translate(32.201 4.178)" fill="#fff"/><path d="M3.441,12.193a3.551,3.551,0,0,1-1.7-.48C.724,11.147-.2,10.079.038,8.971A13.11,13.11,0,0,1,.9,6.633c.368-.814.843-1.777,1.414-2.86C3.288,1.929,4.223.326,4.326.149A.3.3,0,0,1,4.512.01a.294.294,0,0,1,.23.033L9.625,2.971a.3.3,0,0,1,.116.389c-.135.277-3.315,6.8-4.886,8.311A1.984,1.984,0,0,1,3.441,12.193ZM4.694.716c-.35.608-1.258,2.2-2.134,3.9A22.639,22.639,0,0,0,.627,9.1c-.173.8.61,1.646,1.411,2.09a3.072,3.072,0,0,0,1.42.407,1.355,1.355,0,0,0,.978-.358A20.026,20.026,0,0,0,7.029,7.268c.915-1.654,1.737-3.3,2.048-3.925Z" transform="translate(31.898 3.877)"/><path d="M.559,1.58A.3.3,0,0,1,.351,1.5C.12,1.276-.026,1.083,0,.856A.586.586,0,0,1,.379.44.847.847,0,0,0,.736.145a.3.3,0,0,1,.516.311A1.4,1.4,0,0,1,.671.965c.024.026.055.058.1.1a.3.3,0,0,1-.208.518" transform="translate(35.243 9.415)"/><path d="M.435.342A.224.224,0,0,0,.39.03.228.228,0,0,0,.082.115a.225.225,0,0,0,.05.312.224.224,0,0,0,.3-.085" transform="translate(35.399 8.563)"/><path d="M.435.342A.224.224,0,0,0,.39.03.228.228,0,0,0,.083.115.224.224,0,0,0,.132.427a.224.224,0,0,0,.3-.085" transform="translate(37.212 9.633)"/><path d="M12.1,1.228C5.133,4.079,4.018,12.071,4.018,12.071S.865,15.314.766,17.77s2.165,4.913,2.165,4.913S-.031,25.672,0,27.607a7.091,7.091,0,0,0,1.436,3.7A10.037,10.037,0,0,0,.1,34.821a8.41,8.41,0,0,0,.462,3.537L31,40.274l.394-19.24s-5.644-6.235-6.07-9.287C23.923,1.7,25.386.069,25.386.069S22.247-.1,18.827.088A22.975,22.975,0,0,0,12.1,1.228" transform="translate(20.961 18.927)" fill="#ff0e11"/><path d="M4.686,4.006C5.85,6.153,8.287-.275,8.45.048,8.518.182,9.623-.14,9.5.078c-.059.1-1.037,2.007-2.175,3.856A12.164,12.164,0,0,1,4.681,7.293a2.421,2.421,0,0,1-1.93.4C.3,7.055-.129,5.8.029,4.742A7.569,7.569,0,0,1,1.257,1.772,6.74,6.74,0,0,1,4.686,4.006" transform="translate(31.759 8.512)"/><path d="M.566.117c.63-.353.779.19.793.314.1.926-1.078,1.45-1.359.639" transform="translate(38.075 10.946)" fill="#fff"/><path d="M.819,2.073a.837.837,0,0,1-.8-.6.3.3,0,0,1,.57-.2.246.246,0,0,0,.314.19.646.646,0,0,0,.461-.7A.252.252,0,0,0,1.278.608C1.246.593,1.158.6,1.015.68A.3.3,0,1,1,.72.155.846.846,0,0,1,1.553.073.835.835,0,0,1,1.96.7a1.247,1.247,0,0,1-.93,1.351.988.988,0,0,1-.212.024" transform="translate(37.774 10.646)"/><path d="M.218,0A32.285,32.285,0,0,0,2.568,16.2a36.325,36.325,0,0,0,8.217,11.683l.734-5.385a30.7,30.7,0,0,1-6.713-9.92A31.1,31.1,0,0,1,3.375.63Z" transform="translate(44.013 18.587)" fill="#ffbe00"/><path d="M.985.84A1.058,1.058,0,0,1,.994.96L1.049.908.985.84" transform="translate(27.989 38.911)" fill="#030100"/><path d="M1.481,6.97a1.294,1.294,0,0,1-.837-.3,2.363,2.363,0,0,1-.47-2.561A9.66,9.66,0,0,1,1.3,1.859c.046-.065.137-.216.253-.408l.026-.043C2.311.2,2.467,0,2.691,0L2.74,0a.339.339,0,0,1,.268.222h0c.057.179.116.357.174.529l.006.018A9.37,9.37,0,0,1,3.723,2.94c.093,1.048-.062,3.01-1.237,3.713A1.979,1.979,0,0,1,1.481,6.97ZM2.6.908c-.167.256-.366.585-.5.811l-.019.031c-.13.215-.233.385-.283.456A9.082,9.082,0,0,0,.739,4.318a1.8,1.8,0,0,0,.292,1.889.686.686,0,0,0,.45.16,1.393,1.393,0,0,0,.7-.229c.921-.551,1.022-2.3.947-3.145A8.944,8.944,0,0,0,2.616.963l-.01-.03Z" transform="translate(49.997 42.763)"/><path d="M.3,1.007a.3.3,0,0,1-.054-.6C5.024-.463,15.067.323,15.491.357a.3.3,0,1,1-.048.6C15.34.948,5.054.143.356,1a.281.281,0,0,1-.055,0" transform="translate(25.591 29.715)"/><path d="M19.5.905h-.014C19.346.9,5.965.274.331.835a.3.3,0,1,1-.06-.6C5.948-.33,19.374.3,19.509.3a.3.3,0,0,1-.014.6" transform="translate(23.72 40.88)"/><path d="M24.908,1.762h0C24.737,1.761,7.937,1.638.261.6A.3.3,0,1,1,.342,0C7.98,1.037,24.742,1.16,24.91,1.161a.3.3,0,0,1,0,.6" transform="translate(22.792 50.08)"/><path d="M1.417,36.269H1.4a.3.3,0,0,1-.285-.316,18.589,18.589,0,0,1,1.1-4.2A5.749,5.749,0,0,1,.026,26.845a10.942,10.942,0,0,1,1.743-4.983C1.533,21.1.494,17.634.708,16.351A14.752,14.752,0,0,1,3.33,10.281C3.368,9.448,3.714,3.906,6.324.13a.3.3,0,0,1,.5.341C4.154,4.329,3.93,10.338,3.929,10.4a.3.3,0,0,1-.066.177A14.358,14.358,0,0,0,1.3,16.451c-.176,1.056.724,4.237,1.086,5.374a.3.3,0,0,1-.048.272A10.333,10.333,0,0,0,.625,26.9a5.292,5.292,0,0,0,2.128,4.506.3.3,0,0,1,.109.354,19.9,19.9,0,0,0-1.144,4.221.3.3,0,0,1-.3.285" transform="translate(30.159 19.558)"/><path d="M.3,7.763H.292A.3.3,0,0,1,0,7.453c.021-.719.074-1.467.125-2.191A23.746,23.746,0,0,0,.135.343a.3.3,0,0,1,.6-.085,24.18,24.18,0,0,1,0,5.046C.675,6.022.623,6.764.6,7.471a.3.3,0,0,1-.3.292" transform="translate(51.847 28.455)"/><path d="M.3,3.461a.3.3,0,0,1-.089-.588l.838-.258A28.239,28.239,0,0,0,7.491.042.3.3,0,1,1,7.8.559,28.706,28.706,0,0,1,1.226,3.19l-.836.257A.308.308,0,0,1,.3,3.461" transform="translate(20.118 14.657)"/><path d="M1.44,5.141a.86.86,0,0,1-.212-.028C.234,4.859-.124,3.438.037,2.166.2.85.871,0,1.738,0a.349.349,0,0,1,.321.23c.207.438.737,3.69-.037,4.626A.738.738,0,0,1,1.44,5.141ZM1.562.623a1.051,1.051,0,0,0-.637.6A3.2,3.2,0,0,0,.634,2.241c-.124.978.125,2.131.743,2.289a.258.258,0,0,0,.063.009.147.147,0,0,0,.121-.073,3.771,3.771,0,0,0,.252-1.885A10.413,10.413,0,0,0,1.562.623Z" transform="translate(40.111 123.218)" fill="#fff"/><path d="M.48,4.047A.3.3,0,0,1,.21,3.88,5.792,5.792,0,0,1,.239.775C.277.569.31.392.326.262A.3.3,0,0,1,.663,0a.3.3,0,0,1,.26.336C.906.477.872.665.831.884A5.63,5.63,0,0,0,.75,3.613a.3.3,0,0,1-.27.434" transform="translate(44.095 122.643)" fill="#fff"/><path d="M.877,5.482a.3.3,0,0,1-.286-.205,13.873,13.873,0,0,1-.514-3.7C.056,1.155.035.734,0,.325A.3.3,0,0,1,.276,0,.305.305,0,0,1,.6.275c.034.416.055.844.077,1.276a13.4,13.4,0,0,0,.484,3.535.3.3,0,0,1-.19.381.306.306,0,0,1-.1.015" transform="translate(15.555 108.003)" fill="#fff"/><path d="M1.6,4.908a.3.3,0,0,1-.27-.166l-.111-.221A8.121,8.121,0,0,1,0,.3.3.3,0,0,1,.6.3,7.56,7.56,0,0,0,1.756,4.252l.111.222a.3.3,0,0,1-.135.4.3.3,0,0,1-.134.032" transform="translate(13.113 109.438)" fill="#fff"/><path d="M.3,6.123H.286A.3.3,0,0,1,0,5.807C.079,4.294.056,3.383.03,2.328.016,1.739,0,1.106,0,.3A.3.3,0,0,1,.6.3c0,.8.015,1.428.03,2.013C.659,3.381.682,4.3.6,5.837a.3.3,0,0,1-.3.285" transform="translate(32.349 65.199)" fill="#fff"/><path d="M4.111,6.395a.3.3,0,0,1-.221-.1C2.04,4.309.924,3.108.016.4A.3.3,0,0,1,.587.205c.867,2.589,1.95,3.754,3.744,5.684a.3.3,0,0,1-.221.5" transform="translate(41.203 58.498)" fill="#fff"/><path d="M1.011.4C-2.373,2.886,3.756,2.064,4.585,3.589,5,4.36,2.845,9.31,5.663,7.788,10.691,5.072,3.892-1.715,1.011.4" transform="translate(35.474 3.111)"/><g transform="translate(33.168 0)"><path d="M0,0H11.616V10.034H0Z" transform="translate(0)" fill="none"/><g transform="translate(0)" clip-path="url(#a)"><path d="M2.945,2.4c.408-.789,2.863-.163,3.253-.075,2.745.621,7.153,3.978,4.7,6.913-.186.222-1.147,1.036-1.486.723-.933-.855-1.681-1.565-2.768-2.5C4.631,5.72,1.319,3.581.232,1.15s1.975-.329,2.423.17c.553.617,1.463.778,2.029,1.394" transform="translate(0 0)" fill="#ffbe00"/></g></g><path d="M5.946,5.617a.3.3,0,0,1-.2-.077c-.5-.448-1-.905-1.507-1.366C2.891,2.946,1.5,1.677.109.532A.3.3,0,1,1,.493.069c1.4,1.155,2.8,2.428,4.15,3.66.5.46,1.006.917,1.5,1.364a.3.3,0,0,1-.2.524" transform="translate(36.074 1.21)"/><path d="M10.147.009,0,14.955l10.328,4.04L15.655,2.136a6.492,6.492,0,0,0-2.342-1.7A8.833,8.833,0,0,0,10.147.009" transform="translate(13.548 33.013)" fill="#00b2b2"/><path d="M10.63,19.6a.306.306,0,0,1-.11-.02L.191,15.536a.3.3,0,0,1-.139-.449L10.2.141A.3.3,0,0,1,10.43.01c.029,0,.187-.01.427-.01a8.49,8.49,0,0,1,2.866.453,6.713,6.713,0,0,1,2.466,1.793.3.3,0,0,1,.055.282L10.917,19.386a.3.3,0,0,1-.287.21Zm.227-19c-.086,0-.168,0-.244,0L.762,15.113,10.439,18.9,15.618,2.509a6.1,6.1,0,0,0-2.112-1.5A7.432,7.432,0,0,0,10.857.6Z" transform="translate(13.247 32.711)"/><path d="M.106,1.62C.718-.07,3.8-.509,6.987.642s5.282,3.453,4.67,5.144-3.7,2.129-6.885.979S-.505,3.312.106,1.62" transform="translate(12.974 46.343)"/><path d="M8.786,3.307a.3.3,0,0,1-.172-.054A12.156,12.156,0,0,0,.311.611.3.3,0,0,1,0,.321.3.3,0,0,1,.291.01,12.85,12.85,0,0,1,8.958,2.76a.3.3,0,0,1-.173.547" transform="translate(14.928 45.359)"/><path d="M5.495.5,0,17.7l11.049.96L11.379.989A6.47,6.47,0,0,0,8.652.016,8.832,8.832,0,0,0,5.495.5" transform="translate(25.19 34.604)" fill="#00b2b2"/><path d="M11.35,19.264h-.026L.275,18.3a.3.3,0,0,1-.224-.133.3.3,0,0,1-.037-.258L5.509.712A.3.3,0,0,1,5.694.521h0A9.647,9.647,0,0,1,8.547,0c.149,0,.294.006.432.017a6.146,6.146,0,0,1,1.989.545,6.4,6.4,0,0,1,.882.478.3.3,0,0,1,.132.254l-.331,17.674a.3.3,0,0,1-.3.295ZM8.554.6a8.924,8.924,0,0,0-2.517.438L.7,17.736l10.352.9.321-17.181A6.1,6.1,0,0,0,8.929.616C8.81.606,8.683.6,8.554.6Z" transform="translate(24.889 34.304)"/><path d="M0,2.9C.107,1.109,2.943-.182,6.327.021s6.043,1.822,5.934,3.617S9.321,6.723,5.937,6.52-.105,4.7,0,2.9" transform="translate(24.734 49.534)"/><path d="M9.2,1.52a.3.3,0,0,1-.1-.016A12.161,12.161,0,0,0,.4,1.315a.3.3,0,1,1-.19-.57A12.836,12.836,0,0,1,9.3.935a.3.3,0,0,1-.1.585" transform="translate(25.85 48.6)"/><path d="M.406.6H.3A.3.3,0,1,1,.3,0h.1a.3.3,0,1,1,0,.6" transform="translate(35.152 34.7)"/><path d="M.35,28.288a.3.3,0,0,1-.286-.206L.04,28.014a.411.411,0,0,1,.095-.48l.036-.043a14.267,14.267,0,0,0,2.4-5.2l.222-.714A32.557,32.557,0,0,0,3.815,16.26c.135-1,.273-2.025.461-3.019C5.1,8.921,6.025,4.025,2.507.513A.3.3,0,0,1,2.933.088c3.743,3.737,2.783,8.8,1.936,13.264-.185.979-.323,2-.456,2.988A32.927,32.927,0,0,1,3.37,21.759l-.221.712a14.732,14.732,0,0,1-2.51,5.4l-.008.01.005.014a.3.3,0,0,1-.286.4" transform="translate(36.125 17.802)"/><path d="M.732,18.374a.3.3,0,0,1-.281-.193C-1.894,12.106,5.562,5.415,7.9,3.509a21.538,21.538,0,0,1,2.05-1.367A18.436,18.436,0,0,0,12.873.088.3.3,0,1,1,13.3.513a18.388,18.388,0,0,1-3.027,2.14A21.369,21.369,0,0,0,8.283,3.975c-8.945,7.283-7.826,12.55-7.27,13.99a.3.3,0,0,1-.281.409" transform="translate(20.227 18.727)"/><path d="M1.151,3.761a1.134,1.134,0,0,1-.311-.04C-.453,3.349.1.748.223.23A.3.3,0,0,1,.809.37C.565,1.4.458,2.985,1.007,3.143c.683.2,2.611-1.02,3.664-1.833a.3.3,0,1,1,.369.475c-.455.352-2.627,1.976-3.888,1.976" transform="translate(30.065 49.27)" fill="#fff"/><path d="M1.326,3.853A1.47,1.47,0,0,1,.619,3.7C-.556,3.056.285.493.384.2A.3.3,0,0,1,.954.4C.691,1.168.332,2.859.91,3.176c.614.339,2.521-.414,3.579-.968a.3.3,0,1,1,.28.533A9.611,9.611,0,0,1,1.326,3.853" transform="translate(18.649 46.701)" fill="#fff"/><path d="M.435,3.637a.3.3,0,0,1-.3-.243C.079,3.081-.421.329.936.024,2.157-.248,4.772,1.865,5.067,2.107a.3.3,0,1,1-.383.464C3.659,1.73,1.772.454,1.068.611.507.737.536,2.277.731,3.279a.3.3,0,0,1-.238.352.284.284,0,0,1-.058.006" transform="translate(29.987 52.694)" fill="#fff"/><path d="M4.85,3.307A.3.3,0,0,1,4.6,3.179C3.9,2.183,2.527.6,1.814.6h0C1.154.6.711,2.246.6,3.043A.3.3,0,0,1,0,2.96C.045,2.657.454,0,1.814,0h0C3.072,0,4.893,2.544,5.1,2.834a.3.3,0,0,1-.246.473" transform="translate(17.434 50.267)" fill="#fff"/><path d="M1.112,4.682a.3.3,0,0,1-.077-.591c1.827-.484,3.42-1.279,3.342-1.668C4.277,1.908,2.145,1.072.228.592A.3.3,0,1,1,.375.009C1.4.265,4.75,1.186,4.968,2.306c.24,1.2-2.832,2.115-3.779,2.366a.3.3,0,0,1-.077.01" transform="translate(25.604 50.394)" fill="#fff"/><path d="M.3,4.76a.3.3,0,0,1-.005-.6c2.083-.04,3.991-.435,4-.83C4.313,2.826,2.235,1.5.285.572A.3.3,0,1,1,.544.029C1.574.518,4.932,2.2,4.9,3.347,4.865,4.544,1.677,4.734.307,4.76Z" transform="translate(14.097 46.765)" fill="#fff"/><path d="M3.229,11.119S-1.342,6.976.393,4.635C3.7.16,11.464-.206,14.667.069s4.118-.731,7.873,2.739-.367,7.946-.367,7.946Z" transform="translate(0.533 125.881)"/><path d="M.867,2.1a1.824,1.824,0,0,1-.276-.021.672.672,0,0,1-.579-.568A1.085,1.085,0,0,1,.631.424,3.043,3.043,0,0,1,1.943,0a.738.738,0,0,1,.535.192.749.749,0,0,1,.063.9,1.835,1.835,0,0,1-.647.7A1.9,1.9,0,0,1,.867,2.1ZM1.941.6A2.43,2.43,0,0,0,.912.957a.492.492,0,0,0-.306.459.074.074,0,0,0,.074.073A1.182,1.182,0,0,0,.862,1.5,1.347,1.347,0,0,0,1.9.986a.533.533,0,0,0,.153-.37h0A.348.348,0,0,0,1.941.6Z" transform="translate(5.369 129.368)" fill="#fff"/><path d="M3.763,1.98A18.423,18.423,0,0,1,.242,1.67.3.3,0,1,1,.36,1.08c2.949.589,7.686.358,10.506-1.049a.3.3,0,1,1,.269.538A17.626,17.626,0,0,1,3.763,1.98" transform="translate(37.267 133.19)" fill="#fff"/><path d="M.3,4.093a.3.3,0,1,1,0-.6A36.876,36.876,0,0,0,16.855.032a.3.3,0,1,1,.27.537A37.47,37.47,0,0,1,.3,4.093" transform="translate(3.031 122.313)" fill="#fff"/></g><g transform="translate(0 26.418)"><g transform="translate(0 0)"><path d="M0,0H12.561V17.118H0Z" fill="none"/><g clip-path="url(#b)"><path d="M.936,8.1C-1.12,7.173.665,3.775,1.971,1.792c2.7-4.1,9.97-.414,10.5,3.507.764,5.644-3.711,5.5-6.093,8.886-.4.569-.687,3.459-1.88,2.851-5.125-2.6,4.66-7.272,2.893-10.09C5.673,4.2,2.626,8.867.936,8.1" transform="translate(0 0)"/></g></g><path d="M.068,1.113c-.642,4.408,3.467,5.356,4.6,1.777C5.826-.769.294-.46.068,1.113" transform="translate(2.604 19.784)"/></g></g></svg>