<svg width="200" height="200" viewBox="0 0 200 200" fill="none" xmlns="http://www.w3.org/2000/svg">
<path d="M102.164 116.311H122.164V105.525H102.164V116.311Z" fill="black"/>
<path d="M120.482 114.439H104.167C104.076 114.439 103.989 114.403 103.925 114.339C103.861 114.275 103.825 114.188 103.825 114.097V107.115C103.825 107.024 103.861 106.937 103.925 106.873C103.989 106.809 104.076 106.773 104.167 106.773H120.482C120.527 106.773 120.572 106.782 120.613 106.799C120.655 106.816 120.693 106.841 120.724 106.873C120.756 106.905 120.782 106.942 120.799 106.984C120.816 107.025 120.825 107.07 120.825 107.115V114.097C120.825 114.142 120.816 114.187 120.799 114.228C120.782 114.27 120.756 114.307 120.724 114.339C120.693 114.371 120.655 114.396 120.613 114.413C120.572 114.43 120.527 114.439 120.482 114.439V114.439ZM104.508 107.456V113.756H120.14V107.456H104.508Z" fill="white"/>
<path d="M112.7 113.082C112.07 113.09 111.462 112.848 111.01 112.409C110.558 111.97 110.298 111.369 110.288 110.739C110.298 110.109 110.558 109.509 111.01 109.07C111.462 108.631 112.07 108.389 112.7 108.397C113.33 108.389 113.938 108.631 114.39 109.07C114.842 109.509 115.101 110.109 115.111 110.739C115.101 111.369 114.842 111.97 114.39 112.409C113.938 112.848 113.33 113.09 112.7 113.082V113.082ZM112.7 109.082C112.252 109.074 111.818 109.244 111.494 109.554C111.17 109.865 110.982 110.291 110.971 110.739C110.982 111.188 111.17 111.614 111.494 111.924C111.818 112.235 112.251 112.405 112.7 112.397C113.149 112.405 113.582 112.234 113.906 111.924C114.229 111.613 114.417 111.187 114.428 110.739C114.417 110.29 114.23 109.864 113.906 109.553C113.582 109.243 113.149 109.072 112.7 109.08V109.082Z" fill="white"/>
<path d="M107 111.401C106.828 111.401 106.66 111.35 106.517 111.254C106.374 111.159 106.262 111.023 106.196 110.864C106.13 110.705 106.113 110.53 106.147 110.361C106.18 110.192 106.263 110.037 106.385 109.916C106.506 109.794 106.662 109.711 106.83 109.678C106.999 109.644 107.174 109.661 107.333 109.727C107.492 109.793 107.628 109.905 107.723 110.048C107.819 110.191 107.87 110.359 107.87 110.531C107.87 110.762 107.778 110.983 107.615 111.146C107.452 111.309 107.231 111.401 107 111.401V111.401ZM107 110.344C106.963 110.344 106.927 110.355 106.896 110.375C106.865 110.395 106.841 110.425 106.827 110.459C106.812 110.493 106.808 110.531 106.815 110.567C106.823 110.603 106.84 110.637 106.866 110.663C106.893 110.689 106.926 110.707 106.962 110.714C106.998 110.722 107.036 110.718 107.07 110.704C107.105 110.69 107.134 110.666 107.154 110.635C107.175 110.604 107.186 110.568 107.186 110.531C107.186 110.482 107.166 110.434 107.132 110.399C107.097 110.364 107.049 110.344 107 110.344Z" fill="white"/>
<path d="M117.862 111.401C117.69 111.401 117.522 111.35 117.379 111.254C117.236 111.159 117.124 111.023 117.058 110.864C116.992 110.705 116.975 110.53 117.009 110.361C117.042 110.192 117.125 110.037 117.247 109.916C117.368 109.794 117.524 109.711 117.692 109.678C117.861 109.644 118.036 109.661 118.195 109.727C118.354 109.793 118.49 109.905 118.585 110.048C118.681 110.191 118.732 110.359 118.732 110.531C118.732 110.762 118.64 110.983 118.477 111.146C118.314 111.309 118.093 111.401 117.862 111.401V111.401ZM117.862 110.344C117.825 110.344 117.789 110.355 117.758 110.375C117.727 110.396 117.703 110.425 117.689 110.459C117.675 110.494 117.671 110.531 117.679 110.567C117.686 110.604 117.704 110.637 117.73 110.663C117.756 110.689 117.789 110.707 117.826 110.714C117.862 110.722 117.899 110.718 117.934 110.704C117.968 110.69 117.997 110.666 118.017 110.635C118.038 110.604 118.049 110.568 118.049 110.531C118.049 110.481 118.029 110.434 117.994 110.399C117.959 110.364 117.912 110.344 117.862 110.344Z" fill="white"/>
<path d="M82.752 134.007C82.575 134.007 82.26 133.742 81.23 132.875C78.693 130.74 71.955 125.07 69.436 124.647C67.2107 124.282 64.9639 124.063 62.71 123.99C59.754 123.851 57.618 123.751 54.818 122.001C51.694 120.048 50.508 116.951 49.36 113.957C48.8135 112.395 48.1323 110.883 47.324 109.439C46.619 108.266 44.065 107.778 43.14 107.689C43.0952 107.685 43.0517 107.672 43.0119 107.651C42.9721 107.63 42.9368 107.601 42.9081 107.567C42.8794 107.532 42.8578 107.492 42.8446 107.449C42.8314 107.406 42.8267 107.361 42.831 107.316C42.8404 107.226 42.8848 107.143 42.9548 107.085C43.0247 107.027 43.1146 106.999 43.205 107.007C43.355 107.021 46.884 107.376 47.905 109.087C48.736 110.563 49.4363 112.109 49.998 113.707C51.156 116.73 52.25 119.584 55.18 121.417C57.828 123.072 59.78 123.163 62.741 123.302C65.0219 123.377 67.2956 123.6 69.548 123.967C72.248 124.42 78.848 129.974 81.669 132.346C82.227 132.816 82.713 133.225 82.846 133.319C82.8868 133.336 82.9238 133.361 82.955 133.392C82.9868 133.424 83.0121 133.461 83.0293 133.503C83.0465 133.545 83.0553 133.589 83.0553 133.634C83.0553 133.679 83.0465 133.723 83.0293 133.765C83.0121 133.807 82.9868 133.844 82.955 133.876C82.881 133.949 82.829 134.001 82.755 134.001" fill="black"/>
<path d="M87.135 97.572C85.541 97.572 84.089 97.431 83.322 97.355C83.153 97.339 83.022 97.326 82.95 97.32C82.8833 97.335 82.8135 97.3294 82.75 97.304C82.6719 97.2726 82.6073 97.2148 82.5676 97.1405C82.5279 97.0662 82.5157 96.9804 82.533 96.898C82.605 96.598 82.787 96.615 83.39 96.675C87.919 97.117 90.961 96.845 92.431 95.865C93.6721 95.054 94.68 93.933 95.355 92.613C96.244 91.071 97.013 89.738 101.138 89.363C102.502 89.315 103.868 89.382 105.221 89.563C108.621 89.896 112.85 90.309 114.442 88.187C115.532 86.734 115.514 84.266 115.498 82.087C115.475 81.2378 115.496 80.388 115.56 79.541C115.637 78.771 115.703 78.036 115.767 77.333C116.347 70.897 116.697 67.013 122.945 62.847C122.982 62.8177 123.025 62.7965 123.071 62.7846C123.116 62.7727 123.164 62.7704 123.211 62.7779C123.257 62.7854 123.302 62.8024 123.342 62.828C123.382 62.8536 123.416 62.8871 123.442 62.9265C123.468 62.9658 123.485 63.0102 123.494 63.0568C123.502 63.1033 123.5 63.151 123.489 63.1969C123.478 63.2429 123.457 63.2859 123.428 63.3235C123.4 63.361 123.363 63.3922 123.322 63.415C117.346 67.399 117.022 70.949 116.446 77.389C116.383 78.094 116.317 78.831 116.239 79.604C116.177 80.4268 116.158 81.2522 116.18 82.077C116.196 84.362 116.215 86.952 114.988 88.589C113.166 91.019 108.909 90.602 105.154 90.235C103.843 90.0597 102.521 89.9928 101.199 90.035C97.426 90.378 96.805 91.455 95.946 92.945C95.2169 94.3555 94.1361 95.5538 92.808 96.424C91.45 97.329 89.176 97.562 87.135 97.562" fill="black"/>
<path d="M82.825 140.832C82.7555 140.831 82.6879 140.81 82.631 140.77C82.5742 140.73 82.5308 140.674 82.5067 140.609C82.4826 140.544 82.4789 140.473 82.4961 140.405C82.5133 140.338 82.5506 140.278 82.603 140.232L88.24 135.412C88.3048 135.359 88.3856 135.331 88.469 135.33C88.604 135.33 101.894 135.6 105.407 135.141C106.504 135.021 107.539 134.569 108.373 133.846C109.208 133.123 109.802 132.162 110.076 131.093L110.576 108.779C110.576 108.734 110.584 108.69 110.602 108.648C110.619 108.607 110.644 108.57 110.676 108.538C110.708 108.507 110.746 108.482 110.788 108.466C110.83 108.45 110.874 108.442 110.919 108.443C111.01 108.445 111.096 108.483 111.158 108.548C111.221 108.614 111.255 108.701 111.253 108.792L110.753 131.141C110.752 131.162 110.75 131.183 110.746 131.204C110.434 132.411 109.766 133.497 108.829 134.32C107.892 135.143 106.729 135.664 105.491 135.817C102.076 136.263 90.054 136.043 88.581 136.017L83.047 140.751C82.985 140.804 82.9064 140.833 82.825 140.833" fill="black"/>
<path d="M54.345 79.763C54.2761 79.7629 54.2089 79.7421 54.1521 79.7032C54.0952 79.6643 54.0515 79.6091 54.0265 79.545C54.0015 79.4808 53.9965 79.4105 54.0121 79.3434C54.0278 79.2764 54.0633 79.2156 54.114 79.169L58.966 74.729C59.032 74.6722 59.1159 74.6403 59.203 74.639C59.337 74.639 72.627 74.909 76.14 74.451C77.2376 74.3307 78.2724 73.8788 79.1066 73.1554C79.9408 72.432 80.5346 71.4715 80.809 70.402L81.303 48.088C81.3064 47.9975 81.345 47.912 81.4106 47.8496C81.4761 47.7872 81.5635 47.7529 81.654 47.754C81.7446 47.7561 81.8306 47.794 81.8932 47.8594C81.9558 47.9249 81.9899 48.0125 81.988 48.103L81.488 70.451C81.4875 70.4722 81.4851 70.4932 81.481 70.514C81.1692 71.7218 80.5012 72.8077 79.5638 73.6306C78.6264 74.4535 77.463 74.9753 76.225 75.128C72.815 75.574 60.825 75.354 59.325 75.328L54.575 79.673C54.5118 79.7305 54.4294 79.7622 54.344 79.762" fill="black"/>
<path d="M63.127 65.701H83.051V54.807H63.127V65.701Z" fill="black"/>
<path d="M81.333 63.851H65.018C64.9273 63.851 64.8403 63.815 64.7762 63.7508C64.7121 63.6867 64.676 63.5997 64.676 63.509V56.527C64.676 56.4363 64.7121 56.3493 64.7762 56.2852C64.8403 56.221 64.9273 56.185 65.018 56.185H81.333C81.378 56.1849 81.4226 56.1936 81.4642 56.2107C81.5058 56.2279 81.5436 56.253 81.5755 56.2848C81.6074 56.3166 81.6326 56.3543 81.6499 56.3959C81.6671 56.4374 81.676 56.482 81.676 56.527V63.509C81.676 63.554 81.6671 63.5985 81.6499 63.6401C81.6326 63.6817 81.6074 63.7194 81.5755 63.7512C81.5436 63.783 81.5058 63.8081 81.4642 63.8253C81.4226 63.8424 81.378 63.8511 81.333 63.851V63.851ZM65.359 56.868V63.168H80.991V56.868H65.359Z" fill="white"/>
<path d="M73.55 62.493C72.9199 62.5013 72.3122 62.2594 71.86 61.8204C71.4079 61.3814 71.1483 60.7811 71.138 60.151C71.148 59.5207 71.4075 58.9201 71.8597 58.4809C72.3118 58.0417 72.9197 57.7997 73.55 57.808C74.1803 57.7997 74.7882 58.0417 75.2403 58.4809C75.6925 58.9201 75.952 59.5207 75.962 60.151C75.952 60.7812 75.6924 61.3817 75.2403 61.8207C74.7881 62.2598 74.1802 62.5015 73.55 62.493ZM73.55 58.493C73.1013 58.4852 72.6678 58.6551 72.3439 58.9657C72.02 59.2763 71.832 59.7024 71.821 60.151C71.8323 60.5994 72.0203 61.0252 72.3442 61.3356C72.6681 61.646 73.1015 61.8158 73.55 61.808C73.9983 61.8155 74.4315 61.6456 74.7551 61.3353C75.0788 61.0249 75.2667 60.5993 75.278 60.151C75.2675 59.7022 75.0799 59.2758 74.7562 58.9648C74.4324 58.6538 73.9988 58.4835 73.55 58.491V58.493Z" fill="white"/>
<path d="M67.85 60.813C67.678 60.813 67.5098 60.762 67.3667 60.6664C67.2236 60.5708 67.1121 60.4349 67.0463 60.2759C66.9804 60.117 66.9632 59.942 66.9968 59.7733C67.0303 59.6045 67.1132 59.4495 67.2349 59.3278C67.3565 59.2061 67.5115 59.1233 67.6803 59.0897C67.8491 59.0561 68.024 59.0734 68.183 59.1392C68.3419 59.2051 68.4778 59.3166 68.5734 59.4597C68.669 59.6027 68.72 59.7709 68.72 59.943C68.7198 60.1737 68.628 60.3948 68.4649 60.5579C68.3018 60.721 68.0807 60.8127 67.85 60.813V60.813ZM67.85 59.756C67.8131 59.756 67.7769 59.767 67.7462 59.7875C67.7154 59.8081 67.6914 59.8373 67.6773 59.8714C67.6631 59.9056 67.6594 59.9432 67.6666 59.9795C67.6739 60.0158 67.6917 60.0491 67.7178 60.0752C67.744 60.1014 67.7773 60.1192 67.8136 60.1264C67.8498 60.1336 67.8874 60.1299 67.9216 60.1158C67.9558 60.1016 67.985 60.0776 68.0055 60.0469C68.0261 60.0161 68.037 59.98 68.037 59.943C68.037 59.8934 68.0173 59.8458 67.9823 59.8108C67.9472 59.7757 67.8996 59.756 67.85 59.756Z" fill="white"/>
<path d="M78.712 60.813C78.54 60.813 78.3718 60.762 78.2287 60.6664C78.0856 60.5708 77.9741 60.4349 77.9083 60.2759C77.8424 60.117 77.8252 59.942 77.8588 59.7733C77.8923 59.6045 77.9752 59.4495 78.0969 59.3278C78.2185 59.2061 78.3735 59.1233 78.5423 59.0897C78.7111 59.0561 78.886 59.0734 79.045 59.1392C79.2039 59.2051 79.3398 59.3166 79.4354 59.4597C79.531 59.6027 79.582 59.7709 79.582 59.943C79.5818 60.1737 79.49 60.3948 79.3269 60.5579C79.1638 60.721 78.9427 60.8127 78.712 60.813V60.813ZM78.712 59.756C78.6751 59.756 78.6389 59.767 78.6081 59.7875C78.5774 59.8081 78.5534 59.8373 78.5393 59.8714C78.5251 59.9056 78.5214 59.9432 78.5286 59.9795C78.5359 60.0158 78.5537 60.0491 78.5798 60.0752C78.606 60.1014 78.6393 60.1192 78.6756 60.1264C78.7118 60.1336 78.7494 60.1299 78.7836 60.1158C78.8178 60.1016 78.847 60.0776 78.8675 60.0469C78.8881 60.0161 78.899 59.98 78.899 59.943C78.899 59.8934 78.8793 59.8458 78.8443 59.8108C78.8092 59.7757 78.7616 59.756 78.712 59.756Z" fill="white"/>
<path d="M59.085 90.753H73.068V83.107H59.085V90.753Z" fill="black"/>
<path d="M71.863 89.557H60.412C60.3213 89.557 60.2343 89.521 60.1702 89.4568C60.106 89.3927 60.07 89.3057 60.07 89.215V84.315C60.07 84.2243 60.106 84.1373 60.1702 84.0732C60.2343 84.009 60.3213 83.973 60.412 83.973H71.863C71.9537 83.973 72.0407 84.009 72.1048 84.0732C72.169 84.1373 72.205 84.2243 72.205 84.315V89.215C72.205 89.3057 72.169 89.3927 72.1048 89.4568C72.0407 89.521 71.9537 89.557 71.863 89.557V89.557ZM60.753 84.656V88.873H71.521V84.656H60.753Z" fill="white"/>
<path d="M66.405 88.604C66.1722 88.6076 65.9409 88.5652 65.7245 88.4794C65.508 88.3936 65.3105 88.266 65.1434 88.1038C64.9762 87.9417 64.8426 87.7482 64.7503 87.5345C64.6579 87.3207 64.6086 87.0908 64.605 86.858C64.6086 86.6252 64.6579 86.3953 64.7503 86.1815C64.8426 85.9678 64.9762 85.7743 65.1434 85.6121C65.3105 85.45 65.508 85.3224 65.7245 85.2366C65.9409 85.1508 66.1722 85.1084 66.405 85.112C66.8736 85.1074 67.3248 85.2885 67.6602 85.6157C67.9957 85.9429 68.1879 86.3895 68.195 86.858C68.1879 87.3265 67.9957 87.7731 67.6602 88.1003C67.3248 88.4274 66.8736 88.6085 66.405 88.604V88.604ZM66.405 85.795C66.2619 85.7913 66.1193 85.8158 65.9857 85.8673C65.852 85.9187 65.7298 85.996 65.626 86.0948C65.5222 86.1935 65.439 86.3117 65.381 86.4427C65.323 86.5737 65.2914 86.7148 65.288 86.858C65.2915 87.0011 65.3232 87.1421 65.3813 87.273C65.4393 87.4038 65.5226 87.5219 65.6264 87.6206C65.7301 87.7192 65.8523 87.7964 65.9859 87.8478C66.1195 87.8992 66.2619 87.9237 66.405 87.92C66.6922 87.9246 66.9695 87.8155 67.1766 87.6166C67.3838 87.4177 67.504 87.1451 67.511 86.858C67.5042 86.5707 67.3841 86.2978 67.177 86.0987C66.9698 85.8996 66.6923 85.7904 66.405 85.795V85.795Z" fill="white"/>
<path d="M62.4 87.425C62.2593 87.4248 62.1218 87.3829 62.0048 87.3046C61.8879 87.2263 61.7968 87.1151 61.743 86.985C61.6893 86.8549 61.6753 86.7119 61.7028 86.5738C61.7303 86.4358 61.7981 86.309 61.8976 86.2095C61.9971 86.11 62.1239 86.0422 62.2619 86.0147C62.3999 85.9872 62.543 86.0012 62.673 86.055C62.8031 86.1088 62.9143 86.1999 62.9926 86.3168C63.0709 86.4337 63.1128 86.5713 63.113 86.712C63.113 86.9011 63.0379 87.0824 62.9042 87.2162C62.7705 87.3499 62.5891 87.425 62.4 87.425Z" fill="white"/>
<path d="M70.023 87.425C69.8823 87.4248 69.7448 87.3829 69.6278 87.3046C69.5109 87.2263 69.4198 87.1151 69.366 86.985C69.3123 86.8549 69.2982 86.7119 69.3257 86.5738C69.3532 86.4358 69.421 86.309 69.5206 86.2095C69.6201 86.11 69.7468 86.0422 69.8849 86.0147C70.0229 85.9872 70.166 86.0012 70.296 86.055C70.4261 86.1088 70.5373 86.1999 70.6156 86.3168C70.6939 86.4337 70.7358 86.5713 70.736 86.712C70.736 86.9011 70.6609 87.0824 70.5272 87.2162C70.3935 87.3499 70.2121 87.425 70.023 87.425Z" fill="white"/>
<path d="M24.893 38.563L48.48 38.696V53.996H20.502L20.587 42.283L24.893 38.563Z" fill="black"/>
<path d="M46.069 51.258H23.158C23.0675 51.258 22.9807 51.2221 22.9166 51.1582C22.8525 51.0943 22.8163 51.0075 22.816 50.917V41.112C22.816 41.0213 22.8521 40.9343 22.9162 40.8702C22.9803 40.806 23.0673 40.77 23.158 40.77H46.069C46.1597 40.77 46.2467 40.806 46.3109 40.8702C46.375 40.9343 46.411 41.0213 46.411 41.112V50.912C46.4116 50.9572 46.4031 51.0021 46.3862 51.0441C46.3692 51.0861 46.3441 51.1242 46.3123 51.1564C46.2805 51.1886 46.2426 51.2141 46.2008 51.2316C46.1591 51.249 46.1143 51.258 46.069 51.258ZM23.499 41.453V50.57H45.727V41.453H23.499Z" fill="white"/>
<path d="M35.139 49.35C34.2906 49.3631 33.4718 49.0387 32.8625 48.4482C32.2532 47.8577 31.9034 47.0494 31.89 46.201C31.8964 45.7807 31.9855 45.3659 32.1523 44.9801C32.319 44.5943 32.5601 44.2451 32.8618 43.9525C33.1635 43.6599 33.5199 43.4296 33.9106 43.2747C34.3014 43.1199 34.7188 43.0435 35.139 43.05C35.5594 43.0432 35.977 43.1194 36.368 43.2741C36.759 43.4289 37.1156 43.6591 37.4175 43.9518C37.7194 44.2444 37.9607 44.5937 38.1276 44.9796C38.2945 45.3655 38.3836 45.7806 38.39 46.201C38.3834 46.6212 38.294 47.0361 38.127 47.4218C37.96 47.8075 37.7187 48.1565 37.4168 48.4489C37.1149 48.7413 36.7584 48.9714 36.3675 49.126C35.9767 49.2806 35.5593 49.3567 35.139 49.35ZM35.139 43.731C34.4714 43.7189 33.8263 43.9722 33.3452 44.4353C32.8641 44.8984 32.5864 45.5334 32.573 46.201C32.5869 46.8682 32.8649 47.5027 33.3459 47.9654C33.8269 48.428 34.4717 48.681 35.139 48.669C35.8061 48.6808 36.4507 48.4276 36.9315 47.965C37.4123 47.5024 37.6901 46.8681 37.704 46.201C37.6901 45.5339 37.4123 44.8996 36.9315 44.437C36.4507 43.9743 35.8061 43.7212 35.139 43.733V43.731Z" fill="white"/>
<path d="M27.136 46.993C26.9215 46.9932 26.7118 46.9298 26.5334 46.8107C26.355 46.6917 26.2159 46.5224 26.1337 46.3243C26.0516 46.1262 26.03 45.9081 26.0718 45.6978C26.1136 45.4874 26.2169 45.2942 26.3685 45.1425C26.5202 44.9908 26.7134 44.8876 26.9238 44.8458C27.1342 44.804 27.3522 44.8255 27.5503 44.9077C27.7484 44.9899 27.9177 45.129 28.0368 45.3074C28.1558 45.4858 28.2192 45.6955 28.219 45.91C28.2185 46.1971 28.1042 46.4722 27.9012 46.6752C27.6983 46.8782 27.4231 46.9925 27.136 46.993V46.993ZM27.136 45.509C27.0569 45.509 26.9796 45.5325 26.9138 45.5764C26.848 45.6204 26.7967 45.6828 26.7665 45.7559C26.7362 45.829 26.7283 45.9094 26.7437 45.987C26.7591 46.0646 26.7972 46.1359 26.8532 46.1918C26.9091 46.2478 26.9804 46.2859 27.058 46.3013C27.1356 46.3167 27.216 46.3088 27.2891 46.2785C27.3622 46.2483 27.4247 46.197 27.4686 46.1312C27.5126 46.0654 27.536 45.9881 27.536 45.909C27.536 45.8029 27.4939 45.7012 27.4189 45.6262C27.3439 45.5511 27.2421 45.509 27.136 45.509V45.509Z" fill="white"/>
<path d="M42.388 46.993C42.1736 46.9932 41.9638 46.9298 41.7854 46.8107C41.607 46.6917 41.4679 46.5224 41.3857 46.3243C41.3036 46.1262 41.282 45.9081 41.3238 45.6978C41.3656 45.4874 41.4689 45.2942 41.6205 45.1425C41.7722 44.9908 41.9654 44.8876 42.1758 44.8458C42.3862 44.804 42.6042 44.8255 42.8023 44.9077C43.0004 44.9899 43.1697 45.129 43.2888 45.3074C43.4078 45.4858 43.4712 45.6955 43.471 45.91C43.4705 46.1971 43.3562 46.4722 43.1533 46.6752C42.9503 46.8782 42.6751 46.9925 42.388 46.993V46.993ZM42.388 45.509C42.3089 45.509 42.2316 45.5325 42.1658 45.5764C42.1 45.6204 42.0488 45.6828 42.0185 45.7559C41.9882 45.829 41.9803 45.9094 41.9957 45.987C42.0112 46.0646 42.0493 46.1359 42.1052 46.1918C42.1611 46.2478 42.2324 46.2859 42.31 46.3013C42.3876 46.3167 42.468 46.3088 42.5411 46.2785C42.6142 46.2483 42.6767 46.197 42.7206 46.1312C42.7646 46.0654 42.788 45.9881 42.788 45.909C42.788 45.8029 42.7459 45.7012 42.6709 45.6262C42.5959 45.5511 42.4941 45.509 42.388 45.509V45.509Z" fill="white"/>
<path d="M20.608 42.263L25.021 42.323L24.889 38.563" fill="black"/>
<path d="M20.608 42.263L25.021 42.323L24.889 38.563" fill="white" fill-opacity="0.15"/>
<path d="M42.783 111.775H26.154C26.1089 111.775 26.0643 111.766 26.0227 111.749C25.9811 111.731 25.9433 111.706 25.9115 111.674C25.8797 111.642 25.8545 111.604 25.8375 111.562C25.8204 111.521 25.8118 111.476 25.812 111.431V102.773C25.812 102.682 25.848 102.595 25.9122 102.531C25.9763 102.467 26.0633 102.431 26.154 102.431H42.783C42.8737 102.431 42.9607 102.467 43.0248 102.531C43.089 102.595 43.125 102.682 43.125 102.773V111.431C43.1253 111.476 43.1166 111.521 43.0996 111.562C43.0825 111.604 43.0573 111.642 43.0256 111.674C42.9938 111.706 42.956 111.731 42.9144 111.749C42.8727 111.766 42.8281 111.775 42.783 111.775V111.775ZM26.495 103.114V111.092H42.441V103.114H26.495Z" fill="black"/>
<path d="M32.075 107.104C32.0776 106.792 32.1416 106.484 32.2634 106.197C32.3851 105.91 32.5622 105.65 32.7845 105.431C33.0068 105.213 33.2699 105.04 33.559 104.923C33.848 104.806 34.1573 104.747 34.469 104.75C35.0985 104.745 35.7042 104.99 36.1529 105.432C36.6017 105.873 36.8567 106.475 36.862 107.104C36.8565 107.733 36.6013 108.335 36.1526 108.776C35.7038 109.217 35.0983 109.462 34.469 109.457C33.8396 109.462 33.2337 109.217 32.7848 108.776C32.3359 108.335 32.0806 107.733 32.075 107.104" fill="black"/>
<path d="M140.013 67.341H123.384C123.339 67.341 123.294 67.3321 123.253 67.3148C123.211 67.2975 123.173 67.2721 123.141 67.2401C123.11 67.2081 123.085 67.1702 123.067 67.1285C123.05 67.0868 123.042 67.0421 123.042 66.997V58.339C123.042 58.2483 123.078 58.1613 123.142 58.0972C123.206 58.033 123.293 57.997 123.384 57.997H140.014C140.105 57.997 140.192 58.033 140.256 58.0972C140.32 58.1613 140.356 58.2483 140.356 58.339V66.997C140.356 67.0422 140.348 67.0869 140.33 67.1287C140.313 67.1705 140.288 67.2085 140.256 67.2405C140.224 67.2725 140.186 67.2978 140.145 67.3151C140.103 67.3323 140.058 67.3411 140.013 67.341ZM123.725 58.68V66.657H139.672V58.68H123.725Z" fill="black"/>
<path d="M129.305 62.669C129.308 62.3572 129.372 62.049 129.493 61.762C129.615 61.475 129.792 61.2147 130.014 60.9962C130.237 60.7776 130.5 60.6049 130.789 60.488C131.078 60.3712 131.387 60.3124 131.699 60.315C132.328 60.3099 132.934 60.5551 133.383 60.9965C133.832 61.4379 134.087 62.0395 134.092 62.669C134.086 63.2983 133.831 63.8996 133.383 64.3408C132.934 64.7821 132.328 65.0271 131.699 65.022C131.07 65.0273 130.464 64.7824 130.015 64.3412C129.566 63.8999 129.311 63.2985 129.305 62.669" fill="black"/>
<path d="M57.919 33.625H41.29C41.2449 33.625 41.2003 33.6161 41.1587 33.5988C41.117 33.5815 41.0792 33.5561 41.0475 33.5241C41.0157 33.4921 40.9905 33.4542 40.9735 33.4125C40.9564 33.3708 40.9477 33.3261 40.948 33.281V24.623C40.948 24.5323 40.984 24.4453 41.0482 24.3812C41.1123 24.317 41.1993 24.281 41.29 24.281H57.919C58.0097 24.281 58.0967 24.317 58.1608 24.3812C58.225 24.4453 58.261 24.5323 58.261 24.623V33.281C58.2613 33.3261 58.2526 33.3708 58.2355 33.4125C58.2185 33.4542 58.1933 33.4921 58.1615 33.5241C58.1298 33.5561 58.092 33.5815 58.0503 33.5988C58.0087 33.6161 57.9641 33.625 57.919 33.625V33.625ZM41.631 24.964V32.942H57.578V24.964H41.631Z" fill="black"/>
<path d="M47.211 28.953C47.2165 28.3235 47.4719 27.722 47.9208 27.2808C48.3697 26.8395 48.9755 26.5947 49.605 26.6C50.2345 26.5947 50.8403 26.8395 51.2892 27.2808C51.7381 27.722 51.9935 28.3235 51.999 28.953C51.9964 29.2647 51.9324 29.5729 51.8107 29.86C51.6889 30.147 51.5119 30.4072 51.2896 30.6258C51.0672 30.8444 50.8041 31.0171 50.515 31.134C50.226 31.2508 49.9168 31.3096 49.605 31.307C49.2932 31.3096 48.984 31.2508 48.695 31.134C48.4059 31.0171 48.1428 30.8444 47.9204 30.6258C47.6981 30.4072 47.5211 30.147 47.3993 29.86C47.2776 29.5729 47.2136 29.2647 47.211 28.953" fill="black"/>
<path d="M49.725 118.454H58.965C59.3176 118.454 59.6667 118.523 59.9924 118.658C60.3181 118.793 60.614 118.991 60.8632 119.24C61.1125 119.49 61.3102 119.786 61.445 120.112C61.5798 120.437 61.6491 120.786 61.649 121.139V123.839C61.649 124.551 61.3662 125.234 60.8629 125.737C60.3595 126.24 59.6769 126.523 58.965 126.523H49.725C49.0137 126.523 48.3315 126.241 47.8282 125.738C47.3249 125.235 47.0418 124.553 47.041 123.842V121.142C47.0405 120.789 47.1095 120.44 47.2442 120.114C47.3788 119.788 47.5764 119.491 47.8257 119.242C48.075 118.992 48.3711 118.794 48.697 118.659C49.0229 118.524 49.3722 118.454 49.725 118.454" fill="black"/>
<path d="M50.541 120.374H58.149C58.374 120.353 58.598 120.422 58.773 120.565C58.948 120.708 59.0601 120.913 59.085 121.138C59.0601 121.362 58.948 121.568 58.773 121.711C58.598 121.854 58.374 121.922 58.149 121.902H50.541C50.3161 121.922 50.092 121.854 49.917 121.711C49.742 121.568 49.63 121.362 49.605 121.138C49.63 120.913 49.742 120.708 49.917 120.565C50.092 120.422 50.3161 120.353 50.541 120.374" fill="white"/>
<path d="M50.541 123.079H58.149C58.374 123.059 58.598 123.127 58.773 123.27C58.948 123.413 59.0601 123.618 59.085 123.843C59.0601 124.068 58.948 124.273 58.773 124.416C58.598 124.559 58.374 124.627 58.149 124.607H50.541C50.3161 124.627 50.092 124.559 49.917 124.416C49.742 124.273 49.63 124.068 49.605 123.843C49.63 123.618 49.742 123.413 49.917 123.27C50.092 123.127 50.3161 123.059 50.541 123.079" fill="white"/>
<path d="M78.431 41.873H87.671C88.3829 41.873 89.0655 42.1558 89.5689 42.6591C90.0722 43.1625 90.355 43.8451 90.355 44.557V47.257C90.355 47.9688 90.0722 48.6515 89.5689 49.1549C89.0655 49.6582 88.3829 49.941 87.671 49.941H78.431C77.7199 49.941 77.0378 49.6588 76.5346 49.1563C76.0313 48.6538 75.7481 47.9721 75.747 47.261V44.561C75.7465 44.2082 75.8155 43.8587 75.9502 43.5326C76.0848 43.2065 76.2824 42.9102 76.5317 42.6605C76.781 42.4109 77.0771 42.2128 77.403 42.0777C77.7289 41.9425 78.0782 41.873 78.431 41.873" fill="black"/>
<path d="M79.247 43.793H86.855C87.08 43.7725 87.304 43.841 87.479 43.9839C87.654 44.1267 87.7661 44.3325 87.791 44.557C87.7661 44.7815 87.654 44.9873 87.479 45.1301C87.304 45.273 87.08 45.3415 86.855 45.321H79.247C79.0221 45.3415 78.798 45.273 78.623 45.1301C78.448 44.9873 78.336 44.7815 78.311 44.557C78.336 44.3325 78.448 44.1267 78.623 43.9839C78.798 43.841 79.0221 43.7725 79.247 43.793" fill="white"/>
<path d="M79.247 46.498H86.855C87.08 46.4775 87.304 46.546 87.479 46.6889C87.654 46.8317 87.7661 47.0375 87.791 47.262C87.7661 47.4865 87.654 47.6923 87.479 47.8351C87.304 47.978 87.08 48.0465 86.855 48.026H79.247C79.0221 48.0465 78.798 47.978 78.623 47.8351C78.448 47.6923 78.336 47.4865 78.311 47.262C78.336 47.0375 78.448 46.8317 78.623 46.6889C78.798 46.546 79.0221 46.4775 79.247 46.498" fill="white"/>
<path d="M83.027 163.864C82.9365 163.864 82.8496 163.828 82.7855 163.764C82.7214 163.7 82.6853 163.614 82.685 163.523L82.442 79.615C82.4419 79.5701 82.4506 79.5256 82.4677 79.484C82.4847 79.4425 82.5098 79.4047 82.5415 79.3729C82.5731 79.341 82.6108 79.3157 82.6522 79.2984C82.6937 79.2811 82.7381 79.2721 82.783 79.272V79.272C82.8735 79.272 82.9604 79.3079 83.0245 79.3718C83.0886 79.4357 83.1248 79.5225 83.125 79.613L83.369 163.521C83.3691 163.566 83.3604 163.61 83.3434 163.652C83.3263 163.693 83.3012 163.731 83.2696 163.763C83.2379 163.795 83.2003 163.82 83.1588 163.838C83.1174 163.855 83.0729 163.864 83.028 163.864H83.027Z" fill="black"/>
<path d="M39.327 80.225C35.148 80.225 34.21 75.645 34.198 75.6C34.1966 75.5817 34.1966 75.5633 34.198 75.545L33.698 53.194C33.6961 53.1034 33.7302 53.0159 33.7929 52.9504C33.8555 52.885 33.9415 52.8471 34.032 52.845C34.1216 52.8463 34.2074 52.8815 34.2721 52.9435C34.3368 53.0054 34.3757 53.0895 34.381 53.179L34.881 75.496C34.964 75.888 35.848 79.652 39.495 79.539C51.44 79.158 82.395 79.29 82.706 79.29C82.7934 79.2947 82.8756 79.3328 82.9358 79.3963C82.996 79.4598 83.0295 79.544 83.0295 79.6315C83.0295 79.719 82.996 79.8032 82.9358 79.8667C82.8756 79.9302 82.7934 79.9683 82.706 79.973V79.973C82.395 79.973 51.454 79.84 39.52 80.221C39.458 80.221 39.396 80.221 39.335 80.221" fill="black"/>
<path d="M44.37 39.55C44.2803 39.5497 44.1943 39.5143 44.1306 39.4512C44.0668 39.3882 44.0303 39.3027 44.029 39.213L44 33.356C43.9997 33.3111 44.0083 33.2667 44.0253 33.2251C44.0422 33.1836 44.0672 33.1458 44.0988 33.1139C44.1304 33.0821 44.168 33.0567 44.2094 33.0394C44.2507 33.0221 44.2951 33.0131 44.34 33.013V33.013C44.3849 33.0127 44.4293 33.0213 44.4709 33.0383C44.5124 33.0552 44.5502 33.0802 44.5821 33.1118C44.6139 33.1434 44.6393 33.181 44.6566 33.2223C44.6739 33.2637 44.6829 33.3081 44.683 33.353L44.712 39.207C44.7123 39.2975 44.6766 39.3845 44.6129 39.4488C44.5492 39.5131 44.4625 39.5495 44.372 39.55H44.37Z" fill="black"/>
<path d="M70.522 83.856C70.4576 83.8558 70.3946 83.8375 70.3401 83.8031C70.2857 83.7687 70.2421 83.7197 70.2143 83.6616C70.1865 83.6035 70.1757 83.5387 70.183 83.4748C70.1904 83.4108 70.2157 83.3502 70.256 83.3L73.23 79.597C73.2575 79.5602 73.2921 79.5293 73.3318 79.5062C73.3714 79.483 73.4154 79.4681 73.4609 79.4623C73.5065 79.4565 73.5528 79.46 73.597 79.4724C73.6412 79.4849 73.6824 79.5062 73.7182 79.5349C73.754 79.5637 73.7837 79.5993 73.8054 79.6398C73.8271 79.6803 73.8405 79.7247 73.8447 79.7704C73.8488 79.8162 73.8438 79.8623 73.8297 79.906C73.8157 79.9498 73.793 79.9902 73.763 80.025L70.789 83.728C70.757 83.7681 70.7164 83.8004 70.6702 83.8226C70.6239 83.8448 70.5733 83.8562 70.522 83.856" fill="black"/>
<path d="M75.561 163.786H89.361C89.6338 163.786 89.8954 163.894 90.0883 164.087C90.2812 164.28 90.3895 164.542 90.3895 164.815C90.3895 165.087 90.2812 165.349 90.0883 165.542C89.8954 165.735 89.6338 165.843 89.361 165.843H75.561C75.2883 165.843 75.0267 165.735 74.8338 165.542C74.6409 165.349 74.5325 165.087 74.5325 164.815C74.5325 164.542 74.6409 164.28 74.8338 164.087C75.0267 163.894 75.2883 163.786 75.561 163.786" fill="#FF0E11"/>
<path d="M76.01 164.842L78.271 175.72L87.021 175.93L89.156 164.675L76.01 164.842Z" fill="#FF0E11"/>
<path d="M55.505 99.61C55.512 99.0711 55.6253 98.539 55.8381 98.0439C56.051 97.5488 56.3594 97.1006 56.7457 96.7248C57.132 96.349 57.5886 96.0531 58.0893 95.8539C58.5901 95.6547 59.1252 95.5562 59.664 95.564C60.2028 95.5563 60.7378 95.6549 61.2384 95.8542C61.739 96.0534 62.1955 96.3494 62.5816 96.7251C62.9678 97.1009 63.2761 97.5491 63.489 98.0441C63.7018 98.5391 63.815 99.0712 63.822 99.61C63.815 100.149 63.7018 100.681 63.489 101.176C63.2761 101.671 62.9678 102.119 62.5816 102.495C62.1955 102.871 61.739 103.167 61.2384 103.366C60.7378 103.565 60.2028 103.664 59.664 103.656C59.1252 103.664 58.5901 103.565 58.0893 103.366C57.5886 103.167 57.132 102.871 56.7457 102.495C56.3594 102.119 56.051 101.671 55.8381 101.176C55.6253 100.681 55.512 100.149 55.505 99.61" fill="#FFBE00"/>
<path d="M59.664 103.996C58.4862 104.009 57.3511 103.555 56.5075 102.733C55.664 101.911 55.1809 100.788 55.164 99.61C55.1806 98.432 55.6636 97.3087 56.5072 96.4863C57.3508 95.664 58.486 95.2096 59.664 95.223C60.842 95.2096 61.9773 95.664 62.8208 96.4863C63.6644 97.3087 64.1474 98.432 64.164 99.61C64.1471 100.788 63.664 101.911 62.8205 102.733C61.9769 103.555 60.8418 104.009 59.664 103.996ZM59.664 95.905C58.6677 95.8914 57.7066 96.2731 56.9912 96.9666C56.2758 97.6601 55.8644 98.6088 55.847 99.605C55.862 100.603 56.2724 101.554 56.9881 102.249C57.7038 102.945 58.6662 103.328 59.664 103.314C60.6603 103.328 61.6214 102.946 62.3368 102.252C63.0522 101.559 63.4636 100.61 63.481 99.614C63.466 98.6162 63.0556 97.6652 62.3399 96.9698C61.6242 96.2743 60.6618 95.8914 59.664 95.905V95.905Z" fill="black"/>
<path d="M57.08 99.61C57.0898 98.9342 57.3674 98.2899 57.8519 97.8187C58.3364 97.3475 58.9882 97.0879 59.664 97.097C60.3398 97.0879 60.9916 97.3475 61.4761 97.8187C61.9606 98.2899 62.2383 98.9342 62.248 99.61C62.2385 100.286 61.961 100.931 61.4765 101.402C60.9919 101.873 60.34 102.133 59.664 102.124C58.988 102.133 58.3361 101.873 57.8516 101.402C57.367 100.931 57.0895 100.286 57.08 99.61" fill="#FFBE00"/>
<path d="M59.664 102.465C58.898 102.472 58.1603 102.176 57.6121 101.64C57.0638 101.105 56.7496 100.375 56.738 99.609C56.7486 98.8428 57.0625 98.1121 57.611 97.5771C58.1596 97.0421 58.8979 96.7465 59.664 96.755C60.4302 96.7465 61.1685 97.0421 61.717 97.5771C62.2655 98.1121 62.5795 98.8428 62.59 99.609C62.58 100.376 62.2663 101.107 61.7177 101.642C61.1692 102.178 60.4306 102.474 59.664 102.465V102.465ZM59.664 97.438C59.079 97.4294 58.5144 97.6531 58.094 98.0601C57.6735 98.467 57.4316 99.024 57.421 99.609C57.4308 100.195 57.6724 100.752 58.0929 101.16C58.5134 101.567 59.0785 101.792 59.664 101.783C60.2494 101.791 60.8142 101.567 61.2345 101.16C61.6548 100.752 61.8963 100.194 61.906 99.609C61.896 99.0239 61.6544 98.4667 61.2341 98.0595C60.8138 97.6523 60.2492 97.4284 59.664 97.437V97.438Z" fill="black"/>
<path d="M20.263 63.201C20.27 62.6621 20.3832 62.13 20.5961 61.6349C20.809 61.1398 21.1174 60.6916 21.5037 60.3158C21.89 59.94 22.3466 59.6441 22.8473 59.4449C23.348 59.2457 23.8832 59.1472 24.422 59.155C24.9608 59.1473 25.4958 59.2459 25.9964 59.4452C26.497 59.6444 26.9535 59.9404 27.3396 60.3161C27.7258 60.6919 28.0341 61.1401 28.247 61.6351C28.4598 62.1301 28.573 62.6622 28.58 63.201C28.5728 63.7397 28.4596 64.2717 28.2467 64.7666C28.0338 65.2615 27.7254 65.7096 27.3393 66.0852C26.9531 66.4609 26.4967 66.7567 25.9962 66.9559C25.4956 67.1551 24.9607 67.2537 24.422 67.246C23.8832 67.2538 23.3482 67.1553 22.8475 66.9562C22.3468 66.7571 21.8903 66.4612 21.5041 66.0856C21.1178 65.7099 20.8094 65.2618 20.5964 64.7668C20.3835 64.2719 20.2702 63.7398 20.263 63.201" fill="#FFBE00"/>
<path d="M24.421 67.587C23.2432 67.6003 22.1081 67.1462 21.2646 66.324C20.421 65.5018 19.9379 64.3788 19.921 63.201C19.9376 62.023 20.4207 60.8997 21.2642 60.0773C22.1078 59.255 23.243 58.8006 24.421 58.814C25.599 58.8006 26.7343 59.255 27.5778 60.0773C28.4214 60.8997 28.9044 62.023 28.921 63.201C28.9042 64.3788 28.421 65.5018 27.5775 66.324C26.7339 67.1462 25.5989 67.6003 24.421 67.587ZM24.421 59.496C23.4247 59.4823 22.4637 59.8641 21.7482 60.5576C21.0328 61.251 20.6214 62.1998 20.604 63.196C20.619 64.1938 21.0294 65.1448 21.7451 65.8402C22.4608 66.5357 23.4232 66.9186 24.421 66.905C25.4173 66.9186 26.3784 66.5369 27.0938 65.8434C27.8092 65.1499 28.2207 64.2012 28.238 63.205C28.223 62.2072 27.8126 61.2562 27.0969 60.5607C26.3813 59.8653 25.4188 59.4824 24.421 59.496V59.496Z" fill="black"/>
<path d="M21.837 63.201C21.8465 62.525 22.124 61.8805 22.6086 61.4091C23.0931 60.9376 23.7451 60.6779 24.421 60.687C25.097 60.6779 25.7489 60.9376 26.2335 61.4091C26.718 61.8805 26.9956 62.525 27.005 63.201C26.9956 63.877 26.718 64.5215 26.2335 64.9929C25.7489 65.4644 25.097 65.7241 24.421 65.715C23.7451 65.7241 23.0931 65.4644 22.6086 64.9929C22.124 64.5215 21.8465 63.877 21.837 63.201" fill="#FFBE00"/>
<path d="M24.422 66.056C23.6557 66.0645 22.9172 65.7687 22.3687 65.2335C21.8201 64.6983 21.5063 63.9673 21.496 63.201C21.5063 62.4347 21.8201 61.7037 22.3687 61.1685C22.9172 60.6332 23.6557 60.3374 24.422 60.346C25.1879 60.339 25.9255 60.6353 26.4737 61.1702C27.0218 61.7051 27.3362 62.4352 27.348 63.201C27.3362 63.9668 27.0218 64.6969 26.4737 65.2317C25.9255 65.7666 25.1879 66.0629 24.422 66.056V66.056ZM24.422 61.028C23.8366 61.0194 23.2718 61.2434 22.8513 61.6508C22.4308 62.0581 22.189 62.6156 22.179 63.201C22.189 63.7864 22.4308 64.3439 22.8513 64.7512C23.2718 65.1586 23.8366 65.3825 24.422 65.374C25.0072 65.3823 25.5719 65.1582 25.9921 64.7509C26.4124 64.3435 26.654 63.7862 26.664 63.201C26.654 62.6158 26.4124 62.0584 25.9921 61.6511C25.5719 61.2438 25.0072 61.0197 24.422 61.028V61.028Z" fill="black"/>
<path d="M102.531 27.63C102.538 27.0911 102.651 26.5589 102.864 26.0639C103.077 25.5688 103.385 25.1206 103.772 24.7448C104.158 24.369 104.615 24.073 105.115 23.8739C105.616 23.6747 106.151 23.5762 106.69 23.584C107.229 23.5763 107.764 23.6749 108.264 23.8742C108.765 24.0734 109.221 24.3694 109.608 24.7451C109.994 25.1209 110.302 25.5691 110.515 26.0641C110.728 26.5591 110.841 27.0912 110.848 27.63C110.841 28.1687 110.728 28.7007 110.515 29.1956C110.302 29.6905 109.993 30.1385 109.607 30.5142C109.221 30.8899 108.765 31.1857 108.264 31.3849C107.764 31.5841 107.229 31.6827 106.69 31.675C106.151 31.6828 105.616 31.5843 105.116 31.3852C104.615 31.1861 104.158 30.8902 103.772 30.5146C103.386 30.1389 103.077 29.6908 102.864 29.1958C102.651 28.7008 102.538 28.1688 102.531 27.63" fill="#FFBE00"/>
<path d="M106.689 32.016C105.511 32.0293 104.376 31.5752 103.533 30.753C102.689 29.9309 102.206 28.8078 102.189 27.63C102.206 26.452 102.689 25.3287 103.532 24.5063C104.376 23.684 105.511 23.2296 106.689 23.243C107.867 23.2296 109.002 23.684 109.846 24.5063C110.689 25.3287 111.172 26.452 111.189 27.63C111.172 28.8078 110.689 29.9309 109.845 30.753C109.002 31.5752 107.867 32.0293 106.689 32.016ZM106.689 23.925C105.693 23.9113 104.732 24.2931 104.016 24.9866C103.301 25.68 102.889 26.6288 102.872 27.625C102.887 28.6228 103.297 29.5738 104.013 30.2692C104.729 30.9647 105.691 31.3476 106.689 31.334C107.685 31.3476 108.646 30.9659 109.362 30.2724C110.077 29.5789 110.489 28.6302 110.506 27.634C110.491 26.6362 110.081 25.6852 109.365 24.9897C108.649 24.2943 107.687 23.9114 106.689 23.925V23.925Z" fill="black"/>
<path d="M104.105 27.629C104.115 26.953 104.392 26.3085 104.877 25.8371C105.361 25.3656 106.013 25.1059 106.689 25.115C107.365 25.1056 108.017 25.3652 108.502 25.8367C108.987 26.3081 109.265 26.9528 109.274 27.629C109.265 28.3051 108.987 28.9498 108.502 29.4213C108.017 29.8927 107.365 30.1523 106.689 30.143C106.013 30.1521 105.361 29.8924 104.877 29.4209C104.392 28.9495 104.115 28.305 104.105 27.629" fill="#FFBE00"/>
<path d="M106.689 30.484C105.923 30.491 105.186 30.1946 104.637 29.6598C104.089 29.1249 103.775 28.3948 103.763 27.629C103.775 26.8632 104.089 26.1331 104.637 25.5982C105.186 25.0633 105.923 24.767 106.689 24.774C107.455 24.7655 108.194 25.0612 108.742 25.5965C109.291 26.1317 109.605 26.8627 109.615 27.629C109.605 28.3953 109.291 29.1263 108.742 29.6615C108.194 30.1968 107.455 30.4925 106.689 30.484V30.484ZM106.689 25.456C106.104 25.4474 105.539 25.6714 105.118 26.0788C104.698 26.4861 104.456 27.0436 104.446 27.629C104.456 28.2144 104.698 28.7719 105.118 29.1792C105.539 29.5866 106.104 29.8106 106.689 29.802C107.274 29.8103 107.839 29.5862 108.259 29.1789C108.679 28.7715 108.921 28.2142 108.931 27.629C108.921 27.0438 108.679 26.4865 108.259 26.0791C107.839 25.6718 107.274 25.4477 106.689 25.456V25.456Z" fill="black"/>
<path d="M80.267 96.905C80.384 96.556 72.557 105.037 76.399 106.367C78.62 107.136 79.813 98.257 80.267 96.905Z" fill="#00B2B2"/>
<path d="M76.668 106.755C76.5382 106.755 76.4094 106.732 76.287 106.689C75.422 106.389 74.541 105.595 75.257 103.509C75.5223 102.818 75.8531 102.154 76.245 101.526C76.682 100.792 77.208 100.001 77.766 99.239C78.954 97.615 79.959 96.565 80.324 96.565C80.3413 96.5648 80.3586 96.5675 80.375 96.573C80.462 96.6035 80.5336 96.6668 80.5745 96.7494C80.6154 96.832 80.6224 96.9273 80.594 97.015C80.503 97.287 80.368 97.941 80.212 98.697C79.474 102.264 78.638 105.813 77.264 106.597C77.0827 106.701 76.8771 106.756 76.668 106.755V106.755ZM79.653 98.009C78.6922 99.1036 77.8141 100.268 77.026 101.493C76.6218 102.119 76.2763 102.781 75.994 103.471C75.7534 103.991 75.6502 104.564 75.694 105.136C75.723 105.351 75.8159 105.553 75.9606 105.715C76.1053 105.877 76.2953 105.992 76.506 106.045C76.5736 106.07 76.6459 106.078 76.7174 106.07C76.7889 106.062 76.8575 106.038 76.918 105.999C78.141 105.305 79.048 100.915 79.535 98.557C79.584 98.341 79.62 98.165 79.653 98.009Z" fill="black"/>
<path d="M87.06 118.374C86.924 118.033 86.449 129.567 90.238 128.09C92.428 127.238 87.589 119.698 87.06 118.374Z" fill="#00B2B2"/>
<path d="M89.592 128.564C89.195 128.563 88.8111 128.422 88.509 128.164C88.0566 127.751 87.7155 127.231 87.517 126.652C86.676 124.508 86.251 118.318 86.926 118.051C86.9646 118.036 87.0056 118.028 87.047 118.028C87.1175 118.028 87.1864 118.049 87.2449 118.088C87.3035 118.127 87.3491 118.183 87.376 118.248C87.476 118.503 87.77 119.039 88.14 119.717L88.173 119.778C89.92 122.978 91.58 126.219 91.039 127.705C90.9838 127.864 90.8945 128.009 90.7774 128.13C90.6603 128.251 90.5182 128.345 90.361 128.405C90.1167 128.505 89.856 128.559 89.592 128.564ZM87.306 119.613C87.2817 121.069 87.3659 122.525 87.558 123.968C87.6542 124.708 87.8186 125.437 88.049 126.146C88.2051 126.698 88.4998 127.2 88.905 127.606C89.094 127.781 89.3415 127.879 89.599 127.881C89.776 127.878 89.9506 127.841 90.114 127.773C90.1814 127.748 90.2422 127.708 90.2916 127.656C90.341 127.604 90.3778 127.542 90.399 127.473C90.88 126.151 88.73 122.218 87.575 120.105L87.306 119.613Z" fill="black"/>
<path d="M153.448 63.532C150.917 69.385 144.621 55.185 139.789 51.474C132.665 45.999 125.922 58.558 125.922 58.558C125.922 58.558 115.134 43.752 117 42.877C123.665 39.749 128.732 36.757 136.957 38.954C147.765 41.842 157.207 54.837 153.448 63.532Z" fill="#FFBE00"/>
<path d="M120.094 45.633C117.807 48.406 111.515 50.681 112.124 51.317C112.733 51.953 114.231 50.633 115.059 50.333C113.483 52.881 112.033 54.52 112.376 54.906C112.719 55.292 113.157 54.713 114.828 53.119C113.703 55.633 113.483 55.633 113.724 55.833C114.268 56.291 114.634 55.915 116.295 53.733C115.07 56.473 114.344 56.195 114.848 56.646C115.352 57.097 115.448 56.546 117.187 53.984C116.445 55.662 117.899 54.643 119.407 51.758C119.859 50.891 121.33 49.314 121.593 48.513C122.211 46.626 121.511 46.677 120.094 45.633Z" fill="white"/>
<path d="M115.124 57.126C114.935 57.1135 114.757 57.032 114.624 56.897C114.528 56.8337 114.452 56.7442 114.405 56.6391C114.359 56.534 114.343 56.4176 114.361 56.304C114.307 56.3216 114.251 56.3336 114.194 56.34C114.165 56.3416 114.136 56.3416 114.107 56.34C113.883 56.3302 113.67 56.2404 113.507 56.087C113.154 55.787 113.291 55.519 113.591 54.925C113.629 54.849 113.676 54.758 113.728 54.652C113.22 55.13 112.921 55.357 112.602 55.357H112.579C112.491 55.3526 112.405 55.3299 112.326 55.2903C112.247 55.2507 112.177 55.1951 112.121 55.127C111.721 54.675 112.199 53.978 113.248 52.45C113.485 52.105 113.763 51.701 114.059 51.256C113.609 51.5648 113.091 51.7606 112.549 51.827C112.424 51.8305 112.299 51.8073 112.184 51.759C112.068 51.7108 111.964 51.6385 111.879 51.547C111.827 51.4939 111.788 51.4294 111.765 51.3585C111.743 51.2876 111.737 51.2124 111.749 51.139C111.818 50.679 112.534 50.265 114.292 49.291C116.112 48.283 118.604 46.902 119.831 45.415C119.887 45.3477 119.966 45.3041 120.052 45.2934C120.139 45.2826 120.227 45.3053 120.297 45.357C120.548 45.542 120.776 45.692 120.978 45.824C122.007 46.5 122.478 46.901 121.915 48.616C121.589 49.315 121.168 49.9661 120.665 50.551C120.315 50.9818 119.996 51.4366 119.71 51.912C119.407 52.4815 119.076 53.0353 118.717 53.571C118.467 53.9525 118.183 54.3112 117.87 54.643C117.672 54.8976 117.387 55.0697 117.07 55.126C117.011 55.1263 116.953 55.1133 116.9 55.088L116.871 55.073C116.702 55.332 116.554 55.56 116.457 55.71C115.802 56.725 115.581 57.067 115.202 57.118C115.176 57.1225 115.15 57.1252 115.124 57.126V57.126ZM116.294 53.391C116.351 53.3911 116.407 53.4055 116.457 53.4327C116.507 53.4599 116.549 53.4992 116.58 53.5469C116.612 53.5946 116.63 53.6493 116.635 53.7061C116.639 53.7628 116.63 53.8199 116.607 53.872C116.246 54.7513 115.756 55.5717 115.152 56.306L115.08 56.394L115.12 56.427C115.399 56.0939 115.65 55.738 115.869 55.363L115.882 55.343C116.157 54.916 116.482 54.409 116.905 53.791C116.948 53.7287 117.01 53.6825 117.082 53.6594C117.154 53.6364 117.232 53.638 117.303 53.6638C117.374 53.6896 117.435 53.7383 117.475 53.8022C117.516 53.8661 117.534 53.9417 117.527 54.017C118.146 53.2728 118.676 52.4586 119.105 51.591C119.406 51.0835 119.743 50.5988 120.115 50.141L120.122 50.132C120.572 49.6043 120.957 49.0245 121.269 48.405C121.693 47.111 121.506 46.988 120.607 46.398C120.457 46.298 120.307 46.198 120.149 46.091C118.502 47.6192 116.64 48.8993 114.624 49.891V49.891C113.903 50.2617 113.207 50.6807 112.542 51.145H112.575C113.047 51.0467 113.493 50.8505 113.885 50.569L113.977 50.515H113.984C114.288 50.321 114.607 50.1537 114.94 50.015C115.006 49.9928 115.078 49.9915 115.145 50.0112C115.212 50.0309 115.271 50.0708 115.315 50.1253C115.358 50.1798 115.384 50.2465 115.389 50.3161C115.393 50.3858 115.376 50.4552 115.34 50.515C114.785 51.415 114.24 52.206 113.802 52.844C113.377 53.4137 113.003 54.0197 112.685 54.655C113.082 54.3391 113.457 53.9966 113.808 53.63L113.82 53.618C114.034 53.409 114.294 53.156 114.593 52.871C114.656 52.8101 114.74 52.7761 114.828 52.776C114.885 52.776 114.941 52.7903 114.991 52.8176C115.042 52.8448 115.084 52.8842 115.115 52.9321C115.146 52.9801 115.165 53.035 115.169 53.0919C115.173 53.1488 115.163 53.2059 115.14 53.258C114.677 54.291 114.354 54.931 114.198 55.238L114.159 55.316C114.097 55.439 114.044 55.545 114.011 55.616C114.04 55.6389 114.074 55.6535 114.111 55.658H114.12C114.428 55.624 115.277 54.506 116.027 53.52C116.059 53.4797 116.099 53.4471 116.146 53.4247C116.192 53.4024 116.243 53.3908 116.294 53.391V53.391Z" fill="black"/>
<path d="M150.136 96.396C150.136 96.396 162.662 101.891 166.252 102.433C166.252 102.433 158.164 133.087 156.995 138.033C156.595 139.707 158.234 149.927 158.36 155.656C158.607 166.843 157.799 175.914 157.799 175.914C157.799 175.914 145.853 176.637 143.291 175.774C140.729 174.911 144.981 173.454 147.55 173.074C150.119 172.694 151.41 171.174 151.501 169.238C151.877 161.205 144.886 145.781 145.533 137.214C146.355 126.33 150.136 96.396 150.136 96.396Z" fill="white"/>
<path d="M149.03 176.538C147.069 176.635 145.104 176.486 143.181 176.095C142.466 175.854 142.122 175.514 142.157 175.082C142.272 173.775 146.398 172.895 147.496 172.731C149.736 172.398 151.07 171.117 151.157 169.218C151.338 165.405 149.847 159.954 148.268 154.181C146.588 148.036 144.852 141.686 145.192 137.184C145.968 126.916 149.401 99.493 149.79 96.4L149.796 96.354C149.803 96.3009 149.821 96.2502 149.851 96.2057C149.881 96.1613 149.92 96.1244 149.967 96.098C150.019 96.0692 150.077 96.054 150.136 96.054C150.183 96.0539 150.229 96.0634 150.272 96.082C150.784 96.306 162.843 101.572 166.303 102.095C166.35 102.102 166.396 102.119 166.436 102.145C166.477 102.171 166.511 102.205 166.538 102.245C166.564 102.285 166.581 102.33 166.589 102.378C166.597 102.425 166.594 102.474 166.582 102.52C166.502 102.82 158.482 133.22 157.327 138.109C157.134 138.922 157.489 142.209 157.864 145.692V145.704C158.227 149.066 158.638 152.877 158.699 155.645C158.943 166.712 158.145 175.852 158.137 175.945C158.129 176.026 158.093 176.102 158.034 176.159C157.976 176.216 157.899 176.251 157.817 176.256C157.33 176.283 152.936 176.538 149.03 176.538ZM150.417 96.891C150.033 99.954 146.637 127.123 145.873 137.235C145.542 141.623 147.263 147.915 148.927 154C150.52 159.827 152.027 165.33 151.841 169.249C151.735 171.505 150.189 173.021 147.599 173.407C145.115 173.778 142.875 174.754 142.84 175.142C142.861 175.177 142.964 175.301 143.398 175.447C145.219 175.809 147.078 175.945 148.933 175.853C152.447 175.853 156.365 175.653 157.482 175.586C157.61 174.005 158.237 165.614 158.017 155.66C157.957 152.918 157.547 149.124 157.186 145.776C156.725 141.499 156.453 138.832 156.662 137.95C157.796 133.154 165.5 103.945 165.827 102.704C163.013 101.963 160.256 101.018 157.58 99.874C154.468 98.638 151.534 97.376 150.417 96.891Z" fill="black"/>
<path d="M147.553 100.094C147.553 100.094 159.448 93.222 161.786 90.445C161.786 90.445 145.302 130.434 148.899 134.02C150.117 135.234 157.027 139.537 161.971 142.43C171.626 148.077 178.926 153.515 178.926 153.515C178.926 153.515 173.286 164.077 171.214 165.809C169.142 167.541 170.123 163.153 171.143 160.764C172.163 158.375 171.543 156.478 169.943 155.387C163.301 150.86 141.114 147.387 134.158 142.352C125.325 135.952 147.55 100.095 147.55 100.095" fill="white"/>
<path d="M170.44 166.546C170.293 166.547 170.151 166.5 170.034 166.411C168.979 165.626 170.392 161.65 170.829 160.629C171.716 158.547 171.329 156.739 169.753 155.669C166.6 153.519 159.937 151.624 152.882 149.618C145.382 147.483 137.617 145.276 133.962 142.629C124.972 136.117 146.348 101.389 147.259 99.914C147.289 99.866 147.33 99.8261 147.379 99.798C147.408 99.781 150.37 98.068 153.643 95.998C155.52 94.811 157.111 93.752 158.372 92.85C159.516 92.0911 160.575 91.211 161.53 90.225C161.562 90.1868 161.602 90.1561 161.647 90.135C161.692 90.1139 161.741 90.103 161.791 90.103C161.847 90.1028 161.903 90.1165 161.952 90.1429C162.002 90.1693 162.044 90.2076 162.076 90.2543C162.107 90.301 162.126 90.3547 162.132 90.4107C162.137 90.4666 162.129 90.5231 162.107 90.575C155.516 106.564 146.625 131.264 149.145 133.775C150.27 134.895 156.77 138.985 162.145 142.132C171.553 147.632 178.826 153.011 179.131 153.232C179.197 153.281 179.243 153.351 179.261 153.431C179.279 153.511 179.269 153.594 179.231 153.667C179.075 153.958 177.664 156.59 176.031 159.367C175.074 160.998 174.224 162.367 173.503 163.444C172.92 164.396 172.224 165.275 171.43 166.06C171.164 166.329 170.815 166.5 170.44 166.546V166.546ZM160.873 91.795C157.259 94.836 148.759 99.791 147.798 100.346C144.143 106.367 140.823 112.584 137.853 118.97C132.106 131.577 130.898 139.566 134.359 142.074C137.917 144.651 145.619 146.842 153.066 148.961C160.179 150.982 166.894 152.892 170.138 155.103C172.004 156.374 172.485 158.486 171.458 160.896C170.472 163.209 170.128 165.627 170.443 165.862C170.483 165.862 170.643 165.839 170.995 165.545C172.807 164.033 177.555 155.345 178.488 153.613C177.211 152.678 170.406 147.756 161.802 142.723C157.126 139.988 149.959 135.553 148.659 134.261C148.065 133.669 146.259 131.869 153.672 110.774C156.502 102.733 159.65 94.823 160.873 91.795Z" fill="black"/>
<path d="M147.835 52.071C147.335 54.053 150.175 56.088 150.052 59.427C149.998 60.932 147.452 64.317 147.152 65.867C146.546 68.983 147.431 69.979 147.586 70.967C148.103 70.0772 148.706 69.2399 149.386 68.467C150.232 68.161 151.749 71.667 152.438 71.129C153.296 70.459 155.693 69.72 156.584 69.111C157.659 68.377 156.304 63.411 157.284 62.561C157.69 62.207 160.561 63.769 160.336 63.271C159.417 61.23 155.591 59.857 153.208 57.571C150.825 55.285 149.508 50.541 149.508 50.541C149.508 50.541 148.338 50.089 147.835 52.071Z" fill="white"/>
<path d="M152.285 71.533C152.258 71.5328 152.23 71.5308 152.203 71.527C151.744 71.464 151.334 70.939 150.703 70.086C150.393 69.667 149.747 68.795 149.51 68.795L149.5 68.806C148.922 69.5184 148.4 70.2747 147.939 71.068V71.068C147.91 71.1353 147.864 71.1936 147.805 71.2368C147.746 71.2799 147.676 71.3062 147.603 71.313C147.578 71.313 147.554 71.3107 147.53 71.306C147.461 71.2927 147.397 71.2584 147.348 71.2077C147.299 71.1571 147.267 71.0926 147.256 71.023C147.209 70.7846 147.142 70.5505 147.056 70.323V70.312C146.529 68.8663 146.449 67.2957 146.826 65.804C147.162 64.7367 147.636 63.7175 148.234 62.772C148.909 61.7429 149.408 60.6083 149.71 59.415C149.671 57.9248 149.218 56.4749 148.403 55.227C147.803 54.112 147.231 53.057 147.503 51.987C147.555 51.6463 147.68 51.3207 147.868 51.0317C148.056 50.7427 148.303 50.497 148.593 50.311C148.787 50.21 149.002 50.1572 149.22 50.157C149.362 50.1556 149.502 50.1786 149.636 50.225C149.686 50.2449 149.731 50.2762 149.767 50.3165C149.802 50.3568 149.828 50.4049 149.842 50.457C150.108 51.3517 150.426 52.2302 150.794 53.088C151.12 53.8623 151.498 54.614 151.925 55.338C152.344 56.0653 152.857 56.7343 153.451 57.328C154.501 58.264 155.64 59.0956 156.851 59.811V59.811C158.509 60.866 160.075 61.863 160.651 63.137C160.683 63.1993 160.698 63.2689 160.695 63.3389C160.691 63.4089 160.669 63.4767 160.632 63.5356C160.594 63.5946 160.541 63.6425 160.479 63.6747C160.417 63.7069 160.347 63.7221 160.277 63.719C159.85 63.6536 159.436 63.5263 159.046 63.341C158.549 63.1284 158.032 62.9663 157.503 62.857H157.484C157.166 63.222 157.25 64.698 157.311 65.775V65.78C157.411 67.464 157.491 68.918 156.782 69.401C156.152 69.7724 155.492 70.0892 154.808 70.348C154.055 70.6243 153.332 70.9789 152.653 71.406C152.548 71.4889 152.419 71.5337 152.285 71.533V71.533ZM149.51 68.109C150.083 68.109 150.622 68.837 151.246 69.679L151.254 69.69C151.532 70.122 151.873 70.5103 152.265 70.842C152.984 70.3886 153.747 70.0113 154.544 69.716V69.716C155.184 69.4727 155.803 69.1784 156.396 68.836C156.785 68.57 156.696 66.98 156.628 65.818V65.808C156.537 64.214 156.459 62.837 157.064 62.308C157.181 62.2102 157.332 62.1608 157.484 62.17C158.11 62.2534 158.719 62.4325 159.291 62.701C159.399 62.743 159.541 62.801 159.678 62.848C158.746 61.869 157.67 61.0387 156.486 60.386C155.235 59.6472 154.059 58.7874 152.976 57.819C151.886 56.6836 151.014 55.358 150.403 53.908C149.949 52.9119 149.562 51.887 149.243 50.84H149.22C149.106 50.8409 148.995 50.8698 148.895 50.924C148.698 51.0714 148.533 51.2562 148.408 51.4678C148.282 51.6794 148.2 51.9136 148.166 52.157C147.959 52.968 148.444 53.863 149.004 54.9C149.884 56.2527 150.365 57.8256 150.393 59.439C150.104 60.7472 149.572 61.9895 148.824 63.101V63.108C148.267 63.9928 147.819 64.9412 147.489 65.933C147.14 67.3084 147.212 68.757 147.696 70.091L147.704 70.115L147.712 70.139C148.906 68.286 149.137 68.202 149.275 68.151C149.35 68.1234 149.43 68.1092 149.51 68.109V68.109Z" fill="black"/>
<path d="M141.172 44.645C142.291 47.9636 143.696 51.1787 145.372 54.254C145.8 54.8821 146.444 55.331 147.182 55.5154C147.919 55.6998 148.699 55.6067 149.372 55.254C150.094 54.9557 150.67 54.387 150.978 53.6694C151.285 52.9518 151.3 52.1424 151.019 51.414C150.05 48.8149 148.901 46.2864 147.58 43.847C147.256 43.3482 146.805 42.9442 146.274 42.676C145.743 42.4078 145.15 42.285 144.556 42.32C143.219 42.564 140.719 43.358 141.172 44.645Z" fill="white"/>
<path d="M147.854 55.933C147.304 55.9417 146.762 55.8091 146.278 55.5481C145.794 55.287 145.385 54.9062 145.091 54.442C143.398 51.3432 141.979 48.1026 140.85 44.757C140.788 44.5866 140.765 44.4046 140.782 44.2242C140.8 44.0438 140.857 43.8695 140.95 43.714C141.625 42.559 144.021 42.07 144.494 41.983C144.644 41.9557 144.797 41.942 144.95 41.942C145.634 41.9619 146.293 42.2037 146.827 42.631C147.212 42.9209 147.556 43.2609 147.85 43.642C149.192 46.1075 150.357 48.6649 151.338 51.295C151.654 52.1037 151.64 53.0041 151.299 53.8026C150.958 54.6011 150.318 55.2339 149.515 55.565C148.994 55.804 148.428 55.9295 147.854 55.933V55.933ZM144.949 42.626C144.838 42.626 144.727 42.636 144.617 42.656C143.402 42.877 141.917 43.409 141.544 44.056C141.5 44.1258 141.472 44.2049 141.464 44.2872C141.455 44.3695 141.466 44.4526 141.495 44.53C142.604 47.8228 143.998 51.0129 145.661 54.064C145.893 54.4327 146.217 54.7351 146.6 54.9415C146.984 55.148 147.414 55.2515 147.85 55.242C148.326 55.2385 148.797 55.1363 149.232 54.942C149.874 54.6786 150.387 54.1739 150.661 53.5364C150.935 52.8988 150.949 52.1792 150.698 51.532C149.741 48.9654 148.609 46.4675 147.31 44.056C147.038 43.6664 146.687 43.3381 146.28 43.0918C145.874 42.8456 145.42 42.6869 144.949 42.626V42.626Z" fill="black"/>
<path d="M145.62 50.89C145.501 50.8908 145.385 50.8529 145.29 50.782C144.736 50.378 145.08 49.09 145.149 48.907C145.182 48.8227 145.247 48.7549 145.33 48.7187C145.414 48.6826 145.508 48.6808 145.592 48.714C145.676 48.7471 145.744 48.8124 145.78 48.8955C145.816 48.9786 145.818 49.0727 145.785 49.157C145.676 49.4852 145.64 49.8334 145.68 50.177C145.74 50.1435 145.797 50.1044 145.85 50.06C145.92 50.003 146.01 49.9761 146.099 49.9849C146.189 49.9938 146.272 50.0377 146.329 50.1073C146.387 50.1768 146.415 50.2662 146.406 50.3561C146.398 50.4459 146.355 50.5289 146.286 50.587C146.106 50.7615 145.87 50.8676 145.62 50.887V50.89Z" fill="black"/>
<path d="M146.211 48.21C146.181 48.1511 146.175 48.0827 146.196 48.0197C146.216 47.9567 146.26 47.9043 146.319 47.874C146.381 47.8517 146.449 47.8549 146.509 47.8828C146.569 47.9107 146.615 47.9611 146.638 48.023C146.667 48.0817 146.672 48.1496 146.652 48.212C146.632 48.2744 146.588 48.3265 146.53 48.357C146.468 48.3796 146.4 48.3769 146.34 48.3493C146.28 48.3218 146.234 48.2717 146.211 48.21" fill="#24160C"/>
<path d="M144.013 49.061C143.984 49.0015 143.979 48.933 144.001 48.8702C144.022 48.8075 144.067 48.7556 144.126 48.726C144.188 48.7034 144.257 48.7062 144.317 48.734C144.377 48.7617 144.423 48.812 144.446 48.874C144.476 48.9327 144.481 49.0006 144.46 49.0631C144.44 49.1256 144.396 49.1777 144.338 49.208C144.307 49.22 144.274 49.2257 144.241 49.2248C144.208 49.2239 144.175 49.2163 144.145 49.2026C144.114 49.189 144.087 49.1694 144.065 49.1451C144.042 49.1207 144.024 49.0922 144.013 49.061" fill="#24160C"/>
<path d="M146.211 48.21C146.181 48.1511 146.175 48.0827 146.196 48.0197C146.216 47.9567 146.26 47.9043 146.319 47.874C146.381 47.8517 146.449 47.8549 146.509 47.8828C146.569 47.9107 146.615 47.9611 146.638 48.023C146.667 48.0817 146.672 48.1496 146.652 48.212C146.632 48.2744 146.588 48.3265 146.53 48.357C146.468 48.3796 146.4 48.3769 146.34 48.3493C146.28 48.3218 146.234 48.2717 146.211 48.21" fill="#24160C"/>
<path d="M144.013 49.061C143.984 49.0015 143.979 48.933 144.001 48.8702C144.022 48.8075 144.067 48.7556 144.126 48.726C144.188 48.7034 144.257 48.7062 144.317 48.734C144.377 48.7617 144.423 48.812 144.446 48.874C144.476 48.9327 144.481 49.0006 144.46 49.0631C144.44 49.1256 144.396 49.1777 144.338 49.208C144.307 49.22 144.274 49.2257 144.241 49.2248C144.208 49.2239 144.175 49.2163 144.145 49.2026C144.114 49.189 144.087 49.1694 144.065 49.1451C144.042 49.1207 144.024 49.0922 144.013 49.061" fill="#24160C"/>
<path d="M151.285 50.191L151.329 50.15Z" fill="#24160C"/>
<path d="M149.765 49.461C150.755 49.344 150.484 47.897 149.609 47.951C149.505 47.9598 149.404 47.9936 149.315 48.0495C149.227 48.1053 149.153 48.1816 149.1 48.272" fill="white"/>
<path d="M149.765 49.803C149.677 49.8038 149.592 49.7708 149.528 49.7109C149.464 49.651 149.425 49.5687 149.42 49.481C149.415 49.3934 149.444 49.3071 149.501 49.2401C149.557 49.1731 149.638 49.1304 149.725 49.121C149.774 49.1202 149.823 49.1087 149.867 49.0873C149.911 49.0659 149.95 49.035 149.981 48.997C150.013 48.9589 150.035 48.9144 150.047 48.8668C150.059 48.8191 150.061 48.7693 150.052 48.721C150.05 48.6096 150.005 48.5034 149.927 48.424C149.849 48.3446 149.743 48.2981 149.632 48.294C149.583 48.2994 149.536 48.3161 149.494 48.3428C149.453 48.3695 149.418 48.4055 149.393 48.448C149.37 48.4864 149.339 48.5199 149.303 48.5465C149.267 48.5731 149.226 48.5923 149.183 48.6031C149.095 48.6249 149.002 48.6108 148.924 48.564C148.846 48.5172 148.791 48.4415 148.769 48.3535C148.747 48.2656 148.761 48.1726 148.808 48.095C148.889 47.9567 149.002 47.8402 149.138 47.7556C149.274 47.6709 149.428 47.6206 149.588 47.609C149.732 47.6016 149.876 47.6229 150.012 47.6718C150.148 47.7206 150.273 47.796 150.38 47.8935C150.486 47.991 150.572 48.1087 150.633 48.2398C150.694 48.3709 150.728 48.5127 150.733 48.657C150.751 48.7936 150.741 48.9325 150.703 49.0652C150.666 49.1978 150.602 49.3214 150.515 49.4284C150.428 49.5355 150.32 49.6237 150.198 49.6878C150.076 49.7518 149.942 49.7903 149.805 49.801H149.764" fill="black"/>
<path d="M139.838 69.958L139.438 69.905Z" fill="#0A0704"/>
<path d="M146.211 48.21C146.181 48.1511 146.175 48.0827 146.196 48.0197C146.216 47.9567 146.26 47.9043 146.319 47.874C146.381 47.8517 146.449 47.8549 146.509 47.8828C146.569 47.9107 146.615 47.9611 146.638 48.023C146.667 48.0817 146.672 48.1496 146.652 48.212C146.632 48.2744 146.588 48.3265 146.53 48.357C146.468 48.3796 146.4 48.3769 146.34 48.3493C146.28 48.3218 146.234 48.2717 146.211 48.21" fill="black"/>
<path d="M144.013 49.061C143.984 49.0015 143.979 48.933 144.001 48.8702C144.022 48.8075 144.067 48.7556 144.126 48.726C144.188 48.7034 144.257 48.7062 144.317 48.734C144.377 48.7617 144.423 48.812 144.446 48.874C144.476 48.9327 144.481 49.0006 144.46 49.0631C144.44 49.1256 144.396 49.1777 144.338 49.208C144.307 49.22 144.274 49.2257 144.241 49.2248C144.208 49.2239 144.175 49.2163 144.145 49.2026C144.114 49.189 144.087 49.1694 144.065 49.1451C144.042 49.1207 144.024 49.0922 144.013 49.061" fill="black"/>
<path d="M151.285 50.191L151.329 50.15Z" fill="#24160C"/>
<path d="M153.388 59.082C150.319 59.937 146.849 62.708 146.088 64.325C144.573 67.526 143.477 71.951 144.234 74.471C145.573 78.926 146.32 77.464 148.419 82.326C148.478 82.464 164.903 78.633 164.903 78.633C164.903 78.633 166.223 62.1 156.203 58.984C155.274 58.7487 154.298 58.7827 153.388 59.082" fill="#FFBE00"/>
<path d="M164.903 80.581C163.781 80.881 151.863 83.923 147.403 85.595C145.038 89.837 134.349 100.157 129.737 112.439C126.07 122.202 128.068 134.855 128.068 134.855C128.068 134.855 161.796 139.981 164.525 137.419C167.254 134.857 161.804 126.83 165.336 115.865C168.868 104.9 172.772 100.981 171.317 92.146C170.415 87.7246 168.176 83.6874 164.903 80.581" fill="#00B2B2"/>
<path d="M139.838 69.958L139.438 69.905Z" fill="#0A0704"/>
<path d="M128.989 83.121C125.702 82.472 118.989 84.941 116.079 87.047L117.83 86.895C115.663 88.961 113.12 91.222 113.354 91.683C113.588 92.144 115.515 89.907 117.534 88.783C115.811 90.936 113.907 92.831 114.088 93.087C114.5 93.668 116.245 91.392 118.401 89.697C116.525 92.04 114.873 93.891 115.101 94.04C115.679 94.415 116.893 92.415 119.223 90.377C118.083 91.814 115.763 94.606 116.323 94.858C116.673 95.015 119.494 91.777 121.681 89.365C122.339 88.643 125.124 87.388 130.246 86.576C135.368 85.764 132.276 83.769 128.989 83.121Z" fill="white"/>
<path d="M116.355 95.21C116.296 95.2095 116.237 95.1958 116.184 95.17C116.116 95.1399 116.056 95.0942 116.009 95.0367C115.962 94.9793 115.928 94.9116 115.912 94.839C115.887 94.5229 115.973 94.208 116.154 93.948C115.923 94.2133 115.603 94.3859 115.254 94.434C115.132 94.4331 115.013 94.3959 114.912 94.327C114.824 94.2621 114.763 94.1665 114.741 94.059C114.707 93.836 114.847 93.571 115.341 92.926C114.841 93.354 114.541 93.526 114.267 93.526H114.207C114.127 93.5186 114.05 93.4938 113.981 93.4534C113.912 93.4129 113.853 93.3579 113.807 93.292C113.548 92.927 113.855 92.552 115.347 90.842L115.421 90.757L115.495 90.672C115.353 90.789 115.219 90.903 115.07 91.028C114.195 91.761 113.795 92.086 113.459 92.086C113.425 92.0861 113.392 92.0828 113.359 92.076C113.292 92.063 113.229 92.0347 113.175 91.9934C113.121 91.9521 113.077 91.899 113.047 91.838C112.774 91.297 113.495 90.511 116.511 87.672L116.739 87.458L116.884 87.321L116.108 87.389H116.083C116.012 87.3907 115.943 87.3702 115.885 87.3304C115.826 87.2905 115.782 87.2334 115.758 87.167C115.731 87.0964 115.728 87.0189 115.75 86.9466C115.772 86.8742 115.817 86.811 115.878 86.767C117.593 85.6221 119.447 84.7016 121.395 84.028C123.428 83.2309 125.578 82.7728 127.76 82.672C128.196 82.6679 128.631 82.706 129.06 82.786C130.542 83.078 133.338 83.975 133.314 85.279C133.299 86.06 132.314 86.595 130.304 86.914C125.218 87.72 122.514 88.959 121.938 89.595C121.586 89.982 121.218 90.395 120.871 90.778C117.588 94.423 116.787 95.21 116.355 95.21ZM119.222 90.035C119.286 90.0349 119.35 90.053 119.404 90.0872C119.459 90.1214 119.502 90.1703 119.53 90.2283C119.558 90.2863 119.569 90.351 119.562 90.415C119.555 90.4789 119.53 90.5396 119.49 90.59L119.11 91.065L119.105 91.072C118.551 91.764 117.4 93.204 116.867 94.072C117.702 93.278 119.167 91.652 120.34 90.346L120.358 90.326L120.536 90.126C120.846 89.782 121.136 89.457 121.427 89.138C122.221 88.262 125.238 87.027 130.192 86.238C132.548 85.865 132.625 85.326 132.626 85.266C132.634 84.817 131.226 83.911 128.926 83.456C128.541 83.3853 128.15 83.3518 127.759 83.356C125.962 83.4203 124.186 83.7648 122.495 84.377C120.741 84.9476 119.046 85.6878 117.435 86.587L117.795 86.555H117.828C117.893 86.555 117.957 86.5739 118.012 86.6094C118.066 86.6449 118.11 86.6954 118.136 86.755C118.165 86.8196 118.173 86.8916 118.16 86.961C118.146 87.0305 118.111 87.0941 118.06 87.143C117.721 87.466 117.37 87.797 117.03 88.118L116.98 88.172C116.162 88.941 115.043 89.995 114.35 90.74L114.595 90.529L114.627 90.503L114.634 90.497C115.48 89.7433 116.394 89.0704 117.365 88.487C117.416 88.4588 117.473 88.444 117.531 88.444C117.596 88.4437 117.659 88.4618 117.714 88.4961C117.768 88.5305 117.812 88.5796 117.84 88.6378C117.868 88.6961 117.879 88.761 117.871 88.8251C117.863 88.8892 117.838 88.9499 117.797 89C117.123 89.841 116.423 90.642 115.862 91.285C115.491 91.709 115.162 92.085 114.898 92.408C115.224 92.127 115.613 91.754 115.925 91.454L115.941 91.439C116.607 90.803 117.361 90.082 118.195 89.429C118.256 89.3817 118.33 89.356 118.407 89.356C118.471 89.3559 118.535 89.374 118.589 89.4083C118.644 89.4426 118.687 89.4916 118.715 89.5496C118.743 89.6077 118.754 89.6724 118.746 89.7364C118.739 89.8003 118.713 89.8609 118.673 89.911C118.195 90.502 117.73 91.072 117.319 91.572L117.219 91.695L117.202 91.715C116.861 92.13 116.507 92.56 116.211 92.932C116.336 92.8 116.474 92.651 116.647 92.463C117.387 91.6404 118.171 90.8583 118.995 90.12C119.058 90.0649 119.139 90.0347 119.222 90.035V90.035Z" fill="black"/>
<path d="M148.009 60.67C144.853 64.17 145.689 68.897 142.717 72.185C137.206 78.278 126.02 81.345 126.02 81.345C126.02 81.345 137.968 96.115 141.338 94.531C145.003 92.808 156.78 68.645 157.22 65.04C157.825 60.04 150.511 57.897 148.013 60.67" fill="#FFBE00"/>
<path d="M158.619 176.759L158.591 175.159L148.456 175.059C148.456 175.059 148.075 173.133 147.236 172.647C146.397 172.161 145.099 173.117 145.099 173.117L145.923 175.167C144.63 175.131 143.338 175.234 142.067 175.473C141.946 175.508 141.836 175.572 141.745 175.659C141.654 175.746 141.584 175.853 141.543 175.972C141.502 176.091 141.49 176.218 141.507 176.342C141.525 176.467 141.572 176.585 141.645 176.688L158.619 176.759Z" fill="black"/>
<path d="M180.079 153.259L178.705 152.446L173.311 161.033C173.311 161.033 171.472 160.346 170.619 160.81C169.766 161.274 169.903 162.874 169.903 162.874L172.081 163.246C171.373 164.329 170.784 165.484 170.322 166.692C170.288 166.813 170.284 166.941 170.309 167.064C170.335 167.188 170.389 167.303 170.469 167.401C170.548 167.499 170.65 167.577 170.765 167.627C170.88 167.678 171.006 167.7 171.132 167.692L180.079 153.259Z" fill="black"/>
<path d="M147.6 85.94L149.22 81.095L164.948 78.04C165.373 78.5392 165.702 79.1129 165.918 79.732C166.144 80.4893 166.278 81.2708 166.318 82.06L147.6 85.94Z" fill="black"/>
<path d="M149.056 83.189C149.003 83.1892 148.951 83.1772 148.904 83.154C148.857 83.1307 148.816 83.0968 148.784 83.055C148.752 83.0131 148.73 82.9645 148.72 82.9128C148.71 82.8611 148.712 82.8077 148.726 82.757C148.914 82.061 149.189 81.244 149.504 80.3C150.397 77.62 151.621 73.951 151.638 70.64C151.639 70.5496 151.675 70.4632 151.739 70.3994C151.803 70.3357 151.89 70.3 151.98 70.3V70.3C152.025 70.3001 152.069 70.3091 152.111 70.3264C152.152 70.3437 152.19 70.3691 152.221 70.4009C152.253 70.4328 152.278 70.4706 152.295 70.5121C152.312 70.5536 152.32 70.5981 152.32 70.643C152.302 74.064 151.059 77.792 150.151 80.514C149.839 81.45 149.569 82.259 149.384 82.937C149.364 83.0094 149.321 83.0733 149.262 83.1188C149.202 83.1643 149.129 83.189 149.054 83.189" fill="black"/>
<path d="M149.601 60.413V58.213L155.137 57.296L156.83 58.909C155.618 59.3646 154.383 59.7558 153.13 60.081C151.969 60.3202 150.786 60.4315 149.601 60.413" fill="black"/>
<path d="M137.211 44.49C137.205 51.741 143.887 45.246 145.841 45.124C147.004 45.052 149.248 47.964 150.01 45.901C150.676 44.101 148.139 41.129 146.538 40.701C143.802 39.976 137.211 41.612 137.211 44.49Z" fill="black"/>
<path d="M146.015 38.542C145.823 37.4718 146.054 36.369 146.658 35.4654C147.263 34.5618 148.195 33.9279 149.257 33.697C149.779 33.5778 150.32 33.5681 150.846 33.6685C151.373 33.7689 151.872 33.9772 152.314 34.2803C152.755 34.5834 153.129 34.9747 153.412 35.4295C153.695 35.8844 153.88 36.3929 153.957 36.923C154.128 37.9477 153.885 38.9982 153.283 39.8444C152.68 40.6907 151.767 41.2637 150.743 41.438C149.732 41.68 148.666 41.5109 147.78 40.968C146.894 40.425 146.259 39.5525 146.015 38.542" fill="black"/>
<path d="M154.575 29.273L154.718 29.008Z" fill="#0A0704"/>
<path d="M156.19 30.523C156.39 29.756 156.626 29.016 155.719 28.737C154.752 28.437 153.967 29.637 153.967 29.637C153.967 29.637 154.19 28.418 153.595 28.295C151.119 27.783 150.068 32.17 152.21 33.821C156.897 37.433 159.395 29.107 156.19 30.523Z" fill="black"/>
<path d="M155.381 138.723C155.317 138.723 155.254 138.705 155.2 138.671L154.511 138.24C151.785 136.528 150.139 135.496 148.102 135.094C148.017 135.072 147.944 135.019 147.897 134.945C147.85 134.871 147.833 134.782 147.85 134.696C147.868 134.61 147.917 134.534 147.988 134.483C148.06 134.433 148.148 134.411 148.235 134.424C150.395 134.85 152.081 135.907 154.875 137.66L155.564 138.091C155.627 138.13 155.675 138.189 155.702 138.259C155.729 138.328 155.732 138.404 155.711 138.476C155.691 138.547 155.648 138.61 155.588 138.654C155.529 138.699 155.456 138.723 155.382 138.723" fill="black"/>
<path d="M167.293 105.795C166.393 105.778 165.499 105.653 164.629 105.421C164.544 105.397 164.471 105.342 164.426 105.265C164.381 105.189 164.367 105.098 164.388 105.012C164.408 104.926 164.461 104.852 164.536 104.804C164.61 104.756 164.7 104.739 164.787 104.756C166.066 105.123 167.411 105.201 168.724 104.985C168.769 104.975 168.816 104.975 168.861 104.984C168.907 104.993 168.95 105.011 168.988 105.037C169.026 105.063 169.059 105.096 169.084 105.135C169.109 105.174 169.126 105.218 169.133 105.263C169.141 105.309 169.139 105.356 169.128 105.401C169.117 105.446 169.097 105.488 169.069 105.525C169.042 105.562 169.007 105.593 168.966 105.616C168.926 105.639 168.882 105.654 168.836 105.659C168.326 105.747 167.81 105.793 167.293 105.795" fill="black"/>
<path d="M115.214 82.502C113.578 82.5009 111.956 82.2062 110.424 81.632C108.901 81.0623 107.485 80.2379 106.238 79.194C104.966 78.1323 103.88 76.8647 103.027 75.444C102.135 73.9607 101.503 72.3355 101.16 70.639C100.367 66.853 101.075 62.9071 103.135 59.633C104.798 56.935 107.347 54.8985 110.345 53.8716C113.344 52.8447 116.606 52.8912 119.574 54.003C121.098 54.5726 122.514 55.397 123.761 56.441C125.034 57.5026 126.119 58.7702 126.973 60.191C127.864 61.6728 128.495 63.2963 128.838 64.991C129.632 68.7781 128.924 72.7256 126.864 76.001C125.636 77.9862 123.921 79.6251 121.882 80.7625C119.844 81.9 117.548 82.4983 115.214 82.501V82.502ZM114.784 53.817C112.565 53.8191 110.384 54.3877 108.446 55.4688C106.509 56.55 104.879 58.1079 103.712 59.995C101.746 63.1213 101.072 66.8888 101.83 70.503C102.157 72.1209 102.758 73.6709 103.608 75.086C104.421 76.4409 105.455 77.65 106.668 78.663C107.856 79.6586 109.204 80.4452 110.655 80.989C113.477 82.0462 116.578 82.0908 119.429 81.1152C122.28 80.1396 124.704 78.2043 126.287 75.64C128.252 72.5139 128.927 68.7469 128.169 65.133C127.842 63.5151 127.241 61.9651 126.391 60.55C125.578 59.1952 124.544 57.9861 123.332 56.973C122.145 55.9772 120.798 55.1903 119.348 54.646C117.889 54.0981 116.343 53.8173 114.784 53.817V53.817Z" fill="black"/>
<path d="M101.02 77.497C101.02 77.497 106.08 64.215 113.102 63.422C117.185 62.96 129.163 74.822 129.163 74.822L115.055 90.335L90.78 86.924L87.134 89.99L87.12 81.26L90.357 83.48L107.148 84.33L101.02 77.497Z" fill="black"/>
<path d="M120.676 84.758C119.284 85.179 117.406 86.174 116.357 86.358C115.308 86.542 114.857 86.709 115.085 87.466C115.313 88.223 118.033 87.666 118.033 87.666" fill="white"/>
<path d="M116.294 88.211C115.568 88.211 114.908 88.064 114.757 87.565C114.699 87.4205 114.673 87.265 114.682 87.1094C114.69 86.9538 114.733 86.8021 114.807 86.665C115.053 86.265 115.607 86.14 116.296 86.018C117.057 85.8203 117.799 85.5525 118.511 85.218C119.211 84.918 119.939 84.618 120.576 84.425C120.662 84.4002 120.755 84.4104 120.833 84.4531C120.912 84.4959 120.971 84.5679 120.997 84.6537C121.024 84.7395 121.015 84.8321 120.974 84.9116C120.932 84.9912 120.861 85.0513 120.776 85.079C120.176 85.261 119.464 85.56 118.776 85.848C118.018 86.2036 117.227 86.4852 116.414 86.689C116.114 86.742 115.493 86.851 115.389 87.022C115.342 87.099 115.383 87.268 115.411 87.361C116.247 87.5989 117.135 87.5863 117.964 87.325C118.052 87.3088 118.143 87.3278 118.217 87.3779C118.291 87.428 118.343 87.5051 118.361 87.5928C118.379 87.6805 118.362 87.7718 118.313 87.847C118.264 87.9222 118.188 87.9753 118.101 87.995C117.507 88.1221 116.902 88.1924 116.294 88.205" fill="black"/>
<path d="M112.179 54.215L113.354 52.406C113.465 52.2359 113.639 52.1168 113.838 52.0751C114.037 52.0334 114.244 52.0724 114.415 52.1835C114.585 52.2946 114.704 52.4688 114.745 52.6677C114.787 52.8665 114.748 53.0739 114.637 53.244L113.461 55.053C113.407 55.1397 113.336 55.2148 113.253 55.2738C113.17 55.3328 113.076 55.3746 112.976 55.3967C112.876 55.4188 112.773 55.4207 112.673 55.4024C112.572 55.3841 112.477 55.3459 112.391 55.29C112.306 55.2341 112.232 55.1618 112.175 55.0771C112.118 54.9925 112.079 54.8973 112.059 54.7972C112.039 54.697 112.039 54.5939 112.06 54.4939C112.081 54.394 112.121 54.2991 112.179 54.215" fill="white"/>
<path d="M112.817 55.743C112.618 55.7421 112.422 55.6875 112.251 55.5849C112.08 55.4823 111.94 55.3355 111.845 55.16C111.751 54.9845 111.705 54.7867 111.714 54.5875C111.722 54.3883 111.784 54.195 111.893 54.028L113.072 52.217C113.151 52.0948 113.254 51.9895 113.374 51.9073C113.494 51.8251 113.629 51.7675 113.772 51.738C113.847 51.7233 113.923 51.7162 114 51.717C114.2 51.7169 114.396 51.7708 114.567 51.873C114.739 51.9752 114.88 52.1218 114.975 52.2974C115.07 52.4731 115.116 52.6711 115.107 52.8707C115.099 53.0702 115.037 53.2638 114.928 53.431L113.747 55.24C113.668 55.3622 113.565 55.4674 113.445 55.5497C113.325 55.6319 113.19 55.6894 113.047 55.719C112.971 55.7348 112.894 55.7428 112.817 55.743V55.743ZM114 52.4C113.929 52.4002 113.86 52.4179 113.798 52.4516C113.736 52.4853 113.683 52.5339 113.644 52.593L112.464 54.402C112.418 54.4723 112.393 54.5548 112.394 54.639C112.395 54.7232 112.42 54.8052 112.468 54.8747C112.515 54.9442 112.583 54.998 112.661 55.0292C112.739 55.0604 112.825 55.0677 112.907 55.05C112.962 55.0387 113.013 55.0167 113.059 54.9853C113.105 54.9539 113.145 54.9137 113.175 54.867L114.355 53.057C114.416 52.9626 114.437 52.8479 114.414 52.738C114.391 52.628 114.325 52.5317 114.231 52.47C114.162 52.4246 114.082 52.4002 114 52.4V52.4Z" fill="black"/>
<path d="M113.533 54.892L114.708 53.083C114.819 52.9128 114.993 52.7938 115.192 52.7521C115.391 52.7104 115.598 52.7494 115.768 52.8605C115.939 52.9716 116.058 53.1458 116.099 53.3446C116.141 53.5435 116.102 53.7508 115.991 53.921L114.816 55.729C114.762 55.8146 114.691 55.8886 114.608 55.9466C114.525 56.0046 114.431 56.0456 114.332 56.0671C114.233 56.0886 114.13 56.0902 114.03 56.0718C113.931 56.0534 113.836 56.0154 113.751 55.96C113.666 55.9046 113.593 55.8329 113.536 55.7491C113.479 55.6652 113.439 55.5709 113.419 55.4715C113.398 55.3722 113.398 55.2698 113.418 55.1703C113.437 55.0708 113.477 54.9762 113.533 54.892" fill="white"/>
<path d="M114.173 56.418C113.973 56.4179 113.778 56.3639 113.606 56.2617C113.435 56.1595 113.294 56.0129 113.2 55.8374C113.105 55.6619 113.059 55.464 113.067 55.2647C113.076 55.0653 113.138 54.8719 113.247 54.705L114.426 52.893C114.587 52.647 114.839 52.475 115.127 52.4148C115.414 52.3546 115.714 52.4111 115.96 52.572C116.206 52.7328 116.378 52.9848 116.438 53.2725C116.498 53.5602 116.442 53.86 116.281 54.106L115.102 55.915C115.002 56.07 114.864 56.1974 114.702 56.2853C114.539 56.3732 114.358 56.4188 114.173 56.418V56.418ZM115.354 53.076C115.283 53.0757 115.214 53.0933 115.151 53.127C115.089 53.1607 115.036 53.2095 114.998 53.269L113.819 55.078C113.762 55.1722 113.743 55.2851 113.767 55.3927C113.792 55.5003 113.857 55.5943 113.949 55.6547C114.042 55.7151 114.154 55.7372 114.262 55.7163C114.371 55.6955 114.467 55.6333 114.53 55.543L115.709 53.733C115.771 53.6385 115.792 53.5234 115.769 53.413C115.749 53.3178 115.697 53.2324 115.621 53.1711C115.546 53.1097 115.451 53.0762 115.354 53.076V53.076Z" fill="black"/>
<path d="M114.786 55.853L115.962 54.044C116.016 53.9584 116.087 53.8844 116.17 53.8264C116.253 53.7683 116.347 53.7274 116.446 53.7059C116.545 53.6844 116.648 53.6828 116.748 53.7012C116.847 53.7195 116.942 53.7575 117.027 53.8129C117.112 53.8683 117.185 53.94 117.242 54.0239C117.299 54.1078 117.339 54.2021 117.359 54.3015C117.38 54.4008 117.38 54.5032 117.36 54.6027C117.341 54.7022 117.301 54.7968 117.245 54.881L116.069 56.69C116.015 56.7756 115.944 56.8496 115.861 56.9076C115.778 56.9656 115.684 57.0066 115.585 57.0281C115.486 57.0496 115.383 57.0512 115.283 57.0328C115.184 57.0144 115.089 56.9765 115.004 56.921C114.919 56.8656 114.846 56.7939 114.789 56.7101C114.732 56.6262 114.692 56.5319 114.672 56.4325C114.651 56.3332 114.651 56.2308 114.671 56.1313C114.69 56.0318 114.73 55.9372 114.786 55.853Z" fill="white"/>
<path d="M115.421 57.381C115.222 57.3795 115.027 57.3245 114.857 57.2217C114.686 57.1189 114.547 56.9722 114.453 56.797C114.358 56.6217 114.313 56.4243 114.321 56.2255C114.33 56.0267 114.391 55.8338 114.5 55.667L115.68 53.855C115.76 53.7333 115.863 53.6284 115.983 53.5465C116.103 53.4645 116.238 53.407 116.381 53.3773C116.523 53.3476 116.67 53.3462 116.813 53.3733C116.956 53.4003 117.092 53.4553 117.214 53.535C117.336 53.6147 117.441 53.7176 117.523 53.8378C117.605 53.9581 117.662 54.0933 117.692 54.2357C117.721 54.3782 117.723 54.5251 117.696 54.668C117.669 54.811 117.614 54.9473 117.534 55.069L116.355 56.877C116.276 56.9994 116.173 57.1048 116.053 57.1872C115.933 57.2696 115.798 57.3273 115.655 57.357C115.578 57.373 115.5 57.3811 115.421 57.381V57.381ZM116.609 54.038C116.538 54.0378 116.468 54.0553 116.405 54.089C116.343 54.1227 116.29 54.1715 116.251 54.231L115.073 56.04C115.031 56.104 115.007 56.1782 115.004 56.2547C115 56.3312 115.018 56.4072 115.054 56.4746C115.091 56.5419 115.145 56.5982 115.21 56.6374C115.276 56.6765 115.351 56.6971 115.428 56.697C115.457 56.6971 115.486 56.6941 115.515 56.688C115.57 56.6769 115.621 56.655 115.668 56.6236C115.714 56.5921 115.753 56.5518 115.783 56.505L116.963 54.695C117.005 54.6311 117.029 54.557 117.032 54.4806C117.036 54.4041 117.018 54.3282 116.982 54.2609C116.946 54.1935 116.892 54.1373 116.826 54.098C116.761 54.0588 116.686 54.038 116.609 54.038V54.038Z" fill="black"/>
</svg>
