<svg width="200" height="200" viewBox="0 0 200 200" fill="none" xmlns="http://www.w3.org/2000/svg">
<path d="M46.366 117.506C46.209 117.742 45.701 118.336 45.852 118.606C46.552 119.873 49.932 120.617 51.211 120.664C53.602 120.753 55.947 119.583 58.406 119.709C59.848 119.783 59.773 120.443 61.122 120.809C63.25 121.39 67.262 121.775 69.051 120.074C73.04 116.279 70.951 110.133 65.307 109.267C63.1272 108.859 60.8953 108.811 58.7 109.125C55.34 109.725 52.169 111.119 48.935 112.213C47.284 112.772 46.158 114.324 44.824 115.447" fill="black"/>
<path d="M114.862 56.527C116.973 59.971 125.385 66.267 124.607 66.879C123.829 67.491 122.376 65.785 121.499 65.327C122.855 68.407 124.211 70.458 123.768 70.834C123.325 71.21 122.932 70.496 121.323 68.461C122.182 71.437 122.423 71.461 122.123 71.653C121.445 72.078 121.097 71.602 119.592 68.912C120.528 72.153 120.844 72.097 120.085 72.081C116.333 72.005 117.468 69.209 116.243 65.762C115.881 64.727 107.862 57.694 107.862 57.694C107.862 57.694 113.123 57.467 114.862 56.527Z" fill="white"/>
<path d="M120.246 72.385H120.126C117.198 72.325 116.938 70.708 116.608 68.661C116.482 67.7095 116.266 66.772 115.964 65.861C115.716 65.164 110.741 60.62 107.661 57.921C107.615 57.8816 107.583 57.8294 107.567 57.7712C107.551 57.7129 107.554 57.6513 107.574 57.5944C107.594 57.5375 107.63 57.488 107.679 57.4522C107.728 57.4165 107.786 57.3962 107.846 57.394C107.9 57.394 109.185 57.333 110.679 57.164C111.554 57.064 112.319 56.948 112.954 56.817C113.565 56.7128 114.16 56.5261 114.721 56.262C114.789 56.2251 114.868 56.2157 114.943 56.2359C115.017 56.256 115.081 56.304 115.121 56.37C116.189 58.111 118.99 60.679 121.24 62.742C123.961 65.233 124.98 66.226 124.961 66.785C124.959 66.8489 124.944 66.9117 124.915 66.9689C124.887 67.0261 124.846 67.0763 124.796 67.116C124.635 67.2461 124.434 67.3168 124.227 67.316C123.476 67.1568 122.788 66.781 122.249 66.235L122.241 66.226C122.541 66.855 122.828 67.441 123.085 67.957L123.106 67.999C124.016 69.826 124.431 70.66 123.963 71.058C123.848 71.1639 123.697 71.2237 123.541 71.226H123.482C123.102 71.188 122.782 70.82 122.082 69.926C122.182 70.244 122.267 70.488 122.334 70.685V70.695C122.58 71.42 122.663 71.664 122.281 71.904C122.119 72.0153 121.929 72.0788 121.733 72.087C121.669 72.087 121.604 72.0789 121.542 72.063C121.252 71.988 120.995 71.763 120.655 71.284C120.829 71.817 120.861 72.013 120.724 72.199C120.667 72.2679 120.593 72.3211 120.509 72.3537C120.425 72.3862 120.335 72.397 120.246 72.385V72.385ZM114.754 56.914C113.755 57.2866 112.714 57.5332 111.654 57.648C110.504 57.811 109.366 57.904 108.614 57.953C109.614 58.836 111.542 60.553 113.226 62.139C114.47 63.1702 115.58 64.3534 116.53 65.661C116.844 66.6045 117.068 67.5754 117.2 68.561V68.566C117.528 70.609 117.709 71.734 120.094 71.783H120.184C120.146 71.641 120.075 71.429 119.992 71.183L119.985 71.162C119.831 70.703 119.599 70.01 119.307 68.997C119.285 68.9258 119.291 68.8491 119.322 68.7817C119.354 68.7143 119.41 68.6611 119.478 68.6324C119.547 68.6038 119.624 68.6017 119.694 68.6265C119.764 68.6514 119.823 68.7015 119.858 68.767C120.745 70.352 121.352 71.397 121.696 71.485C121.71 71.4884 121.724 71.49 121.738 71.49C121.81 71.4835 121.879 71.4587 121.938 71.418C121.915 71.318 121.851 71.13 121.777 70.918L121.77 70.896C121.622 70.459 121.37 69.728 121.035 68.554C121.015 68.4868 121.018 68.4145 121.046 68.3498C121.073 68.285 121.122 68.232 121.185 68.1998C121.247 68.1677 121.319 68.1585 121.388 68.1739C121.456 68.1893 121.517 68.2282 121.56 68.284C121.844 68.643 122.088 68.959 122.303 69.237L122.312 69.248C122.647 69.7691 123.063 70.2342 123.543 70.626C123.34 69.7935 123.011 68.9972 122.566 68.265L122.555 68.242C122.171 67.47 121.693 66.509 121.224 65.442C121.199 65.3849 121.192 65.3214 121.204 65.2603C121.217 65.1992 121.248 65.1435 121.294 65.101C121.349 65.0486 121.423 65.0193 121.499 65.019C121.547 65.0189 121.595 65.0306 121.638 65.053C121.985 65.2573 122.314 65.4915 122.621 65.753V65.753C123.121 66.153 123.805 66.698 124.216 66.698C124.255 66.6984 124.294 66.6927 124.331 66.681C123.277 65.409 122.107 64.2373 120.837 63.181V63.181C118.607 61.2988 116.569 59.1995 114.754 56.914V56.914Z" fill="black"/>
<path d="M72.7 46.947C70.918 52.272 89.813 47.68 98.523 51.087C107.233 54.494 107.134 65.722 107.134 65.722C107.134 65.722 110.434 65.022 113.95 64.098C118.113 63.006 122.574 61.605 122.19 60.698C119.663 54.724 116.219 47.007 105.66 41.664C92.746 35.13 75.347 39.036 72.7 46.947Z" fill="#FFBE00"/>
<path d="M54.793 79.608C54.793 79.608 62.919 100.727 64.052 105.863C64.438 107.603 67.721 111.608 70.358 116.881C72.675 121.517 74.758 129.502 76.398 131.73C78.398 134.452 80.627 132.83 80.235 137.53C79.846 142.197 85.125 147.43 82.456 147.797C79.787 148.164 73.656 139.256 72.888 137.413C69.686 129.767 56.644 118.608 53.449 110.338C49.391 99.837 54.793 79.608 54.793 79.608Z" fill="white"/>
<path d="M82.3 148.107C81.2736 147.951 80.3282 147.459 79.612 146.707C78.5136 145.725 77.5046 144.647 76.597 143.486C75.0695 141.641 73.7336 139.646 72.61 137.531C71.086 133.893 67.35 129.498 63.394 124.844L63.384 124.832C59.184 119.891 54.843 114.782 53.168 110.447C51.468 106.047 51.175 99.499 52.301 90.996C52.8135 87.1349 53.5484 83.3065 54.502 79.53C54.5182 79.4685 54.5536 79.4137 54.6031 79.3736C54.6525 79.3335 54.7134 79.3102 54.777 79.307H54.794C54.8545 79.3073 54.9136 79.3258 54.9634 79.3603C55.0132 79.3947 55.0514 79.4434 55.073 79.5C55.405 80.363 63.22 100.7 64.345 105.8C64.925 107.249 65.685 108.618 66.607 109.877V109.877C68.0694 112.093 69.4124 114.386 70.63 116.746C71.8104 119.303 72.8454 121.924 73.73 124.598V124.598C74.791 127.585 75.793 130.406 76.635 131.55C77.1708 132.267 77.873 132.842 78.681 133.227V133.227C79.99 133.939 80.781 134.527 80.526 137.552C80.342 139.762 81.489 142.131 82.411 144.035C83.197 145.66 83.765 146.835 83.38 147.553C83.2864 147.709 83.1559 147.84 83 147.933C82.8441 148.027 82.6676 148.081 82.486 148.09C82.4244 148.1 82.3623 148.105 82.3 148.107V148.107ZM54.853 80.607C53.8335 84.8729 53.0863 89.1993 52.616 93.56C52.2929 96.4838 52.186 99.4275 52.296 102.367C52.3566 105.047 52.8406 107.701 53.73 110.23C55.37 114.473 59.683 119.547 63.853 124.454C67.84 129.144 71.606 133.574 73.166 137.298C74.3064 139.41 75.6558 141.402 77.194 143.245C78.0915 144.387 79.0928 145.443 80.185 146.4C80.5501 146.715 80.9465 146.992 81.368 147.226C81.6483 147.392 81.9639 147.489 82.289 147.509C82.3314 147.509 82.3739 147.506 82.416 147.501C82.768 147.452 82.838 147.32 82.861 147.276C83.101 146.826 82.508 145.6 81.88 144.303C80.926 142.333 79.739 139.88 79.936 137.503C80.168 134.717 79.504 134.356 78.403 133.757C77.5165 133.33 76.7464 132.696 76.158 131.907C75.258 130.69 74.293 127.96 73.17 124.8C72.2906 122.149 71.2626 119.549 70.091 117.014C68.884 114.673 67.5531 112.398 66.104 110.199C65.134 108.887 64.3459 107.449 63.761 105.926C63.343 104.033 61.917 99.726 59.523 93.121C57.602 87.834 55.617 82.607 54.853 80.607Z" fill="black"/>
<path d="M57.823 110.657C58.075 112.49 61.234 116.934 63.579 122.63C65.64 127.636 67.139 136.079 68.695 138.53C70.595 141.53 73.136 140.065 72.282 144.881C71.434 149.665 76.62 155.566 73.719 155.694C70.818 155.822 67.347 149.152 64.4 144.068C60.067 136.598 48.689 123.122 46.021 114.28C42.632 103.052 64.232 69.592 64.232 69.592C64.232 69.592 57.08 105.246 57.823 110.657Z" fill="white"/>
<path d="M73.635 156.002C70.879 156.002 67.926 150.838 65.07 145.845C64.77 145.321 64.452 144.764 64.14 144.226C62.672 141.691 60.356 138.418 57.905 134.952C53.029 128.057 47.507 120.246 45.732 114.367C44.304 109.634 46.947 100.624 53.587 87.591C55.607 83.626 57.939 79.413 60.519 75.069C62.387 71.921 63.723 69.826 63.972 69.438L63.978 69.428C64.0053 69.3858 64.0428 69.3511 64.087 69.3272C64.1312 69.3033 64.1807 69.2908 64.231 69.291C64.2697 69.291 64.3081 69.2984 64.344 69.313C64.409 69.3392 64.4629 69.3873 64.4961 69.4491C64.5294 69.5108 64.5399 69.5823 64.526 69.651C64.508 69.739 62.71 78.73 61.026 88.28C60.05 93.808 59.303 98.434 58.807 102.03C58.187 106.518 57.957 109.407 58.123 110.616C58.6148 112.172 59.3044 113.658 60.175 115.038C61.5369 117.462 62.7657 119.958 63.856 122.515C64.8862 125.256 65.7563 128.054 66.462 130.895L66.468 130.919C67.332 134.104 68.147 137.112 68.948 138.374C69.4661 139.174 70.1701 139.838 71 140.307C72.335 141.162 73.126 141.843 72.576 144.939C72.176 147.202 73.188 149.758 74.002 151.811C74.692 153.551 75.19 154.811 74.731 155.519C74.617 155.675 74.466 155.801 74.2914 155.885C74.1169 155.968 73.9243 156.007 73.731 155.998C73.698 156.002 73.664 156.002 73.635 156.002ZM63.62 71.126C59.5265 77.6958 55.7729 84.4714 52.374 91.426C50.3241 95.5691 48.6005 99.8658 47.219 104.277C46.663 106.087 46.2714 107.944 46.049 109.824C45.8516 111.283 45.9396 112.766 46.308 114.191C48.056 119.976 53.544 127.742 58.388 134.591L58.396 134.602L58.42 134.635C60.87 138.1 63.184 141.373 64.66 143.92C64.948 144.42 65.241 144.928 65.592 145.543C66.8325 147.805 68.1911 150.001 69.662 152.121C71.273 154.321 72.577 155.397 73.647 155.398H73.705C74.105 155.38 74.198 155.239 74.228 155.198C74.519 154.748 73.997 153.432 73.445 152.039C72.603 149.915 71.554 147.271 71.986 144.839C72.493 141.981 71.81 141.539 70.678 140.819C69.7746 140.302 69.0082 139.576 68.443 138.702C67.595 137.364 66.805 134.453 65.891 131.083C65.1902 128.258 64.3261 125.476 63.303 122.751C62.2199 120.215 60.9998 117.739 59.648 115.335C58.7313 113.897 58.0176 112.339 57.527 110.705C57.4436 108.289 57.6037 105.872 58.005 103.488C58.395 100.433 59.005 96.488 59.805 91.766C61.243 83.3 62.956 74.512 63.62 71.126Z" fill="black"/>
<path d="M71.465 57.009C70.219 56.962 55.646 60.841 55.646 60.841C55.646 60.841 47.468 75.65 44.102 87.294C37.124 111.432 45.938 118.856 45.938 118.856C45.938 118.856 50.547 110.635 56.304 117.373C62.061 124.111 73.704 120.147 75.321 119.348C78.921 117.572 71.265 94.023 74.262 88.592C81.742 75.036 72.807 59.317 71.465 57.009Z" fill="#00B2B2"/>
<path d="M86.03 37.276C86.03 37.276 81.071 40.704 78.13 40.576C76.807 40.52 74.916 38.386 69.814 40.237C69.814 40.237 68.168 42.445 68.637 43.055C69.222 43.815 69.861 45.931 70.392 46.718C71.032 47.668 75.403 46.498 76.149 47.365C76.459 47.725 78.581 48.547 80.605 46.458C82.629 44.369 87.399 40.586 87.399 40.586L86.03 37.276Z" fill="white"/>
<path d="M77.696 48.137H77.588C76.9835 48.1549 76.393 47.9531 75.926 47.569C75.789 47.41 75.358 47.332 74.61 47.332C74.19 47.332 73.737 47.355 73.337 47.376H73.329C72.852 47.401 72.402 47.424 71.989 47.424C71.6057 47.4349 71.2226 47.3993 70.848 47.318C70.5697 47.2689 70.3199 47.1173 70.148 46.893C69.8239 46.3356 69.5482 45.7515 69.324 45.147V45.147C69.0846 44.4834 68.7766 43.8466 68.405 43.247C68.3056 43.0693 68.2534 42.8691 68.2534 42.6655C68.2534 42.4619 68.3056 42.2617 68.405 42.084C68.564 41.656 69.463 40.007 69.757 39.948C70.4479 39.6908 71.1585 39.4901 71.882 39.348C72.4568 39.2373 73.0406 39.1801 73.626 39.177C74.296 39.1751 74.9635 39.2615 75.611 39.434C76.1036 39.573 76.5866 39.744 77.057 39.946H77.062C77.4044 40.112 77.7704 40.2243 78.147 40.279H78.292C79.103 40.2448 79.9025 40.0744 80.657 39.775C81.5008 39.4614 82.322 39.0902 83.115 38.664C84.0569 38.1672 84.9721 37.6215 85.857 37.029C85.8939 37.0035 85.936 36.9865 85.9803 36.9794C86.0246 36.9723 86.0699 36.9753 86.113 36.988C86.156 37.0006 86.1957 37.0226 86.2291 37.0526C86.2625 37.0825 86.2888 37.1196 86.306 37.161L87.682 40.475C87.7072 40.5354 87.7119 40.6024 87.6955 40.6658C87.6791 40.7292 87.6424 40.7854 87.591 40.826C87.545 40.862 82.803 44.626 80.825 46.672C80.4325 47.1186 79.9519 47.4792 79.4135 47.7313C78.875 47.9834 78.2903 48.1216 77.696 48.137V48.137ZM74.627 46.727C74.9842 46.7184 75.3413 46.7489 75.692 46.818C75.9543 46.8598 76.196 46.9854 76.381 47.176C76.7415 47.4205 77.1695 47.546 77.605 47.535H77.694C78.2079 47.5191 78.713 47.3972 79.1776 47.1769C79.6422 46.9567 80.0563 46.6428 80.394 46.255C82.194 44.397 86.246 41.134 87.04 40.498L85.893 37.731C84.768 38.471 80.893 40.885 78.293 40.886C78.235 40.886 78.18 40.886 78.124 40.886C77.6762 40.8314 77.2404 40.7037 76.834 40.508V40.508C76.3957 40.3215 75.9458 40.1639 75.487 40.036C74.8805 39.8749 74.2555 39.7942 73.628 39.796C73.081 39.7988 72.5354 39.8513 71.998 39.953C71.3208 40.0826 70.655 40.2658 70.007 40.501C69.6803 40.938 69.3919 41.4024 69.145 41.889C68.886 42.411 68.792 42.762 68.88 42.877C69.2866 43.5157 69.622 44.1971 69.88 44.909V44.917C70.0912 45.4829 70.3473 46.031 70.646 46.556C70.766 46.733 71.209 46.82 72.001 46.82C72.431 46.82 72.892 46.796 73.301 46.775H73.348C73.802 46.748 74.233 46.727 74.627 46.727Z" fill="black"/>
<path d="M78.041 41.168C74.794 42.254 79.178 37.44 77.295 37.815C73.572 38.555 64.264 41.065 64.264 41.065L62.472 48.165C62.472 48.165 57.213 54.177 57.409 56.77C57.422 56.931 72.404 62.027 72.404 62.027C72.404 62.027 76.322 60.005 79.78 58.027C83.238 56.049 85.706 52.336 84.942 49.148C84.178 45.96 80.854 40.232 78.042 41.172" fill="#FFBE00"/>
<path d="M54.406 63.529C54.406 63.529 53.289 62.204 55.206 59.661C56.1071 58.5844 56.8675 57.3975 57.469 56.129L73.616 58.951C73.9422 59.5742 74.1507 60.2522 74.231 60.951C74.2878 61.7986 74.2435 62.6499 74.099 63.487C74.099 63.487 71.356 65.073 66.222 64.977C62.2528 64.7881 58.3033 64.3041 54.406 63.529" fill="black"/>
<path d="M59.715 55.843C58.458 57.176 58.85 58.729 60.364 59.635C61.935 60.578 64.364 59.858 66.035 59.942C67.378 60.009 68.635 61.018 69.987 61.242C71.1894 61.4605 72.4304 61.26 73.5027 60.6737C74.5751 60.0875 75.4139 59.1511 75.879 58.021C76.731 55.666 76.053 53.944 75.851 51.579" fill="#FFBE00"/>
<path d="M96.254 36.548C93.1984 36.1592 90.1147 36.0374 87.038 36.184C86.3765 36.283 85.7742 36.621 85.3451 37.134C84.9159 37.647 84.6896 38.2994 84.709 38.968C84.6673 39.6531 84.8949 40.3274 85.3432 40.8471C85.7916 41.3668 86.4252 41.6908 87.109 41.75C89.538 41.9817 91.9803 42.0439 94.418 41.936C94.9375 41.8708 95.4305 41.6689 95.8465 41.3509C96.2625 41.0329 96.5867 40.6102 96.786 40.126C97.111 38.97 97.441 36.688 96.248 36.55" fill="white"/>
<path d="M92.88 42.305C91.166 42.305 88.512 42.187 87.08 42.048C86.3191 41.9853 85.6131 41.6269 85.1135 41.0495C84.6139 40.4722 84.3606 39.722 84.408 38.96C84.3881 38.2192 84.6408 37.4968 85.1182 36.93C85.5956 36.3632 86.2645 35.9913 86.998 35.885C87.6486 35.8213 88.3023 35.7945 88.956 35.805C91.4062 35.8194 93.8539 35.9676 96.288 36.249C96.4474 36.266 96.601 36.3185 96.7375 36.4026C96.874 36.4867 96.99 36.6003 97.077 36.735C97.734 37.717 97.195 39.799 97.077 40.206C96.8567 40.74 96.501 41.2074 96.0451 41.5621C95.5892 41.9169 95.0487 42.1467 94.477 42.229C93.9474 42.2951 93.4135 42.3205 92.88 42.305V42.305ZM88.959 36.405C88.3307 36.3952 87.7024 36.421 87.077 36.482C86.4888 36.5767 85.9549 36.8816 85.5744 37.34C85.1939 37.7985 84.9927 38.3794 85.008 38.975C84.9689 39.5848 85.1707 40.1856 85.57 40.6482C85.9692 41.1109 86.534 41.3984 87.143 41.449C88.592 41.59 91.174 41.705 92.898 41.705C93.3869 41.7195 93.8763 41.6975 94.362 41.639C94.785 41.551 96.19 41.175 96.502 40.039C96.797 38.992 96.946 37.615 96.578 37.065C96.5397 37.0024 96.4873 36.9496 96.425 36.9109C96.3626 36.8722 96.2921 36.8486 96.219 36.842C93.8088 36.5641 91.3851 36.4182 88.959 36.405V36.405Z" fill="black"/>
<path d="M90.509 37.527C90.4674 37.5265 90.4263 37.5174 90.3885 37.5001C90.3506 37.4829 90.3167 37.458 90.289 37.427C90.07 37.2141 89.8063 37.0528 89.517 36.955C89.5201 37.0155 89.5295 37.0755 89.545 37.134C89.5637 37.2116 89.5508 37.2934 89.5091 37.3615C89.4675 37.4296 89.4005 37.4783 89.323 37.497C89.2454 37.5157 89.1636 37.5028 89.0955 37.4612C89.0274 37.4196 88.9787 37.3526 88.96 37.275C88.831 36.736 89.017 36.509 89.192 36.413C89.717 36.128 90.591 36.872 90.729 37.021C90.7693 37.0637 90.7962 37.1174 90.8064 37.1753C90.8165 37.2331 90.8094 37.2927 90.786 37.3466C90.7626 37.4005 90.7238 37.4464 90.6746 37.4784C90.6253 37.5105 90.5677 37.5274 90.509 37.527" fill="black"/>
<path d="M91.59 38.423C91.6193 38.4222 91.6485 38.4273 91.6758 38.4379C91.7031 38.4485 91.728 38.4645 91.7491 38.4849C91.7701 38.5053 91.7869 38.5297 91.7984 38.5567C91.8099 38.5837 91.8159 38.6127 91.816 38.642C91.8135 38.6709 91.8053 38.6991 91.7918 38.7248C91.7784 38.7506 91.76 38.7734 91.7376 38.792C91.7153 38.8106 91.6896 38.8246 91.6618 38.8332C91.6341 38.8417 91.6049 38.8447 91.576 38.842C91.5467 38.8428 91.5175 38.8377 91.4902 38.8271C91.4629 38.8165 91.4379 38.8005 91.4169 38.7801C91.3958 38.7597 91.3791 38.7353 91.3676 38.7083C91.3561 38.6813 91.3501 38.6523 91.35 38.623C91.3525 38.5941 91.3607 38.5659 91.3741 38.5402C91.3876 38.5144 91.406 38.4916 91.4283 38.473C91.4506 38.4544 91.4764 38.4404 91.5041 38.4318C91.5319 38.4233 91.5611 38.4203 91.59 38.423" fill="black"/>
<path d="M91.761 36.358C91.7899 36.3576 91.8186 36.3629 91.8455 36.3737C91.8723 36.3845 91.8968 36.4005 91.9174 36.4207C91.9381 36.441 91.9545 36.4652 91.9657 36.4918C91.977 36.5185 91.9828 36.5471 91.983 36.576C91.9776 36.6343 91.9494 36.6882 91.9044 36.7257C91.8594 36.7632 91.8013 36.7813 91.743 36.776C91.6842 36.7768 91.6274 36.7544 91.5851 36.7135C91.5428 36.6727 91.5183 36.6168 91.517 36.558C91.5197 36.5288 91.5282 36.5004 91.542 36.4745C91.5558 36.4486 91.5746 36.4257 91.5973 36.4071C91.6199 36.3885 91.6461 36.3746 91.6742 36.3662C91.7023 36.3577 91.7318 36.355 91.761 36.358" fill="black"/>
<path d="M87.838 42.166L87.865 42.211Z" fill="black"/>
<path d="M89.144 41.506C88.855 42.337 90.101 42.679 90.401 41.963C90.4331 41.8766 90.4441 41.7837 90.4329 41.6922C90.4218 41.6007 90.3889 41.5132 90.337 41.437" fill="white"/>
<path d="M89.795 42.654C89.6604 42.6542 89.5268 42.6298 89.401 42.582C89.2865 42.5429 89.1812 42.4809 89.0914 42.3998C89.0016 42.3188 88.9292 42.2203 88.8786 42.1105C88.828 42.0006 88.8003 41.8816 88.7971 41.7606C88.7939 41.6397 88.8153 41.5194 88.86 41.407C88.8731 41.3697 88.8935 41.3354 88.9199 41.3059C88.9463 41.2765 88.9782 41.2526 89.0139 41.2355C89.0495 41.2184 89.0882 41.2085 89.1277 41.2063C89.1672 41.2042 89.2067 41.2099 89.244 41.223C89.2813 41.2361 89.3156 41.2565 89.345 41.2829C89.3745 41.3093 89.3984 41.3412 89.4155 41.3769C89.4326 41.4125 89.4425 41.4512 89.4446 41.4907C89.4468 41.5302 89.4411 41.5697 89.428 41.607C89.4101 41.6463 89.4008 41.689 89.401 41.7322C89.4011 41.7755 89.4105 41.8181 89.4287 41.8573C89.4468 41.8966 89.4732 41.9314 89.506 41.9595C89.5389 41.9875 89.5774 42.0082 89.619 42.02C89.7081 42.0627 89.8104 42.0687 89.9039 42.0368C89.9975 42.0048 90.0747 41.9373 90.119 41.849C90.1333 41.8077 90.1376 41.7637 90.1317 41.7204C90.1258 41.6772 90.1098 41.6359 90.085 41.6C90.0586 41.5674 90.0394 41.5295 90.0285 41.489C90.0177 41.4484 90.0154 41.4061 90.022 41.3646C90.0285 41.3232 90.0437 41.2835 90.0665 41.2483C90.0893 41.2131 90.1193 41.1831 90.1545 41.1601C90.1896 41.1372 90.2292 41.1219 90.2706 41.1152C90.3121 41.1086 90.3544 41.1107 90.395 41.1214C90.4356 41.1321 90.4735 41.1513 90.5062 41.1775C90.5389 41.2038 90.5657 41.2367 90.585 41.274C90.6623 41.3907 90.7105 41.5244 90.7252 41.6636C90.74 41.8029 90.7211 41.9436 90.67 42.074C90.6 42.2483 90.4782 42.397 90.321 42.4998C90.1637 42.6027 89.9787 42.6547 89.791 42.649" fill="black"/>
<path d="M87.838 42.166L87.865 42.211Z" fill="black"/>
<path d="M77.59 41L77.39 40.86Z" fill="black"/>
<path d="M77.061 40.717L82.341 45.99L83.876 44.57L79.181 40.041L77.061 40.717Z" fill="black"/>
<path d="M93.632 38.636C93.876 37.615 93.51 35.856 94.132 34.963C94.3628 34.6607 94.6568 34.4123 94.9934 34.2351C95.33 34.058 95.7012 33.9564 96.0811 33.9373C96.461 33.9183 96.8405 33.9823 97.1931 34.1249C97.5458 34.2675 97.8631 34.4853 98.123 34.763C98.8424 35.9129 99.1765 37.2622 99.077 38.615" fill="black"/>
<path d="M93.998 36.712C92.552 40.329 94.608 41.718 93.998 44.774C93.763 45.95 92.198 46.927 91.507 47.845C89.826 50.09 89.524 53.98 89.971 56.675C90.229 58.229 91.971 59.415 92.846 60.514C93.5366 61.6809 93.9324 62.9986 93.999 64.353C94.148 65.981 93.904 67.753 94.383 69.343C94.9646 70.9191 95.9572 72.3108 97.258 73.374C101.679 77.8 105.801 77.992 111.252 74.718C114.952 72.494 115.297 68.668 114.317 64.737C113.142 60.017 107.293 57.708 106.077 52.837C104.765 47.601 108.318 40.656 102.433 36.901C100.94 36.0558 99.4035 35.2881 97.831 34.601" fill="black"/>
<path d="M55.795 75.168H55.758C55.4056 75.1347 55.0685 75.0084 54.7809 74.8022C54.4933 74.5959 54.2656 74.317 54.121 73.994C53.9555 73.7076 53.8715 73.3815 53.8781 73.0508C53.8846 72.7202 53.9814 72.3976 54.158 72.118C54.356 71.8241 54.6213 71.5817 54.932 71.411C55.1929 71.2717 55.4842 71.1989 55.78 71.199C56.1424 71.201 56.4969 71.305 56.803 71.499C57.2176 71.7564 57.5131 72.1679 57.6245 72.643C57.7359 73.1182 57.6541 73.6182 57.397 74.033C57.2625 74.3528 57.0411 74.6287 56.758 74.8292C56.4749 75.0298 56.1413 75.1472 55.795 75.168V75.168ZM55.79 71.799C55.5825 71.7989 55.3785 71.8515 55.197 71.952C54.9782 72.0769 54.7913 72.2508 54.651 72.46C54.5384 72.6512 54.4796 72.8693 54.481 73.0911C54.4825 73.313 54.5439 73.5303 54.659 73.72C54.7563 73.9448 54.9101 74.1406 55.1055 74.2883C55.3009 74.436 55.5312 74.5307 55.774 74.563H55.805C56.205 74.563 56.562 74.283 56.876 73.73C56.9667 73.5919 57.0285 73.4368 57.0576 73.2741C57.0868 73.1115 57.0828 72.9446 57.0458 72.7835C57.0088 72.6224 56.9396 72.4705 56.8424 72.3369C56.7451 72.2033 56.6219 72.0907 56.48 72.006C56.2742 71.8731 56.0349 71.8013 55.79 71.799V71.799Z" fill="black"/>
<path d="M66.439 85.519H66.402C66.0495 85.4856 65.7123 85.3592 65.4247 85.1527C65.1371 84.9463 64.9094 84.6672 64.765 84.344C64.5997 84.0578 64.5159 83.7318 64.5224 83.4014C64.5289 83.0709 64.6256 82.7485 64.802 82.469C64.9997 82.1751 65.2647 81.9328 65.575 81.762C65.8362 81.6226 66.1278 81.5498 66.424 81.55C66.7863 81.5521 67.1408 81.6561 67.447 81.85C67.6524 81.9774 67.8308 82.1441 67.9718 82.3405C68.1129 82.5368 68.2139 82.7591 68.269 82.9945C68.3242 83.2299 68.3324 83.4738 68.2933 83.7124C68.2542 83.951 68.1684 84.1796 68.041 84.385C67.9064 84.7047 67.6851 84.9804 67.4019 85.1808C67.1188 85.3812 66.7852 85.4984 66.439 85.519V85.519ZM66.433 82.15C66.2258 82.1503 66.022 82.2033 65.841 82.304C65.6221 82.4292 65.4352 82.6034 65.295 82.813C65.1822 83.0041 65.1233 83.2221 65.1245 83.444C65.1258 83.6658 65.1871 83.8832 65.302 84.073C65.3992 84.2979 65.553 84.4939 65.7484 84.6418C65.9438 84.7897 66.1741 84.8845 66.417 84.917C66.6596 84.8918 66.8909 84.8011 67.0859 84.6546C67.2809 84.508 67.4323 84.3111 67.524 84.085C67.6151 83.9465 67.6772 83.7909 67.7065 83.6276C67.7357 83.4644 67.7315 83.2969 67.6941 83.1353C67.6567 82.9737 67.5869 82.8215 67.4889 82.6877C67.3909 82.5539 67.2667 82.4414 67.124 82.357C66.918 82.2237 66.6783 82.1519 66.433 82.15V82.15Z" fill="black"/>
<path d="M71.533 73.127H71.496C71.1435 73.0935 70.8063 72.9671 70.5187 72.7607C70.2311 72.5543 70.0034 72.2752 69.859 71.952C69.6936 71.6658 69.6097 71.3398 69.6162 71.0093C69.6227 70.6789 69.7195 70.3565 69.896 70.077C70.0939 69.783 70.3593 69.5406 70.67 69.37C70.9309 69.2307 71.2222 69.1579 71.518 69.158C71.8804 69.16 72.2349 69.264 72.541 69.458C72.7469 69.5849 72.9258 69.7513 73.0675 69.9474C73.2091 70.1436 73.3107 70.3657 73.3664 70.6011C73.4221 70.8366 73.4309 71.0807 73.3922 71.3195C73.3535 71.5583 73.2682 71.7872 73.141 71.993C73.0059 72.3135 72.7836 72.5897 72.4993 72.7902C72.215 72.9906 71.8802 73.1073 71.533 73.127V73.127ZM71.528 69.758C71.3208 69.7583 71.117 69.8113 70.936 69.912C70.7171 70.0372 70.5302 70.2114 70.39 70.421C70.2769 70.6119 70.2178 70.8299 70.2189 71.0518C70.2199 71.2737 70.2811 71.4911 70.396 71.681C70.4931 71.906 70.6469 72.102 70.8423 72.2499C71.0377 72.3978 71.2681 72.4926 71.511 72.525H71.529C71.934 72.525 72.299 72.245 72.613 71.693C72.7042 71.5547 72.7665 71.3994 72.796 71.2364C72.8256 71.0734 72.8218 70.9061 72.7848 70.7446C72.7479 70.5831 72.6787 70.4307 72.5812 70.2967C72.4838 70.1627 72.3602 70.0499 72.218 69.965C72.0123 69.8319 71.773 69.7601 71.528 69.758V69.758Z" fill="black"/>
<path d="M47.781 89.106H47.744C47.3915 89.0725 47.0543 88.9462 46.7667 88.7397C46.4791 88.5333 46.2514 88.2542 46.107 87.931C45.9417 87.6447 45.8578 87.3188 45.8644 86.9883C45.8709 86.6579 45.9676 86.3355 46.144 86.056C46.3416 85.7621 46.6067 85.5197 46.917 85.349C47.1782 85.2096 47.4698 85.1367 47.766 85.137C48.1283 85.1392 48.4828 85.2432 48.789 85.437C48.9944 85.5644 49.1728 85.7311 49.3138 85.9275C49.4549 86.1238 49.5558 86.3461 49.611 86.5815C49.6662 86.8169 49.6744 87.0608 49.6353 87.2994C49.5962 87.538 49.5104 87.7665 49.383 87.972C49.2484 88.2917 49.027 88.5674 48.7439 88.7678C48.4608 88.9682 48.1272 89.0854 47.781 89.106V89.106ZM47.776 85.737C47.5688 85.7373 47.365 85.7903 47.184 85.891C46.9651 86.0162 46.7782 86.1904 46.638 86.4C46.5251 86.591 46.466 86.809 46.467 87.0308C46.4681 87.2527 46.5292 87.4701 46.644 87.66C46.7414 87.885 46.8953 88.081 47.0909 88.2289C47.2864 88.3768 47.5169 88.4715 47.76 88.504H47.778C48.0165 88.4734 48.2427 88.3803 48.4338 88.2342C48.6248 88.0881 48.7739 87.8942 48.866 87.672C48.957 87.5334 49.019 87.3778 49.0481 87.2146C49.0773 87.0514 49.0731 86.8839 49.0357 86.7224C48.9983 86.5609 48.9285 86.4086 48.8306 86.2748C48.7327 86.141 48.6086 86.0285 48.466 85.944C48.2602 85.811 48.0209 85.7392 47.776 85.737V85.737Z" fill="black"/>
<path d="M69.412 107.224H69.375C69.0225 107.191 68.6853 107.064 68.3977 106.858C68.1101 106.651 67.8824 106.372 67.738 106.049C67.5729 105.763 67.489 105.437 67.4955 105.106C67.5021 104.776 67.5987 104.454 67.775 104.174C67.9727 103.88 68.2377 103.638 68.548 103.467C68.8092 103.328 69.1008 103.255 69.397 103.255C69.7594 103.257 70.1138 103.361 70.42 103.555C70.8349 103.812 71.1306 104.224 71.2422 104.699C71.3538 105.175 71.272 105.675 71.015 106.09C70.8803 106.41 70.6587 106.686 70.3754 106.886C70.0921 107.086 69.7584 107.203 69.412 107.224V107.224ZM69.406 103.855C69.1988 103.855 68.995 103.908 68.814 104.009C68.5953 104.134 68.4084 104.308 68.268 104.517C68.1553 104.708 68.0965 104.926 68.0977 105.148C68.099 105.37 68.1602 105.587 68.275 105.777C68.3723 106.002 68.5261 106.198 68.7215 106.346C68.9168 106.494 69.1471 106.588 69.39 106.621H69.402C69.802 106.621 70.182 106.333 70.492 105.789C70.5832 105.651 70.6455 105.496 70.675 105.333C70.7045 105.17 70.7007 105.002 70.6638 104.841C70.6269 104.68 70.5576 104.527 70.4602 104.393C70.3628 104.26 70.2392 104.147 70.097 104.062C69.891 103.929 69.6513 103.857 69.406 103.855V103.855Z" fill="black"/>
<path d="M48.293 113.219H48.256C47.9036 113.186 47.5665 113.059 47.2789 112.853C46.9913 112.647 46.7636 112.368 46.619 112.045C46.4536 111.759 46.3697 111.432 46.3762 111.102C46.3828 110.771 46.4795 110.449 46.656 110.169C46.8539 109.875 47.1193 109.633 47.43 109.462C47.6909 109.323 47.9822 109.25 48.278 109.25C48.6407 109.252 48.9955 109.356 49.302 109.55C49.7167 109.808 50.0122 110.219 50.1236 110.695C50.235 111.17 50.1531 111.67 49.896 112.085C49.7612 112.405 49.5397 112.68 49.2564 112.881C48.9731 113.081 48.6394 113.198 48.293 113.219V113.219ZM48.288 109.85C48.0808 109.85 47.877 109.903 47.696 110.004C47.4772 110.129 47.2904 110.303 47.15 110.512C47.0368 110.703 46.9775 110.921 46.9786 111.143C46.9796 111.365 47.0409 111.583 47.156 111.773C47.2531 111.998 47.4069 112.194 47.6023 112.342C47.7977 112.49 48.0281 112.585 48.271 112.617V112.617C48.5133 112.591 48.744 112.5 48.9389 112.353C49.1337 112.207 49.2854 112.01 49.378 111.785C49.4691 111.646 49.5312 111.491 49.5605 111.328C49.5897 111.164 49.5855 110.997 49.5481 110.835C49.5107 110.674 49.4409 110.521 49.3429 110.388C49.2449 110.254 49.1207 110.141 48.978 110.057C48.7722 109.924 48.5329 109.852 48.288 109.85V109.85Z" fill="black"/>
<path d="M57.329 98.596H57.293C56.9405 98.5628 56.6031 98.4366 56.3153 98.2304C56.0275 98.0241 55.7996 97.7451 55.655 97.422C55.4895 97.1356 55.4055 96.8095 55.4121 96.4788C55.4186 96.1482 55.5154 95.8256 55.692 95.546C55.8899 95.252 56.1553 95.0096 56.466 94.839C56.7269 94.6997 57.0182 94.6269 57.314 94.627C57.6763 94.6292 58.0308 94.7331 58.337 94.927C58.7519 95.1844 59.0476 95.596 59.1592 96.0713C59.2707 96.5467 59.189 97.0469 58.932 97.462C58.7972 97.7818 58.5757 98.0575 58.2924 98.2579C58.0091 98.4583 57.6754 98.5754 57.329 98.596V98.596ZM57.323 95.227C57.1159 95.227 56.9121 95.2796 56.731 95.38C56.5122 95.5049 56.3253 95.6788 56.185 95.888C56.0722 96.079 56.0133 96.2971 56.0145 96.5189C56.0158 96.7408 56.0771 96.9582 56.192 97.148C56.2893 97.3728 56.4431 97.5686 56.6385 97.7163C56.8339 97.864 57.0642 97.9587 57.307 97.991H57.323C57.723 97.991 58.099 97.703 58.409 97.159C58.4997 97.0208 58.5616 96.8657 58.5909 96.703C58.6201 96.5403 58.6162 96.3734 58.5793 96.2123C58.5424 96.0511 58.4733 95.8991 58.3762 95.7654C58.279 95.6316 58.1558 95.5189 58.014 95.434C57.8079 95.3009 57.5683 95.2291 57.323 95.227V95.227Z" fill="black"/>
<path d="M62.83 114.518H62.793C62.4406 114.485 62.1035 114.358 61.8159 114.152C61.5283 113.946 61.3006 113.667 61.156 113.344C60.9908 113.058 60.9069 112.731 60.9134 112.401C60.9199 112.07 61.0166 111.748 61.193 111.468C61.3906 111.174 61.6557 110.932 61.966 110.761C62.2272 110.622 62.5188 110.549 62.815 110.549C63.1773 110.551 63.5318 110.655 63.838 110.849C64.0434 110.976 64.2218 111.143 64.3628 111.339C64.5039 111.536 64.6049 111.758 64.66 111.993C64.7152 112.229 64.7234 112.473 64.6843 112.711C64.6452 112.95 64.5594 113.179 64.432 113.384C64.2974 113.704 64.0761 113.979 63.7929 114.18C63.5098 114.38 63.1762 114.497 62.83 114.518V114.518ZM62.824 111.149C62.6168 111.149 62.413 111.202 62.232 111.303C62.0133 111.428 61.8264 111.602 61.686 111.811C61.5729 112.002 61.5139 112.22 61.5151 112.442C61.5163 112.665 61.5778 112.882 61.693 113.072C61.79 113.297 61.9438 113.493 62.1392 113.641C62.3346 113.789 62.565 113.884 62.808 113.916H62.825C63.0359 113.913 63.2395 113.838 63.403 113.705C63.6111 113.533 63.7834 113.322 63.91 113.084C64.0012 112.946 64.0635 112.79 64.093 112.627C64.1226 112.464 64.1188 112.297 64.0818 112.136C64.0449 111.974 63.9757 111.822 63.8782 111.688C63.7808 111.554 63.6572 111.441 63.515 111.356C63.309 111.223 63.0693 111.151 62.824 111.149V111.149Z" fill="black"/>
<path d="M84.669 48.324C84.6117 48.3242 84.5556 48.3081 84.5072 48.2774C84.4588 48.2467 84.4202 48.2029 84.396 48.151C84.1588 47.6681 83.8916 47.2005 83.596 46.751C83.338 46.348 83.077 45.933 82.861 45.502C82.8432 45.4667 82.8326 45.4283 82.8297 45.389C82.8269 45.3496 82.8318 45.3101 82.8442 45.2726C82.8692 45.1969 82.9233 45.1343 82.9945 45.0985C83.0657 45.0627 83.1482 45.0566 83.2239 45.0817C83.2995 45.1067 83.3622 45.1608 83.398 45.232C83.6111 45.6435 83.8447 46.044 84.098 46.432C84.4095 46.9017 84.6911 47.3907 84.941 47.896C84.9578 47.9318 84.9675 47.9705 84.9693 48.01C84.9711 48.0495 84.9651 48.089 84.9516 48.1261C84.9382 48.1633 84.9175 48.1975 84.8908 48.2266C84.864 48.2558 84.8318 48.2793 84.796 48.296C84.7563 48.3148 84.7129 48.3247 84.669 48.325" fill="black"/>
<path d="M67.95 91.19C67.8704 91.1907 67.7938 91.1597 67.7371 91.1039C67.6804 91.0481 67.6481 90.9721 67.6475 90.8925C67.6468 90.8129 67.6778 90.7364 67.7336 90.6796C67.7894 90.6229 67.8654 90.5907 67.945 90.59C70.0108 90.3516 72.0229 89.7731 73.9 88.878C73.9717 88.843 74.0544 88.8379 74.1299 88.8639C74.2054 88.8899 74.2675 88.9448 74.3025 89.0165C74.3375 89.0882 74.3426 89.1709 74.3166 89.2464C74.2906 89.3219 74.2357 89.384 74.164 89.419C72.2087 90.3537 70.1101 90.9524 67.956 91.19H67.95Z" fill="black"/>
<path d="M109.424 24.16C110.136 25.299 110.528 26.609 110.559 27.952C110.545 30.044 109.748 31.06 109.359 32.529C108.901 34.294 109.58 36.042 109.159 37.814C108.878 38.984 106.859 40.887 105.859 41.768C105.827 41.794 105.972 41.353 105.95 41.321C105.678 40.955 106.199 40.121 106.25 39.764C106.413 38.745 106.626 37.732 106.794 36.709C107.274 33.719 106.994 30.699 107.614 27.716C107.779 26.8676 108.094 26.0551 108.542 25.316C108.813 24.914 109.108 24.528 109.424 24.16" fill="black"/>
<path d="M105.265 34.307C106.533 38.133 115.279 45.253 119.22 47.056C118.62 46.184 118.62 46.184 118.02 45.312C121.476 46.358 125.357 47.683 125.697 47.165C126.037 46.647 122.554 45.952 120.181 44.503C123.46 45.034 126.581 45.903 126.734 45.565C127.101 44.79 123.677 44.31 120.62 43.054C124.194 43.632 127.115 44.266 127.133 43.939C127.187 43.113 124.371 43.023 120.846 41.792C123.03 42.136 127.336 42.913 127.264 42.176C127.223 41.717 122.155 40.676 118.328 39.817C117.177 39.56 112.245 34.684 108.35 29.796C104.455 24.908 103.993 30.484 105.265 34.307Z" fill="white"/>
<path d="M125.295 47.581C123.372 47.2946 121.484 46.8083 119.662 46.13L118.762 45.851C118.962 46.135 119.1 46.341 119.472 46.885C119.503 46.9302 119.521 46.983 119.524 47.0377C119.527 47.0925 119.516 47.147 119.49 47.1955C119.464 47.2439 119.426 47.2844 119.379 47.3125C119.332 47.3406 119.278 47.3553 119.223 47.355C119.18 47.3551 119.137 47.3459 119.098 47.328C115.378 45.628 106.312 38.418 104.98 34.401C104.212 32.09 103.901 28.481 105.315 27.717C105.481 27.6271 105.666 27.5803 105.855 27.581C106.596 27.581 107.515 28.263 108.586 29.608C112.552 34.581 117.375 39.296 118.394 39.524C118.871 39.632 119.356 39.739 119.87 39.853L120.251 39.937C126.424 41.303 127.518 41.637 127.563 42.149C127.57 42.2207 127.561 42.2931 127.535 42.3603C127.509 42.4275 127.467 42.4877 127.414 42.536C127.078 42.7454 126.68 42.8323 126.288 42.782C126.059 42.782 125.798 42.77 125.488 42.746C126.836 43.081 127.471 43.346 127.43 43.958C127.427 44.0081 127.413 44.057 127.39 44.1013C127.366 44.1456 127.334 44.1844 127.294 44.215C127.151 44.3062 126.981 44.3461 126.812 44.328C126.003 44.2733 125.199 44.1654 124.405 44.005C125.026 44.1779 125.636 44.3849 126.234 44.625C126.557 44.7238 126.833 44.9372 127.01 45.225C127.044 45.2985 127.06 45.3785 127.059 45.4593C127.058 45.5401 127.039 45.6196 127.003 45.692C126.921 45.869 126.76 45.942 126.448 45.942C125.506 45.8546 124.571 45.6965 123.653 45.469C123.21 45.378 122.708 45.275 122.185 45.169C122.785 45.423 123.385 45.647 123.914 45.845L123.945 45.857C125.316 46.367 125.877 46.589 125.996 46.957C126.017 47.019 126.023 47.0849 126.014 47.1496C126.005 47.2144 125.981 47.2761 125.944 47.33C125.866 47.4238 125.766 47.4961 125.652 47.54C125.539 47.584 125.416 47.5981 125.295 47.581ZM118.02 45.011C118.049 45.011 118.079 45.0154 118.107 45.024C118.661 45.192 119.219 45.364 119.84 45.557L119.875 45.568C121.596 46.157 123.356 46.6291 125.141 46.981C124.797 46.815 124.241 46.607 123.741 46.423H123.734C122.447 45.9855 121.203 45.4287 120.019 44.76C119.963 44.7258 119.92 44.6743 119.896 44.6133C119.872 44.5522 119.869 44.485 119.887 44.422C119.905 44.3589 119.943 44.3035 119.995 44.2641C120.048 44.2248 120.111 44.2037 120.177 44.204C120.193 44.2028 120.209 44.2028 120.225 44.204C121.491 44.404 122.704 44.658 123.775 44.878C124.81 45.091 125.881 45.311 126.353 45.339C125.583 44.9899 124.783 44.7085 123.964 44.498V44.498H123.956C122.89 44.178 121.683 43.816 120.504 43.332C120.435 43.3044 120.379 43.2523 120.346 43.1858C120.314 43.1192 120.307 43.0429 120.327 42.9716C120.347 42.9003 120.393 42.8391 120.456 42.7996C120.519 42.7602 120.594 42.7453 120.667 42.758C121.616 42.911 122.503 43.066 123.403 43.223H123.418C124.666 43.441 125.956 43.666 126.594 43.717C125.94 43.4763 125.268 43.2854 124.585 43.146H124.579C123.284 42.8596 122.004 42.5041 120.747 42.081C120.676 42.0563 120.617 42.0058 120.581 41.9394C120.546 41.8731 120.536 41.7959 120.555 41.723C120.571 41.6581 120.609 41.6006 120.661 41.5595C120.714 41.5183 120.779 41.496 120.846 41.496C120.862 41.4947 120.877 41.4947 120.893 41.496L121.61 41.611C123.186 41.8981 124.778 42.0918 126.377 42.191C126.498 42.192 126.619 42.186 126.74 42.173C125.751 41.773 122.498 41.05 120.122 40.525C119.378 40.361 118.787 40.225 118.262 40.112C116.99 39.826 111.962 34.812 108.115 29.983C107.191 28.822 106.39 28.181 105.858 28.181C105.769 28.1798 105.681 28.2011 105.602 28.243C104.732 28.713 104.702 31.668 105.552 34.209C105.993 35.2965 106.62 36.2983 107.407 37.169C108.433 38.3797 109.541 39.5197 110.721 40.581C113.043 42.7269 115.582 44.6245 118.298 46.243C118.165 46.05 118.008 45.822 117.771 45.481C117.74 45.4359 117.721 45.3831 117.718 45.3283C117.715 45.2735 117.726 45.2188 117.752 45.1702C117.778 45.1216 117.816 45.081 117.863 45.0528C117.91 45.0245 117.964 45.0097 118.019 45.01L118.02 45.011Z" fill="black"/>
<path d="M77.694 45.091C77.694 45.091 82.449 34.241 88.594 34.079C94.739 33.917 105.851 41.814 105.851 41.814C106.41 39.8184 106.839 37.7884 107.133 35.737C107.581 32.502 107.101 31.607 107.649 28.766C107.905 27.2055 108.472 25.7123 109.316 24.375C109.316 24.375 87.965 19.928 79.801 24.975C76.527 27.003 67.951 40.322 67.951 40.322L77.694 45.091Z" fill="#FFBE00"/>
<path d="M77.7 46.263C77.6518 46.2633 77.6042 46.2521 77.5613 46.2302C77.5184 46.2083 77.4814 46.1763 77.4535 46.1371C77.4255 46.0979 77.4074 46.0525 77.4007 46.0048C77.394 45.957 77.3989 45.9084 77.415 45.863L78.554 42.495C78.5641 42.4665 78.5782 42.4395 78.596 42.415C78.63 42.366 82.091 37.595 82.6 36.771C82.6417 36.703 82.7088 36.6543 82.7865 36.6358C82.8641 36.6172 82.9459 36.6302 83.014 36.672C83.082 36.7138 83.1306 36.7809 83.1492 36.8585C83.1678 36.9361 83.1547 37.018 83.113 37.086C82.613 37.899 79.46 42.247 79.113 42.729L77.987 46.058C77.9662 46.1168 77.9275 46.1677 77.8765 46.2036C77.8254 46.2394 77.7644 46.2584 77.702 46.258" fill="black"/>
<path d="M71.851 47.277C71.7714 47.2838 71.6924 47.2586 71.6314 47.2072C71.5703 47.1557 71.5322 47.0821 71.5255 47.0025C71.5187 46.9229 71.5438 46.8439 71.5953 46.7829C71.6468 46.7218 71.7204 46.6838 71.8 46.677L77.651 45.662C77.6904 45.6554 77.7307 45.6567 77.7696 45.6657C77.8085 45.6747 77.8452 45.6913 77.8777 45.7145C77.9102 45.7377 77.9379 45.7671 77.959 45.801C77.9801 45.8349 77.9944 45.8726 78.001 45.912C78.0075 45.9514 78.0063 45.9917 77.9973 46.0306C77.9883 46.0695 77.9717 46.1063 77.9485 46.1388C77.9252 46.1713 77.8959 46.1989 77.862 46.22C77.8281 46.2412 77.7904 46.2554 77.751 46.262L71.904 47.273C71.8867 47.2745 71.8693 47.2745 71.852 47.273" fill="black"/>
<path d="M140.699 93.765C140.012 92.023 142.263 91.865 143.279 91.529C146.171 90.567 147.311 87.184 150.307 86.468C150.867 86.334 154.175 87.509 154.424 88.768C154.673 90.027 151.55 91.412 151.306 91.51C149.283 92.1833 147.322 93.0294 145.444 94.039" fill="black"/>
<path d="M94.952 157.921C94.162 158.375 94.18 157.302 94.632 156.856C94.915 156.618 95.2159 156.403 95.532 156.211C95.9862 155.811 96.3965 155.365 96.756 154.878C97.962 153.526 99.205 151.722 100.819 150.813C102.649 149.78 101.583 152.149 101.226 152.842" fill="black"/>
<path d="M96.281 150.454C96.281 150.454 99.63 147.064 99.874 145.304C100.714 139.255 105.437 132.683 111.841 139.507C113.641 141.423 116.563 151.395 116.563 151.395C116.563 151.395 112.18 153.015 109.563 152.983C104.804 152.928 96.281 150.454 96.281 150.454Z" fill="black"/>
<path d="M143.848 123.953C143.848 123.953 136.103 102.676 135.064 97.52C134.711 95.773 131.498 91.708 128.959 86.382C126.726 81.7 124.787 73.673 123.188 71.413C121.231 68.654 118.981 70.236 119.456 65.541C119.925 60.878 114.748 55.549 117.417 55.228C120.086 54.907 126.057 63.928 126.799 65.79C129.863 73.499 142.699 84.899 145.743 93.231C149.611 103.809 143.848 123.953 143.848 123.953Z" fill="white"/>
<path d="M143.86 124.254H143.847C143.785 124.254 143.725 124.235 143.674 124.199C143.624 124.163 143.586 124.112 143.565 124.054C143.545 123.999 141.539 118.493 139.435 112.41C138.263 109.022 137.287 106.11 136.535 103.752C135.599 100.825 135.006 98.747 134.77 97.576C134.217 96.1194 133.483 94.7379 132.586 93.464V93.459L132.578 93.446C131.16 91.2046 129.863 88.8889 128.692 86.509C127.555 83.9296 126.565 81.2881 125.727 78.597C124.72 75.59 123.77 72.75 122.947 71.587C122.423 70.8594 121.73 70.2704 120.927 69.871C119.633 69.135 118.855 68.531 119.16 65.511C119.383 63.303 118.279 60.911 117.391 58.989C116.63 57.349 116.083 56.164 116.48 55.451C116.576 55.297 116.708 55.169 116.865 55.0781C117.022 54.9873 117.199 54.9364 117.38 54.93C117.435 54.9234 117.491 54.92 117.547 54.92C118.569 55.0815 119.506 55.5854 120.205 56.349C121.29 57.3512 122.283 58.4482 123.172 59.627C124.676 61.5064 125.984 63.5338 127.078 65.678C128.536 69.345 132.192 73.81 136.062 78.538C140.175 83.562 144.427 88.756 146.025 93.127C147.647 97.563 147.825 104.116 146.544 112.604C145.962 116.454 145.161 120.268 144.144 124.027V124.036C144.126 124.098 144.089 124.153 144.038 124.192C143.987 124.231 143.924 124.253 143.86 124.254V124.254ZM117.574 55.52C117.534 55.5198 117.493 55.5221 117.453 55.527C117.104 55.57 117.03 55.7 117.005 55.744C116.757 56.189 117.327 57.42 117.931 58.733C118.849 60.721 119.991 63.196 119.752 65.566C119.47 68.35 120.128 68.723 121.218 69.342C122.097 69.7849 122.856 70.4336 123.431 71.233C124.306 72.469 125.225 75.217 126.291 78.4C127.122 81.068 128.103 83.6872 129.228 86.245C130.393 88.6102 131.683 90.9115 133.093 93.139L133.099 93.149C134.041 94.4743 134.8 95.9207 135.356 97.449C135.739 99.349 137.088 103.687 139.363 110.337C141.187 115.667 143.076 120.929 143.804 122.944C144.9 118.694 145.725 114.379 146.273 110.024C146.648 107.105 146.807 104.162 146.75 101.219C146.738 98.5364 146.302 95.8726 145.458 93.326C143.897 89.06 139.678 83.905 135.597 78.92C131.697 74.156 128.012 69.656 126.519 65.901C125.446 63.8063 124.164 61.8258 122.691 59.99C121.85 58.8778 120.921 57.8354 119.912 56.873C119.306 56.1727 118.483 55.6963 117.574 55.52V55.52Z" fill="black"/>
<path d="M106.291 164.669C104.212 164.643 94.08 157.628 88.902 152.713C80.784 145.007 78.275 137.27 78.843 137.119C79.772 136.873 80.416 138.961 81.021 139.708C80.998 136.432 80.578 134.076 81.121 133.908C81.664 133.74 81.74 134.534 82.392 136.974C82.766 133.987 82.56 133.867 82.898 133.815C83.666 133.698 83.798 134.258 84.098 137.242C84.513 133.986 83.681 133.831 84.409 133.696C85.137 133.561 86.109 137.796 85.878 141.348C85.851 141.781 92.028 147.571 96.633 150.994C101.178 154.179 106.274 156.495 111.663 157.824C111.663 157.824 108.366 164.696 106.291 164.669Z" fill="white"/>
<path d="M106.302 164.97H106.287C103.98 164.941 93.676 157.659 88.695 152.931C80.92 145.55 78.24 138.104 78.488 137.13C78.5023 137.059 78.5358 136.994 78.5849 136.941C78.6339 136.888 78.6966 136.85 78.766 136.83C78.8434 136.808 78.9234 136.796 79.004 136.794C79.1959 136.811 79.3815 136.871 79.5465 136.971C79.7115 137.07 79.8516 137.206 79.956 137.368C80.239 137.748 80.4871 138.153 80.697 138.578C80.676 137.926 80.643 137.311 80.614 136.768V136.692C80.501 134.706 80.451 133.799 81.028 133.623C81.0975 133.601 81.17 133.589 81.243 133.588C81.3429 133.588 81.4411 133.614 81.528 133.663C81.853 133.846 82.003 134.31 82.268 135.326C82.294 135.042 82.313 134.814 82.328 134.626V134.582C82.387 133.854 82.409 133.582 82.849 133.514C82.921 133.502 82.9939 133.495 83.067 133.494C83.2513 133.489 83.4318 133.547 83.579 133.658C83.6675 133.728 83.7425 133.814 83.8 133.911C83.81 133.717 83.882 133.483 84.356 133.397C84.3848 133.393 84.4139 133.392 84.443 133.394C84.5871 133.398 84.7245 133.456 84.828 133.556C85.1088 133.872 85.3125 134.248 85.423 134.656C85.6281 135.283 85.7849 135.925 85.892 136.576C86.164 138.136 86.2613 139.722 86.182 141.304C86.607 142.028 92.276 147.377 96.813 150.75C98.4202 151.93 100.124 152.972 101.906 153.866C103.466 154.655 105.068 155.356 106.706 155.966C108.346 156.59 110.024 157.113 111.729 157.53C111.773 157.54 111.815 157.559 111.851 157.587C111.887 157.615 111.916 157.651 111.936 157.692C111.955 157.733 111.966 157.777 111.966 157.823C111.966 157.868 111.956 157.913 111.936 157.954C111.59 158.674 108.501 164.969 106.302 164.97ZM79.066 137.411C79.1769 138.053 79.3667 138.679 79.631 139.275C80.119 140.473 80.6901 141.636 81.34 142.754C82.26 144.35 83.2898 145.879 84.422 147.332C85.8519 149.168 87.4183 150.894 89.108 152.494C94.226 157.352 104.345 164.343 106.295 164.368H106.304C106.747 164.301 107.152 164.079 107.448 163.742C107.941 163.262 108.386 162.736 108.778 162.17C109.699 160.854 110.518 159.471 111.229 158.031C109.251 157.517 107.307 156.876 105.411 156.113C103.908 155.514 102.437 154.837 101.005 154.083C99.4182 153.251 97.8969 152.301 96.454 151.239C92.472 148.282 85.532 142.066 85.578 141.332C85.67 139.703 85.5612 138.069 85.254 136.467C85.1598 135.595 84.8773 134.754 84.426 134.002H84.418H84.4C84.405 134.055 84.416 134.129 84.425 134.194C84.5685 135.216 84.5594 136.253 84.398 137.272C84.3889 137.345 84.3533 137.412 84.298 137.461C84.2427 137.509 84.1715 137.536 84.098 137.535V137.535C84.0233 137.535 83.9513 137.508 83.8958 137.458C83.8403 137.408 83.8054 137.339 83.798 137.265C83.621 135.516 83.482 134.348 83.211 134.139C83.1683 134.109 83.1159 134.096 83.064 134.102C83.037 134.101 83.01 134.101 82.983 134.102C82.966 134.202 82.95 134.392 82.931 134.63V134.635C82.895 135.083 82.831 135.835 82.685 137.01C82.6763 137.079 82.6438 137.143 82.5931 137.191C82.5423 137.239 82.4765 137.267 82.407 137.272H82.385C82.319 137.272 82.2549 137.25 82.2027 137.21C82.1504 137.169 82.1129 137.113 82.096 137.049C81.984 136.629 81.888 136.259 81.804 135.932L81.799 135.911C81.7016 135.311 81.5113 134.73 81.235 134.188C81.1086 135.007 81.1002 135.839 81.21 136.66V136.667C81.256 137.511 81.31 138.562 81.321 139.704C81.3216 139.767 81.3027 139.828 81.2668 139.879C81.231 139.93 81.18 139.969 81.121 139.99C81.0622 140.011 80.9985 140.012 80.9387 139.995C80.8788 139.978 80.8258 139.943 80.787 139.894C80.5564 139.579 80.3536 139.244 80.181 138.894C79.872 138.308 79.446 137.51 79.066 137.411Z" fill="black"/>
<path d="M122.654 158.933C123.743 156.449 121.542 153.883 116.228 152.294C110.914 150.705 101.157 150.946 101.157 150.946C100.47 152.561 99.5001 154.041 98.292 155.314C96.416 157.095 93.89 157.87 94.112 158.272C95.658 161.058 97.659 161.727 104.104 164.219C111.985 167.268 121.041 162.625 122.654 158.933Z" fill="#FFD2E1"/>
<path d="M136.537 128.91C136.537 128.91 141.711 92.892 140.672 87.525C140.324 85.707 136.922 81.441 134.272 75.88C131.937 70.992 129.975 62.638 128.281 60.272C126.216 57.379 123.762 58.983 124.349 54.124C124.937 49.297 119.437 43.692 122.325 43.398C125.213 43.104 131.503 52.561 132.267 54.498C135.448 62.54 149.106 74.565 152.255 83.252C156.255 94.282 136.538 128.909 136.538 128.909" fill="white"/>
<path d="M136.537 129.21C136.503 129.211 136.469 129.205 136.437 129.194C136.371 129.171 136.314 129.126 136.278 129.067C136.241 129.007 136.227 128.936 136.237 128.867V128.861C136.451 127.391 141.38 92.754 140.38 87.582C139.805 86.054 139.035 84.6067 138.089 83.276V83.269C136.596 80.9252 135.233 78.5016 134.005 76.009C132.824 73.3234 131.8 70.5714 130.938 67.767V67.767C129.899 64.629 128.918 61.667 128.049 60.448C127.484 59.6748 126.74 59.0503 125.88 58.628C124.504 57.847 123.68 57.21 124.055 54.091C124.331 51.803 123.18 49.306 122.254 47.299C121.469 45.591 120.903 44.368 121.322 43.632C121.427 43.4695 121.571 43.3357 121.741 43.2425C121.91 43.1493 122.1 43.0997 122.294 43.098C122.344 43.091 122.395 43.091 122.446 43.091C123.531 43.2618 124.527 43.7943 125.272 44.602C126.424 45.659 127.48 46.8165 128.427 48.061C129.344 49.231 130.299 50.58 131.116 51.861C131.656 52.6663 132.134 53.5118 132.546 54.39C134.058 58.213 137.927 62.9 142.023 67.861C146.38 73.139 150.88 78.591 152.537 83.15C154.225 87.8 152.084 96.95 146.172 110.339C141.797 120.251 136.847 128.972 136.798 129.059C136.772 129.105 136.734 129.143 136.688 129.17C136.642 129.196 136.59 129.21 136.537 129.21V129.21ZM122.468 43.691C122.43 43.691 122.392 43.691 122.354 43.697C121.955 43.738 121.872 43.883 121.844 43.931C121.58 44.397 122.17 45.681 122.797 47.041C123.755 49.116 124.947 51.699 124.65 54.155C124.304 57.042 125.01 57.441 126.18 58.103C127.111 58.5687 127.916 59.2504 128.53 60.091C129.453 61.384 130.402 64.251 131.501 67.57C132.355 70.3514 133.37 73.0809 134.54 75.745C135.759 78.217 137.113 80.6205 138.594 82.945C139.59 84.333 140.389 85.8524 140.968 87.46C141.184 89.8689 141.157 92.2935 140.888 94.697C140.667 97.77 140.28 101.744 139.737 106.508C138.765 115.04 137.543 123.916 137.063 127.336C140.788 120.547 144.162 113.571 147.172 106.436C148.99 102.183 150.474 97.7947 151.61 93.311C152.065 91.4717 152.354 89.5951 152.472 87.704C152.589 86.235 152.419 84.7573 151.972 83.353C150.355 78.893 145.886 73.481 141.564 68.246L141.559 68.24C137.432 63.24 133.534 58.519 131.987 54.608C130.858 52.4023 129.502 50.3203 127.941 48.396C127.046 47.2228 126.055 46.1254 124.98 45.115C124.325 44.3733 123.441 43.872 122.468 43.691V43.691Z" fill="black"/>
<path d="M131.891 146.41C133.134 146.34 147.283 141.119 147.283 141.119C147.283 141.119 152.999 135.673 155.96 122C157.406 115.345 154.451 88.745 154.451 88.745C153.014 90.3161 151.201 91.4949 149.182 92.17C146.328 93.0152 143.386 93.5292 140.414 93.702L139.076 99.385L133.437 100.06C133.437 100.06 127.734 114.772 127.395 120.799C126.685 133.273 130.847 144.943 131.895 146.409" fill="#FF0E11"/>
<path d="M105.486 151.513C106.024 153.233 109.092 153.444 110.543 156.005C111.194 157.159 110.457 160.816 114.728 164.172C114.728 164.172 117.467 164.402 117.738 163.679C118.073 162.779 123.595 155.905 123.979 155.036C124.444 153.987 123.712 149.211 116.26 151.584C113.489 152.467 106.037 149.591 106.037 149.591C106.037 149.591 104.949 149.791 105.486 151.513Z" fill="white"/>
<path d="M115.71 164.521C115.364 164.522 115.019 164.504 114.675 164.469C114.627 164.46 114.582 164.44 114.543 164.41C113.435 163.583 112.511 162.534 111.83 161.331C111.149 160.127 110.726 158.796 110.587 157.42C110.55 156.986 110.449 156.56 110.287 156.155C109.57 155.056 108.561 154.178 107.374 153.619V153.619C106.404 153.06 105.491 152.533 105.2 151.605C105.082 151.325 105.025 151.023 105.032 150.719C105.039 150.415 105.111 150.116 105.242 149.842C105.321 149.704 105.428 149.584 105.555 149.489C105.683 149.395 105.828 149.327 105.983 149.291C106.001 149.29 106.019 149.29 106.037 149.291C106.074 149.291 106.111 149.298 106.145 149.311C106.205 149.333 107.602 149.867 109.371 150.391C110.408 150.7 111.371 150.946 112.223 151.122C113.11 151.32 114.014 151.431 114.923 151.453C115.343 151.463 115.763 151.41 116.167 151.296C117.368 150.886 118.625 150.661 119.894 150.628C120.666 150.612 121.433 150.755 122.148 151.047C122.651 151.261 123.102 151.583 123.468 151.989C123.857 152.407 124.133 152.917 124.27 153.471C124.407 154.026 124.401 154.606 124.251 155.157C123.353 156.551 122.38 157.896 121.337 159.185C120.154 160.662 119.045 162.197 118.016 163.785C117.791 164.391 116.637 164.521 115.71 164.521ZM106.029 149.91C105.912 149.962 105.814 150.051 105.751 150.163C105.591 150.569 105.6 151.023 105.774 151.423C105.994 152.123 106.774 152.575 107.668 153.093C108.953 153.701 110.04 154.659 110.805 155.857C111.009 156.322 111.135 156.817 111.18 157.322V157.322C111.302 158.609 111.691 159.857 112.322 160.986C112.953 162.115 113.812 163.1 114.845 163.878C115.067 163.898 115.325 163.909 115.591 163.909C116.428 163.909 117.368 163.803 117.456 163.57C118.485 161.913 119.621 160.325 120.856 158.816C122.116 157.168 123.537 155.291 123.704 154.915C123.804 154.471 123.795 154.008 123.676 153.569C123.557 153.129 123.332 152.724 123.022 152.391C122.704 152.043 122.313 151.77 121.877 151.591C121.248 151.341 120.574 151.219 119.897 151.234C118.69 151.268 117.494 151.484 116.352 151.876C115.892 152.006 115.415 152.066 114.937 152.053C113.127 151.968 111.337 151.644 109.612 151.091C107.87 150.596 106.429 150.062 106.029 149.91Z" fill="black"/>
<path d="M120.888 157.833C124.712 156.087 117.941 168.811 120.332 168.255C125.492 167.055 133.957 167.381 133.957 167.381L137.143 160.176C137.143 160.176 143.343 153.856 143.872 152.962C146.547 148.44 151.161 135.862 151.161 135.862C151.161 135.862 143.872 138.428 138.593 138.05C133.749 137.703 128.502 134.787 128.502 134.787C128.502 134.787 127.169 139.88 119.067 145.773C110.965 151.666 112.292 153.122 112.292 153.122C112.292 153.122 117.575 159.346 120.892 157.833" fill="#FFD2E1"/>
<path d="M103.814 142.096C103.176 145.117 102.801 148.187 102.694 151.273C102.736 151.94 103.021 152.569 103.496 153.04C103.971 153.511 104.602 153.791 105.27 153.827C105.951 153.924 106.642 153.751 107.197 153.345C107.752 152.939 108.125 152.331 108.238 151.653C108.668 149.247 108.931 146.815 109.024 144.373C109.003 143.849 108.843 143.34 108.561 142.898C108.28 142.455 107.886 142.095 107.42 141.854C106.295 141.437 104.053 140.919 103.814 142.096Z" fill="white"/>
<path d="M105.588 154.144C105.472 154.144 105.356 154.137 105.241 154.125C104.501 154.083 103.802 153.771 103.277 153.247C102.753 152.724 102.44 152.025 102.397 151.285C102.502 148.176 102.878 145.081 103.52 142.037V142.037C103.55 141.88 103.615 141.732 103.71 141.603C103.805 141.474 103.927 141.368 104.068 141.292C104.392 141.132 104.751 141.056 105.112 141.071C105.938 141.11 106.752 141.278 107.525 141.571C108.038 141.836 108.474 142.23 108.79 142.714C109.105 143.198 109.29 143.756 109.325 144.333C109.236 146.807 108.972 149.271 108.536 151.707C108.469 152.097 108.328 152.47 108.122 152.807C107.939 153.102 107.702 153.359 107.422 153.565C106.887 153.947 106.245 154.149 105.588 154.144V154.144ZM105.105 141.671C104.849 141.657 104.593 141.707 104.361 141.816C104.296 141.849 104.239 141.897 104.195 141.955C104.152 142.014 104.122 142.082 104.109 142.154C103.475 145.149 103.102 148.194 102.994 151.254C103.038 151.848 103.296 152.406 103.721 152.823C104.145 153.241 104.707 153.49 105.302 153.524C105.394 153.534 105.487 153.539 105.58 153.539C106.105 153.543 106.619 153.382 107.048 153.079C107.528 152.721 107.849 152.189 107.942 151.597C108.364 149.22 108.626 146.817 108.726 144.404C108.674 143.975 108.417 142.542 107.316 142.133C106.609 141.859 105.862 141.702 105.105 141.671V141.671Z" fill="black"/>
<path d="M103.695 149.46C103.574 149.477 103.45 149.455 103.342 149.397C103.234 149.339 103.148 149.248 103.095 149.138C102.856 148.584 103.698 147.759 103.833 147.655C103.896 147.606 103.976 147.584 104.055 147.594C104.094 147.599 104.132 147.612 104.166 147.631C104.201 147.651 104.231 147.677 104.255 147.708C104.279 147.739 104.297 147.775 104.308 147.813C104.318 147.851 104.321 147.891 104.316 147.93C104.311 147.969 104.298 148.007 104.279 148.041C104.259 148.076 104.233 148.106 104.202 148.13C103.972 148.33 103.789 148.579 103.666 148.858C103.726 148.86 103.786 148.855 103.845 148.844C103.925 148.832 104.006 148.851 104.071 148.899C104.136 148.946 104.18 149.017 104.192 149.097C104.204 149.177 104.185 149.258 104.137 149.323C104.09 149.388 104.019 149.432 103.939 149.444C103.859 149.457 103.777 149.464 103.696 149.464L103.695 149.46Z" fill="black"/>
<path d="M105.297 146.91C105.298 146.881 105.306 146.852 105.318 146.826C105.331 146.8 105.349 146.776 105.371 146.757C105.393 146.737 105.418 146.723 105.446 146.713C105.474 146.704 105.503 146.701 105.532 146.703C105.561 146.708 105.588 146.719 105.612 146.735C105.637 146.751 105.658 146.771 105.674 146.795C105.69 146.819 105.702 146.846 105.708 146.875C105.714 146.903 105.714 146.932 105.708 146.961C105.707 146.99 105.7 147.018 105.687 147.044C105.675 147.07 105.658 147.093 105.636 147.112C105.615 147.132 105.59 147.146 105.563 147.156C105.535 147.165 105.507 147.169 105.478 147.167C105.449 147.162 105.421 147.152 105.396 147.137C105.372 147.121 105.35 147.101 105.333 147.077C105.316 147.053 105.304 147.026 105.298 146.997C105.292 146.968 105.292 146.939 105.297 146.91" fill="black"/>
<path d="M103.258 146.57C103.263 146.512 103.29 146.458 103.334 146.419C103.377 146.38 103.435 146.36 103.493 146.363C103.521 146.369 103.548 146.38 103.572 146.396C103.596 146.412 103.617 146.432 103.633 146.456C103.648 146.48 103.66 146.507 103.665 146.535C103.671 146.564 103.671 146.593 103.665 146.621C103.664 146.65 103.657 146.678 103.644 146.704C103.632 146.73 103.615 146.753 103.593 146.772C103.572 146.792 103.547 146.806 103.52 146.816C103.492 146.825 103.464 146.829 103.435 146.827C103.378 146.816 103.327 146.783 103.294 146.735C103.261 146.687 103.248 146.627 103.258 146.57" fill="black"/>
<path d="M108.713 150.966L108.759 150.944Z" fill="black"/>
<path d="M108.162 149.609C108.962 149.965 109.409 148.747 108.722 148.395C108.639 148.355 108.548 148.335 108.456 148.338C108.364 148.34 108.274 148.364 108.194 148.409" fill="white"/>
<path d="M108.445 149.973C108.307 149.971 108.171 149.941 108.045 149.884C107.979 149.848 107.93 149.789 107.905 149.718C107.881 149.647 107.884 149.57 107.914 149.501C107.944 149.433 107.998 149.378 108.066 149.347C108.135 149.317 108.212 149.313 108.283 149.336C108.321 149.358 108.363 149.37 108.407 149.374C108.45 149.378 108.494 149.371 108.535 149.356C108.576 149.341 108.613 149.317 108.644 149.286C108.675 149.255 108.698 149.218 108.713 149.177C108.764 149.092 108.778 148.99 108.754 148.894C108.73 148.798 108.67 148.715 108.585 148.663C108.546 148.645 108.503 148.637 108.46 148.639C108.417 148.64 108.375 148.652 108.338 148.673C108.268 148.711 108.185 148.72 108.109 148.698C108.032 148.675 107.967 148.623 107.929 148.553C107.891 148.483 107.882 148.4 107.904 148.324C107.927 148.247 107.979 148.182 108.049 148.144C108.173 148.076 108.311 148.039 108.453 148.036C108.594 148.032 108.734 148.063 108.861 148.126C109.088 148.247 109.257 148.453 109.332 148.698C109.407 148.944 109.382 149.209 109.261 149.436C109.193 149.595 109.08 149.731 108.936 149.827C108.792 149.923 108.623 149.974 108.45 149.976" fill="black"/>
<path d="M108.713 150.966L108.759 150.944Z" fill="#24160C"/>
<path d="M89.891 158.147C83.691 153.41 80.458 148.412 76.661 146.666L77.817 148.354C74.488 147.341 70.746 146.057 70.414 146.559C70.082 147.061 73.447 147.734 75.736 149.138C72.575 148.624 69.569 147.779 69.414 148.109C69.063 148.859 72.362 149.325 75.314 150.541C71.868 149.981 69.05 149.367 69.03 149.684C68.979 150.484 71.695 150.571 75.094 151.762C72.988 151.43 68.837 150.677 68.902 151.391C68.943 151.835 77.522 153.676 77.522 153.676C80.085 155.982 82.4419 158.507 84.566 161.223C86.609 163.793 99.393 178.496 114.952 171.135C130.511 163.774 119.435 157.261 111.933 160.502C102.733 164.475 98.218 164.523 89.889 158.152" fill="white"/>
<path d="M106.178 173.471C104.736 173.468 103.299 173.315 101.889 173.014C100.538 172.724 99.215 172.316 97.935 171.795C95.5583 170.813 93.3144 169.536 91.256 167.995C89.5911 166.761 88.0266 165.398 86.577 163.917C85.7879 163.12 85.0396 162.283 84.335 161.41C82.8983 159.597 81.3669 157.861 79.747 156.21C78.502 154.945 77.624 154.162 77.385 153.952C68.665 152.08 68.628 151.682 68.602 151.418C68.5951 151.347 68.605 151.274 68.6308 151.207C68.6567 151.14 68.6978 151.08 68.751 151.032C69.0787 150.827 69.4676 150.742 69.851 150.792C70.042 150.792 70.251 150.8 70.503 150.818C69.302 150.513 68.693 150.25 68.73 149.664C68.733 149.614 68.7468 149.565 68.7704 149.52C68.7941 149.476 68.827 149.437 68.867 149.406C69.0069 149.317 69.1729 149.278 69.338 149.295C70.0651 149.339 70.7882 149.435 71.502 149.58C70.9404 149.422 70.3888 149.231 69.85 149.007C69.5521 148.912 69.2986 148.712 69.136 148.445C69.1029 148.373 69.0863 148.294 69.0873 148.214C69.0884 148.135 69.107 148.056 69.142 147.985C69.224 147.809 69.383 147.738 69.689 147.738C70.5992 147.822 71.5018 147.976 72.389 148.196C72.827 148.286 73.257 148.375 73.701 148.463C73.143 148.228 72.586 148.02 72.095 147.837C70.772 147.337 70.23 147.121 70.112 146.762C70.0919 146.7 70.0861 146.635 70.0951 146.571C70.1041 146.507 70.1277 146.446 70.164 146.392C70.2403 146.3 70.339 146.228 70.4507 146.185C70.5625 146.142 70.6834 146.128 70.802 146.145C72.6617 146.422 74.487 146.894 76.248 147.553L76.967 147.777L77.083 147.813L76.413 146.835C76.3816 146.79 76.3633 146.737 76.36 146.682C76.3567 146.627 76.3685 146.572 76.3942 146.524C76.4199 146.475 76.4585 146.435 76.5057 146.406C76.5529 146.378 76.607 146.364 76.662 146.364C76.7051 146.364 76.7477 146.373 76.787 146.391C78.887 147.359 80.844 149.319 83.103 151.591C85.2759 153.858 87.6049 155.971 90.073 157.913C91.253 158.813 92.319 159.561 93.332 160.192C94.2722 160.787 95.2549 161.311 96.272 161.762C97.1588 162.155 98.0823 162.459 99.029 162.67C99.9183 162.866 100.826 162.963 101.737 162.962C103.309 162.939 104.87 162.698 106.376 162.245C108.232 161.69 110.049 161.016 111.817 160.225C113.19 159.647 114.666 159.354 116.155 159.363C116.889 159.362 117.622 159.432 118.342 159.573C119.013 159.702 119.667 159.906 120.292 160.182C121.39 160.606 122.295 161.418 122.836 162.464C124.602 166.388 118.002 170.024 115.082 171.406C113.626 172.099 112.098 172.63 110.525 172.987C109.098 173.307 107.64 173.47 106.178 173.471V173.471ZM69.755 151.387C69.675 151.387 69.601 151.387 69.536 151.393C70.436 151.71 73.336 152.468 77.586 153.38C77.6346 153.391 77.6799 153.413 77.718 153.445C80.2931 155.766 82.6632 158.305 84.802 161.034C85.4936 161.89 86.2279 162.71 87.002 163.492C88.4224 164.944 89.9551 166.281 91.586 167.492C93.6004 169.003 95.7966 170.256 98.123 171.22C99.3742 171.732 100.668 172.133 101.989 172.42C103.367 172.716 104.772 172.866 106.181 172.869C107.602 172.868 109.018 172.711 110.404 172.4C111.93 172.053 113.413 171.538 114.826 170.865C120.658 168.107 123.378 165.136 122.287 162.715C122.084 162.284 121.79 161.903 121.427 161.595C121.008 161.236 120.539 160.94 120.034 160.717C119.46 160.46 118.86 160.267 118.243 160.144C117.567 160.007 116.878 159.938 116.188 159.939C115.495 159.938 114.803 160.005 114.123 160.139C113.413 160.279 112.72 160.494 112.055 160.78C110.26 161.583 108.413 162.264 106.527 162.82C104.976 163.28 103.37 163.524 101.753 163.546C100.809 163.547 99.8676 163.446 98.945 163.246C97.9643 163.032 97.0071 162.721 96.087 162.32C95.0371 161.863 94.0226 161.328 93.052 160.72C92.005 160.073 90.912 159.312 89.71 158.392C87.2195 156.434 84.8697 154.304 82.678 152.017L82.671 152.01C81.743 151.078 80.866 150.197 80.039 149.442C79.2903 148.735 78.4805 148.095 77.619 147.531L78.065 148.183C78.0963 148.228 78.1146 148.281 78.1179 148.336C78.1213 148.391 78.1094 148.446 78.0837 148.494C78.058 148.543 78.0194 148.583 77.9722 148.612C77.925 148.64 77.871 148.654 77.816 148.654C77.787 148.655 77.7581 148.652 77.73 148.645C77.245 148.497 76.744 148.345 76.26 148.191L76.073 148.133C74.4155 147.565 72.7234 147.103 71.007 146.75C71.328 146.901 71.818 147.085 72.249 147.25L72.306 147.271C73.5492 147.694 74.7501 148.233 75.893 148.88C75.95 148.914 75.9942 148.965 76.0187 149.027C76.0432 149.089 76.0467 149.157 76.0285 149.22C76.0103 149.284 75.9716 149.34 75.9183 149.379C75.865 149.419 75.8002 149.439 75.734 149.438C75.7187 149.439 75.7033 149.439 75.688 149.438C74.474 149.238 73.303 148.999 72.269 148.785L72.222 148.775C71.311 148.587 70.278 148.375 69.807 148.34C70.5456 148.662 71.3078 148.927 72.087 149.132C73.117 149.442 74.287 149.794 75.424 150.264C75.4897 150.289 75.5445 150.337 75.5787 150.398C75.6129 150.46 75.6243 150.532 75.6109 150.601C75.5976 150.67 75.5603 150.732 75.5056 150.777C75.451 150.821 75.3824 150.845 75.312 150.844C75.295 150.845 75.2779 150.845 75.261 150.844C74.361 150.698 73.506 150.544 72.637 150.396C71.459 150.182 70.241 149.968 69.602 149.91C70.2145 150.126 70.8405 150.302 71.476 150.436H71.488C72.739 150.716 73.9741 151.062 75.188 151.474C75.2563 151.496 75.3143 151.543 75.3515 151.604C75.3886 151.666 75.4023 151.739 75.3902 151.81C75.3781 151.881 75.3409 151.945 75.2854 151.99C75.23 152.036 75.1599 152.061 75.088 152.059H75.046L74.346 151.946C72.8291 151.671 71.2975 151.484 69.759 151.387H69.755Z" fill="black"/>
<path d="M121.114 153.239L100.683 163.26C100.683 163.26 102.351 177.73 111.33 175.779C120.309 173.828 126.758 157.825 126.758 157.825L121.114 153.239Z" fill="#FFD2E1"/>
<path d="M111.253 157.164C111.253 157.246 111.253 157.327 111.244 157.409Z" fill="#0A0704"/>
<path d="M135.881 122.193C135.801 122.193 135.725 122.161 135.669 122.105C135.613 122.049 135.581 121.973 135.581 121.893C135.581 121.369 135.581 120.839 135.588 120.304C135.603 115.575 135.619 110.693 136.681 106.234C137.609 102.341 139.106 96.869 139.121 96.815C139.131 96.7769 139.149 96.7413 139.174 96.7101C139.198 96.679 139.228 96.6529 139.262 96.6334C139.297 96.6139 139.335 96.6013 139.374 96.5965C139.413 96.5916 139.453 96.5945 139.491 96.605C139.529 96.6155 139.565 96.6334 139.596 96.6577C139.627 96.682 139.653 96.7122 139.673 96.7465C139.692 96.7809 139.705 96.8187 139.71 96.8579C139.714 96.8971 139.711 96.9369 139.701 96.975C139.686 97.029 138.191 102.493 137.267 106.374C136.219 110.765 136.204 115.612 136.189 120.299C136.189 120.832 136.187 121.363 136.182 121.89C136.182 121.97 136.15 122.046 136.094 122.102C136.038 122.158 135.962 122.19 135.882 122.19" fill="black"/>
<path d="M107.696 138.077C107.227 136.773 105.062 137.076 103.679 137.026C102.531 136.987 100.005 137.693 99.508 138.95C98.351 141.877 101.433 143.386 103.656 143.874C107.42 144.703 109.251 144.55 110.792 140.466" fill="black"/>
<path d="M112.378 139.205C109.558 138.762 108.903 134.166 112.627 134.605C115.271 134.915 116.242 139.814 112.378 139.205Z" fill="black"/>
<path d="M148.621 136.955C148.587 136.955 148.553 136.95 148.521 136.939C148.484 136.926 148.449 136.906 148.42 136.879C148.39 136.853 148.366 136.821 148.349 136.785C148.332 136.75 148.322 136.711 148.32 136.671C148.318 136.632 148.324 136.592 148.337 136.555C150.089 130.924 151.281 125.135 151.897 119.27C152.096 115.468 151.99 111.655 151.579 107.87C151.399 105.503 151.214 103.054 151.105 100.487C150.926 96.287 150.988 94.543 151.025 93.503C151.071 92.8359 151.05 92.166 150.963 91.503C150.958 91.4636 150.961 91.4236 150.971 91.3852C150.981 91.3469 150.999 91.3109 151.023 91.2795C151.048 91.248 151.078 91.2216 151.112 91.2018C151.147 91.182 151.185 91.1691 151.224 91.164C151.263 91.1589 151.303 91.1616 151.342 91.1719C151.38 91.1823 151.416 91.2001 151.448 91.2243C151.479 91.2485 151.505 91.2787 151.525 91.3132C151.545 91.3476 151.558 91.3856 151.563 91.425C151.655 92.1211 151.677 92.8245 151.63 93.525C151.593 94.557 151.53 96.284 151.71 100.462C151.819 103.019 152.004 105.462 152.183 107.826C152.597 111.646 152.703 115.494 152.5 119.331C151.877 125.243 150.673 131.079 148.906 136.755C148.885 136.814 148.847 136.864 148.796 136.9C148.745 136.936 148.684 136.955 148.622 136.955" fill="black"/>
<path d="M143.912 138.07C143.878 138.07 143.844 138.065 143.812 138.054C143.775 138.041 143.74 138.021 143.71 137.995C143.681 137.969 143.657 137.937 143.639 137.901C143.622 137.866 143.612 137.827 143.61 137.787C143.607 137.748 143.613 137.708 143.626 137.671C145.987 130.827 145.812 124.663 145.619 118.139C145.374 113.655 145.499 109.159 145.992 104.696C146.333 102.099 146.606 93.061 146.612 92.97C146.612 92.9305 146.62 92.8915 146.636 92.8552C146.651 92.8189 146.674 92.7861 146.702 92.7588C146.731 92.7314 146.764 92.7101 146.801 92.696C146.838 92.682 146.878 92.6755 146.917 92.677C146.957 92.6776 146.996 92.6862 147.033 92.7023C147.069 92.7183 147.102 92.7415 147.13 92.7705C147.157 92.7995 147.179 92.8336 147.193 92.871C147.207 92.9083 147.213 92.9481 147.212 92.988C147.198 93.361 146.934 102.148 146.587 104.777C146.099 109.208 145.976 113.671 146.219 118.122C146.412 124.702 146.592 130.919 144.197 137.867C144.176 137.926 144.138 137.976 144.087 138.012C144.036 138.048 143.975 138.067 143.913 138.067" fill="black"/>
<path d="M137.798 137.835H137.778C137.738 137.832 137.7 137.822 137.664 137.805C137.629 137.787 137.597 137.762 137.571 137.732C137.545 137.703 137.525 137.668 137.512 137.63C137.5 137.592 137.495 137.553 137.498 137.513C137.59 136.051 137.787 134.597 138.089 133.164C138.279 132.187 138.477 131.177 138.656 129.594C139.168 125.135 139.81 118.259 140.432 111.606C141.285 102.476 142.022 94.589 142.34 93.659C142.366 93.5836 142.422 93.5217 142.494 93.4871C142.566 93.4525 142.649 93.448 142.724 93.4745C142.8 93.501 142.862 93.5564 142.896 93.6285C142.931 93.7007 142.935 93.7836 142.909 93.859C142.609 94.718 141.809 103.332 141.03 111.659C140.408 118.313 139.766 125.194 139.254 129.659C139.071 131.266 138.872 132.289 138.679 133.277C138.382 134.687 138.188 136.116 138.098 137.554C138.093 137.63 138.059 137.702 138.004 137.754C137.948 137.806 137.874 137.835 137.798 137.835" fill="black"/>
<path d="M131.675 136.294C131.622 136.294 131.571 136.28 131.525 136.254C131.479 136.228 131.441 136.19 131.415 136.145C130.554 134.664 130.021 124.025 130.724 117.852C131.379 112.152 133.334 106.503 135.224 101.038L135.651 99.802C135.678 99.7265 135.733 99.6647 135.805 99.6301C135.877 99.5955 135.96 99.591 136.035 99.6175C136.111 99.644 136.173 99.6994 136.207 99.7715C136.242 99.8436 136.247 99.9265 136.22 100.002L135.793 101.236C133.913 106.669 131.969 112.287 131.322 117.921C130.615 124.121 131.222 134.612 131.934 135.842C131.954 135.876 131.967 135.914 131.973 135.953C131.978 135.992 131.976 136.032 131.966 136.07C131.956 136.109 131.938 136.145 131.914 136.176C131.89 136.208 131.86 136.234 131.826 136.254C131.78 136.281 131.728 136.295 131.675 136.295" fill="black"/>
<path d="M129.921 145.969C129.841 145.969 129.765 145.937 129.709 145.881C129.653 145.825 129.621 145.749 129.621 145.669V143.852C129.621 143.772 129.653 143.696 129.709 143.64C129.765 143.584 129.841 143.552 129.921 143.552C130.001 143.552 130.077 143.584 130.133 143.64C130.189 143.696 130.221 143.772 130.221 143.852V145.668C130.221 145.748 130.189 145.824 130.133 145.88C130.077 145.936 130.001 145.968 129.921 145.968" fill="black"/>
<path d="M130.824 153.62C130.759 153.621 130.695 153.601 130.643 153.562C130.59 153.524 130.551 153.469 130.533 153.407C130.514 153.345 130.516 153.278 130.538 153.217C130.561 153.155 130.602 153.103 130.657 153.068C131.078 152.787 131.312 152.633 131.464 152.534C131.733 152.357 131.733 152.357 132.064 152.109L132.324 151.911C132.356 151.887 132.392 151.87 132.43 151.86C132.468 151.85 132.508 151.848 132.547 151.854C132.586 151.86 132.624 151.873 132.658 151.893C132.692 151.913 132.722 151.94 132.745 151.971C132.769 152.003 132.786 152.039 132.796 152.077C132.806 152.116 132.808 152.156 132.803 152.195C132.797 152.234 132.784 152.272 132.763 152.306C132.743 152.34 132.717 152.369 132.685 152.393L132.424 152.59C132.077 152.85 132.077 152.85 131.794 153.037C131.643 153.137 131.409 153.289 130.994 153.569C130.944 153.603 130.884 153.621 130.824 153.62" fill="black"/>
<path d="M120.44 169.43C120.373 169.43 120.308 169.407 120.256 169.366C120.225 169.342 120.199 169.312 120.179 169.277C120.16 169.243 120.147 169.205 120.142 169.166C120.137 169.127 120.14 169.087 120.151 169.049C120.162 169.011 120.18 168.975 120.204 168.944L120.27 168.858C120.985 167.937 121.724 166.988 122.506 166.088C122.532 166.058 122.564 166.034 122.6 166.017C122.635 165.999 122.674 165.989 122.714 165.987C122.753 165.984 122.793 165.99 122.83 166.003C122.868 166.016 122.902 166.036 122.932 166.062C122.962 166.088 122.986 166.12 123.003 166.156C123.021 166.191 123.031 166.23 123.033 166.27C123.036 166.309 123.03 166.349 123.017 166.386C123.004 166.424 122.984 166.458 122.958 166.488C122.188 167.369 121.458 168.315 120.745 169.228L120.677 169.315C120.649 169.351 120.613 169.38 120.572 169.4C120.531 169.42 120.486 169.43 120.44 169.43" fill="black"/>
<path d="M131.625 162.004C131.58 162.004 131.535 161.994 131.495 161.974C131.454 161.955 131.418 161.926 131.39 161.891C131.242 161.705 131.149 161.583 131.083 161.497C131.003 161.375 130.896 161.273 130.771 161.197C130.701 161.141 130.609 161.078 130.483 160.984C130.451 160.96 130.425 160.931 130.404 160.897C130.384 160.863 130.371 160.825 130.365 160.786C130.353 160.707 130.373 160.627 130.421 160.563C130.469 160.499 130.54 160.456 130.619 160.445C130.698 160.433 130.778 160.453 130.842 160.501C130.962 160.593 131.055 160.658 131.124 160.708C131.299 160.816 131.448 160.961 131.562 161.132C131.626 161.216 131.716 161.332 131.862 161.515C131.898 161.559 131.921 161.613 131.928 161.669C131.934 161.726 131.925 161.783 131.9 161.835C131.876 161.886 131.837 161.929 131.788 161.96C131.74 161.99 131.684 162.006 131.627 162.005" fill="black"/>
<path d="M140.247 152.521C140.223 152.521 140.198 152.518 140.175 152.512C140.137 152.503 140.1 152.486 140.069 152.462C140.037 152.439 140.01 152.41 139.989 152.376C139.969 152.342 139.955 152.304 139.949 152.265C139.944 152.226 139.945 152.186 139.955 152.148L140.072 151.667L140.189 150.858C140.198 150.793 140.228 150.733 140.274 150.686L140.514 150.446C140.57 150.39 140.647 150.358 140.727 150.358C140.807 150.358 140.883 150.39 140.939 150.446C140.996 150.503 141.027 150.58 141.027 150.659C141.027 150.739 140.995 150.816 140.939 150.872L140.77 151.041L140.662 151.782L140.539 152.291C140.523 152.356 140.486 152.415 140.433 152.456C140.381 152.498 140.315 152.521 140.248 152.521" fill="black"/>
<path d="M137.373 142.677C137.306 142.677 137.241 142.654 137.188 142.613C137.135 142.572 137.098 142.514 137.082 142.449C137.044 142.297 137.018 142.203 137 142.139C136.956 142.009 136.939 141.871 136.949 141.734V141.534C136.949 141.454 136.981 141.378 137.037 141.322C137.093 141.266 137.169 141.234 137.249 141.234C137.329 141.234 137.405 141.266 137.461 141.322C137.517 141.378 137.549 141.454 137.549 141.534V141.734C137.541 141.816 137.551 141.898 137.578 141.976C137.597 142.044 137.625 142.142 137.665 142.303C137.685 142.38 137.673 142.462 137.633 142.53C137.592 142.599 137.526 142.648 137.449 142.668C137.425 142.674 137.401 142.677 137.376 142.677" fill="black"/>
<path d="M146.357 141.596C146.31 141.596 146.265 141.585 146.223 141.564C146.152 141.529 146.098 141.467 146.073 141.392C146.048 141.317 146.053 141.235 146.088 141.164L146.807 139.719C146.843 139.648 146.905 139.593 146.981 139.568C147.057 139.543 147.14 139.549 147.211 139.585C147.282 139.621 147.337 139.683 147.362 139.759C147.387 139.835 147.381 139.918 147.345 139.989L146.626 141.429C146.601 141.479 146.563 141.521 146.515 141.551C146.468 141.58 146.413 141.596 146.357 141.596" fill="black"/>
<path d="M130.306 140.156C130.251 140.156 130.196 140.141 130.149 140.112C130.101 140.083 130.063 140.041 130.038 139.992L129.676 139.272C129.64 139.201 129.633 139.118 129.658 139.042C129.682 138.966 129.736 138.903 129.807 138.867C129.878 138.831 129.961 138.824 130.037 138.849C130.113 138.873 130.176 138.927 130.212 138.998L130.573 139.718C130.597 139.764 130.608 139.815 130.606 139.867C130.605 139.918 130.589 139.969 130.563 140.013C130.536 140.057 130.498 140.093 130.453 140.118C130.407 140.143 130.357 140.156 130.305 140.156" fill="black"/>
<path d="M141.035 138.25C138.06 138.162 135.111 137.659 132.275 136.756C131.451 136.495 130.644 136.185 129.858 135.825C129.371 135.616 128.912 135.418 128.505 135.263C128.43 135.236 128.369 135.18 128.336 135.108C128.302 135.035 128.299 134.953 128.326 134.878C128.353 134.803 128.409 134.742 128.481 134.709C128.554 134.675 128.636 134.672 128.711 134.699C129.136 134.859 129.601 135.059 130.094 135.272C130.857 135.619 131.639 135.919 132.438 136.172C136.814 137.408 140.316 138.04 144.238 137.372C145.564 137.145 150.492 135.916 151.056 135.39C151.114 135.336 151.192 135.307 151.272 135.31C151.311 135.311 151.35 135.321 151.386 135.337C151.422 135.354 151.454 135.377 151.481 135.406C151.508 135.435 151.529 135.469 151.542 135.506C151.556 135.543 151.562 135.582 151.561 135.622C151.56 135.661 151.55 135.7 151.534 135.736C151.517 135.772 151.494 135.804 151.465 135.831C150.697 136.548 145.265 137.807 144.338 137.966C143.246 138.153 142.139 138.247 141.031 138.247" fill="black"/>
<path d="M122.316 148.872C122.288 148.873 122.26 148.871 122.233 148.865C121.721 148.687 121.185 148.586 120.643 148.565C120.563 148.565 120.487 148.533 120.431 148.477C120.375 148.421 120.343 148.345 120.343 148.265C120.343 148.185 120.375 148.109 120.431 148.053C120.487 147.997 120.563 147.965 120.643 147.965C121.24 147.983 121.832 148.09 122.398 148.281C122.47 148.299 122.533 148.343 122.574 148.404C122.616 148.465 122.633 148.54 122.623 148.613C122.613 148.687 122.576 148.754 122.519 148.802C122.462 148.849 122.39 148.874 122.316 148.872" fill="black"/>
<path d="M121.325 152.829C121.262 152.829 121.201 152.81 121.15 152.774C121.099 152.738 121.061 152.687 121.04 152.628C121.019 152.569 121.018 152.505 121.035 152.445C121.053 152.385 121.089 152.332 121.138 152.293L121.517 151.993C121.579 151.949 121.656 151.93 121.731 151.941C121.807 151.951 121.876 151.99 121.924 152.05C121.971 152.109 121.995 152.184 121.989 152.26C121.984 152.336 121.949 152.407 121.893 152.459L121.513 152.759C121.46 152.803 121.394 152.828 121.325 152.829" fill="black"/>
<path d="M119.504 159.298C119.439 159.299 119.376 159.279 119.324 159.241C119.272 159.203 119.233 159.149 119.214 159.087C119.195 159.026 119.196 158.959 119.217 158.898C119.239 158.837 119.279 158.785 119.333 158.749L120.319 158.063C120.385 158.018 120.467 158.001 120.546 158.015C120.585 158.023 120.622 158.038 120.656 158.059C120.689 158.081 120.718 158.109 120.74 158.142C120.762 158.175 120.778 158.212 120.786 158.251C120.795 158.29 120.795 158.33 120.788 158.369C120.78 158.408 120.765 158.445 120.744 158.479C120.722 158.512 120.694 158.541 120.661 158.563L119.676 159.248C119.625 159.282 119.565 159.299 119.504 159.298" fill="black"/>
<path d="M125.498 159.907C125.431 159.907 125.366 159.884 125.313 159.843C125.26 159.802 125.223 159.744 125.207 159.679C125.137 159.386 125.09 159.207 125.058 159.086C125.004 158.899 124.966 158.707 124.945 158.513L124.898 158.202C124.887 158.122 124.907 158.042 124.955 157.977C125.004 157.913 125.075 157.87 125.155 157.859C125.235 157.848 125.315 157.868 125.38 157.916C125.444 157.965 125.487 158.036 125.498 158.116L125.541 158.43C125.559 158.599 125.593 158.767 125.641 158.93C125.673 159.052 125.72 159.23 125.794 159.53C125.804 159.568 125.806 159.608 125.8 159.647C125.794 159.687 125.781 159.724 125.76 159.758C125.74 159.792 125.713 159.822 125.681 159.845C125.65 159.869 125.613 159.886 125.575 159.895C125.55 159.902 125.524 159.906 125.498 159.907" fill="black"/>
<path d="M113.577 161.733C113.531 161.732 113.485 161.721 113.444 161.7L113.36 161.652H113.277C113.197 161.652 113.121 161.62 113.065 161.564C113.009 161.508 112.977 161.432 112.977 161.352C112.977 161.272 113.009 161.196 113.065 161.14C113.121 161.084 113.197 161.052 113.277 161.052H113.361C113.457 161.043 113.554 161.066 113.635 161.119L113.717 161.163C113.779 161.193 113.829 161.243 113.858 161.305C113.887 161.368 113.894 161.438 113.878 161.505C113.861 161.571 113.823 161.631 113.768 161.672C113.713 161.714 113.646 161.735 113.577 161.733" fill="black"/>
<path d="M100.565 163.389C100.36 163.389 100.241 163.305 100.21 163.138C100.153 162.826 100.36 162.771 101.235 162.538C101.667 162.338 102.11 162.175 102.535 162.014C102.825 161.905 103.114 161.796 103.403 161.678C104.069 161.403 104.736 161.091 105.381 160.788C106.577 160.193 107.817 159.689 109.089 159.282C109.165 159.259 109.247 159.268 109.317 159.305C109.387 159.342 109.439 159.406 109.462 159.482C109.485 159.558 109.477 159.64 109.439 159.71C109.402 159.781 109.338 159.833 109.262 159.856C108.019 160.258 106.808 160.753 105.64 161.337C104.988 161.642 104.315 161.957 103.64 162.237C103.346 162.358 103.05 162.469 102.756 162.58C102.331 162.739 101.891 162.905 101.472 163.096V163.091C101.448 163.104 101.422 163.114 101.396 163.121C101.141 163.187 100.977 163.234 100.867 163.269C100.842 163.302 100.811 163.329 100.776 163.349C100.74 163.369 100.701 163.382 100.66 163.386C100.628 163.389 100.597 163.391 100.565 163.391" fill="black"/>
<path d="M110.931 171.228C110.862 171.229 110.794 171.206 110.74 171.163C110.686 171.12 110.648 171.059 110.634 170.991C110.619 170.924 110.628 170.853 110.66 170.791C110.691 170.729 110.743 170.681 110.807 170.653L110.944 170.591C111.076 170.53 111.208 170.469 111.343 170.41C111.416 170.378 111.499 170.376 111.573 170.404C111.648 170.433 111.708 170.49 111.74 170.563C111.772 170.636 111.774 170.719 111.746 170.793C111.717 170.868 111.66 170.928 111.587 170.96C111.454 171.019 111.323 171.084 111.194 171.139L111.056 171.201C111.017 171.219 110.974 171.228 110.931 171.228" fill="black"/>
<path d="M108.062 168.117C107.779 168.117 107.498 167.79 107.41 167.678C107.1 167.284 107.192 167.025 107.268 166.913C107.316 166.838 107.387 166.782 107.47 166.751C107.553 166.72 107.644 166.717 107.729 166.742C107.914 166.838 108.072 166.978 108.19 167.149C108.309 167.321 108.383 167.518 108.408 167.725C108.416 167.802 108.398 167.879 108.358 167.946C108.318 168.012 108.258 168.063 108.186 168.092C108.146 168.107 108.104 168.115 108.062 168.115" fill="black"/>
<path d="M116.169 166.651C116.128 166.65 116.087 166.641 116.049 166.624C116.011 166.607 115.978 166.582 115.95 166.551L115.57 166.149C115.54 166.121 115.516 166.087 115.5 166.049C115.484 166.011 115.476 165.971 115.476 165.929C115.476 165.888 115.485 165.848 115.501 165.81C115.518 165.772 115.542 165.739 115.572 165.711C115.602 165.683 115.637 165.661 115.676 165.648C115.715 165.634 115.756 165.629 115.797 165.631C115.838 165.634 115.878 165.646 115.915 165.665C115.951 165.684 115.983 165.71 116.009 165.742L116.389 166.142C116.43 166.185 116.457 166.238 116.467 166.296C116.478 166.354 116.471 166.414 116.447 166.468C116.424 166.522 116.385 166.568 116.336 166.6C116.287 166.632 116.229 166.649 116.17 166.649" fill="black"/>
<path d="M125.6 143.754C125.526 143.754 125.454 143.727 125.398 143.677C125.343 143.628 125.308 143.559 125.3 143.485C125.282 143.297 125.269 143.189 125.259 143.118C125.239 143.004 125.234 142.889 125.242 142.774V142.63C125.246 142.549 125.281 142.473 125.341 142.418C125.4 142.364 125.479 142.335 125.56 142.338C125.6 142.339 125.639 142.348 125.675 142.364C125.711 142.38 125.744 142.404 125.771 142.433C125.798 142.461 125.819 142.496 125.833 142.533C125.847 142.57 125.853 142.609 125.852 142.649L125.842 142.795C125.837 142.878 125.842 142.961 125.856 143.043C125.865 143.116 125.879 143.227 125.9 143.421C125.904 143.46 125.901 143.5 125.89 143.538C125.879 143.576 125.86 143.611 125.835 143.642C125.81 143.673 125.78 143.698 125.745 143.717C125.71 143.736 125.672 143.748 125.633 143.752H125.601" fill="black"/>
<path d="M140.59 146.372C140.541 146.372 140.493 146.36 140.45 146.338C140.407 146.315 140.37 146.283 140.342 146.242C140.315 146.202 140.297 146.156 140.291 146.108C140.286 146.06 140.292 146.01 140.309 145.965C140.647 145.059 142.13 145.059 143.026 145.067C143.183 145.067 143.311 145.067 143.383 145.061C143.422 145.057 143.462 145.06 143.5 145.072C143.538 145.083 143.573 145.102 143.604 145.126C143.634 145.151 143.66 145.182 143.679 145.217C143.697 145.252 143.709 145.29 143.713 145.329C143.721 145.408 143.698 145.487 143.648 145.549C143.598 145.611 143.526 145.65 143.447 145.659C143.36 145.67 143.213 145.669 143.024 145.67C142.441 145.659 141.063 145.659 140.872 146.175C140.851 146.233 140.813 146.284 140.763 146.32C140.712 146.356 140.652 146.375 140.59 146.375" fill="black"/>
<path d="M134.706 166.625C134.672 166.623 134.638 166.615 134.606 166.601C134.569 166.587 134.535 166.566 134.506 166.539C134.477 166.512 134.453 166.48 134.437 166.444C134.421 166.408 134.412 166.369 134.41 166.329C134.409 166.289 134.416 166.25 134.43 166.213C134.892 164.977 135.372 163.747 135.853 162.513C136.334 161.279 136.835 159.99 137.306 158.725C137.32 158.688 137.341 158.654 137.368 158.625C137.394 158.596 137.427 158.573 137.463 158.557C137.499 158.54 137.537 158.531 137.577 158.53C137.616 158.528 137.656 158.535 137.692 158.548C137.729 158.562 137.763 158.583 137.792 158.61C137.821 158.637 137.844 158.669 137.861 158.705C137.877 158.741 137.886 158.78 137.888 158.819C137.889 158.859 137.883 158.898 137.869 158.935C137.396 160.206 136.894 161.493 136.406 162.737C135.928 163.965 135.449 165.192 134.988 166.425C134.967 166.483 134.929 166.534 134.879 166.57C134.828 166.605 134.768 166.625 134.706 166.625" fill="black"/>
<path d="M81.278 104.321C81.3407 98.7336 83.6197 93.3999 87.6139 89.4923C91.6081 85.5848 96.9906 83.4233 102.578 83.483C108.165 83.4233 113.548 85.5848 117.542 89.4923C121.536 93.3999 123.815 98.7336 123.878 104.321C123.815 109.909 121.537 115.243 117.542 119.15C113.548 123.058 108.166 125.22 102.578 125.16C96.9904 125.22 91.6078 123.058 87.6136 119.15C83.6194 115.243 81.3405 109.909 81.278 104.321" fill="white"/>
<path d="M102.578 125.461C96.9125 125.514 91.4572 123.319 87.408 119.356C83.3589 115.393 81.0466 109.986 80.978 104.321C81.0468 98.6559 83.3593 93.2493 87.4084 89.2866C91.4575 85.324 96.9127 83.1286 102.578 83.182C108.243 83.1286 113.698 85.324 117.748 89.2866C121.797 93.2493 124.109 98.6559 124.178 104.321C124.109 109.986 121.797 115.393 117.748 119.356C113.699 123.319 108.243 125.514 102.578 125.461V125.461ZM102.578 83.782C97.0718 83.7286 91.7692 85.8607 87.8326 89.7109C83.8961 93.561 81.6468 98.815 81.578 104.321C81.6471 109.827 83.8965 115.081 87.833 118.93C91.7695 122.78 97.072 124.912 102.578 124.859C108.084 124.912 113.386 122.78 117.323 118.93C121.259 115.081 123.509 109.827 123.578 104.321C123.509 98.815 121.26 93.561 117.323 89.7109C113.387 85.8607 108.084 83.7286 102.578 83.782V83.782Z" fill="black"/>
<path d="M88.867 104.321C88.9068 100.723 90.3741 97.2885 92.9461 94.7724C95.518 92.2563 98.9841 90.8648 102.582 90.904C106.18 90.8645 109.646 92.2559 112.219 94.772C114.791 97.2882 116.258 100.723 116.298 104.321C116.258 107.919 114.79 111.354 112.218 113.87C109.646 116.386 106.18 117.777 102.582 117.738C98.9842 117.777 95.5183 116.385 92.9463 113.869C90.3744 111.353 88.9071 107.919 88.867 104.321" fill="#FF0E11"/>
<path d="M91.662 101.676C90.656 99.559 94.33 95.731 95.869 94.852C99.261 92.921 103.425 92.452 106.744 94.36C107.585 94.845 110.527 97.721 109.881 98.776C109.235 99.831 105.29 96.561 99.534 96.976C93.778 97.391 92.305 103.032 91.662 101.676Z" fill="white"/>
<path d="M95.046 106.353C95.1245 106.461 95.1715 106.588 95.1817 106.721C95.1919 106.854 95.165 106.987 95.1038 107.105C95.0427 107.224 94.9498 107.323 94.8356 107.392C94.7213 107.46 94.5902 107.496 94.457 107.494C93.821 107.548 92.595 107.588 92.388 107.165C92.291 106.875 92.2612 106.568 92.301 106.265C92.281 105.386 92.267 104.265 92.227 103.433C92.461 103.271 93.365 103.151 93.533 103.526C93.6104 104.471 93.6371 105.419 93.613 106.366C94.0891 106.425 94.571 106.42 95.046 106.352" fill="white"/>
<path d="M98.125 107.622C98.0156 107.627 97.9064 107.609 97.8048 107.568C97.7031 107.527 97.6115 107.465 97.536 107.386C97.4171 107.21 97.3627 106.998 97.382 106.786H97.065H96.839C96.8068 106.984 96.7954 107.185 96.805 107.386C96.5973 107.525 96.3547 107.603 96.105 107.61C96.0043 107.613 95.9041 107.595 95.811 107.557C95.7179 107.518 95.634 107.46 95.565 107.387C95.4825 107.283 95.4229 107.163 95.39 107.034C95.3571 106.906 95.3517 106.772 95.374 106.641C95.432 106.053 95.504 105.641 95.574 105.241C95.6716 104.735 95.7354 104.223 95.765 103.708C96.173 103.432 96.6526 103.282 97.145 103.274C97.3864 103.27 97.6257 103.32 97.845 103.421C98.0699 103.528 98.2559 103.703 98.377 103.921C98.6424 104.648 98.7686 105.418 98.749 106.191C98.7543 106.293 98.7596 106.395 98.765 106.498C98.765 106.551 98.77 106.598 98.772 106.643C98.7684 106.854 98.8023 107.064 98.872 107.264C98.7862 107.38 98.6733 107.474 98.5431 107.536C98.4128 107.598 98.2693 107.628 98.125 107.622V107.622ZM97.049 104.654C97.0149 104.65 96.9805 104.656 96.949 104.669C96.941 104.733 96.936 104.893 96.93 105.077C96.921 105.366 96.91 105.725 96.882 105.944H97.337C97.337 105.859 97.329 105.762 97.325 105.66C97.3245 105.334 97.2947 105.009 97.236 104.689C97.1776 104.662 97.1133 104.65 97.049 104.654V104.654Z" fill="white"/>
<path d="M102.387 103.6C102.561 104.361 102.604 105.147 102.514 105.923C102.353 107.098 101.898 107.541 100.92 107.581C99.689 107.628 99.167 107.011 99.142 106.01C99.133 105.205 99.154 104.258 99.142 103.513C99.589 103.177 100.506 103.191 100.553 103.607C100.586 103.929 100.211 106.641 100.847 106.627C101.524 106.614 101.042 103.922 101.075 103.519C101.41 103.231 102.28 103.103 102.387 103.6Z" fill="white"/>
<path d="M104.843 103.5C105.111 103.273 105.868 103.13 106.109 103.54C106.193 103.823 106.218 104.12 106.183 104.413C106.169 105.299 106.169 106.259 106.169 107.071C106.123 107.209 106.036 107.33 105.92 107.418C105.804 107.505 105.664 107.555 105.518 107.561C105.373 107.567 105.229 107.528 105.106 107.451C104.983 107.373 104.887 107.259 104.83 107.125C104.613 106.56 104.425 105.984 104.267 105.4C104.247 106 104.247 106.662 104.267 107.32C103.959 107.62 103.028 107.75 102.928 107.052C102.894 106.708 102.894 106.362 102.928 106.018C102.928 105.225 102.955 104.325 102.942 103.573C103.242 103.284 104.042 103.083 104.308 103.553C104.535 104.134 104.71 104.733 104.831 105.345C104.878 104.781 104.844 104.117 104.844 103.499" fill="white"/>
<path d="M109.556 104.278C109.538 104.367 109.502 104.451 109.451 104.526C109.4 104.6 109.335 104.664 109.258 104.713C109.182 104.762 109.097 104.795 109.008 104.81C108.918 104.825 108.827 104.823 108.739 104.802C108.754 104.751 108.756 104.698 108.746 104.646C108.736 104.594 108.713 104.545 108.681 104.504C108.648 104.463 108.606 104.43 108.557 104.408C108.509 104.386 108.457 104.376 108.404 104.379C107.625 104.366 107.625 106.621 108.638 106.507C108.968 106.471 109.278 106.332 109.525 106.111C110.288 106.259 109.565 107.611 108.225 107.561C107.754 107.541 106.549 107.333 106.525 105.48C106.395 102.721 109.616 102.822 109.556 104.278Z" fill="white"/>
<path d="M113.445 107.273C113.385 107.34 113.25 107.555 112.715 107.555C112.115 107.568 112.092 107.219 112.086 106.716C112.08 106.401 112.08 106.132 112.08 105.884C111.897 105.925 111.711 105.947 111.524 105.951C111.537 106.475 111.537 106.971 111.531 107.274C111.471 107.341 111.337 107.556 110.801 107.556C110.197 107.565 110.177 107.219 110.17 106.715C110.21 105.623 110.192 104.529 110.117 103.439C110.351 103.348 110.597 103.289 110.847 103.265C111.215 103.265 111.517 103.426 111.503 103.865C111.496 104.12 111.503 104.537 111.51 105.007C111.701 104.996 111.891 104.971 112.079 104.933C112.079 104.443 112.079 104.174 112.072 103.953C112.065 103.732 112.052 103.265 112.762 103.265C113.13 103.265 113.432 103.426 113.418 103.865C113.398 104.557 113.472 106.504 113.445 107.265" fill="white"/>
</svg>
