<svg width="200" height="200" viewBox="0 0 200 200" fill="none" xmlns="http://www.w3.org/2000/svg">
<path d="M72.077 70.578C71.0198 69.1999 70.1735 67.6722 69.566 66.045C68.112 62.733 66.446 59.234 66.446 59.234L61.872 58.678C62.479 64.832 63.163 64.468 61.841 72.32C61.483 74.451 50.726 79.81 50.726 79.81C50.726 79.81 52.591 83.969 52.666 84.583C54.366 98.362 78.691 98.227 78.691 98.227L81.78 74.541C81.78 74.541 73.503 72.415 72.08 70.579" fill="white"/>
<path d="M78.692 98.531H78.681C78.612 98.531 76.966 98.531 74.541 98.294C73.178 98.163 71.827 97.983 70.524 97.761C68.9742 97.4996 67.4389 97.1589 65.924 96.74C62.7451 95.9432 59.7503 94.5387 57.105 92.604C55.8613 91.6554 54.7952 90.4941 53.956 89.174C53.54 88.5038 53.1968 87.7911 52.932 87.048C52.6546 86.2625 52.4638 85.449 52.363 84.622C51.8064 83.0272 51.1672 81.4624 50.448 79.934C50.4311 79.8984 50.4213 79.8598 50.4193 79.8205C50.4172 79.7811 50.423 79.7417 50.4361 79.7046C50.4493 79.6674 50.4697 79.6332 50.4961 79.604C50.5225 79.5747 50.5544 79.5509 50.59 79.534C54.695 77.492 61.298 73.71 61.541 72.274C62.541 66.314 62.38 65.103 61.984 62.174V62.146C61.858 61.21 61.715 60.146 61.573 58.71C61.5683 58.6647 61.5739 58.6189 61.5895 58.5761C61.6051 58.5333 61.6303 58.4946 61.663 58.463C61.7176 58.4078 61.7914 58.3759 61.869 58.374H61.908L66.483 58.93C66.5342 58.9365 66.5828 58.9559 66.6245 58.9863C66.6661 59.0168 66.6993 59.0572 66.721 59.104C66.736 59.136 68.394 62.621 69.845 65.926L70.083 66.475C70.634 67.8834 71.388 69.2037 72.321 70.394C73.436 71.831 79.584 73.663 81.859 74.248C81.9313 74.2656 81.9944 74.3094 82.0362 74.371C82.0779 74.4325 82.0953 74.5073 82.085 74.581L78.992 98.267C78.9822 98.3397 78.9464 98.4065 78.8913 98.455C78.8362 98.5035 78.7654 98.5305 78.692 98.531V98.531ZM62.212 59.026C62.343 60.289 62.473 61.246 62.587 62.091C62.987 65.082 63.159 66.32 62.141 72.371C62.06 72.854 61.52 73.505 60.541 74.305C59.483 75.1364 58.3723 75.8987 57.216 76.587C54.766 78.087 52.14 79.439 51.124 79.951C51.8261 81.4481 52.4424 82.9839 52.97 84.551C53.1475 86.0319 53.6355 87.4586 54.402 88.738C55.1535 89.9624 56.1113 91.0474 57.233 91.945C59.6356 93.7872 62.3729 95.1456 65.293 95.945C67.9929 96.7386 70.7582 97.2895 73.556 97.591C75.94 97.863 77.756 97.918 78.426 97.929L81.445 74.775C80.077 74.412 73.186 72.509 71.839 70.775C70.8718 69.5425 70.0908 68.1745 69.521 66.715L69.287 66.174C67.987 63.211 66.522 60.112 66.242 59.52L62.212 59.026Z" fill="black"/>
<path d="M70.98 61.375C72.318 61.815 72.839 59.805 71.68 59.354C71.5416 59.3034 71.3931 59.2865 71.2468 59.3047C71.1006 59.323 70.9608 59.3759 70.839 59.459" fill="white"/>
<path d="M71.345 61.74C71.1885 61.7386 71.0332 61.7123 70.885 61.662C70.8085 61.6368 70.7452 61.5822 70.7089 61.5103C70.6726 61.4384 70.6663 61.355 70.6915 61.2785C70.7167 61.202 70.7713 61.1386 70.8432 61.1023C70.9151 61.066 70.9985 61.0598 71.075 61.085C71.1607 61.1205 71.2529 61.1375 71.3456 61.1349C71.4382 61.1322 71.5293 61.1099 71.6127 61.0695C71.6962 61.029 71.7701 60.9713 71.8296 60.9002C71.8891 60.8291 71.9329 60.7462 71.958 60.657C72.0406 60.4699 72.0461 60.2577 71.9733 60.0666C71.9005 59.8754 71.7552 59.7207 71.569 59.636C71.4763 59.6035 71.3772 59.5933 71.2797 59.6061C71.1823 59.619 71.0892 59.6545 71.008 59.71C70.9752 59.7322 70.9383 59.7477 70.8995 59.7556C70.8607 59.7636 70.8207 59.7638 70.7818 59.7563C70.7429 59.7487 70.7058 59.7336 70.6727 59.7118C70.6397 59.69 70.6112 59.6618 70.589 59.629C70.5668 59.5962 70.5513 59.5593 70.5434 59.5205C70.5355 59.4816 70.5352 59.4416 70.5428 59.4027C70.5503 59.3638 70.5654 59.3268 70.5872 59.2937C70.6091 59.2606 70.6372 59.2322 70.67 59.21C70.8318 59.0981 71.0182 59.0269 71.2134 59.0025C71.4086 58.9782 71.6067 59.0013 71.791 59.07C72.1265 59.2101 72.3927 59.4776 72.5312 59.8137C72.6698 60.1498 72.6693 60.5272 72.53 60.863C72.4482 61.1142 72.2901 61.3337 72.0777 61.4908C71.8653 61.648 71.6092 61.7351 71.345 61.74Z" fill="black"/>
<path d="M69.412 51.68C70.7868 56.0616 71.7408 60.5643 72.261 65.127C72.2853 66.1986 71.9157 67.2418 71.2221 68.0591C70.5286 68.8763 69.5593 69.4107 68.498 69.561C67.4257 69.8127 66.2974 69.6351 65.3542 69.0661C64.411 68.4972 63.7276 67.582 63.45 66.516C62.578 63.358 61.116 56.327 61.161 55.027C61.3316 53.3835 62.124 51.8673 63.376 50.789C65.243 49.066 68.868 49.837 69.412 51.68Z" fill="white"/>
<path d="M67.568 69.957C67.1051 69.9578 66.6443 69.8939 66.199 69.767C65.7433 69.6367 65.3115 69.4342 64.92 69.167C64.5066 68.8872 64.1466 68.5357 63.857 68.129C63.5365 67.6632 63.2996 67.1451 63.157 66.598C62.315 63.548 60.809 56.404 60.857 55.014C61.0338 53.2909 61.8605 51.6999 63.169 50.565C63.5487 50.2206 63.9944 49.957 64.479 49.79C64.9904 49.6101 65.5289 49.5195 66.071 49.522C66.5282 49.522 66.9833 49.5835 67.424 49.705C67.9317 49.8038 68.4064 50.0286 68.8046 50.3586C69.2028 50.6887 69.5117 51.1135 69.703 51.594C71.0844 56.0018 72.0401 60.5318 72.557 65.122C72.5866 66.2649 72.1956 67.3788 71.4583 68.2526C70.721 69.1263 69.6886 69.699 68.557 69.862C68.2312 69.9257 67.9 69.9575 67.568 69.957ZM66.064 50.128C65.5991 50.1257 65.1372 50.2024 64.698 50.355C64.2851 50.4956 63.9054 50.7192 63.582 51.012C62.392 52.0361 61.6357 53.4742 61.466 55.035C61.9605 58.8828 62.72 62.6918 63.739 66.435C63.8657 66.9107 64.0748 67.3606 64.357 67.764C64.6076 68.1165 64.9192 68.4213 65.277 68.664C65.9577 69.1172 66.7593 69.3545 67.577 69.345C67.8654 69.3452 68.1531 69.3174 68.436 69.262C69.4226 69.1188 70.3236 68.622 70.9713 67.8641C71.619 67.1062 71.9693 66.1389 71.957 65.142C71.4397 60.6028 70.4898 56.1234 69.12 51.765C68.9566 51.3847 68.7012 51.0509 68.3769 50.7936C68.0527 50.5364 67.6696 50.3637 67.262 50.291C66.8718 50.1831 66.4689 50.1283 66.064 50.128V50.128Z" fill="black"/>
<path d="M69.01 62.473C68.951 62.473 68.901 62.473 68.862 62.473C68.822 62.4722 68.7826 62.4635 68.746 62.4472C68.7094 62.431 68.6765 62.4076 68.6491 62.3784C68.6217 62.3493 68.6004 62.3149 68.5865 62.2774C68.5726 62.2399 68.5663 62.2 68.568 62.16C68.5714 62.0797 68.6058 62.0039 68.664 61.9485C68.7222 61.8931 68.7997 61.8624 68.88 61.863C69.38 61.879 69.559 61.779 69.58 61.718C69.677 61.486 69.121 60.747 68.561 60.242C68.5314 60.2152 68.5074 60.1829 68.4903 60.1468C68.4732 60.1107 68.4633 60.0716 68.4613 60.0317C68.4593 59.9918 68.4652 59.9519 68.4786 59.9143C68.4921 59.8767 68.5127 59.8421 68.5395 59.8125C68.5663 59.7829 68.5987 59.7588 68.6348 59.7417C68.6709 59.7246 68.7099 59.7148 68.7498 59.7128C68.7897 59.7108 68.8296 59.7167 68.8672 59.7301C68.9048 59.7435 68.9394 59.7642 68.969 59.791C69.321 60.113 70.447 61.201 70.147 61.945C69.955 62.42 69.347 62.473 69.009 62.473" fill="black"/>
<path d="M67.331 59.924C67.3245 59.878 67.309 59.8337 67.2854 59.7937C67.2618 59.7538 67.2305 59.7188 67.1933 59.691C67.1561 59.6631 67.1138 59.6428 67.0688 59.6313C67.0238 59.6198 66.977 59.6173 66.931 59.624C66.8423 59.6488 66.7667 59.7074 66.7206 59.7872C66.6744 59.867 66.6613 59.9617 66.684 60.051C66.6905 60.097 66.706 60.1412 66.7297 60.1812C66.7533 60.2212 66.7846 60.2561 66.8218 60.284C66.8589 60.3119 66.9012 60.3321 66.9462 60.3436C66.9912 60.3551 67.0381 60.3576 67.084 60.351C67.1728 60.3262 67.2483 60.2676 67.2945 60.1878C67.3406 60.108 67.3538 60.0133 67.331 59.924" fill="black"/>
<path d="M70.563 59.151C70.5565 59.105 70.541 59.0607 70.5174 59.0208C70.4938 58.9808 70.4625 58.9458 70.4253 58.918C70.3882 58.8901 70.3459 58.8698 70.3009 58.8583C70.2558 58.8468 70.209 58.8444 70.163 58.851C70.0741 58.8756 69.9983 58.9341 69.952 59.0139C69.9056 59.0937 69.8923 59.1885 69.915 59.278C69.9284 59.3708 69.978 59.4544 70.053 59.5107C70.128 59.5669 70.2222 59.5911 70.315 59.578C70.404 59.5534 70.4798 59.4949 70.5261 59.4151C70.5725 59.3353 70.5857 59.2405 70.563 59.151Z" fill="black"/>
<path d="M63.455 63.393C62.415 64.342 61.121 62.719 61.99 61.836C62.0959 61.7325 62.2251 61.6559 62.3668 61.6127C62.5085 61.5696 62.6584 61.5611 62.804 61.588" fill="white"/>
<path d="M62.784 63.983C62.6054 63.9793 62.4294 63.9401 62.2661 63.8677C62.1028 63.7952 61.9556 63.691 61.833 63.561C61.5683 63.3118 61.4133 62.9678 61.4021 62.6044C61.3908 62.241 61.5242 61.8881 61.773 61.623C61.9125 61.4843 62.0836 61.3815 62.2715 61.3234C62.4594 61.2652 62.6586 61.2534 62.852 61.289C62.8914 61.2956 62.9291 61.3098 62.963 61.331C62.9969 61.3521 63.0263 61.3797 63.0495 61.4122C63.0727 61.4447 63.0893 61.4815 63.0983 61.5204C63.1073 61.5593 63.1086 61.5996 63.102 61.639C63.0955 61.6784 63.0812 61.7161 63.0601 61.75C63.0389 61.7839 63.0113 61.8133 62.9788 61.8365C62.9463 61.8597 62.9095 61.8763 62.8706 61.8853C62.8317 61.8943 62.7914 61.8956 62.752 61.889C62.655 61.8703 62.5549 61.8751 62.4601 61.9029C62.3653 61.9307 62.2785 61.9808 62.207 62.049C62.0721 62.2025 62.003 62.4029 62.0148 62.6069C62.0266 62.8109 62.1183 63.0021 62.27 63.139C62.3293 63.2102 62.4031 63.268 62.4864 63.3086C62.5697 63.3492 62.6607 63.3717 62.7533 63.3745C62.8459 63.3773 62.9381 63.3605 63.0237 63.3251C63.1093 63.2896 63.1865 63.2364 63.25 63.169C63.2795 63.1421 63.314 63.1212 63.3515 63.1076C63.3891 63.094 63.4289 63.088 63.4688 63.0898C63.5087 63.0916 63.5478 63.1013 63.584 63.1182C63.6201 63.1351 63.6526 63.159 63.6795 63.1885C63.7064 63.218 63.7273 63.2525 63.7409 63.29C63.7545 63.3276 63.7605 63.3674 63.7587 63.4073C63.7569 63.4472 63.7473 63.4863 63.7303 63.5225C63.7134 63.5586 63.6895 63.5911 63.66 63.618C63.4248 63.8469 63.1112 63.9774 62.783 63.983" fill="black"/>
<path d="M70.394 62.126L70.371 61.959Z" fill="#6295E6"/>
<path d="M73.368 54.074C71.503 58.795 63.468 55.739 63.468 55.739C63.468 55.739 63.231 60.601 62.609 60.718C61.037 61.018 58.862 58.146 59.247 54.095C59.879 47.44 76 47.403 73.368 54.074Z" fill="#FFBE00"/>
<path d="M81.848 86.004L90.055 74.931L105.903 78.401C108.818 73.7899 111.288 68.9115 113.278 63.832C114.494 60.447 114.578 52.061 114.622 52.041C115.482 51.632 116.446 57.107 116.446 57.107C116.446 57.107 117.763 54.091 117.036 52.279C116.656 51.335 114.791 52.666 114.595 51.51C114.448 50.67 117.848 49.861 118.71 50.954C119.81 52.347 118.641 55.754 118.641 55.754C118.641 55.754 120.378 51.784 121.321 52.325C122.171 52.806 121.197 53.137 120.086 56.403C122.086 53.203 121.897 52.815 122.628 53.079C123.506 53.396 122.999 53.596 121.544 57.212C122.774 55.259 123.716 53.691 124.223 54.496C124.703 55.253 123.016 56.836 121.064 60.436C120.781 60.964 116.227 82.611 112.272 88.675C109.473 92.959 81.848 86.004 81.848 86.004Z" fill="white"/>
<path d="M106.752 90.345C104.247 90.3071 101.747 90.1066 99.268 89.745C96.88 89.423 94.197 88.972 91.293 88.405C86.276 87.418 82.22 86.411 81.774 86.299C81.7251 86.2876 81.6799 86.2642 81.6424 86.2308C81.6049 86.1974 81.5764 86.1551 81.5595 86.1079C81.5426 86.0606 81.5378 86.0098 81.5456 85.9602C81.5533 85.9106 81.5735 85.8638 81.604 85.824L89.81 74.75C89.838 74.7118 89.8745 74.6807 89.9168 74.6593C89.959 74.6379 90.0057 74.6269 90.053 74.627C90.0756 74.6269 90.098 74.6292 90.12 74.634L105.759 78.059C108.617 73.5216 111.038 68.7239 112.991 63.73C113.658 61.875 114.091 58.142 114.291 52.63C114.31 52.079 114.316 51.913 114.379 51.837C114.339 51.7473 114.311 51.6528 114.296 51.556C114.257 51.331 114.315 50.897 115.152 50.523C115.785 50.2546 116.465 50.1156 117.152 50.114C117.503 50.108 117.852 50.158 118.187 50.262C118.485 50.3501 118.75 50.524 118.949 50.762C119.223 51.1384 119.392 51.5808 119.438 52.044C119.499 52.5468 119.499 53.0552 119.438 53.558C119.75 52.9033 120.256 52.3609 120.888 52.005C120.968 51.9777 121.052 51.9635 121.137 51.963C121.256 51.9625 121.372 51.9932 121.475 52.052C121.849 52.264 121.992 52.506 121.939 52.837C122.047 52.7464 122.184 52.6975 122.325 52.699C122.465 52.7039 122.604 52.733 122.734 52.785C122.857 52.8137 122.973 52.868 123.073 52.9443C123.174 53.0207 123.257 53.1173 123.318 53.228C123.438 53.51 123.34 53.828 123.06 54.465C123.159 54.328 123.285 54.2129 123.43 54.1268C123.575 54.0408 123.737 53.9857 123.904 53.965C124.024 53.9674 124.141 54.0017 124.243 54.0645C124.345 54.1272 124.429 54.2161 124.485 54.322C124.879 54.944 124.354 55.74 123.401 57.186C122.825 58.059 122.108 59.145 121.337 60.568C121.287 60.69 121.05 61.679 120.75 62.932L120.719 63.06V63.068C119.224 69.313 115.719 83.937 112.534 88.827C112.011 89.4586 111.272 89.8735 110.461 89.991C109.242 90.2502 107.998 90.369 106.752 90.345V90.345ZM90.182 75.27L82.363 85.818C85.974 86.712 90.408 87.65 94.225 88.326C96.697 88.764 98.976 89.107 100.998 89.347C102.969 89.5987 104.953 89.7373 106.94 89.762C108.044 89.7853 109.148 89.6878 110.231 89.471C110.926 89.3811 111.562 89.0356 112.016 88.502C115.152 83.692 118.762 68.602 120.116 62.925C120.295 62.034 120.52 61.1528 120.79 60.285C121.567 58.853 122.29 57.754 122.873 56.871L122.882 56.857C123.588 55.787 124.145 54.942 123.961 54.651C123.946 54.621 123.923 54.5952 123.895 54.576H123.883C123.55 54.576 122.51 56.23 121.951 57.119L121.795 57.367C121.769 57.4104 121.732 57.4465 121.688 57.4718C121.644 57.4972 121.595 57.511 121.544 57.512C121.496 57.512 121.449 57.5007 121.406 57.479C121.338 57.4452 121.285 57.3867 121.258 57.3154C121.231 57.2441 121.233 57.1653 121.262 57.095C121.69 56.031 122.033 55.268 122.283 54.711C122.498 54.3204 122.656 53.9017 122.754 53.467V53.467C122.682 53.4221 122.606 53.3865 122.525 53.361C122.478 53.3398 122.428 53.3266 122.376 53.322C122.235 53.322 122.13 53.507 121.689 54.287C121.389 54.814 120.983 55.536 120.348 56.555C120.331 56.5908 120.307 56.623 120.278 56.6496C120.248 56.6762 120.214 56.6968 120.177 56.7101C120.139 56.7234 120.1 56.7293 120.06 56.7273C120.02 56.7253 119.981 56.7155 119.946 56.6985C119.91 56.6815 119.878 56.6576 119.851 56.6282C119.824 56.5987 119.804 56.5643 119.79 56.527C119.777 56.4896 119.771 56.45 119.773 56.4103C119.775 56.3707 119.785 56.3318 119.802 56.296C120.131 55.3191 120.54 54.3709 121.024 53.461V53.461C121.409 52.718 121.409 52.718 121.173 52.585C121.162 52.5779 121.148 52.5745 121.135 52.575C121.116 52.5757 121.097 52.5794 121.079 52.586C120.501 52.778 119.47 54.627 118.922 55.879C118.893 55.954 118.835 56.0144 118.761 56.0469C118.688 56.0793 118.604 56.0812 118.529 56.052C118.454 56.0228 118.394 55.965 118.361 55.8913C118.329 55.8176 118.327 55.734 118.356 55.659C118.665 54.754 119.289 52.177 118.473 51.142C118.292 50.9847 118.081 50.8668 117.852 50.7957C117.623 50.7246 117.382 50.7019 117.144 50.729C116.545 50.7288 115.952 50.8485 115.4 51.081C114.969 51.273 114.892 51.439 114.9 51.457C114.929 51.627 114.992 51.708 115.273 51.708C115.444 51.7035 115.614 51.6885 115.783 51.663C115.975 51.6332 116.169 51.6162 116.363 51.612C116.556 51.605 116.748 51.6423 116.925 51.721C117.11 51.8123 117.253 51.9707 117.325 52.164C118.089 54.071 116.787 57.098 116.732 57.226C116.711 57.2763 116.676 57.3197 116.631 57.3516C116.587 57.3835 116.535 57.4027 116.48 57.407H116.444C116.373 57.4061 116.304 57.3806 116.249 57.3346C116.194 57.2887 116.157 57.2252 116.144 57.155C115.914 55.5852 115.496 54.0488 114.898 52.579C114.898 52.6 114.898 52.621 114.898 52.642V52.653C114.824 54.729 114.598 61.045 113.564 63.932C111.562 69.0313 109.083 73.9298 106.158 78.562C106.131 78.6048 106.094 78.64 106.05 78.6645C106.005 78.689 105.956 78.7019 105.905 78.702C105.882 78.7019 105.859 78.6992 105.837 78.694L90.182 75.27ZM116.378 52.218C116.204 52.2227 116.03 52.2384 115.857 52.265V52.265C115.726 52.282 115.577 52.302 115.426 52.31C115.964 53.4685 116.338 54.6963 116.537 55.958C116.72 55.3824 116.848 54.7907 116.919 54.191C117.01 53.5865 116.954 52.9691 116.755 52.391C116.705 52.267 116.6 52.218 116.379 52.218H116.378Z" fill="black"/>
<path d="M49.819 83.583L53.687 96.807L41.335 107.319C43.2509 112.426 45.647 117.34 48.491 121.995C51.178 126.119 55.391 128.8 55.352 128.974C55.159 129.906 51.937 128.586 51.938 128.586C51.939 128.586 56.826 135.748 55.827 136.478C54.936 137.131 51.687 131.148 51.687 131.148C51.687 131.148 53.801 134.93 52.801 135.359C51.901 135.743 52.228 134.765 50.301 131.906C51.645 135.437 52.066 135.519 51.413 135.939C50.628 136.446 50.777 135.921 48.773 132.577C49.585 134.738 50.267 136.437 49.318 136.35C48.426 136.272 48.182 133.98 46.492 130.25C46.246 129.7 31.738 112.989 29.301 106.174C27.569 101.354 49.819 83.583 49.819 83.583Z" fill="white"/>
<path d="M55.671 136.831C55.6212 136.831 55.5716 136.825 55.523 136.814C55.043 136.707 54.314 135.932 53.356 134.514C53.3949 134.743 53.3826 134.977 53.32 135.2C53.2901 135.297 53.2395 135.386 53.1719 135.462C53.1042 135.538 53.0211 135.598 52.928 135.639C52.7903 135.704 52.641 135.74 52.489 135.745C52.4006 135.745 52.3132 135.727 52.2326 135.69C52.152 135.654 52.0802 135.601 52.022 135.534C52.028 135.799 51.9 135.991 51.582 136.195C51.4192 136.319 51.2241 136.394 51.02 136.41C50.9715 136.41 50.9231 136.404 50.876 136.392C50.576 136.316 50.387 136.048 50.046 135.437C50.0952 135.598 50.1104 135.768 50.0908 135.935C50.0712 136.102 50.0171 136.264 49.932 136.409C49.8688 136.49 49.7869 136.555 49.6933 136.599C49.5997 136.642 49.497 136.662 49.394 136.657C49.362 136.657 49.328 136.657 49.294 136.652C48.561 136.588 48.243 135.688 47.665 134.052C47.317 133.065 46.883 131.838 46.219 130.371C46.148 130.251 45.461 129.413 44.59 128.352L44.581 128.341C40.507 123.379 30.978 111.766 29.007 106.279C28.8185 105.471 28.9387 104.622 29.344 103.898C29.8872 102.761 30.5582 101.689 31.344 100.704C33.4757 98.0402 35.8031 95.5393 38.307 93.222C43.532 88.24 49.021 83.832 49.63 83.345C49.6845 83.3021 49.7518 83.2789 49.821 83.279C49.8859 83.2795 49.9488 83.3011 50.0003 83.3404C50.0519 83.3797 50.0893 83.4346 50.107 83.497L53.975 96.721C53.9918 96.7772 53.9918 96.8371 53.9749 96.8932C53.958 96.9494 53.925 96.9994 53.88 97.037L41.695 107.412C43.5871 112.429 45.9479 117.256 48.746 121.829C50.4479 124.263 52.5278 126.41 54.907 128.188V128.188H54.912C55.605 128.734 55.694 128.805 55.648 129.029C55.569 129.41 55.248 129.603 54.684 129.603C54.5388 129.602 54.3938 129.591 54.25 129.571C53.7267 129.488 53.2117 129.359 52.711 129.185C53.7076 130.644 54.6137 132.162 55.424 133.732C56.245 135.394 56.44 136.398 56.004 136.717C55.9081 136.79 55.7914 136.83 55.671 136.831V136.831ZM51.687 130.844C51.7413 130.843 51.7948 130.858 51.8416 130.885C51.8885 130.913 51.927 130.952 51.953 131C51.981 131.05 52.034 131.144 52.097 131.263C53.606 133.998 55.208 136.224 55.667 136.224C55.798 136.006 55.447 135.08 54.705 133.683C53.7955 132.007 52.7985 130.38 51.718 128.808C51.6819 128.78 51.6545 128.743 51.6392 128.7C51.624 128.657 51.6215 128.61 51.632 128.566C51.6356 128.503 51.6592 128.442 51.6992 128.393C51.7393 128.344 51.7938 128.309 51.855 128.293C51.9213 128.275 51.9916 128.28 52.055 128.306C52.8961 128.671 53.7875 128.907 54.699 129.006C54.7767 129.008 54.8542 129 54.93 128.983C54.84 128.909 54.73 128.82 54.608 128.726L54.533 128.667C52.0984 126.849 49.9714 124.653 48.233 122.161C47.316 120.753 46.369 119.107 45.419 117.268C44.658 115.794 43.892 114.194 43.144 112.511C41.844 109.586 41.054 107.446 41.044 107.424C41.0228 107.366 41.0198 107.302 41.0355 107.242C41.0513 107.182 41.0849 107.128 41.132 107.088L53.332 96.703L49.655 84.104C46.165 86.913 40.937 91.413 36.732 95.616C34.7538 97.532 32.9251 99.5967 31.262 101.792C30.6845 102.56 30.1963 103.392 29.807 104.271C29.5204 104.825 29.4427 105.464 29.588 106.071C31.518 111.46 41.004 123.021 45.054 127.959C45.6656 128.649 46.24 129.372 46.775 130.123C47.45 131.613 47.888 132.855 48.241 133.852V133.859C48.667 135.065 49.004 136.018 49.348 136.048H49.385C49.406 136.05 49.4271 136.047 49.447 136.04C49.67 135.809 49.025 134.097 48.598 132.963L48.492 132.682C48.4739 132.636 48.4674 132.586 48.4731 132.537C48.4788 132.488 48.4966 132.441 48.5248 132.401C48.553 132.36 48.5908 132.327 48.6348 132.305C48.6788 132.282 48.7276 132.271 48.777 132.272C48.8297 132.272 48.8816 132.285 48.9274 132.311C48.9732 132.337 49.0114 132.375 49.038 132.42C49.626 133.402 50.029 134.139 50.323 134.678V134.683C50.5017 135.088 50.7375 135.464 51.023 135.802C51.1036 135.774 51.1795 135.734 51.248 135.683C51.478 135.535 51.478 135.535 51.014 134.459C50.775 133.904 50.447 133.144 50.014 132.013C49.9958 131.978 49.9846 131.939 49.9812 131.9C49.9778 131.86 49.9823 131.821 49.9942 131.783C50.0062 131.745 50.0255 131.71 50.0511 131.68C50.0766 131.649 50.1078 131.624 50.143 131.606C50.1782 131.588 50.2167 131.577 50.2562 131.573C50.2957 131.57 50.3355 131.574 50.3733 131.586C50.411 131.598 50.4461 131.617 50.4764 131.643C50.5068 131.669 50.5318 131.7 50.55 131.735C51.1313 132.589 51.6407 133.49 52.073 134.429C52.335 134.981 52.405 135.129 52.521 135.129C52.5773 135.122 52.6319 135.105 52.682 135.079C52.694 135.079 52.718 135.064 52.739 135.002C52.7801 134.488 52.6809 133.973 52.452 133.511C52.1933 132.831 51.8903 132.169 51.545 131.529L51.416 131.293C51.3896 131.247 51.3759 131.195 51.3764 131.141C51.3768 131.088 51.3914 131.036 51.4185 130.991C51.4457 130.945 51.4845 130.907 51.531 130.882C51.5774 130.856 51.6299 130.843 51.683 130.844H51.687Z" fill="black"/>
<path d="M55.081 101.042C55.081 101.042 60.227 112.738 67.515 120.591C76.696 130.484 90.796 135.521 93.16 136.271C93.64 136.422 98.039 122.839 99.579 119.057C102.181 112.669 111.581 105.768 116.592 101.828C115.947 100.774 111.092 102.216 106.171 99.74C100.104 96.684 93.822 89.74 93.822 89.74L97.722 90.206L97.617 75.625C97.617 75.625 82.158 71.833 76.667 72.728L69.486 78.005L57.781 74.911C57.781 74.911 53.911 76.958 49.899 79.181C46.262 81.191 38.081 91.298 38.081 91.298L49.199 104.923L55.081 101.042Z" fill="#FF0E11"/>
<path d="M159.425 141.196L163.138 150.473L171.409 151.24L168.789 138.867L159.425 141.196Z" fill="white"/>
<path d="M171.409 151.543H171.381L163.11 150.776C163.054 150.771 163.001 150.751 162.956 150.718C162.911 150.684 162.877 150.639 162.856 150.587L159.143 141.309C159.126 141.269 159.118 141.225 159.12 141.182C159.122 141.138 159.133 141.096 159.152 141.057C159.172 141.018 159.2 140.984 159.235 140.957C159.269 140.93 159.309 140.911 159.351 140.901L168.715 138.572C168.739 138.566 168.764 138.563 168.789 138.563C168.859 138.562 168.928 138.585 168.983 138.629C169.038 138.673 169.075 138.735 169.089 138.804L171.709 151.177C171.719 151.222 171.719 151.268 171.709 151.312C171.698 151.357 171.678 151.399 171.649 151.434C171.62 151.469 171.583 151.498 171.542 151.517C171.5 151.536 171.455 151.545 171.409 151.544V151.543ZM168.557 139.237L159.836 141.406L163.351 150.187L171.026 150.899L168.557 139.237Z" fill="black"/>
<path d="M155.292 104.21C151.447 98.967 113.853 109.91 107.192 116.122C97.233 125.429 92.606 129.454 94.005 131.529C106.995 150.766 145.58 123.376 145.58 123.376L156.412 142.9L174.331 140.388C174.331 140.388 161.766 113.043 155.292 104.21Z" fill="black"/>
<path d="M161.538 148.07L161.081 154.944L180.792 153.984C180.989 153.835 181.144 153.639 181.242 153.413C181.341 153.187 181.379 152.939 181.354 152.694C181.329 152.449 181.241 152.214 181.098 152.013C180.956 151.811 180.764 151.65 180.541 151.545C178.781 150.486 172.265 147.504 172.265 147.504L161.538 148.07Z" fill="#FFBE00"/>
<path d="M161.388 153.576C161.307 153.577 161.23 153.547 161.172 153.49C161.114 153.434 161.08 153.358 161.079 153.277C161.078 153.196 161.108 153.119 161.165 153.061C161.221 153.003 161.297 152.969 161.378 152.968L180.97 152.068C181.05 152.066 181.128 152.095 181.187 152.149C181.247 152.203 181.283 152.278 181.288 152.358C181.29 152.398 181.285 152.438 181.271 152.476C181.258 152.513 181.237 152.548 181.21 152.578C181.183 152.607 181.15 152.631 181.114 152.648C181.077 152.664 181.038 152.674 180.998 152.675L161.406 153.575H161.388" fill="white"/>
<path d="M174.862 151.232C174.797 151.235 174.732 151.216 174.678 151.179C174.624 151.141 174.584 151.087 174.564 151.025C174.544 150.962 174.545 150.895 174.566 150.833C174.588 150.771 174.629 150.718 174.684 150.682L176.632 149.289C176.664 149.266 176.701 149.249 176.74 149.24C176.779 149.231 176.819 149.229 176.858 149.236C176.898 149.242 176.935 149.256 176.969 149.277C177.003 149.298 177.033 149.326 177.056 149.358C177.079 149.39 177.096 149.427 177.105 149.466C177.114 149.505 177.116 149.545 177.109 149.584C177.103 149.624 177.089 149.661 177.068 149.695C177.047 149.729 177.019 149.759 176.987 149.782L175.044 151.175C174.991 151.213 174.927 151.233 174.862 151.232" fill="white"/>
<path d="M173.111 150.602C173.046 150.605 172.981 150.586 172.927 150.549C172.873 150.511 172.833 150.457 172.813 150.395C172.793 150.332 172.794 150.265 172.815 150.203C172.837 150.141 172.878 150.088 172.933 150.052L174.881 148.659C174.913 148.636 174.95 148.619 174.989 148.61C175.028 148.601 175.068 148.599 175.107 148.606C175.147 148.612 175.184 148.626 175.218 148.647C175.252 148.668 175.282 148.696 175.305 148.728C175.328 148.76 175.345 148.797 175.354 148.836C175.363 148.875 175.365 148.915 175.358 148.954C175.352 148.994 175.338 149.031 175.317 149.065C175.296 149.099 175.268 149.129 175.236 149.152L173.293 150.545C173.24 150.583 173.176 150.603 173.111 150.602" fill="white"/>
<path d="M167.303 153.201C167.262 153.201 167.221 153.193 167.183 153.176C167.145 153.16 167.111 153.136 167.083 153.106C165.834 151.791 164.42 150.3 161.547 150.273C161.467 150.273 161.389 150.241 161.332 150.184C161.276 150.127 161.244 150.05 161.244 149.969C161.244 149.889 161.276 149.812 161.332 149.755C161.389 149.698 161.467 149.666 161.547 149.666V149.666C164.677 149.695 166.247 151.355 167.517 152.689C167.559 152.731 167.588 152.786 167.599 152.845C167.611 152.903 167.604 152.964 167.581 153.02C167.557 153.075 167.517 153.121 167.467 153.154C167.416 153.186 167.357 153.203 167.297 153.201" fill="white"/>
<path d="M172.796 151.588H172.757C172.2 151.588 171.982 151.355 171.897 151.16C171.843 150.979 171.842 150.786 171.893 150.604C171.945 150.422 172.046 150.258 172.187 150.132C172.25 150.057 172.328 149.995 172.416 149.95C172.503 149.905 172.599 149.878 172.697 149.871C172.753 149.871 172.807 149.881 172.859 149.902C173.77 150.256 173.647 150.902 173.587 151.097C173.481 151.452 172.943 151.583 172.796 151.588ZM172.696 150.491C172.629 150.54 172.573 150.603 172.531 150.675C172.489 150.747 172.463 150.826 172.453 150.909C172.453 150.929 172.526 150.982 172.72 150.982H172.779C172.863 150.963 172.943 150.929 173.015 150.882C173.051 150.731 172.943 150.599 172.696 150.491Z" fill="white"/>
<path d="M160.61 101.464L170.989 101.573L174.689 94.632L161.684 92.456L160.61 101.464Z" fill="white"/>
<path d="M170.989 101.876L160.606 101.768C160.563 101.768 160.52 101.76 160.481 101.742C160.442 101.724 160.407 101.699 160.378 101.666C160.35 101.634 160.329 101.596 160.316 101.555C160.304 101.514 160.3 101.471 160.306 101.428L161.382 92.42C161.39 92.3458 161.425 92.2771 161.481 92.2276C161.537 92.178 161.609 92.1511 161.684 92.152C161.701 92.1506 161.717 92.1506 161.734 92.152L174.743 94.332C174.791 94.339 174.837 94.3576 174.876 94.3861C174.915 94.4146 174.947 94.4522 174.968 94.4956C174.99 94.5391 175.001 94.5871 174.999 94.6356C174.998 94.6841 174.985 94.7316 174.962 94.774L171.262 101.715C171.236 101.765 171.197 101.806 171.149 101.834C171.1 101.863 171.045 101.877 170.989 101.876V101.876ZM161.949 92.808L160.949 101.164L170.805 101.264L174.222 94.859L161.949 92.808Z" fill="black"/>
<path d="M133.066 80C116.538 79.465 110.411 88.467 105.77 98.177C98.134 114.158 89.625 134.569 89.625 134.569C89.625 134.569 90.361 137.969 102.994 138.969C120.594 140.348 121.868 124.719 124.994 112.858C125.914 109.27 127.198 105.785 128.826 102.458L163.047 104.997L168.025 86.82C168.025 86.82 144.602 80.377 133.066 80Z" fill="black"/>
<path d="M168.972 102.638L175.218 105.562L183.105 88.047C183.036 87.8073 182.906 87.5894 182.729 87.4136C182.552 87.2379 182.333 87.1102 182.093 87.0427C181.852 86.9751 181.599 86.9699 181.356 87.0275C181.113 87.0852 180.889 87.2037 180.705 87.372C178.926 88.512 173.225 93.088 173.225 93.088L168.972 102.638Z" fill="#FFBE00"/>
<path d="M173.783 104.983C173.74 104.983 173.697 104.974 173.658 104.956C173.622 104.94 173.589 104.917 173.562 104.888C173.534 104.859 173.513 104.825 173.499 104.788C173.485 104.75 173.478 104.711 173.48 104.671C173.481 104.631 173.49 104.592 173.507 104.556L181.402 87.162C181.435 87.0885 181.496 87.0313 181.572 87.0029C181.647 86.9745 181.731 86.9772 181.805 87.0105C181.878 87.0438 181.935 87.1049 181.964 87.1804C181.992 87.2559 181.989 87.3395 181.956 87.413L174.064 104.801C174.041 104.856 174.001 104.902 173.951 104.935C173.901 104.967 173.843 104.984 173.783 104.983" fill="white"/>
<path d="M177.806 92.429C177.735 92.4302 177.666 92.4064 177.611 92.3618C177.557 92.3171 177.519 92.2545 177.506 92.185L177.069 89.984C177.061 89.945 177.061 89.9048 177.069 89.8658C177.077 89.8268 177.092 89.7897 177.114 89.7565C177.158 89.6897 177.228 89.6433 177.307 89.6275C177.385 89.6117 177.467 89.6279 177.534 89.6724C177.601 89.7169 177.647 89.7862 177.663 89.865L178.102 92.065C178.11 92.1041 178.11 92.1444 178.103 92.1836C178.095 92.2228 178.08 92.2601 178.057 92.2932C178.035 92.3264 178.006 92.3548 177.973 92.3767C177.94 92.3986 177.902 92.4137 177.863 92.421C177.843 92.425 177.823 92.427 177.803 92.427" fill="white"/>
<path d="M176.224 93.426C176.153 93.4272 176.084 93.4034 176.029 93.3588C175.975 93.3141 175.937 93.2515 175.924 93.182L175.487 90.981C175.479 90.942 175.479 90.9018 175.487 90.8628C175.495 90.8238 175.51 90.7867 175.532 90.7536C175.576 90.6867 175.646 90.6403 175.725 90.6245C175.803 90.6087 175.885 90.6249 175.952 90.6694C176.019 90.714 176.065 90.7832 176.081 90.862L176.52 93.062C176.528 93.1011 176.528 93.1414 176.521 93.1806C176.513 93.2198 176.498 93.2571 176.475 93.2902C176.453 93.3234 176.424 93.3518 176.391 93.3737C176.358 93.3957 176.32 93.4107 176.281 93.418C176.261 93.422 176.241 93.424 176.221 93.424" fill="white"/>
<path d="M111.719 138.28C111.647 138.285 111.575 138.264 111.518 138.22C111.46 138.177 111.42 138.114 111.405 138.043C111.39 137.973 111.401 137.899 111.436 137.836C111.471 137.772 111.527 137.724 111.595 137.699C120.826 133.584 124.319 113.289 124.354 113.085C124.367 113.005 124.412 112.934 124.477 112.888C124.543 112.841 124.624 112.822 124.704 112.835C124.784 112.848 124.855 112.893 124.902 112.958C124.948 113.024 124.967 113.105 124.954 113.185C124.27 116.886 123.292 120.527 122.03 124.073C119.285 131.693 115.858 136.464 111.847 138.253C111.808 138.27 111.766 138.279 111.723 138.279" fill="white"/>
<path d="M176.454 94.624C176.374 94.6252 176.295 94.6178 176.217 94.602C176.08 94.5805 175.951 94.5228 175.844 94.4349C175.737 94.347 175.655 94.2321 175.607 94.102C175.571 93.9573 175.577 93.8054 175.624 93.6639C175.67 93.5223 175.756 93.3969 175.871 93.302C175.971 93.1828 176.094 93.0857 176.233 93.0169C176.372 92.948 176.524 92.9089 176.679 92.902C176.864 92.9005 177.043 92.9691 177.179 93.094C177.259 93.1823 177.321 93.2858 177.36 93.3983C177.399 93.5109 177.415 93.6301 177.407 93.7491C177.399 93.868 177.367 93.9841 177.314 94.0904C177.26 94.1967 177.185 94.2912 177.094 94.368C177.011 94.453 176.911 94.5196 176.801 94.5637C176.691 94.6078 176.573 94.6283 176.454 94.624V94.624ZM176.679 93.512C176.607 93.5205 176.537 93.5434 176.474 93.5792C176.411 93.6151 176.355 93.6633 176.311 93.721C176.197 93.84 176.184 93.91 176.187 93.921C176.228 93.9679 176.285 93.9978 176.347 94.005C176.382 94.0129 176.419 94.0169 176.455 94.017C176.522 94.0223 176.588 94.0031 176.642 93.963C176.824 93.763 176.824 93.594 176.766 93.54C176.742 93.52 176.711 93.51 176.679 93.512V93.512Z" fill="white"/>
<path d="M168.676 102.778C168.618 102.779 168.56 102.763 168.51 102.732C168.461 102.701 168.421 102.657 168.397 102.603C168.373 102.55 168.364 102.491 168.373 102.433C168.382 102.376 168.407 102.322 168.446 102.278C168.89 101.744 169.416 101.284 170.004 100.914C170.655 100.477 171.393 100.187 172.167 100.062C172.94 99.9379 173.732 99.9824 174.487 100.193C174.525 100.206 174.56 100.226 174.59 100.252C174.62 100.278 174.645 100.31 174.663 100.345C174.68 100.381 174.691 100.42 174.694 100.459C174.697 100.499 174.692 100.539 174.679 100.577C174.666 100.615 174.646 100.65 174.62 100.68C174.594 100.71 174.562 100.735 174.527 100.753C174.491 100.77 174.452 100.781 174.413 100.784C174.373 100.787 174.333 100.782 174.295 100.769C173.625 100.587 172.924 100.552 172.239 100.666C171.555 100.78 170.903 101.04 170.328 101.429C169.793 101.764 169.314 102.183 168.91 102.669C168.881 102.701 168.846 102.727 168.806 102.744C168.766 102.761 168.723 102.77 168.68 102.769" fill="white"/>
<path d="M128.69 102.419C128.615 102.419 128.542 102.391 128.486 102.34C128.431 102.289 128.396 102.219 128.39 102.144C128.257 100.507 127.85 98.9042 127.186 97.402C127.154 97.328 127.153 97.2443 127.182 97.1693C127.212 97.0943 127.27 97.0341 127.344 97.002C127.418 96.9699 127.502 96.9685 127.577 96.9981C127.652 97.0278 127.712 97.086 127.744 97.16C128.433 98.7206 128.855 100.386 128.993 102.086C128.997 102.126 128.994 102.166 128.982 102.204C128.97 102.243 128.951 102.278 128.926 102.309C128.9 102.34 128.869 102.366 128.833 102.384C128.798 102.403 128.759 102.414 128.719 102.417H128.69" fill="white"/>
<path d="M130.31 102.691C130.261 102.692 130.213 102.681 130.17 102.66C130.126 102.638 130.088 102.607 130.06 102.567C130.031 102.528 130.013 102.482 130.006 102.434C129.999 102.386 130.004 102.337 130.02 102.291C130.29 101.366 130.436 100.409 130.454 99.446C130.454 99.3664 130.486 99.2901 130.542 99.2339C130.598 99.1776 130.674 99.146 130.754 99.146V99.146C130.794 99.146 130.833 99.1539 130.87 99.1694C130.907 99.1848 130.94 99.2075 130.968 99.236C130.996 99.2645 131.018 99.2983 131.033 99.3353C131.048 99.3724 131.055 99.4121 131.054 99.452C131.042 100.477 130.891 101.495 130.604 102.479C130.585 102.541 130.546 102.595 130.494 102.633C130.442 102.671 130.379 102.691 130.314 102.69" fill="white"/>
<path d="M144.625 123.089C144.586 123.089 144.547 123.081 144.51 123.066C144.474 123.051 144.441 123.029 144.413 123.001C144.385 122.973 144.363 122.94 144.348 122.904C144.333 122.867 144.325 122.828 144.325 122.789C144.187 121.611 143.705 120.501 142.939 119.596C142.915 119.564 142.897 119.528 142.886 119.49C142.876 119.451 142.873 119.411 142.878 119.371C142.888 119.291 142.93 119.218 142.994 119.169C143.058 119.12 143.139 119.098 143.219 119.108C143.299 119.118 143.372 119.16 143.421 119.224C144.273 120.229 144.799 121.47 144.929 122.782C144.93 122.822 144.923 122.862 144.908 122.899C144.894 122.936 144.872 122.97 144.844 122.999C144.816 123.027 144.782 123.05 144.745 123.066C144.709 123.081 144.669 123.089 144.629 123.089H144.625Z" fill="white"/>
<path d="M145.841 122.514C145.813 122.514 145.784 122.509 145.757 122.501C145.719 122.49 145.683 122.471 145.652 122.445C145.622 122.42 145.596 122.389 145.577 122.353C145.559 122.318 145.547 122.28 145.544 122.24C145.54 122.2 145.545 122.16 145.557 122.122C145.757 121.474 145.857 121.116 145.917 120.888C145.995 120.564 146.115 120.252 146.272 119.958L146.441 119.606C146.475 119.533 146.537 119.477 146.613 119.449C146.689 119.422 146.773 119.426 146.846 119.46C146.918 119.495 146.975 119.557 147.002 119.633C147.029 119.708 147.025 119.792 146.991 119.865L146.821 120.219C146.678 120.481 146.571 120.761 146.5 121.051C146.441 121.281 146.335 121.643 146.141 122.298C146.122 122.362 146.082 122.418 146.027 122.457C145.973 122.496 145.908 122.516 145.841 122.514" fill="white"/>
<path d="M70.191 81.107C70.164 81.1067 70.1371 81.103 70.111 81.096L54.964 76.967C54.9256 76.9565 54.8895 76.9385 54.858 76.9141C54.8265 76.8896 54.8001 76.8592 54.7803 76.8246C54.7403 76.7547 54.7298 76.6717 54.751 76.594C54.7723 76.5163 54.8235 76.4502 54.8934 76.4102C54.9634 76.3703 55.0463 76.3598 55.124 76.381L70.118 80.468L79.897 72.284C79.9276 72.2584 79.9628 72.239 80.0009 72.2271C80.0389 72.2151 80.0789 72.2107 80.1186 72.2142C80.1583 72.2177 80.1969 72.229 80.2322 72.2474C80.2676 72.2658 80.2989 72.291 80.3245 72.3215C80.3501 72.352 80.3695 72.3873 80.3815 72.4253C80.3934 72.4633 80.3978 72.5033 80.3943 72.543C80.3908 72.5827 80.3796 72.6213 80.3612 72.6567C80.3428 72.692 80.3176 72.7234 80.287 72.749L70.387 81.035C70.331 81.0818 70.2601 81.107 70.187 81.106" fill="black"/>
<path d="M95.446 90.004C95.4062 90.004 95.3668 89.9961 95.3301 89.9807C95.2933 89.9653 95.26 89.9427 95.2321 89.9144C95.2042 89.886 95.1822 89.8523 95.1674 89.8153C95.1526 89.7783 95.1454 89.7388 95.146 89.699L95.21 75.41C95.21 75.3304 95.2416 75.2541 95.2979 75.1979C95.3542 75.1416 95.4305 75.11 95.51 75.11V75.11C95.5499 75.11 95.5893 75.1179 95.626 75.1333C95.6627 75.1487 95.696 75.1712 95.724 75.1996C95.7519 75.228 95.7739 75.2617 95.7887 75.2986C95.8034 75.3356 95.8107 75.3752 95.81 75.415L95.754 89.702C95.754 89.7414 95.7463 89.7804 95.7312 89.8168C95.7161 89.8532 95.694 89.8863 95.6662 89.9141C95.6383 89.942 95.6052 89.9641 95.5688 89.9791C95.5324 89.9942 95.4934 90.002 95.454 90.002" fill="black"/>
<path d="M87.39 134.069C87.3473 134.069 87.305 134.06 87.266 134.042C87.2295 134.026 87.1965 134.003 87.1689 133.974C87.1414 133.945 87.1198 133.911 87.1056 133.874C87.0913 133.837 87.0847 133.797 87.0859 133.757C87.0872 133.717 87.0964 133.678 87.113 133.642L103.06 98.096C103.093 98.0224 103.154 97.9649 103.229 97.9361C103.304 97.9073 103.388 97.9096 103.462 97.9425C103.535 97.9754 103.593 98.0362 103.621 98.1114C103.65 98.1867 103.648 98.2704 103.615 98.344L87.671 133.889C87.6475 133.943 87.6086 133.989 87.5591 134.021C87.5097 134.053 87.4519 134.07 87.393 134.069" fill="black"/>
<path d="M115.636 48.645C115.564 48.6458 115.494 48.6206 115.439 48.574C115.384 48.5273 115.347 48.4623 115.336 48.391C115.277 48.019 115.196 47.638 115.114 47.255C115.003 46.723 114.886 46.174 114.814 45.639C114.808 45.599 114.81 45.5582 114.819 45.5189C114.829 45.4797 114.847 45.4428 114.871 45.4106C114.896 45.3784 114.927 45.3514 114.962 45.3314C114.997 45.3113 115.036 45.2986 115.076 45.294C115.116 45.2887 115.156 45.2914 115.195 45.3019C115.233 45.3124 115.269 45.3306 115.301 45.3553C115.332 45.38 115.359 45.4107 115.378 45.4457C115.397 45.4807 115.41 45.5192 115.414 45.559C115.48 46.07 115.594 46.607 115.704 47.127C115.787 47.519 115.869 47.909 115.933 48.289C115.94 48.3284 115.94 48.3689 115.932 48.408C115.923 48.4472 115.907 48.4843 115.884 48.5171C115.861 48.55 115.831 48.5778 115.797 48.5991C115.764 48.6204 115.726 48.6346 115.686 48.641C115.669 48.6424 115.652 48.6424 115.635 48.641" fill="black"/>
<path d="M113.669 50.137C113.629 50.137 113.589 50.1289 113.552 50.1133C113.515 50.0976 113.482 50.0748 113.454 50.046L111.375 47.903C111.318 47.8454 111.287 47.7678 111.287 47.687C111.287 47.6062 111.318 47.5286 111.375 47.471C111.403 47.4429 111.436 47.4206 111.473 47.4053C111.509 47.3901 111.548 47.3823 111.588 47.3823C111.628 47.3823 111.667 47.3901 111.703 47.4053C111.74 47.4206 111.773 47.4429 111.801 47.471L113.888 49.617C113.945 49.6746 113.976 49.7522 113.976 49.833C113.976 49.9138 113.945 49.9914 113.888 50.049C113.832 50.1053 113.756 50.1369 113.676 50.137" fill="black"/>
<path d="M112.552 52.329C112.534 52.3292 112.515 52.3275 112.497 52.324C112.172 52.263 111.844 52.219 111.515 52.174C110.927 52.1081 110.344 51.9999 109.771 51.85C109.693 51.827 109.628 51.7743 109.589 51.7033C109.55 51.6323 109.541 51.5488 109.563 51.471C109.574 51.4326 109.592 51.3967 109.616 51.3654C109.641 51.334 109.671 51.3078 109.706 51.2884C109.74 51.2689 109.779 51.2566 109.818 51.2521C109.858 51.2475 109.898 51.2509 109.936 51.262C110.482 51.4048 111.037 51.5075 111.598 51.569C111.936 51.615 112.274 51.661 112.609 51.724C112.679 51.7418 112.741 51.7841 112.783 51.8433C112.825 51.9025 112.845 51.9747 112.838 52.047C112.832 52.1193 112.8 52.1869 112.748 52.2377C112.696 52.2885 112.627 52.3191 112.555 52.324" fill="black"/>
<path d="M48.81 99.349C48.0979 101.424 47.7577 103.609 47.805 105.802C48.005 114.967 54.644 122.24 62.628 122.067C70.612 121.894 76.919 114.331 76.721 105.167C76.6724 102.974 76.2363 100.808 75.433 98.767L48.81 99.349Z" fill="#FFBE00"/>
<path d="M48.492 93.036C47.6228 93.0221 46.7836 93.354 46.1591 93.9588C45.5346 94.5636 45.176 95.3918 45.162 96.261C45.209 97.0286 45.5302 97.7538 46.0671 98.3045C46.604 98.8551 47.3208 99.1946 48.087 99.261C48.2646 99.3063 48.4455 99.3371 48.628 99.353H48.81L75.434 98.767H75.521C75.9294 98.7534 76.3324 98.6692 76.712 98.518C77.3344 98.3021 77.8744 97.8983 78.2574 97.3624C78.6404 96.8264 78.8475 96.1847 78.85 95.526C78.8249 95.0961 78.7153 94.6755 78.5275 94.288C78.3396 93.9006 78.0772 93.5539 77.7553 93.268C77.4334 92.982 77.0583 92.7623 76.6514 92.6214C76.2445 92.4806 75.8138 92.4213 75.384 92.447L72.707 92.507L51.873 92.962L48.492 93.036Z" fill="#FFBE00"/>
<path d="M48.492 93.036C47.6228 93.0221 46.7836 93.354 46.1591 93.9588C45.5346 94.5636 45.176 95.3918 45.162 96.261C45.209 97.0286 45.5302 97.7538 46.0671 98.3045C46.604 98.8551 47.3208 99.1946 48.087 99.261C48.2646 99.3063 48.4455 99.3371 48.628 99.353H48.81L75.434 98.767H75.521C75.9294 98.7534 76.3324 98.6692 76.712 98.518C77.3344 98.3021 77.8744 97.8983 78.2574 97.3624C78.6404 96.8264 78.8475 96.1847 78.85 95.526C78.8249 95.0961 78.7153 94.6755 78.5275 94.288C78.3396 93.9006 78.0772 93.5539 77.7553 93.268C77.4334 92.982 77.0583 92.7623 76.6514 92.6214C76.2445 92.4806 75.8138 92.4213 75.384 92.447L72.707 92.507L51.873 92.962L48.492 93.036Z" fill="black" fill-opacity="0.1"/>
<path d="M62.369 114.554C63.4571 114.607 64.4803 115.088 65.2155 115.892C65.9506 116.696 66.3383 117.757 66.294 118.846L66.46 126.504C66.5512 127.59 66.2097 128.668 65.51 129.503C64.8103 130.338 63.809 130.863 62.724 130.964C61.6362 130.911 60.6134 130.43 59.8782 129.626C59.143 128.823 58.7548 127.761 58.798 126.673L58.631 119.015C58.5399 117.929 58.8816 116.85 59.5817 116.015C60.2818 115.179 61.2836 114.654 62.369 114.554" fill="#FFBE00"/>
<path d="M56.479 126.871L68.508 126.609C68.7909 126.61 69.0708 126.668 69.3316 126.777C69.5924 126.887 69.829 127.047 70.0279 127.248C70.2269 127.449 70.3842 127.688 70.4909 127.95C70.5977 128.212 70.6517 128.492 70.65 128.775C70.6775 129.346 70.4775 129.904 70.094 130.327C69.7104 130.75 69.1746 131.004 68.604 131.033L56.575 131.295C56.292 131.294 56.0121 131.236 55.7513 131.127C55.4904 131.017 55.2537 130.857 55.0548 130.656C54.8558 130.454 54.6985 130.216 54.5918 129.954C54.4852 129.692 54.4312 129.411 54.433 129.128C54.4058 128.558 54.6059 128 54.9895 127.577C55.373 127.153 55.9087 126.9 56.479 126.871" fill="#FFBE00"/>
<path d="M60.227 111.68L60.572 108.734L58.352 106.778L61.252 106.197L62.414 103.471L63.859 106.059L66.8 106.33L64.8 108.51L65.452 111.404L62.765 110.163L60.227 111.68Z" fill="white"/>
<path d="M49.106 99.483C49.0253 99.483 48.9478 99.4509 48.8907 99.3938C48.8336 99.3367 48.8015 99.2592 48.8015 99.1785C48.8015 99.0977 48.8336 99.0203 48.8907 98.9632C48.9478 98.9061 49.0253 98.874 49.106 98.874L66.944 98.696C67.0248 98.696 67.1022 98.7281 67.1593 98.7852C67.2164 98.8423 67.2485 98.9197 67.2485 99.0005C67.2485 99.0812 67.2164 99.1587 67.1593 99.2158C67.1022 99.2729 67.0248 99.305 66.944 99.305L49.112 99.483H49.106Z" fill="black"/>
<path d="M63.947 122.16C63.847 122.16 63.747 122.157 63.647 122.151C63.6071 122.149 63.5681 122.138 63.5321 122.121C63.4961 122.103 63.464 122.079 63.4375 122.049C63.3839 121.988 63.3566 121.909 63.3615 121.828C63.3664 121.748 63.4032 121.672 63.4636 121.619C63.5241 121.565 63.6034 121.538 63.684 121.543C67.23 121.76 72.065 117.392 72.116 117.348C72.1453 117.321 72.1797 117.3 72.2172 117.286C72.2547 117.273 72.2946 117.267 72.3344 117.269C72.3743 117.271 72.4134 117.28 72.4493 117.298C72.4853 117.315 72.5175 117.339 72.544 117.369C72.5979 117.429 72.6259 117.508 72.6219 117.588C72.618 117.669 72.5825 117.745 72.523 117.799C72.323 117.981 67.699 122.159 63.947 122.159" fill="black"/>
<path d="M24.094 75.78C25.1464 76.1168 26.0755 76.7578 26.764 77.622C27.4525 78.4863 27.8697 79.5351 27.9629 80.6361C28.056 81.7372 27.821 82.8411 27.2875 83.8088C26.7539 84.7764 25.9458 85.5644 24.9649 86.0732C23.9841 86.5821 22.8745 86.7891 21.7762 86.6681C20.6779 86.5471 19.64 86.1035 18.7934 85.3933C17.9469 84.6832 17.3297 83.7382 17.0196 82.6776C16.7095 81.617 16.7204 80.4884 17.051 79.434C17.273 78.7313 17.6314 78.0792 18.1057 77.5152C18.5799 76.9511 19.1608 76.4861 19.8149 76.1467C20.4691 75.8073 21.1837 75.6002 21.918 75.5373C22.6522 75.4744 23.3917 75.5568 24.094 75.78V75.78Z" fill="#00B2B2"/>
<path d="M147.011 65.182L157.54 71.77C157.54 71.77 152.497 75.682 148.888 73.531C145.129 71.289 147.011 65.182 147.011 65.182Z" fill="#FF0E11"/>
<path d="M74.975 148.509L81.058 147.263L79.783 153.403L74.975 148.509Z" fill="#FFD2E1"/>
</svg>
