<svg width="24" height="24" viewBox="0 0 24 24" fill="none" xmlns="http://www.w3.org/2000/svg">
<path d="M18 5H6C5.46957 5 4.96086 5.21071 4.58579 5.58579C4.21071 5.96086 4 6.46957 4 7V7.4L12 11.9L20 7.5V7C20 6.46957 19.7893 5.96086 19.4142 5.58579C19.0391 5.21071 18.5304 5 18 5Z" fill="#212529"/>
<path d="M11.5 13.9L4 9.69995V17C4 17.5304 4.21071 18.0391 4.58579 18.4142C4.96086 18.7892 5.46957 19 6 19H18C18.5304 19 19.0391 18.7892 19.4142 18.4142C19.7893 18.0391 20 17.5304 20 17V9.69995L12.5 13.9C12.3424 13.9692 12.1721 14.0049 12 14.0049C11.8279 14.0049 11.6576 13.9692 11.5 13.9Z" fill="#212529"/>
</svg>
