<svg width="272" height="53" viewBox="0 0 272 53" fill="none" xmlns="http://www.w3.org/2000/svg">
<path d="M0 10.317C2.83509 20.3454 4.75134 30.6111 5.72501 40.987C15.418 43.24 25.29 46.826 33.225 53C33.225 43.385 33.225 20.733 33.225 20.733C29.4471 17.7771 25.2293 15.4316 20.725 13.782C14.0881 11.364 7.06251 10.1894 0 10.317V10.317Z" fill="#103867"/>
<path d="M33.221 19.8121C33.221 19.8121 23.483 9.80113 2.961 9.00013L2.16699 5.63013C2.16699 5.63013 26.125 7.05813 33.221 19.8121Z" fill="#FDC800"/>
<path d="M33.221 18.032C33.221 18.032 25.316 6.28205 4.99503 4.23205L4.34802 0.998047C4.34802 0.998047 23.752 2.83305 33.221 18.032Z" fill="#BEC5D0"/>
<path d="M66 10.3179C63.1647 20.3463 61.2485 30.612 60.275 40.9879C50.581 43.2409 40.71 46.8269 32.775 53.0009C32.775 43.3859 32.775 20.7339 32.775 20.7339C36.5529 17.7783 40.7708 15.4332 45.275 13.7839C51.9119 11.3657 58.9375 10.1907 66 10.3179V10.3179Z" fill="#002147"/>
<path d="M32.778 19.8121C32.778 19.8121 42.516 9.80113 63.038 9.00013L63.832 5.63013C63.832 5.63013 39.875 7.05913 32.778 19.8121Z" fill="#FDC800"/>
<path d="M32.778 18.033C32.778 18.033 40.683 6.28302 61.003 4.23302L61.65 0.999023C61.65 0.999023 42.246 2.83302 32.778 18.033Z" fill="#BEC5D0"/>
<path d="M80.1136 35V17.5455H90.5795V19.4205H82.2273V25.3182H89.7955V27.1932H82.2273V35H80.1136ZM108.927 26.2727C108.927 28.1136 108.594 29.7045 107.93 31.0455C107.265 32.3864 106.353 33.4205 105.194 34.1477C104.035 34.875 102.711 35.2386 101.222 35.2386C99.7337 35.2386 98.4098 34.875 97.2507 34.1477C96.0916 33.4205 95.1797 32.3864 94.5149 31.0455C93.8501 29.7045 93.5178 28.1136 93.5178 26.2727C93.5178 24.4318 93.8501 22.8409 94.5149 21.5C95.1797 20.1591 96.0916 19.125 97.2507 18.3977C98.4098 17.6705 99.7337 17.3068 101.222 17.3068C102.711 17.3068 104.035 17.6705 105.194 18.3977C106.353 19.125 107.265 20.1591 107.93 21.5C108.594 22.8409 108.927 24.4318 108.927 26.2727ZM106.881 26.2727C106.881 24.7614 106.629 23.4858 106.123 22.446C105.623 21.4062 104.944 20.6193 104.086 20.0852C103.234 19.5511 102.279 19.2841 101.222 19.2841C100.165 19.2841 99.2081 19.5511 98.3501 20.0852C97.4979 20.6193 96.8189 21.4062 96.3132 22.446C95.8132 23.4858 95.5632 24.7614 95.5632 26.2727C95.5632 27.7841 95.8132 29.0597 96.3132 30.0994C96.8189 31.1392 97.4979 31.9261 98.3501 32.4602C99.2081 32.9943 100.165 33.2614 101.222 33.2614C102.279 33.2614 103.234 32.9943 104.086 32.4602C104.944 31.9261 105.623 31.1392 106.123 30.0994C106.629 29.0597 106.881 27.7841 106.881 26.2727ZM112.481 35V17.5455H118.379C119.742 17.5455 120.862 17.7784 121.737 18.2443C122.612 18.7045 123.259 19.3381 123.68 20.1449C124.1 20.9517 124.31 21.8693 124.31 22.8977C124.31 23.9261 124.1 24.8381 123.68 25.6335C123.259 26.429 122.614 27.054 121.745 27.5085C120.876 27.9574 119.765 28.1818 118.413 28.1818H113.64V26.2727H118.344C119.276 26.2727 120.026 26.1364 120.594 25.8636C121.168 25.5909 121.583 25.2045 121.839 24.7045C122.1 24.1989 122.231 23.5966 122.231 22.8977C122.231 22.1989 122.1 21.5881 121.839 21.0653C121.577 20.5426 121.16 20.1392 120.586 19.8551C120.012 19.5653 119.254 19.4205 118.31 19.4205H114.594V35H112.481ZM120.697 27.1591L124.992 35H122.538L118.31 27.1591H120.697ZM134.582 35V17.5455H145.116V19.4205H136.696V25.3182H144.571V27.1932H136.696V33.125H145.253V35H134.582ZM154.312 35H148.926V17.5455H154.551C156.244 17.5455 157.693 17.8949 158.898 18.5938C160.102 19.2869 161.026 20.2841 161.668 21.5852C162.31 22.8807 162.631 24.4318 162.631 26.2386C162.631 28.0568 162.307 29.6222 161.659 30.9347C161.011 32.2415 160.068 33.2472 158.83 33.9517C157.591 34.6506 156.085 35 154.312 35ZM151.04 33.125H154.176C155.619 33.125 156.815 32.8466 157.764 32.2898C158.713 31.733 159.42 30.9403 159.886 29.9119C160.352 28.8835 160.585 27.6591 160.585 26.2386C160.585 24.8295 160.355 23.6165 159.895 22.5994C159.435 21.5767 158.747 20.7926 157.832 20.2472C156.918 19.696 155.778 19.4205 154.415 19.4205H151.04V33.125ZM177.631 17.5455H179.744V29.1023C179.744 30.2955 179.463 31.3608 178.901 32.2983C178.344 33.2301 177.557 33.9659 176.54 34.5057C175.523 35.0398 174.33 35.3068 172.96 35.3068C171.591 35.3068 170.398 35.0398 169.381 34.5057C168.364 33.9659 167.574 33.2301 167.011 32.2983C166.455 31.3608 166.176 30.2955 166.176 29.1023V17.5455H168.29V28.9318C168.29 29.7841 168.477 30.5426 168.852 31.2074C169.227 31.8665 169.761 32.3864 170.455 32.767C171.153 33.142 171.989 33.3295 172.96 33.3295C173.932 33.3295 174.767 33.142 175.466 32.767C176.165 32.3864 176.699 31.8665 177.068 31.2074C177.443 30.5426 177.631 29.7841 177.631 28.9318V17.5455ZM198.011 23H195.897C195.772 22.392 195.553 21.858 195.241 21.3977C194.934 20.9375 194.559 20.5511 194.116 20.2386C193.678 19.9205 193.192 19.6818 192.658 19.5227C192.124 19.3636 191.567 19.2841 190.988 19.2841C189.931 19.2841 188.974 19.5511 188.116 20.0852C187.263 20.6193 186.585 21.4062 186.079 22.446C185.579 23.4858 185.329 24.7614 185.329 26.2727C185.329 27.7841 185.579 29.0597 186.079 30.0994C186.585 31.1392 187.263 31.9261 188.116 32.4602C188.974 32.9943 189.931 33.2614 190.988 33.2614C191.567 33.2614 192.124 33.1818 192.658 33.0227C193.192 32.8636 193.678 32.6278 194.116 32.3153C194.559 31.9972 194.934 31.608 195.241 31.1477C195.553 30.6818 195.772 30.1477 195.897 29.5455H198.011C197.852 30.4375 197.562 31.2358 197.141 31.9403C196.721 32.6449 196.198 33.2443 195.573 33.7386C194.948 34.2273 194.246 34.5994 193.468 34.8551C192.695 35.1108 191.869 35.2386 190.988 35.2386C189.499 35.2386 188.175 34.875 187.016 34.1477C185.857 33.4205 184.945 32.3864 184.281 31.0455C183.616 29.7045 183.283 28.1136 183.283 26.2727C183.283 24.4318 183.616 22.8409 184.281 21.5C184.945 20.1591 185.857 19.125 187.016 18.3977C188.175 17.6705 189.499 17.3068 190.988 17.3068C191.869 17.3068 192.695 17.4347 193.468 17.6903C194.246 17.946 194.948 18.321 195.573 18.8153C196.198 19.304 196.721 19.9006 197.141 20.6051C197.562 21.304 197.852 22.1023 198.011 23ZM202.142 35H199.926L206.335 17.5455H208.517L214.926 35H212.71L207.494 20.3068H207.358L202.142 35ZM202.96 28.1818H211.892V30.0568H202.96V28.1818ZM214.651 19.4205V17.5455H227.742V19.4205H222.254V35H220.14V19.4205H214.651ZM233.118 17.5455V35H231.004V17.5455H233.118ZM252.083 26.2727C252.083 28.1136 251.751 29.7045 251.086 31.0455C250.421 32.3864 249.509 33.4205 248.35 34.1477C247.191 34.875 245.867 35.2386 244.379 35.2386C242.89 35.2386 241.566 34.875 240.407 34.1477C239.248 33.4205 238.336 32.3864 237.671 31.0455C237.006 29.7045 236.674 28.1136 236.674 26.2727C236.674 24.4318 237.006 22.8409 237.671 21.5C238.336 20.1591 239.248 19.125 240.407 18.3977C241.566 17.6705 242.89 17.3068 244.379 17.3068C245.867 17.3068 247.191 17.6705 248.35 18.3977C249.509 19.125 250.421 20.1591 251.086 21.5C251.751 22.8409 252.083 24.4318 252.083 26.2727ZM250.038 26.2727C250.038 24.7614 249.785 23.4858 249.279 22.446C248.779 21.4062 248.1 20.6193 247.242 20.0852C246.39 19.5511 245.435 19.2841 244.379 19.2841C243.322 19.2841 242.364 19.5511 241.506 20.0852C240.654 20.6193 239.975 21.4062 239.469 22.446C238.969 23.4858 238.719 24.7614 238.719 26.2727C238.719 27.7841 238.969 29.0597 239.469 30.0994C239.975 31.1392 240.654 31.9261 241.506 32.4602C242.364 32.9943 243.322 33.2614 244.379 33.2614C245.435 33.2614 246.39 32.9943 247.242 32.4602C248.1 31.9261 248.779 31.1392 249.279 30.0994C249.785 29.0597 250.038 27.7841 250.038 26.2727ZM269.478 17.5455V35H267.433L257.921 21.2955H257.751V35H255.637V17.5455H257.683L267.228 31.2841H267.398V17.5455H269.478Z" fill="#002147"/>
</svg>
