<svg width="24" height="24" viewBox="0 0 24 24" fill="none" xmlns="http://www.w3.org/2000/svg">
<path d="M12 3.00011C11.0792 2.99441 10.1663 3.17157 9.31448 3.52133C8.46262 3.87109 7.68868 4.38649 7.03753 5.03764C6.38638 5.68879 5.87098 6.46273 5.52122 7.31459C5.17145 8.16645 4.99429 9.07927 5 10.0001C4.98358 10.9337 5.16184 11.8604 5.5234 12.7213C5.88496 13.5822 6.4219 14.3582 7.1 15.0001C7.2 15.1001 11.2 18.7001 11.3 18.8001C11.4851 18.9463 11.7141 19.0258 11.95 19.0258C12.1859 19.0258 12.4149 18.9463 12.6 18.8001C12.7 18.7001 16.8 15.1001 16.8 15.0001C17.4781 14.3582 18.015 13.5822 18.3766 12.7213C18.7382 11.8604 18.9164 10.9337 18.9 10.0001C18.9254 9.0824 18.7651 8.16902 18.4286 7.31484C18.0921 6.46065 17.5864 5.6833 16.942 5.02948C16.2975 4.37565 15.5275 3.85885 14.6782 3.51011C13.829 3.16138 12.918 2.9879 12 3.00011V3.00011ZM12 12.0001C11.6044 12.0001 11.2178 11.8828 10.8889 11.6631C10.56 11.4433 10.3036 11.1309 10.1522 10.7655C10.0009 10.4 9.96126 9.9979 10.0384 9.60993C10.1156 9.22197 10.3061 8.86561 10.5858 8.5859C10.8655 8.3062 11.2219 8.11571 11.6098 8.03854C11.9978 7.96137 12.3999 8.00098 12.7654 8.15236C13.1308 8.30373 13.4432 8.56008 13.6629 8.88897C13.8827 9.21787 14 9.60455 14 10.0001C13.9984 10.5301 13.7872 11.0378 13.4125 11.4126C13.0377 11.7873 12.5299 11.9985 12 12.0001V12.0001Z" fill="#212529"/>
</svg>
