<svg width="24" height="24" viewBox="0 0 24 24" fill="none" xmlns="http://www.w3.org/2000/svg">
<path d="M12 4C9.88022 4.00633 7.84906 4.85122 6.35014 6.35014C4.85122 7.84906 4.00633 9.88022 4 12C3.98857 13.6076 4.47176 15.1798 5.38405 16.5036C6.29635 17.8273 7.59362 18.8385 9.1 19.4C8.99989 18.6366 8.99989 17.8634 9.1 17.1C9.2 16.5 10 13.1 10 13.1C9.85595 12.7517 9.78777 12.3767 9.8 12C9.8 10.9 10.5 10 11.3 10C11.4415 9.99467 11.5824 10.0203 11.713 10.0752C11.8435 10.13 11.9605 10.2127 12.0558 10.3175C12.151 10.4222 12.2222 10.5466 12.2644 10.6817C12.3066 10.8169 12.3187 10.9596 12.3 11.1C12.1726 12.0242 11.9377 12.9303 11.6 13.8C11.5549 13.9753 11.5527 14.1588 11.5937 14.3351C11.6347 14.5114 11.7175 14.6752 11.8353 14.8126C11.9531 14.95 12.1023 15.057 12.2702 15.1244C12.4382 15.1918 12.6199 15.2178 12.8 15.2C14.2 15.2 15.3 13.7 15.3 11.5C15.313 11.0631 15.2365 10.6282 15.0753 10.2219C14.9141 9.81566 14.6715 9.44666 14.3624 9.1376C14.0533 8.82853 13.6843 8.58593 13.2781 8.42469C12.8718 8.26345 12.4369 8.18699 12 8.2C11.5299 8.17803 11.0602 8.25276 10.6202 8.41957C10.1801 8.58638 9.7789 8.84172 9.44146 9.16979C9.10402 9.49786 8.83748 9.89168 8.65834 10.3269C8.47921 10.7621 8.39128 11.2294 8.4 11.7C8.41443 12.3467 8.62353 12.974 9 13.5V13.9C8.90615 14.1933 8.83921 14.4946 8.8 14.8C8.8 14.9 8.7 15 8.5 14.9C7.99087 14.5628 7.57654 14.1009 7.29647 13.5583C7.01639 13.0156 6.8799 12.4103 6.9 11.8C6.9 9.3 8.7 7 12.2 7C12.8268 6.96792 13.4536 7.06271 14.0428 7.2787C14.632 7.49469 15.1716 7.82742 15.6292 8.25697C16.0867 8.68651 16.4528 9.20401 16.7056 9.77845C16.9583 10.3529 17.0925 10.9725 17.1 11.6C17.1 14.4 15.4 16.6 12.9 16.6C12.5472 16.6225 12.1947 16.551 11.8786 16.3929C11.5624 16.2348 11.2937 15.9957 11.1 15.7C11.1 15.7 10.7 17.2 10.6 17.6C10.3475 18.3357 10.012 19.0402 9.6 19.7C10.3847 19.8981 11.1907 19.9988 12 20C14.1217 20 16.1566 19.1571 17.6569 17.6569C19.1571 16.1566 20 14.1217 20 12C20 9.87827 19.1571 7.84344 17.6569 6.34315C16.1566 4.84285 14.1217 4 12 4V4Z" fill="#212529"/>
</svg>
