<svg width="24" height="24" viewBox="0 0 24 24" fill="none" xmlns="http://www.w3.org/2000/svg">
<path d="M11 18C9.61553 18 8.26216 17.5895 7.11101 16.8203C5.95987 16.0511 5.06266 14.9579 4.53285 13.6788C4.00303 12.3997 3.86441 10.9922 4.13451 9.63437C4.4046 8.2765 5.07129 7.02922 6.05026 6.05026C7.02922 5.07129 8.2765 4.4046 9.63437 4.13451C10.9922 3.86441 12.3997 4.00303 13.6788 4.53285C14.9579 5.06266 16.0511 5.95987 16.8203 7.11101C17.5895 8.26216 18 9.61553 18 11C17.9979 12.8559 17.2597 14.6351 15.9474 15.9474C14.6351 17.2597 12.8559 17.9979 11 18V18ZM11 6C10.0111 6 9.0444 6.29325 8.22215 6.84265C7.39991 7.39206 6.75904 8.17296 6.38061 9.08659C6.00217 10.0002 5.90315 11.0055 6.09608 11.9755C6.289 12.9454 6.76521 13.8363 7.46447 14.5355C8.16373 15.2348 9.05465 15.711 10.0246 15.9039C10.9945 16.0969 11.9998 15.9978 12.9134 15.6194C13.8271 15.241 14.6079 14.6001 15.1574 13.7779C15.7068 12.9556 16 11.9889 16 11C15.9984 9.67441 15.4711 8.40356 14.5338 7.46622C13.5964 6.52889 12.3256 6.00159 11 6V6Z" fill="#212529"/>
<path d="M19.707 18.2929L17.314 15.8999C16.9035 16.4284 16.4285 16.9034 15.9 17.3139L18.293 19.7069C18.3852 19.8024 18.4956 19.8786 18.6176 19.931C18.7396 19.9834 18.8708 20.011 19.0036 20.0122C19.1364 20.0133 19.2681 19.988 19.3909 19.9377C19.5138 19.8874 19.6255 19.8132 19.7194 19.7193C19.8133 19.6254 19.8875 19.5138 19.9378 19.3909C19.9881 19.268 20.0134 19.1363 20.0122 19.0035C20.0111 18.8707 19.9835 18.7395 19.9311 18.6175C19.8787 18.4955 19.8025 18.3851 19.707 18.2929V18.2929Z" fill="#212529"/>
</svg>
