<svg width="24" height="24" viewBox="0 0 24 24" fill="none" xmlns="http://www.w3.org/2000/svg">
<path d="M20 7.5C19.3989 7.77137 18.7568 7.94036 18.1 8C18.4456 7.81363 18.7485 7.55733 18.9895 7.24742C19.2306 6.93751 19.4044 6.5808 19.5 6.2C18.8512 6.58545 18.1408 6.85609 17.4 7C16.7585 6.37017 15.8989 6.01198 15 6C14.1431 6.02874 13.3308 6.38872 12.734 7.0042C12.1372 7.61968 11.8024 8.44267 11.8 9.3C11.7764 9.53798 11.8107 9.77814 11.9 10C10.5897 9.95058 9.30515 9.62166 8.13237 9.03527C6.95959 8.44888 5.9257 7.61857 5.1 6.6C4.80458 7.11586 4.6656 7.70653 4.7 8.3C4.70926 8.83858 4.85093 9.36661 5.11253 9.83748C5.37413 10.3084 5.7476 10.7076 6.2 11C5.67945 10.9612 5.17073 10.8256 4.7 10.6V10.6C4.69215 11.3529 4.94774 12.0848 5.42253 12.6692C5.89732 13.2536 6.56145 13.6536 7.3 13.8C7.00752 13.8825 6.70345 13.9163 6.4 13.9C6.19485 13.9158 5.98892 13.8815 5.8 13.8C6.00166 14.4652 6.41189 15.0479 6.9701 15.462C7.52832 15.8762 8.20492 16.0999 8.9 16.1C7.73934 17.0322 6.28841 17.5276 4.8 17.5H4C5.4995 18.4448 7.22803 18.9634 9 19C10.2229 19.0058 11.4349 18.7693 12.5658 18.3039C13.6968 17.8386 14.7243 17.1538 15.5891 16.2891C16.4538 15.4243 17.1386 14.3968 17.6039 13.2658C18.0693 12.1349 18.3058 10.9229 18.3 9.7V9.3C18.9893 8.82902 19.5691 8.2151 20 7.5V7.5Z" fill="#212529"/>
</svg>
