<svg width="170" height="150" viewBox="0 0 170 150" fill="none" xmlns="http://www.w3.org/2000/svg">
<path d="M118.837 70.608C116.145 52.637 125.248 36.378 139.165 34.293C153.082 32.208 166.565 45.086 169.257 63.057C171.949 81.028 162.846 97.285 148.921 99.372C134.996 101.459 121.529 88.579 118.837 70.608Z" fill="white"/>
<path d="M145.969 99.864C139.675 99.864 133.42 96.914 128.357 91.556C127.102 90.223 125.956 88.7914 124.93 87.275C123.86 85.69 122.912 84.0258 122.094 82.297C121.239 80.496 120.517 78.6342 119.936 76.727C118.681 72.5907 118.06 68.2883 118.094 63.966C118.113 61.8287 118.302 59.6963 118.659 57.589C119.001 55.5756 119.508 53.5939 120.176 51.664C120.813 49.8227 121.612 48.0411 122.562 46.34C123.469 44.7165 124.531 43.1847 125.734 41.766C126.888 40.404 128.187 39.1712 129.607 38.089C130.993 37.035 132.501 36.1519 134.099 35.459C135.706 34.7656 137.397 34.2829 139.128 34.023C140.131 33.873 141.143 33.7975 142.157 33.797C145.11 33.8084 148.028 34.4297 150.729 35.622C153.652 36.9199 156.322 38.7259 158.614 40.956C164.58 46.9085 168.415 54.6623 169.527 63.016C172.237 81.106 163.011 97.536 148.962 99.642C147.971 99.79 146.971 99.8643 145.969 99.864ZM142.155 34.344C139.449 34.3434 136.772 34.8974 134.288 35.972C132.722 36.6525 131.245 37.5202 129.888 38.556C128.5 39.6197 127.231 40.8308 126.104 42.168C124.928 43.5644 123.89 45.0714 123.004 46.668C122.075 48.3392 121.294 50.089 120.671 51.897C120.02 53.7955 119.526 55.7444 119.194 57.724C118.844 59.7971 118.66 61.8947 118.642 63.997C118.611 68.2485 119.221 72.4804 120.452 76.55C121.021 78.4277 121.728 80.261 122.566 82.035C123.369 83.7364 124.301 85.3745 125.352 86.935C126.358 88.4269 127.482 89.8357 128.713 91.148C133.676 96.421 139.805 99.324 145.969 99.325C146.944 99.3245 147.917 99.252 148.881 99.108C162.633 97.046 171.652 80.895 168.987 63.108C167.896 54.87 164.117 47.2223 158.236 41.351C155.994 39.1694 153.384 37.4018 150.526 36.13C147.889 34.9635 145.039 34.3555 142.155 34.344V34.344Z" fill="black"/>
<path d="M114.333 71.688C111.641 53.717 120.744 37.458 134.661 35.373C148.578 33.288 162.061 46.166 164.753 64.137C167.445 82.108 158.342 98.365 144.417 100.452C130.492 102.539 117.025 89.659 114.333 71.688Z" fill="white"/>
<path d="M141.465 100.945C135.171 100.945 128.916 97.9951 123.853 92.6371C122.598 91.3041 121.452 89.8725 120.426 88.3561C119.356 86.7707 118.408 85.1063 117.59 83.3771C116.735 81.576 116.013 79.7143 115.432 77.8071C114.177 73.6711 113.556 69.369 113.59 65.0471C113.609 62.9098 113.798 60.7774 114.155 58.6701C114.497 56.6567 115.004 54.6749 115.672 52.7451C116.309 50.9037 117.108 49.1222 118.058 47.4211C118.965 45.7972 120.027 44.2651 121.23 42.8461C122.384 41.4841 123.683 40.2513 125.103 39.1691C126.489 38.1151 127.997 37.232 129.595 36.5391C131.202 35.8457 132.893 35.363 134.624 35.1031C135.627 34.953 136.64 34.8774 137.655 34.8771C140.607 34.8885 143.525 35.5098 146.226 36.7021C149.149 38.0005 151.818 39.8067 154.11 42.0371C160.076 47.9895 163.911 55.7434 165.023 64.0971C167.733 82.1871 158.507 98.6171 144.458 100.723C143.467 100.871 142.467 100.945 141.465 100.945V100.945ZM137.651 35.4241C134.945 35.4235 132.268 35.9775 129.784 37.0521C128.218 37.7326 126.741 38.6003 125.384 39.6361C123.996 40.7001 122.727 41.9115 121.6 43.2491C120.424 44.6454 119.386 46.1525 118.5 47.7491C117.571 49.42 116.79 51.1694 116.167 52.9771C115.516 54.8756 115.022 56.8245 114.69 58.8041C114.34 60.8772 114.156 62.9748 114.138 65.0771C114.107 69.3286 114.717 73.5605 115.948 77.6301C116.517 79.5078 117.224 81.3411 118.062 83.1151C118.865 84.8165 119.797 86.4546 120.848 88.0151C121.854 89.5069 122.978 90.9158 124.209 92.2281C129.172 97.5011 135.301 100.405 141.465 100.405C142.44 100.405 143.413 100.332 144.377 100.188C158.129 98.1261 167.148 81.9741 164.483 64.1881C163.391 55.9505 159.612 48.3033 153.732 42.4321C151.49 40.2505 148.88 38.4829 146.022 37.2111C143.385 36.0443 140.535 35.4359 137.651 35.4241V35.4241Z" fill="black"/>
<path d="M114.333 71.688C111.641 53.717 120.744 37.458 134.661 35.373C148.578 33.288 162.061 46.166 164.753 64.137C167.445 82.108 158.342 98.365 144.417 100.452C130.492 102.539 117.025 89.659 114.333 71.688Z" fill="white"/>
<path d="M141.465 100.945C135.171 100.945 128.916 97.9951 123.853 92.6371C122.598 91.3041 121.452 89.8725 120.426 88.3561C119.356 86.7707 118.408 85.1063 117.59 83.3771C116.735 81.576 116.013 79.7143 115.432 77.8071C114.177 73.6711 113.556 69.369 113.59 65.0471C113.609 62.9098 113.798 60.7774 114.155 58.6701C114.497 56.6567 115.004 54.6749 115.672 52.7451C116.309 50.9037 117.108 49.1222 118.058 47.4211C118.965 45.7972 120.027 44.2651 121.23 42.8461C122.384 41.4841 123.683 40.2513 125.103 39.1691C126.489 38.1151 127.997 37.232 129.595 36.5391C131.202 35.8457 132.893 35.363 134.624 35.1031C135.627 34.953 136.64 34.8774 137.655 34.8771C140.607 34.8885 143.525 35.5098 146.226 36.7021C149.149 38.0005 151.818 39.8067 154.11 42.0371C160.076 47.9895 163.911 55.7434 165.023 64.0971C167.733 82.1871 158.507 98.6171 144.458 100.723C143.467 100.871 142.467 100.945 141.465 100.945V100.945ZM137.651 35.4241C134.945 35.4235 132.268 35.9775 129.784 37.0521C128.218 37.7326 126.741 38.6003 125.384 39.6361C123.996 40.7001 122.727 41.9115 121.6 43.2491C120.424 44.6454 119.386 46.1525 118.5 47.7491C117.571 49.42 116.79 51.1694 116.167 52.9771C115.516 54.8756 115.022 56.8245 114.69 58.8041C114.34 60.8772 114.156 62.9748 114.138 65.0771C114.107 69.3286 114.717 73.5605 115.948 77.6301C116.517 79.5078 117.224 81.3411 118.062 83.1151C118.865 84.8165 119.797 86.4546 120.848 88.0151C121.854 89.5069 122.978 90.9158 124.209 92.2281C129.172 97.5011 135.301 100.405 141.465 100.405C142.44 100.405 143.413 100.332 144.377 100.188C158.129 98.1261 167.148 81.9741 164.483 64.1881C163.391 55.9505 159.612 48.3033 153.732 42.4321C151.49 40.2505 148.88 38.4829 146.022 37.2111C143.385 36.0443 140.535 35.4359 137.651 35.4241V35.4241Z" fill="black"/>
<path d="M119.375 71.27C117.242 57.056 124.447 44.195 135.462 42.545C146.477 40.895 157.129 51.083 159.262 65.299C161.395 79.515 154.19 92.379 143.176 94.026C132.162 95.673 121.501 85.489 119.375 71.27Z" fill="black"/>
<path d="M140.84 94.473C135.847 94.473 130.885 92.134 126.869 87.888C125.874 86.8326 124.965 85.6989 124.151 84.498C123.301 83.2427 122.549 81.9246 121.899 80.555C120.517 77.629 119.575 74.5146 119.105 71.313C118.006 64.7251 119.112 57.9587 122.25 52.063C125.326 46.562 130.008 43.086 135.426 42.275C136.212 42.1576 137.005 42.0984 137.799 42.098C142.791 42.098 147.751 44.437 151.766 48.684C152.761 49.7408 153.67 50.8758 154.484 52.078C155.334 53.3333 156.087 54.6515 156.737 56.021C158.12 58.9452 159.064 62.0579 159.537 65.258C160.633 71.8473 159.526 78.6141 156.386 84.51C153.306 90.01 148.628 93.487 143.216 94.297C142.429 94.4143 141.635 94.4732 140.84 94.473V94.473ZM137.802 42.644C137.032 42.6442 136.263 42.7013 135.502 42.815C130.26 43.598 125.726 46.979 122.726 52.33C119.648 58.1195 118.565 64.7626 119.645 71.23C120.106 74.3642 121.025 77.4135 122.374 80.28C123.009 81.6218 123.744 82.9135 124.574 84.144C125.368 85.3224 126.254 86.4353 127.226 87.472C131.142 91.634 135.976 93.927 140.839 93.928C141.609 93.9277 142.378 93.8705 143.139 93.757C148.38 92.973 152.917 89.594 155.913 84.243C158.99 78.4533 160.074 71.8105 158.995 65.343C158.533 62.2085 157.613 59.1589 156.264 56.292C155.629 54.9503 154.894 53.6586 154.064 52.428C153.27 51.249 152.384 50.1354 151.412 49.098C147.496 44.936 142.663 42.644 137.802 42.644Z" fill="white"/>
<path d="M125.598 70.3411C124.131 60.5561 129.087 51.7111 136.666 50.5761C144.245 49.4411 151.573 56.4511 153.041 66.2311C154.509 76.0111 149.551 84.8561 141.972 85.9951C134.393 87.1341 127.061 80.1201 125.598 70.3411Z" fill="white"/>
<path d="M140.345 86.389C138.722 86.3835 137.118 86.0431 135.633 85.389C134.027 84.6766 132.561 83.6849 131.302 82.46C128.036 79.2018 125.936 74.9571 125.328 70.384C124.568 65.8323 125.332 61.1572 127.501 57.084C128.391 55.3237 129.679 53.7949 131.263 52.6186C132.847 51.4423 134.682 50.6509 136.625 50.307C137.17 50.2253 137.721 50.1842 138.272 50.184C140.108 50.2425 141.913 50.6765 143.575 51.4592C145.237 52.2419 146.721 53.3567 147.936 54.735C149.341 56.2344 150.502 57.9457 151.376 59.806C152.332 61.8272 152.984 63.9789 153.31 66.191C153.492 67.403 153.578 68.6274 153.567 69.853C153.556 71.0261 153.452 72.1965 153.255 73.353C153.067 74.4564 152.788 75.5425 152.421 76.6C152.071 77.6093 151.632 78.5857 151.11 79.518C150.611 80.4066 150.027 81.2448 149.366 82.021C148.731 82.7675 148.018 83.4431 147.238 84.036C146.477 84.6139 145.648 85.0981 144.771 85.478C143.372 86.0798 141.866 86.3898 140.343 86.389H140.345ZM138.277 50.73C137.751 50.73 137.227 50.7691 136.707 50.847C134.848 51.1791 133.091 51.9393 131.576 53.0674C130.061 54.1955 128.829 55.6607 127.978 57.347C125.867 61.3148 125.125 65.8682 125.866 70.301C126.457 74.7546 128.5 78.8889 131.68 82.063C132.889 83.2415 134.297 84.1966 135.839 84.884C137.261 85.5128 138.797 85.8406 140.352 85.847C140.881 85.8468 141.409 85.8077 141.932 85.73C149.347 84.615 154.209 75.884 152.766 66.272C152.45 64.1249 151.82 62.036 150.897 60.072C150.055 58.2676 148.936 56.6061 147.58 55.148C146.415 53.813 144.988 52.7319 143.388 51.9719C141.787 51.2118 140.048 50.7891 138.277 50.73V50.73Z" fill="black"/>
<path d="M131.138 69.511C130.262 63.679 133.218 58.403 137.734 57.727C142.25 57.051 146.624 61.227 147.5 67.061C148.376 72.895 145.42 78.168 140.9 78.846C136.38 79.524 132.01 75.346 131.139 69.511" fill="black"/>
<path d="M139.944 79.1901C138.836 79.1552 137.747 78.8941 136.744 78.4229C135.741 77.9517 134.844 77.2803 134.11 76.4501C133.262 75.5475 132.562 74.5168 132.035 73.3961C131.458 72.1796 131.065 70.8841 130.868 69.5521C130.411 66.8141 130.871 64.0018 132.176 61.5521C132.714 60.488 133.493 59.564 134.451 58.8532C135.409 58.1424 136.519 57.6644 137.693 57.4571C138.024 57.4076 138.358 57.3829 138.693 57.3831C139.801 57.4179 140.89 57.679 141.894 58.1502C142.898 58.6213 143.794 59.2927 144.529 60.1231C145.377 61.0253 146.078 62.0556 146.606 63.1761C147.182 64.393 147.574 65.6888 147.77 67.0211C148.662 72.9921 145.598 78.4211 140.94 79.1211C140.61 79.1685 140.277 79.1916 139.944 79.1901V79.1901ZM138.695 57.9291C138.387 57.9293 138.08 57.9524 137.775 57.9981C136.683 58.1941 135.652 58.6415 134.763 59.3048C133.874 59.9682 133.151 60.8293 132.652 61.8201C131.407 64.1643 130.971 66.8535 131.41 69.4711C131.596 70.7376 131.966 71.9701 132.51 73.1291C133.006 74.1937 133.665 75.1742 134.464 76.0351C135.149 76.8232 135.99 77.4616 136.933 77.9105C137.876 78.3594 138.901 78.6091 139.945 78.6441C140.251 78.6438 140.556 78.6211 140.859 78.5761C145.219 77.9221 148.077 72.7761 147.23 67.1021C147.044 65.8356 146.673 64.6032 146.13 63.4441C145.634 62.3795 144.975 61.399 144.176 60.5381C143.491 59.7499 142.65 59.1115 141.707 58.6626C140.764 58.2137 139.739 57.964 138.695 57.9291V57.9291Z" fill="white"/>
<path d="M135.387 68.879C134.968 66.079 136.387 63.543 138.556 63.218C140.725 62.893 142.827 64.896 143.25 67.698C143.673 70.5 142.25 73.034 140.077 73.358C137.904 73.682 135.807 71.679 135.387 68.879Z" fill="white"/>
<path d="M139.604 73.666C139.211 73.6645 138.821 73.5969 138.451 73.466C138.057 73.3268 137.686 73.1289 137.351 72.879C136.115 71.9021 135.313 70.4783 135.118 68.915C135.012 68.209 135.02 67.4904 135.142 66.787C135.249 66.1436 135.466 65.5235 135.784 64.954C136.073 64.4297 136.467 63.9708 136.942 63.606C137.403 63.2564 137.944 63.0284 138.516 62.943C138.681 62.9185 138.847 62.9061 139.014 62.906C139.564 62.9223 140.104 63.0505 140.603 63.2826C141.102 63.5147 141.548 63.8459 141.914 64.256C142.784 65.1992 143.345 66.3854 143.522 67.656C143.745 69.0028 143.518 70.3857 142.875 71.59C142.605 72.1203 142.216 72.5806 141.738 72.9341C141.259 73.2877 140.705 73.525 140.119 73.627C139.949 73.6529 139.776 73.6659 139.604 73.666ZM139.016 63.452C138.876 63.452 138.736 63.4624 138.597 63.483C136.58 63.785 135.262 66.185 135.658 68.834C135.833 70.2549 136.559 71.5503 137.68 72.441C137.967 72.6559 138.285 72.8268 138.623 72.948C138.939 73.0603 139.272 73.1181 139.608 73.119C139.752 73.1191 139.895 73.1084 140.037 73.087C140.54 72.9959 141.015 72.7891 141.425 72.483C141.834 72.1769 142.167 71.7798 142.397 71.323C142.98 70.2246 143.185 68.9646 142.98 67.738C142.822 66.5967 142.326 65.5288 141.557 64.671C141.24 64.3038 140.851 64.0059 140.414 63.7961C139.977 63.5864 139.502 63.4692 139.017 63.452H139.016Z" fill="black"/>
<path d="M142.332 35.314C142.26 35.314 142.192 35.286 142.141 35.2358C142.09 35.1857 142.06 35.1176 142.059 35.046C142.05 34.501 142.059 33.956 142.068 33.43C142.201 31.7757 142.027 30.1111 141.555 28.52C141.456 28.2609 141.281 28.0375 141.054 27.8788C140.826 27.7201 140.556 27.6334 140.279 27.63C140.049 27.6163 139.82 27.6757 139.625 27.7998C139.431 27.9239 139.281 28.1063 139.196 28.321C139.118 29.6578 139.16 30.9989 139.323 32.328C139.385 33.128 139.44 33.817 139.445 34.201C139.446 34.2735 139.418 34.3434 139.367 34.3953C139.317 34.4472 139.248 34.477 139.175 34.478V34.478C139.103 34.478 139.034 34.4497 138.983 34.3991C138.932 34.3486 138.903 34.2799 138.902 34.208C138.893 33.842 138.84 33.161 138.778 32.371C138.567 30.9613 138.537 29.5304 138.688 28.113C138.813 27.7949 139.034 27.5242 139.321 27.3393C139.609 27.1544 139.947 27.0647 140.288 27.083C140.677 27.088 141.055 27.2106 141.373 27.4345C141.691 27.6585 141.934 27.9735 142.07 28.338C142.562 29.9904 142.747 31.719 142.615 33.438C142.606 33.959 142.596 34.499 142.606 35.038C142.607 35.1103 142.58 35.1802 142.529 35.2322C142.479 35.2843 142.41 35.3144 142.338 35.316L142.332 35.314Z" fill="black"/>
<path d="M138.041 28.703C138.017 28.288 138.159 27.8805 138.435 27.5695C138.711 27.2585 139.098 27.0692 139.513 27.043C139.929 27.054 140.323 27.2296 140.61 27.5313C140.896 27.833 141.051 28.236 141.041 28.652C141.065 29.0669 140.923 29.4744 140.647 29.7853C140.372 30.0962 139.984 30.2852 139.569 30.311C139.154 30.2989 138.76 30.1231 138.474 29.8219C138.187 29.5206 138.032 29.1184 138.041 28.703" fill="white"/>
<path d="M139.545 30.585C139.311 30.5839 139.081 30.5347 138.867 30.4404C138.653 30.3461 138.461 30.2088 138.303 30.037C137.965 29.6764 137.774 29.2023 137.768 28.708V28.708C137.744 28.2207 137.913 27.7436 138.24 27.3806C138.566 27.0176 139.022 26.7982 139.509 26.77H139.536C139.983 26.772 140.411 26.9486 140.729 27.262C141.099 27.6289 141.31 28.1269 141.315 28.648C141.326 29.1675 141.132 29.6704 140.775 30.048C140.62 30.2118 140.434 30.3432 140.228 30.4345C140.022 30.5258 139.8 30.5753 139.575 30.58L139.545 30.585ZM139.559 27.316H139.518C139.176 27.3416 138.858 27.5012 138.634 27.7601C138.409 28.0189 138.295 28.356 138.318 28.698C138.322 29.048 138.453 29.3845 138.687 29.645C138.793 29.7664 138.923 29.8641 139.069 29.9319C139.215 29.9996 139.373 30.0358 139.534 30.038H139.568C139.721 30.0333 139.872 29.9984 140.011 29.9353C140.151 29.8721 140.276 29.782 140.381 29.67C140.638 29.3962 140.777 29.0324 140.768 28.657C140.765 28.2815 140.614 27.9223 140.348 27.657C140.246 27.5505 140.123 27.4655 139.988 27.407C139.852 27.3484 139.707 27.3175 139.559 27.316V27.316Z" fill="black"/>
<path d="M140.997 28.882C140.931 28.8751 140.87 28.8445 140.825 28.796C140.78 28.7474 140.755 28.6842 140.753 28.6181C140.751 28.552 140.773 28.4874 140.815 28.4365C140.857 28.3855 140.917 28.3516 140.982 28.341L144.482 28.141C144.518 28.1391 144.554 28.1442 144.588 28.1561C144.621 28.168 144.653 28.1864 144.679 28.2104C144.706 28.2343 144.728 28.2633 144.743 28.2957C144.759 28.3281 144.768 28.3632 144.77 28.399C144.772 28.4349 144.767 28.4708 144.755 28.5047C144.743 28.5385 144.725 28.5697 144.701 28.5965C144.677 28.6232 144.648 28.645 144.615 28.6605C144.583 28.6761 144.548 28.6851 144.512 28.687L141.012 28.887H140.997" fill="black"/>
<path d="M110.237 42.2571L123.921 49.9991Z" fill="white"/>
<path d="M123.821 50.3221C123.774 50.3221 123.728 50.31 123.687 50.2871L110.083 42.6361C110.02 42.6004 109.974 42.5412 109.955 42.4716C109.936 42.4019 109.945 42.3274 109.981 42.2646C110.016 42.2017 110.075 42.1556 110.145 42.1364C110.215 42.1172 110.289 42.1264 110.352 42.1621L123.952 49.8131C124.005 49.8427 124.046 49.8888 124.069 49.9443C124.093 49.9999 124.097 50.0616 124.081 50.1198C124.066 50.1781 124.032 50.2295 123.984 50.2661C123.936 50.3028 123.877 50.3224 123.817 50.3221" fill="black"/>
<path d="M110.41 42.5181L110.127 41.0361L107.389 39.1071L108.137 41.2661L105.803 41.5071L108.947 43.1221L110.41 42.5181Z" fill="white"/>
<path d="M108.947 43.3941C108.903 43.3939 108.861 43.3833 108.822 43.3631L105.677 41.7451C105.625 41.7179 105.583 41.6747 105.558 41.6218C105.532 41.569 105.524 41.5093 105.536 41.4517C105.547 41.3941 105.577 41.3417 105.62 41.3023C105.664 41.2629 105.719 41.2386 105.777 41.2331L107.768 41.0331L107.13 39.1951C107.111 39.1404 107.111 39.0812 107.128 39.0261C107.145 38.971 107.179 38.9227 107.226 38.8883C107.272 38.8538 107.328 38.8349 107.386 38.8344C107.444 38.8338 107.5 38.8515 107.547 38.8851L110.285 40.8141C110.343 40.8544 110.383 40.9158 110.396 40.9851L110.679 42.4661C110.69 42.5273 110.68 42.5904 110.65 42.6449C110.62 42.6995 110.572 42.7422 110.515 42.7661L109.052 43.3661C109.019 43.382 108.983 43.3915 108.947 43.3941V43.3941ZM107.93 39.8181L108.401 41.1781C108.415 41.2168 108.419 41.2581 108.414 41.2988C108.409 41.3396 108.395 41.3786 108.373 41.4131C108.351 41.4474 108.322 41.4763 108.287 41.4978C108.252 41.5193 108.214 41.5327 108.173 41.5371L106.751 41.6811L108.96 42.8221L110.1 42.3511L109.879 41.1951L107.93 39.8181Z" fill="black"/>
<path d="M108.323 42.7861C108.273 42.7862 108.223 42.7724 108.18 42.7461C108.137 42.7199 108.103 42.6822 108.08 42.6373C108.057 42.5924 108.047 42.5421 108.051 42.4919C108.055 42.4417 108.073 42.3937 108.103 42.3531C108.48 41.8131 108.82 41.2481 109.121 40.6621L109.164 40.5831C109.2 40.5229 109.258 40.479 109.325 40.4602C109.393 40.4415 109.465 40.4495 109.527 40.4825C109.589 40.5156 109.635 40.5711 109.657 40.6377C109.679 40.7043 109.675 40.7767 109.645 40.8401L109.601 40.9201C109.289 41.5285 108.935 42.1149 108.543 42.6751C108.517 42.7096 108.484 42.7377 108.446 42.757C108.407 42.7762 108.365 42.7862 108.322 42.7861" fill="black"/>
<path d="M122.876 51.776C122.756 50.979 122.81 51.094 123.205 50.066Z" fill="white"/>
<path d="M122.875 52.048C122.81 52.048 122.747 52.0246 122.697 51.9821C122.647 51.9395 122.615 51.8806 122.605 51.816C122.48 51.3507 122.537 50.8552 122.766 50.431C122.816 50.307 122.877 50.157 122.946 49.969C122.974 49.9039 123.025 49.8519 123.09 49.8241C123.155 49.7963 123.229 49.7948 123.295 49.82C123.361 49.8451 123.414 49.8949 123.445 49.9589C123.475 50.0229 123.479 50.0961 123.456 50.163C123.386 50.355 123.324 50.508 123.273 50.635C123.178 50.8004 123.118 50.9832 123.096 51.1725C123.075 51.3617 123.092 51.5535 123.146 51.736C123.156 51.8075 123.138 51.8801 123.095 51.938C123.052 51.9959 122.987 52.0344 122.916 52.045C122.902 52.046 122.889 52.046 122.875 52.045" fill="black"/>
<path d="M107.176 94.833L120.703 87.073L119.703 84.865L124.101 84.75L122.338 88.87L120.67 87.184" fill="white"/>
<path d="M107.179 95.2031C107.119 95.2028 107.06 95.1827 107.013 95.1459C106.965 95.1091 106.931 95.0577 106.916 94.9996C106.9 94.9415 106.904 94.8799 106.927 94.8243C106.95 94.7687 106.991 94.7223 107.043 94.6921L120.362 87.0491L119.464 85.0641C119.445 85.023 119.437 84.978 119.44 84.933C119.443 84.888 119.457 84.8444 119.481 84.8061C119.505 84.7679 119.538 84.7362 119.577 84.7141C119.617 84.6919 119.661 84.6799 119.706 84.6791L124.106 84.5641C124.152 84.5637 124.197 84.5745 124.237 84.5954C124.278 84.6163 124.313 84.6467 124.339 84.6841C124.365 84.7222 124.381 84.7661 124.385 84.8119C124.389 84.8577 124.382 84.9038 124.364 84.9461L122.6 89.0701C122.583 89.1112 122.555 89.1475 122.52 89.1756C122.486 89.2036 122.445 89.2227 122.401 89.2311C122.357 89.2395 122.312 89.237 122.269 89.2237C122.226 89.2105 122.187 89.1869 122.156 89.1551L120.576 87.5551L107.314 95.1641C107.273 95.1888 107.227 95.2022 107.179 95.2031V95.2031ZM123.694 85.1221L120.131 85.2151L120.961 87.0491C120.981 87.0942 120.989 87.1439 120.984 87.1931L122.257 88.4811L123.694 85.1221Z" fill="black"/>
<path d="M107.38 94.8221L105.961 94.3031L102.901 95.6651L105.14 96.1341L104.156 98.2661L107.156 96.3891L107.38 94.8221Z" fill="white"/>
<path d="M104.156 98.5402C104.089 98.5401 104.025 98.5155 103.975 98.4712C103.931 98.4319 103.901 98.3797 103.889 98.3221C103.877 98.2646 103.884 98.2047 103.908 98.1512L104.748 96.3302L102.848 95.9302C102.791 95.9181 102.74 95.8885 102.702 95.8456C102.663 95.8026 102.639 95.7486 102.633 95.6911C102.627 95.6336 102.639 95.5757 102.668 95.5256C102.696 95.4755 102.74 95.4358 102.793 95.4122L105.85 94.0542C105.885 94.0384 105.922 94.0302 105.96 94.0302C105.992 94.03 106.023 94.0354 106.053 94.0462L107.472 94.5652C107.532 94.5869 107.582 94.6287 107.614 94.6834C107.647 94.7381 107.659 94.8024 107.649 94.8652L107.428 96.4302C107.422 96.4696 107.408 96.5073 107.386 96.5406C107.365 96.5739 107.336 96.6021 107.302 96.6232L104.302 98.5002C104.258 98.5271 104.207 98.541 104.156 98.5402V98.5402ZM105.97 94.5992L103.785 95.5722L105.195 95.8722C105.235 95.8807 105.273 95.8982 105.305 95.9233C105.338 95.9484 105.364 95.9805 105.383 96.0172C105.401 96.0542 105.41 96.0949 105.41 96.1362C105.41 96.1774 105.401 96.2181 105.383 96.2552L104.783 97.5552L106.902 96.2302L107.077 95.0032L105.97 94.5992Z" fill="black"/>
<path d="M106.309 96.8941C106.255 96.8941 106.202 96.8781 106.157 96.848C106.112 96.8179 106.077 96.7751 106.057 96.7251C105.799 96.1462 105.501 95.5861 105.165 95.0491L105.077 94.9001C105.059 94.8692 105.047 94.8351 105.041 94.7995C105.036 94.764 105.038 94.7278 105.047 94.6931C105.056 94.6583 105.072 94.6256 105.093 94.5969C105.115 94.5681 105.142 94.5439 105.172 94.5256C105.203 94.5073 105.238 94.4952 105.273 94.4901C105.309 94.485 105.345 94.4869 105.38 94.4958C105.414 94.5046 105.447 94.5203 105.476 94.5418C105.504 94.5633 105.529 94.5902 105.547 94.6211L105.634 94.7681C105.985 95.3277 106.294 95.9119 106.561 96.5161C106.578 96.5576 106.585 96.6026 106.58 96.6473C106.576 96.6919 106.56 96.7348 106.535 96.7721C106.511 96.8094 106.477 96.84 106.437 96.8613C106.398 96.8826 106.354 96.8938 106.309 96.8941Z" fill="black"/>
<path d="M124.101 71.605L140.486 68.005Z" fill="white"/>
<path d="M124.161 71.8541C124.094 71.8534 124.029 71.8281 123.979 71.7829C123.929 71.7377 123.897 71.6758 123.89 71.6088C123.883 71.5419 123.9 71.4746 123.939 71.4197C123.979 71.3648 124.036 71.3262 124.102 71.3111L140.434 67.6461C140.469 67.638 140.505 67.637 140.541 67.6431C140.576 67.6492 140.61 67.6623 140.641 67.6817C140.671 67.7011 140.697 67.7263 140.718 67.7559C140.738 67.7855 140.753 67.8189 140.76 67.8541C140.776 67.925 140.763 67.9993 140.724 68.0608C140.685 68.1223 140.624 68.1659 140.553 68.1821L124.221 71.8471C124.201 71.8516 124.181 71.854 124.161 71.8541" fill="black"/>
<path d="M124.4 71.5371L123.108 70.5481L119.54 70.9741L121.693 72.1741L120.003 74.0481L123.673 73.0771L124.4 71.5371Z" fill="white"/>
<path d="M120.003 74.3231C119.956 74.3237 119.909 74.3118 119.867 74.2886C119.826 74.2654 119.791 74.2318 119.767 74.1911C119.737 74.1403 119.723 74.0813 119.729 74.0225C119.735 73.9637 119.759 73.9082 119.798 73.8641L121.26 72.2431L119.408 71.2141C119.357 71.1858 119.317 71.1423 119.293 71.0897C119.268 71.0372 119.261 70.9782 119.272 70.9213C119.283 70.8645 119.312 70.8125 119.354 70.773C119.397 70.7334 119.45 70.7082 119.508 70.7011L123.075 70.2731H123.108C123.167 70.2731 123.225 70.2928 123.272 70.3291L124.567 71.3181C124.617 71.3565 124.652 71.4107 124.667 71.4718C124.681 71.5329 124.675 71.5972 124.648 71.6541L123.92 73.1951C123.903 73.2311 123.878 73.263 123.848 73.2886C123.817 73.3142 123.781 73.3328 123.743 73.3431L120.073 74.3141C120.05 74.3202 120.027 74.3232 120.003 74.3231V74.3231ZM123.03 70.8331L120.414 71.1461L121.824 71.9301C121.86 71.9503 121.891 71.9783 121.915 72.0121C121.939 72.046 121.955 72.0847 121.962 72.1255C121.968 72.1663 121.966 72.2081 121.954 72.2479C121.943 72.2876 121.923 72.3242 121.895 72.3551L120.821 73.5481L123.481 72.8481L124.058 71.6241L123.03 70.8331Z" fill="black"/>
<path d="M122.734 73.317C122.666 73.3165 122.601 73.2908 122.55 73.2448C122.5 73.1987 122.469 73.1357 122.463 73.068C122.381 72.3892 122.252 71.717 122.077 71.056L122.035 70.876C122.018 70.8056 122.03 70.7314 122.067 70.6694C122.104 70.6074 122.165 70.5627 122.235 70.545C122.305 70.5284 122.379 70.54 122.441 70.5775C122.502 70.6149 122.546 70.6751 122.564 70.745L122.608 70.927C122.79 71.6132 122.923 72.3112 123.008 73.016C123.012 73.0519 123.008 73.0881 122.998 73.1226C122.987 73.1571 122.97 73.1892 122.947 73.217C122.924 73.2449 122.896 73.268 122.864 73.285C122.833 73.3019 122.798 73.3125 122.762 73.316H122.734" fill="black"/>
<path d="M16.314 65.7879C16.314 65.7879 5.514 63.5259 1.664 76.7519C-1.856 88.8409 8.157 91.9699 8.157 91.9699L9.126 89.7639C9.126 89.7639 3.59 86.8739 3.544 82.6469C3.498 78.4199 5.626 73.6059 7.53 70.7619C9.434 67.9179 16.043 67.7269 16.043 67.7269L16.314 65.7879Z" fill="black"/>
<path d="M7.695 90.2419C7.66757 90.2418 7.6403 90.2378 7.614 90.2299C7.54478 90.2087 7.48683 90.1609 7.45288 90.0969C7.41894 90.033 7.41179 89.9582 7.433 89.889L14.651 66.6629C14.6724 66.5935 14.7204 66.5353 14.7847 66.5013C14.8489 66.4672 14.924 66.4601 14.9935 66.4814C15.063 66.5028 15.1211 66.5509 15.1552 66.6151C15.1892 66.6793 15.1964 66.7545 15.175 66.8239L7.957 90.0499C7.93951 90.1057 7.90466 90.1544 7.85752 90.189C7.81038 90.2235 7.75344 90.2421 7.695 90.2419Z" fill="black"/>
<path d="M64.766 79.8041C64.766 79.8041 47.891 70.1211 48.351 66.7321C48.351 66.7321 42.314 106.093 37.542 105.843C35.923 105.756 28.558 103.643 23.417 102.011C13.385 98.8251 4.98099 97.1511 4.98099 97.1511C4.98099 97.1511 1.15999 107.759 1.25999 110.3C1.35999 112.841 3.80399 109.387 4.83099 107.167C5.85799 104.947 7.56999 104.182 9.34199 104.614C16.694 106.398 33.121 119.72 41.028 121.406C51.068 123.544 64.766 79.8061 64.766 79.8061" fill="white"/>
<path d="M41.752 121.762C41.4892 121.762 41.2271 121.735 40.97 121.68C36.825 120.797 30.394 116.769 24.17 112.875H24.165C18.305 109.205 12.771 105.739 9.27302 104.891C8.99032 104.821 8.70026 104.785 8.40902 104.784C7.66703 104.823 6.95361 105.083 6.36004 105.53C5.76647 105.977 5.31975 106.591 5.07702 107.293C4.67284 108.128 4.20793 108.933 3.68602 109.7C3.3912 110.145 3.05287 110.56 2.67602 110.938C2.42929 111.229 2.08451 111.419 1.70702 111.472C1.66946 111.472 1.63195 111.469 1.59502 111.462C1.22002 111.387 1.01602 111.001 0.986023 110.314C1.0347 109.266 1.20929 108.228 1.50602 107.222C1.80602 106.042 2.22302 104.584 2.75802 102.889C3.70402 99.896 4.68602 97.176 4.72402 97.062C4.74293 97.0092 4.77764 96.9635 4.82345 96.9311C4.86925 96.8987 4.92393 96.8813 4.98002 96.881C4.99851 96.8812 5.01694 96.8832 5.03502 96.887C5.05602 96.887 7.21502 97.325 10.575 98.144C13.637 98.891 18.365 100.123 23.5 101.755C29.1 103.53 36.073 105.495 37.557 105.575H37.594C38.642 105.575 39.905 103.246 41.346 98.654C42.035 96.459 43.135 92.54 44.469 86.33C46.549 76.638 48.066 66.792 48.081 66.694C48.0906 66.6294 48.1232 66.5703 48.1728 66.5277C48.2224 66.4851 48.2857 66.4618 48.351 66.462H48.386C48.4573 66.4725 48.5216 66.5105 48.565 66.568C48.6084 66.6254 48.6275 66.6976 48.618 66.769C48.298 69.122 58.178 75.712 64.898 79.569C64.9519 79.6002 64.9936 79.6487 65.0163 79.7067C65.039 79.7646 65.0414 79.8286 65.023 79.888V79.888C64.879 80.343 61.455 91.151 56.91 101.514C55.444 104.856 54.01 107.828 52.641 110.346C51.475 112.548 50.1533 114.665 48.686 116.679C47.6635 118.116 46.4397 119.398 45.052 120.486C44.5322 120.877 43.9634 121.197 43.36 121.44C42.8485 121.646 42.3033 121.755 41.752 121.762ZM8.38602 104.225C8.72854 104.227 9.06962 104.269 9.40202 104.352C12.986 105.222 18.557 108.711 24.456 112.405C30.637 116.276 37.029 120.279 41.081 121.143C41.299 121.189 41.5212 121.212 41.744 121.212C43.677 121.212 45.91 119.512 48.381 116.158C51.5684 111.502 54.2582 106.523 56.406 101.305C58.206 97.205 60.031 92.58 61.834 87.559C63.241 83.64 64.181 80.734 64.434 79.936C63.434 79.36 59.914 77.296 56.44 74.936C54.484 73.606 52.84 72.383 51.552 71.302C50.3376 70.3713 49.2823 69.2497 48.427 67.981C47.947 70.97 46.65 78.753 44.999 86.446C43.259 94.546 41.629 100.238 40.153 103.351C39.7906 104.222 39.2709 105.018 38.62 105.701C38.3682 105.965 38.0218 106.118 37.657 106.127C37.608 106.127 37.563 106.127 37.524 106.127C35.824 106.036 28.198 103.827 23.33 102.283C14.353 99.431 6.61402 97.783 5.15402 97.478C4.89002 98.221 3.96202 100.86 3.10402 103.619C2.62702 105.162 2.25002 106.487 1.98602 107.553C1.72747 108.445 1.57574 109.365 1.53402 110.293C1.55402 110.785 1.66402 110.917 1.70202 110.925C1.71233 110.926 1.72272 110.926 1.73302 110.925C1.96002 110.925 2.42702 110.483 2.98402 109.742C3.6065 108.901 4.14255 108 4.58402 107.052C4.86416 106.256 5.3757 105.561 6.05308 105.058C6.73046 104.554 7.54281 104.264 8.38602 104.225V104.225Z" fill="black"/>
<path d="M68.357 76.2511C68.357 76.2511 57.446 72.5241 54.7 76.8511C52.041 81.0511 57.56 93.322 56.241 92.278C56.241 92.278 76.782 110.221 74.141 114.205C71.224 118.071 67.9746 121.674 64.43 124.973C56.587 132 50.87 138.389 50.87 138.389C50.87 138.389 58.058 147.069 60.302 148.277C62.546 149.485 60.807 145.621 59.418 143.611C58.029 141.601 58.239 139.733 59.513 138.426C64.79 132.999 84.603 125.626 90.073 119.669C97.018 112.108 68.357 76.2511 68.357 76.2511Z" fill="white"/>
<path d="M60.997 148.779C60.7068 148.759 60.4257 148.67 60.177 148.519C59.2987 147.945 58.4929 147.266 57.777 146.499C56.911 145.644 55.87 144.54 54.682 143.218C52.651 140.961 50.857 138.802 50.659 138.563C50.6175 138.512 50.5954 138.449 50.5967 138.383C50.598 138.318 50.6225 138.255 50.666 138.206C50.726 138.139 52.166 136.541 54.566 134.072C56.766 131.813 60.231 128.366 64.245 124.772C67.7721 121.488 71.0064 117.902 73.911 114.056C75.971 110.948 61.725 97.43 56.061 92.479C56.0069 92.4322 55.9734 92.366 55.9678 92.2947C55.9622 92.2233 55.9849 92.1527 56.031 92.098C56.0657 92.0563 56.112 92.0257 56.164 92.01C56.103 91.582 55.822 90.61 55.551 89.666V89.651C54.462 85.887 52.647 79.579 54.469 76.705C55.406 75.228 57.303 74.479 60.107 74.479C61.072 74.4856 62.0354 74.5601 62.99 74.702C63.826 74.822 64.708 74.989 65.611 75.202C67.189 75.57 68.322 75.952 68.446 75.994C68.4952 76.0108 68.5386 76.0414 68.571 76.082C69.747 77.551 97.297 112.208 90.274 119.854C87.406 122.978 80.667 126.472 74.15 129.854H74.144C68.012 133.033 62.221 136.035 59.712 138.616C58.446 139.916 58.422 141.679 59.647 143.455C60.201 144.255 62.266 147.687 61.471 148.577C61.4116 148.643 61.3384 148.696 61.2565 148.731C61.1746 148.766 61.086 148.782 60.997 148.779V148.779ZM60.062 75.032C57.484 75.032 55.762 75.693 54.931 76.998C53.24 79.668 55.083 86.067 56.073 89.505C56.4302 90.4075 56.6457 91.3597 56.712 92.328C57.946 93.421 62.291 97.318 66.379 101.558C72.948 108.372 75.561 112.558 74.368 114.358C71.4356 118.241 68.1706 121.862 64.61 125.179C57.603 131.456 52.236 137.291 51.232 138.397C51.74 139.005 53.549 141.156 55.476 143.284C56.565 144.484 57.515 145.484 58.3 146.254C58.9375 146.931 59.6531 147.529 60.432 148.037C60.598 148.146 60.787 148.214 60.984 148.237C61.039 148.237 61.056 148.223 61.06 148.219C61.351 147.894 60.482 145.635 59.194 143.772C57.807 141.761 57.852 139.745 59.318 138.241C61.889 135.597 67.718 132.574 73.892 129.374C80.367 126.017 87.062 122.547 89.865 119.493C92.612 116.502 89.748 108.13 81.582 95.28C75.671 85.958 68.942 77.427 68.197 76.485C67.885 76.385 66.75 76.024 65.237 75.685C63.5409 75.2813 61.8062 75.0623 60.063 75.032H60.062Z" fill="black"/>
<path d="M54.959 40.1939C55.925 41.8579 53.874 44.4339 54.844 47.4259C55.28 48.7749 58.452 51.1839 59.126 52.5109C60.474 55.1769 59.932 56.3109 60.042 57.2429C59.3437 56.5698 58.5811 55.967 57.765 55.4429C56.923 55.3829 56.45 58.9489 55.69 58.6429C54.737 58.2569 52.378 58.2059 51.416 57.8839C50.253 57.4959 50.204 52.6539 49.098 52.1339C48.639 51.9199 46.44 54.0739 46.512 53.5649C46.82 51.4799 49.931 49.2519 51.501 46.5649C53.071 43.8779 53.048 39.2459 53.048 39.2459C53.048 39.2459 53.993 38.5319 54.959 40.1969" fill="white"/>
<path d="M55.785 58.9341C55.7164 58.9344 55.6484 58.9211 55.585 58.8951C54.8568 58.6824 54.1084 58.5464 53.352 58.4891H53.348C52.6667 58.4315 51.9916 58.3157 51.33 58.1431C50.59 57.8961 50.294 56.5701 49.951 55.0351C49.707 53.9411 49.403 52.5801 48.983 52.3821C48.5173 52.622 48.0793 52.9125 47.677 53.2481C47.083 53.6931 46.786 53.9171 46.56 53.9171C46.5014 53.9171 46.4439 53.9008 46.394 53.8701C46.3354 53.8352 46.289 53.783 46.2612 53.7207C46.2335 53.6584 46.2257 53.589 46.239 53.5221C46.429 52.2351 47.586 50.9351 48.811 49.5591C49.7296 48.5964 50.5522 47.5464 51.267 46.4241C52.76 43.8711 52.776 39.4331 52.775 39.2451C52.7748 39.2025 52.7844 39.1605 52.8031 39.1224C52.8219 39.0842 52.8492 39.0509 52.883 39.0251C53.0816 38.8878 53.3176 38.8152 53.559 38.8171C53.6433 38.8171 53.7274 38.8254 53.81 38.8421C54.1138 38.9347 54.3945 39.0909 54.6334 39.3002C54.8723 39.5095 55.0641 39.7671 55.196 40.0561C55.709 40.9391 55.477 41.9801 55.208 43.1861C54.7899 44.5346 54.7553 45.9729 55.108 47.3401C55.6915 48.3505 56.441 49.2555 57.325 50.0171C58.1053 50.7152 58.7926 51.5107 59.37 52.3841C60.091 53.6323 60.4203 55.0684 60.315 56.5061C60.296 56.739 60.296 56.9731 60.315 57.2061C60.319 57.2445 60.315 57.2833 60.3033 57.3201C60.2915 57.3569 60.2722 57.3908 60.2466 57.4198C60.2211 57.4487 60.1898 57.4721 60.1547 57.4883C60.1197 57.5045 60.0816 57.5133 60.043 57.5141C59.9434 57.5018 59.852 57.4525 59.787 57.3761C59.1728 56.7379 58.4799 56.1804 57.725 55.7171V55.7171C57.525 55.7171 57.13 56.7751 56.96 57.2271C56.66 58.0271 56.4 58.7131 55.998 58.8881C55.9311 58.9183 55.8585 58.934 55.785 58.9341ZM49.024 51.8441C49.0903 51.8431 49.1559 51.8571 49.216 51.8851C49.878 52.1971 50.159 53.4551 50.485 54.9121C50.739 56.0531 51.056 57.4721 51.504 57.6221C52.1327 57.7805 52.7731 57.8882 53.419 57.9441C54.2244 58.0045 55.0208 58.1528 55.794 58.3861C56.0878 57.975 56.3084 57.5162 56.446 57.0301L56.462 56.9871C56.83 56.0111 57.148 55.1691 57.735 55.1691H57.786C57.912 55.1781 58.146 55.1941 59.762 56.6221C59.762 56.5821 59.762 56.5411 59.768 56.5001V56.4781C59.8657 55.1358 59.557 53.7953 58.882 52.6311C58.3257 51.8146 57.6733 51.068 56.939 50.4071V50.4071C55.9796 49.5964 55.181 48.6127 54.585 47.5071C54.1983 46.0489 54.2291 44.5115 54.674 43.0701V43.0701C55.0146 42.1924 55.0319 41.2223 54.723 40.3331C54.6258 40.1158 54.4865 39.92 54.3131 39.7569C54.1398 39.5938 53.9358 39.4668 53.713 39.3831C53.6635 39.3714 53.6129 39.365 53.562 39.3641C53.48 39.3642 53.3987 39.3791 53.322 39.4081C53.3037 40.4289 53.2182 41.4474 53.066 42.4571C52.8887 43.941 52.4388 45.3795 51.739 46.7001C51.0082 47.8517 50.1665 48.9292 49.226 49.9171C48.2696 50.8474 47.4828 51.9374 46.901 53.1381C47.04 53.0381 47.191 52.9261 47.347 52.8091C48.125 52.2261 48.662 51.8441 49.024 51.8441Z" fill="black"/>
<path d="M52.983 30.8291C54.4287 33.7924 55.6155 36.8752 56.53 40.0431C56.6585 40.7467 56.5244 41.4731 56.1532 42.0846C55.7821 42.6961 55.1996 43.1502 54.516 43.3611C53.8361 43.639 53.0744 43.6397 52.3939 43.3631C51.7134 43.0865 51.1682 42.5546 50.875 41.8811C49.8027 39.5 48.8978 37.0471 48.167 34.5401C48.0539 33.9916 48.0878 33.423 48.2654 32.8919C48.4429 32.3609 48.7578 31.8862 49.178 31.5161C50.238 30.7911 52.43 29.6711 52.983 30.8291Z" fill="white"/>
<path d="M53.417 43.827C52.8622 43.8317 52.3166 43.6851 51.839 43.403C51.2985 43.0686 50.8745 42.5755 50.625 41.991C49.5407 39.5852 48.6281 37.1056 47.894 34.571C47.827 34.028 47.711 32.185 49.022 31.287C49.4081 31.0262 49.8117 30.7923 50.23 30.587C50.798 30.2756 51.4275 30.093 52.074 30.052C52.218 30.0506 52.3615 30.068 52.501 30.104C52.6594 30.1436 52.807 30.218 52.9331 30.3218C53.0592 30.4255 53.1606 30.5561 53.23 30.704C54.6855 33.6888 55.879 36.7945 56.797 39.986C56.9404 40.7538 56.7968 41.5475 56.3934 42.2163C55.99 42.8852 55.355 43.3826 54.609 43.614C54.2271 43.7538 53.8237 43.8259 53.417 43.827V43.827ZM52.077 30.599C51.615 30.6297 51.1634 30.7495 50.747 30.952C50.2519 31.1708 49.7779 31.4345 49.331 31.74C48.274 32.462 48.379 34.038 48.437 34.504C49.1641 36.9832 50.0616 39.4093 51.123 41.765C51.311 42.2195 51.6316 42.6069 52.0429 42.8768C52.4541 43.1466 52.9371 43.2864 53.429 43.278C53.7674 43.2771 54.1031 43.2172 54.421 43.101C55.0392 42.9066 55.566 42.4947 55.9038 41.9416C56.2416 41.3885 56.3674 40.7317 56.258 40.093C55.35 36.9471 54.1716 33.8857 52.736 30.943C52.7013 30.8655 52.6491 30.7972 52.5835 30.7434C52.5179 30.6896 52.4407 30.6518 52.358 30.633C52.2662 30.6092 52.1717 30.5978 52.077 30.599Z" fill="black"/>
<path d="M53.463 38.2149C53.3938 38.2131 53.3278 38.1851 53.2784 38.1367C53.2289 38.0882 53.1997 38.0228 53.1965 37.9536C53.1934 37.8844 53.2165 37.8166 53.2613 37.7638C53.3061 37.711 53.3692 37.6771 53.438 37.6689C53.5252 37.6655 53.6112 37.6469 53.692 37.6139C53.4937 37.3198 53.2207 37.0838 52.901 36.9299C52.8347 36.9006 52.7827 36.8462 52.7566 36.7786C52.7304 36.711 52.7322 36.6358 52.7615 36.5694C52.7908 36.5031 52.8452 36.4512 52.9128 36.425C52.9805 36.3989 53.0557 36.4006 53.122 36.4299C53.284 36.5059 54.338 37.1159 54.238 37.7219C54.206 37.9219 54.049 38.1629 53.487 38.2139L53.463 38.2149Z" fill="black"/>
<path d="M50.418 39.855C49.678 40.432 48.898 39.285 49.526 38.742C49.6012 38.6787 49.6905 38.6345 49.7864 38.6129C49.8823 38.5913 49.9819 38.5931 50.077 38.618" fill="white"/>
<path d="M49.993 40.283C49.8541 40.2806 49.7176 40.247 49.5935 40.1847C49.4693 40.1224 49.3608 40.0329 49.276 39.923C49.1015 39.729 49.011 39.4739 49.0244 39.2133C49.0377 38.9528 49.1537 38.7082 49.347 38.533C49.4559 38.4407 49.5855 38.376 49.7248 38.3443C49.864 38.3126 50.0088 38.3149 50.147 38.351C50.1818 38.3598 50.2145 38.3754 50.2433 38.3968C50.2721 38.4183 50.2963 38.4452 50.3147 38.476C50.3331 38.5068 50.3453 38.541 50.3504 38.5765C50.3556 38.612 50.3538 38.6482 50.345 38.683C50.3362 38.7178 50.3206 38.7505 50.2992 38.7793C50.2777 38.8081 50.2508 38.8324 50.22 38.8508C50.1892 38.8691 50.155 38.8813 50.1195 38.8865C50.084 38.8917 50.0478 38.8898 50.013 38.881C49.9615 38.8676 49.9076 38.8663 49.8556 38.8772C49.8035 38.8882 49.7547 38.911 49.713 38.944C49.6286 39.027 49.5804 39.14 49.5789 39.2584C49.5774 39.3767 49.6227 39.4909 49.705 39.576C49.7347 39.6196 49.7735 39.6563 49.8188 39.6834C49.8641 39.7106 49.9147 39.7276 49.9671 39.7333C50.0196 39.739 50.0727 39.7333 50.1227 39.7165C50.1728 39.6997 50.2186 39.6722 50.257 39.636C50.3141 39.5914 50.3866 39.5714 50.4586 39.5803C50.4942 39.5847 50.5286 39.5961 50.5598 39.6138C50.591 39.6315 50.6184 39.6552 50.6405 39.6835C50.6625 39.7118 50.6788 39.7442 50.6884 39.7788C50.6979 39.8133 50.7006 39.8495 50.6962 39.8851C50.6917 39.9207 50.6804 39.9551 50.6627 39.9863C50.645 40.0175 50.6213 40.0449 50.593 40.067C50.4234 40.2051 50.2117 40.2813 49.993 40.283Z" fill="black"/>
<path d="M66.923 56.467L67.286 56.363Z" fill="#090603"/>
<path d="M51.972 36.616C51.9626 36.5861 51.9473 36.5584 51.9271 36.5344C51.9069 36.5105 51.8821 36.4908 51.8541 36.4766C51.8262 36.4623 51.7957 36.4538 51.7644 36.4515C51.7332 36.4491 51.7018 36.4531 51.672 36.463C51.6162 36.4896 51.5731 36.5373 51.5523 36.5956C51.5315 36.6539 51.5346 36.718 51.561 36.774C51.5701 36.8032 51.5849 36.8304 51.6045 36.8539C51.6242 36.8774 51.6482 36.8968 51.6753 36.911C51.7024 36.9252 51.7321 36.9339 51.7626 36.9367C51.7931 36.9394 51.8238 36.9361 51.853 36.927C51.91 36.9014 51.9544 36.8543 51.9767 36.7961C51.999 36.7378 51.9973 36.673 51.972 36.616" fill="black"/>
<path d="M54.002 35.715C53.9926 35.6851 53.9773 35.6574 53.9571 35.6334C53.9368 35.6095 53.912 35.5898 53.8841 35.5756C53.8562 35.5613 53.8257 35.5528 53.7944 35.5505C53.7632 35.5481 53.7317 35.5521 53.702 35.562C53.6469 35.5894 53.6045 35.6371 53.5838 35.6951C53.5631 35.7531 53.5657 35.8169 53.591 35.873C53.6004 35.9029 53.6157 35.9306 53.6359 35.9546C53.6562 35.9785 53.681 35.9982 53.7089 36.0124C53.7368 36.0267 53.7673 36.0352 53.7986 36.0375C53.8299 36.0399 53.8613 36.0359 53.891 36.026C53.9461 35.9986 53.9885 35.9509 54.0092 35.8929C54.0299 35.8349 54.0273 35.7711 54.002 35.715" fill="black"/>
<path d="M52.794 48.367C55.769 48.734 65.115 50.581 67.375 57.553C68.444 60.847 65.604 61.341 65.604 61.341C65.604 61.341 74.526 80.341 73.643 83.68C73.606 83.816 42.664 83.78 42.664 83.78C42.664 83.78 41.262 52.967 50.16 48.668C50.9918 48.3205 51.9053 48.2165 52.794 48.368" fill="#FFD2E1"/>
<path d="M66.923 56.467L67.286 56.363Z" fill="#090603"/>
<path d="M32.672 34.908C32.972 31.766 30.014 25.715 27.762 23.189C27.918 24.002 27.918 24.002 28.07 24.815C25.929 22.984 23.572 20.818 23.159 21.082C22.746 21.346 25.029 22.936 26.272 24.72C24.096 23.313 22.139 21.71 21.917 21.905C21.412 22.347 23.709 23.76 25.501 25.621C23.13 24.088 21.239 22.719 21.12 22.947C20.82 23.523 22.809 24.469 24.946 26.456C23.491 25.525 20.656 23.62 20.472 24.169C20.36 24.512 23.664 26.844 26.13 28.66C26.87 29.204 28.312 31.696 29.562 36.418C30.812 41.14 32.385 38.05 32.677 34.908" fill="white"/>
<path d="M30.996 39.1179C30.32 39.1179 29.764 38.2579 29.296 36.4879C28.054 31.7869 26.625 29.3629 25.968 28.8799C25.568 28.5799 25.146 28.2799 24.738 27.9799C20.487 24.8749 20.086 24.4689 20.216 24.0819C20.2354 24.0227 20.2683 23.9687 20.3123 23.9244C20.3562 23.8802 20.4099 23.8468 20.469 23.8269C20.5244 23.8082 20.5825 23.7991 20.641 23.7999C20.9774 23.8356 21.3028 23.9401 21.597 24.1069C20.98 23.6069 20.665 23.2339 20.877 22.8199C20.9233 22.7427 20.9962 22.6851 21.082 22.6579C21.1111 22.6505 21.141 22.6468 21.171 22.6469C21.39 22.6469 21.732 22.8249 22.635 23.4069C21.935 22.7909 21.575 22.4129 21.572 22.0599C21.5718 21.9913 21.5865 21.9235 21.6152 21.8611C21.6438 21.7988 21.6857 21.7434 21.738 21.6989C21.7983 21.643 21.8777 21.6122 21.96 21.6129C22.272 21.6129 22.813 21.9869 24.116 22.9129L24.743 23.3559C24.489 23.0969 24.243 22.8559 23.973 22.5969C23.144 21.7869 22.809 21.4489 22.839 21.1309C22.8441 21.0745 22.8621 21.02 22.8915 20.9717C22.921 20.9233 22.9612 20.8823 23.009 20.8519C23.0776 20.808 23.1576 20.7854 23.239 20.7869C23.7063 20.8842 24.1371 21.1101 24.483 21.4389C25.114 21.9109 26.019 22.6789 27.183 23.6869L27.659 24.0989C27.619 23.8869 27.581 23.6869 27.504 23.2889L27.496 23.2409C27.484 23.1817 27.4919 23.1202 27.5185 23.0659C27.5451 23.0117 27.5888 22.9677 27.643 22.9409C27.6805 22.922 27.722 22.9121 27.764 22.9119C27.8018 22.9125 27.8391 22.9209 27.8735 22.9366C27.9079 22.9523 27.9387 22.9748 27.964 23.0029C30.185 25.4949 33.257 31.6029 32.947 34.9299C32.765 36.8829 32.099 39.0299 31.065 39.1119L30.996 39.1179ZM21.002 24.4319C21.702 25.0839 23.555 26.4379 25.044 27.5259L25.06 27.5379C25.526 27.8779 25.913 28.1609 26.293 28.4379C27.184 29.0929 28.622 31.7919 29.827 36.3459C30.374 38.4079 30.872 38.5679 31.011 38.5679H31.023C31.518 38.5269 32.214 36.9409 32.406 34.8809C32.4528 34.0488 32.366 33.2146 32.149 32.4099C31.9016 31.4193 31.5766 30.4496 31.177 29.5099C30.4004 27.6377 29.4137 25.8596 28.236 24.2099L28.262 24.3469L28.34 24.7619C28.3502 24.8175 28.3429 24.8749 28.3193 24.9263C28.2957 24.9776 28.2568 25.0205 28.208 25.0489C28.1667 25.0731 28.1198 25.0858 28.072 25.0859C28.0076 25.0859 27.9454 25.0632 27.896 25.0219C27.56 24.7349 27.216 24.4359 26.882 24.1469L26.828 24.0999L26.822 24.0949C25.8259 23.1959 24.7853 22.3475 23.704 21.5529C23.89 21.7529 24.128 21.9799 24.355 22.1989C25.1405 22.9188 25.8573 23.7102 26.496 24.5629C26.5325 24.6148 26.5498 24.6778 26.5449 24.741C26.54 24.8042 26.5133 24.8638 26.4693 24.9094C26.4253 24.9551 26.3667 24.984 26.3037 24.9912C26.2407 24.9984 26.1772 24.9835 26.124 24.9489C25.276 24.4009 24.457 23.8209 23.799 23.3549C23.268 22.9789 22.665 22.5549 22.291 22.3259C22.6982 22.7416 23.1289 23.1336 23.581 23.4999L23.588 23.5059C24.251 24.0709 25.003 24.7059 25.697 25.4299C25.7451 25.4778 25.7737 25.542 25.7771 25.6098C25.7805 25.6776 25.7585 25.7443 25.7154 25.7968C25.6723 25.8492 25.6112 25.8838 25.544 25.8936C25.4768 25.9034 25.4083 25.8879 25.352 25.8499C24.726 25.4449 24.126 25.0469 23.596 24.6949L23.554 24.6669C22.89 24.2259 22.138 23.7259 21.659 23.4419C21.939 23.6949 22.372 24.0199 22.72 24.2819C23.5585 24.8962 24.3637 25.5548 25.132 26.2549C25.1893 26.2995 25.2265 26.365 25.2355 26.437C25.2445 26.509 25.2246 26.5817 25.18 26.6389C25.1354 26.6962 25.07 26.7335 24.9979 26.7425C24.9259 26.7515 24.8533 26.7315 24.796 26.6869L24.315 26.3779C23.2551 25.6564 22.1483 25.0063 21.002 24.4319V24.4319Z" fill="black"/>
<path d="M74.851 28.842C73.651 25.928 74.703 19.271 76.117 16.196L76.298 17.842C77.81 15.463 79.434 12.699 79.898 12.828C80.362 12.957 78.653 15.154 77.987 17.228C79.66 15.239 81.061 13.134 81.328 13.254C81.94 13.529 80.161 15.554 78.99 17.854C80.81 15.698 82.216 13.834 82.397 14.017C82.849 14.481 81.226 15.968 79.767 18.494C80.884 17.178 83.038 14.528 83.371 14.997C83.581 15.291 81.107 18.489 79.282 20.949C78.731 21.686 78.082 24.491 78.271 29.373C78.46 34.255 76.047 31.761 74.851 28.842Z" fill="white"/>
<path d="M77.454 32.41C76.862 32.41 76.254 31.761 75.854 31.217C75.3468 30.5125 74.9251 29.7501 74.598 28.946C73.326 25.853 74.474 19.114 75.868 16.081C75.8897 16.0337 75.9245 15.9936 75.9683 15.9654C76.012 15.9373 76.0629 15.9222 76.115 15.922C76.13 15.9207 76.145 15.9207 76.16 15.922C76.219 15.9316 76.2732 15.9603 76.3143 16.0037C76.3555 16.047 76.3814 16.1026 76.388 16.162L76.488 17.031L76.701 16.691V16.683L76.819 16.495C77.728 15.053 78.386 14.026 78.857 13.404C79.314 12.804 79.605 12.553 79.857 12.553C79.8949 12.5533 79.9327 12.559 79.969 12.57C80.0244 12.5842 80.0757 12.6111 80.119 12.6486C80.1622 12.6861 80.1961 12.7331 80.218 12.786C80.341 13.081 80.118 13.503 79.562 14.515C79.403 14.803 79.222 15.13 79.044 15.475L79.426 14.981L79.526 14.848C80.631 13.422 80.994 12.971 81.294 12.971C81.3449 12.9716 81.395 12.9832 81.441 13.005C81.504 13.0327 81.5601 13.0739 81.6054 13.1258C81.6507 13.1776 81.684 13.2388 81.703 13.305C81.7461 13.5161 81.7158 13.7355 81.617 13.927C81.4644 14.2672 81.2852 14.5949 81.081 14.907C81.848 13.994 82.121 13.741 82.348 13.731H82.361C82.4461 13.7355 82.5271 13.7686 82.591 13.825C82.916 14.159 82.723 14.607 82.28 15.267C82.714 14.867 83.035 14.667 83.262 14.667H83.276C83.3385 14.6687 83.3998 14.6851 83.4548 14.7148C83.5099 14.7445 83.5572 14.7867 83.593 14.838C83.829 15.169 83.564 15.674 80.411 19.89C80.129 20.267 79.803 20.703 79.501 21.111C79.013 21.764 78.355 24.5 78.543 29.361C78.615 31.25 78.313 32.241 77.62 32.391C77.5655 32.4032 77.5098 32.4095 77.454 32.41V32.41ZM75.964 17.31C75.321 19.2342 74.899 21.2254 74.706 23.245C74.599 24.2593 74.5719 25.2804 74.625 26.299C74.6531 27.1323 74.8145 27.9557 75.103 28.738C75.4241 29.5413 75.849 30.2991 76.367 30.992C76.797 31.546 77.191 31.864 77.448 31.864C77.4668 31.8639 77.4856 31.8619 77.504 31.858C77.604 31.837 78.081 31.619 77.997 29.383C77.815 24.672 78.397 21.67 79.062 20.783C79.298 20.465 79.54 20.141 79.796 19.798L79.972 19.563C81.022 18.163 82.46 16.237 82.941 15.403C82.0156 16.2867 81.1494 17.2304 80.348 18.228L80.341 18.236L79.974 18.671C79.9318 18.73 79.8679 18.7698 79.7964 18.7817C79.7248 18.7936 79.6515 18.7766 79.5925 18.7345C79.5335 18.6923 79.4936 18.6284 79.4817 18.5569C79.4698 18.4853 79.4868 18.412 79.529 18.353C80.0575 17.4615 80.6333 16.5989 81.254 15.769L81.26 15.76C81.514 15.411 81.83 14.976 82.022 14.653C81.648 15.063 81.084 15.753 80.584 16.362L80.567 16.383C80.156 16.883 79.69 17.451 79.198 18.035C79.1552 18.0875 79.0944 18.1222 79.0274 18.1324C78.9605 18.1426 78.8921 18.1275 78.8356 18.0901C78.7792 18.0527 78.7386 17.9957 78.7219 17.93C78.7051 17.8644 78.7134 17.7949 78.745 17.735C79.198 16.845 79.728 16.014 80.196 15.282L80.204 15.27C80.5283 14.7873 80.8248 14.2865 81.092 13.77C80.801 14.096 80.355 14.67 79.961 15.184C79.437 15.863 78.843 16.631 78.195 17.4C78.1697 17.431 78.1378 17.4561 78.1017 17.4733C78.0655 17.4906 78.026 17.4997 77.986 17.5C77.9398 17.4999 77.8945 17.4882 77.854 17.466C77.7985 17.4354 77.7553 17.3864 77.732 17.3275C77.7086 17.2685 77.7065 17.2033 77.726 17.143C78.0864 16.1394 78.5401 15.1719 79.081 14.253V14.253C79.24 13.965 79.392 13.687 79.511 13.453C78.953 14.125 78.031 15.597 77.29 16.779L77.281 16.793C77.047 17.166 76.781 17.593 76.526 17.993C76.5014 18.032 76.4673 18.0641 76.4269 18.0863C76.3865 18.1085 76.3411 18.1201 76.295 18.12C76.2278 18.1199 76.1631 18.0951 76.1131 18.0502C76.0631 18.0054 76.0314 17.9437 76.024 17.877L75.962 17.316L75.964 17.31Z" fill="black"/>
<path d="M51.445 50.885C47.865 48.265 45.063 48.885 41.688 46.432C37.337 43.267 33.165 32.823 33.165 32.823C33.165 32.823 26.742 33.817 28.55 36.823C29.335 38.123 30.429 47.573 34.456 51.923C40.506 58.469 45.544 59.947 47.595 59.984C52.338 60.07 54.282 52.956 51.446 50.884" fill="#FFD2E1"/>
<path d="M57.598 51.17C60.257 47.615 69.471 44.244 69.471 44.244L73.712 27.187L79.498 26.938C79.498 26.938 80.636 38.904 77.628 45.073C73.658 53.214 64.855 57.281 63.006 57.884C58.498 59.356 55.493 53.984 57.598 51.17" fill="#FFD2E1"/>
<path d="M4.434 96.23L5.869 96.678L3.275 105.867C3.275 105.867 4.915 106.723 5.128 107.607C5.341 108.491 4.142 109.407 4.142 109.407L2.507 108.125C2.1982 109.301 1.76405 110.441 1.212 111.525C1.14854 111.625 1.06192 111.709 0.959412 111.769C0.8569 111.83 0.741473 111.864 0.622794 111.871C0.504116 111.877 0.385639 111.855 0.277283 111.806C0.168928 111.757 0.0738466 111.683 0 111.59L4.434 96.23Z" fill="black"/>
<path d="M49.765 138.368L50.879 137.361L57.471 144.261C57.471 144.261 59.037 143.287 59.912 143.549C60.787 143.811 60.96 145.321 60.96 145.321L59.02 146.073C59.877 146.939 60.639 147.895 61.293 148.923C61.3467 149.029 61.3742 149.146 61.3734 149.265C61.3727 149.384 61.3435 149.501 61.2885 149.606C61.2334 149.712 61.154 149.802 61.0569 149.871C60.9598 149.939 60.8477 149.983 60.73 150L49.765 138.368Z" fill="black"/>
<path d="M56.501 48.77L56.197 46.726L50.916 46.641L49.564 48.379C50.7558 48.6335 51.9601 48.8251 53.172 48.953C54.285 49.0136 55.4014 48.9522 56.501 48.77" fill="black"/>
<path d="M55.531 28.027C60.335 32.875 51.565 32.955 50.176 34.169C49.35 34.891 49.776 38.327 47.899 37.451C46.263 36.687 45.992 33.019 46.781 31.674C48.133 29.374 53.624 26.104 55.531 28.027" fill="black"/>
<path d="M35.331 105.185L38.06 108.138L48.088 118.997L59.948 96.136L73.593 111.464L91.643 108.298L73.498 78.349L43.546 79.365L35.331 105.185Z" fill="#00B2B2"/>
<path d="M50.155 31.182C50.311 30.11 47.529 30.263 46.65 30.212C45.1736 30.0326 43.6756 30.2085 42.281 30.7251C40.8863 31.2417 39.6352 32.0841 38.632 33.182C35.726 36.014 37.457 40.845 35.414 44.134C33.536 47.162 30.277 46.823 27.799 48.806C25.78 50.416 24.132 54.099 23.664 56.591C22.702 61.686 27.7 65.991 32.52 65.601C35.857 65.329 38.742 63.253 40.994 60.913C44.794 56.961 43.312 52.55 42.823 47.784C42.3863 44.565 42.4904 41.2957 43.131 38.111C43.3178 37.147 43.7282 36.2404 44.3291 35.4639C44.93 34.6874 45.7047 34.0627 46.591 33.64C48.404 32.821 49.844 33.29 50.155 31.182Z" fill="black"/>
<path d="M24.433 58.991C24.388 58.9909 24.3436 58.9795 24.304 58.958C23.5703 58.4984 22.9452 57.8847 22.4723 57.1595C21.9993 56.4342 21.6898 55.6148 21.565 54.758C21.507 54.478 21.42 54.158 21.327 53.814C20.9477 52.7875 20.8228 51.6844 20.963 50.599C21.682 47.854 24.146 46.035 28.494 45.038C29.919 44.71 31.594 44.047 32.002 43.168C32.5297 41.8562 32.8665 40.4755 33.002 39.068C33.365 36.62 33.74 34.088 35.807 32.383C36.69 31.652 39.65 30.191 40.85 30.545C41.4737 30.7599 42.0436 31.1068 42.521 31.562C43.1907 32.198 44.016 32.6464 44.914 32.862C44.9491 32.8698 44.9823 32.8845 45.0117 32.9051C45.0411 32.9258 45.0661 32.952 45.0854 32.9823C45.1047 33.0126 45.1178 33.0464 45.124 33.0818C45.1302 33.1172 45.1293 33.1535 45.1215 33.1885C45.1137 33.2236 45.0991 33.2568 45.0784 33.2862C45.0578 33.3156 45.0316 33.3406 45.0012 33.3599C44.9709 33.3792 44.9371 33.3923 44.9017 33.3985C44.8663 33.4047 44.8301 33.4038 44.795 33.396C43.8126 33.162 42.9087 32.6749 42.173 31.983C41.7518 31.5769 41.2485 31.2655 40.697 31.07C39.767 30.799 37.01 32.098 36.151 32.803C34.251 34.374 33.887 36.803 33.539 39.146C33.396 40.6067 33.0451 42.0395 32.497 43.401C31.89 44.694 29.581 45.35 28.617 45.572C24.485 46.519 22.155 48.21 21.492 50.739C21.3824 51.7345 21.5063 52.7418 21.854 53.681C21.949 54.03 22.038 54.361 22.099 54.657C22.2099 55.4342 22.4874 56.1783 22.9125 56.8383C23.3376 57.4983 23.9003 58.0586 24.562 58.481C24.6159 58.5097 24.6587 58.5556 24.6834 58.6115C24.7081 58.6673 24.7134 58.7298 24.6985 58.789C24.6835 58.8482 24.6491 58.9006 24.6008 58.938C24.5525 58.9753 24.4931 58.9954 24.432 58.995" fill="black"/>
<path d="M49.707 116.099C49.6707 116.099 49.6348 116.092 49.6013 116.078C49.5678 116.064 49.5375 116.044 49.512 116.018L36.094 102.375C36.0472 102.322 36.0224 102.254 36.0247 102.184C36.027 102.113 36.0563 102.047 36.1064 101.997C36.1565 101.948 36.2236 101.92 36.2939 101.919C36.3642 101.918 36.4322 101.943 36.484 101.991L49.902 115.634C49.9532 115.685 49.982 115.755 49.982 115.827C49.982 115.9 49.9532 115.97 49.902 116.021C49.8768 116.046 49.8468 116.066 49.8139 116.08C49.7809 116.093 49.7456 116.1 49.71 116.1" fill="black"/>
<path d="M71.982 109.222C71.9134 109.223 71.8471 109.197 71.7963 109.151C71.7454 109.105 71.7138 109.042 71.7076 108.974C71.7014 108.905 71.7212 108.837 71.7629 108.783C71.8047 108.728 71.8654 108.692 71.933 108.68L89.954 105.345C90.0235 105.336 90.0939 105.354 90.1506 105.395C90.2074 105.436 90.2461 105.498 90.259 105.567C90.2718 105.636 90.2577 105.707 90.2195 105.766C90.1814 105.824 90.1222 105.866 90.054 105.883L72.032 109.217C72.0153 109.218 71.9986 109.218 71.982 109.217" fill="black"/>
<path d="M59.92 96.4209C59.8988 96.4208 59.8776 96.4182 59.857 96.4129C59.787 96.3957 59.7266 96.3514 59.6891 96.2897C59.6517 96.2281 59.6401 96.1541 59.657 96.0839C60.1699 93.8698 60.7978 91.6838 61.538 89.5349C61.5517 89.5015 61.5718 89.4711 61.5972 89.4455C61.6226 89.4198 61.6528 89.3994 61.6861 89.3854C61.7194 89.3715 61.7551 89.3642 61.7912 89.364C61.8273 89.3638 61.8631 89.3708 61.8965 89.3844C61.9299 89.3981 61.9603 89.4182 61.986 89.4436C62.0116 89.469 62.032 89.4992 62.046 89.5325C62.06 89.5658 62.0673 89.6015 62.0674 89.6376C62.0676 89.6737 62.0607 89.7095 62.047 89.7429C61.3183 91.8663 60.6971 94.025 60.186 96.2109C60.1719 96.2706 60.138 96.3238 60.0899 96.3619C60.0419 96.4 59.9824 96.4208 59.921 96.4209" fill="black"/>
<path d="M43.165 75.8409C42.799 76.9629 41.39 77.4409 40.724 78.3409C39.609 79.8459 37.78 82.8759 39.416 84.5659C41.537 86.7569 44.282 86.1659 46.275 84.3149C46.875 83.7599 48.275 81.8479 49.357 82.2019C51.638 82.9459 50.841 85.6109 54.042 86.2599C59.413 87.3489 57.876 81.7989 61.074 81.3169C63.067 81.0169 64.892 83.8169 66.918 84.0389C72.129 84.6189 71.952 80.7249 73.218 80.3719C76.132 79.5529 76.789 82.7979 79.473 80.3099C81.299 78.6209 78.159 74.4349 74.493 72.9959C70.827 71.5569 69.233 74.5129 64.819 74.5419C61.091 74.5699 57.372 74.2419 53.661 73.9829" fill="#FFD2E1"/>
<path d="M50.647 78.8519C47.8522 78.9121 45.0849 78.2898 42.585 77.0389C42.5207 77.0053 42.4724 76.9474 42.4507 76.8781C42.429 76.8088 42.4358 76.7338 42.4695 76.6694C42.5032 76.6051 42.561 76.5568 42.6303 76.5352C42.6996 76.5135 42.7747 76.5203 42.839 76.5539C45.7767 77.9892 49.057 78.5752 52.31 78.2459C52.346 78.2427 52.3823 78.2467 52.4167 78.2578C52.4511 78.2689 52.4829 78.2869 52.5102 78.3106C52.5375 78.3344 52.5597 78.3634 52.5754 78.3959C52.5912 78.4284 52.6002 78.4638 52.602 78.4999C52.6069 78.5723 52.583 78.6437 52.5353 78.6985C52.4877 78.7532 52.4203 78.7868 52.348 78.7919C51.7693 78.8319 51.2026 78.8519 50.648 78.8519" fill="black"/>
<path d="M63.903 61.5321C62.7964 61.4656 61.7069 61.2267 60.674 60.8241C60.6049 60.8016 60.5475 60.7527 60.5145 60.688C60.4815 60.6233 60.4756 60.5481 60.498 60.4791C60.5204 60.41 60.5693 60.3526 60.634 60.3196C60.6987 60.2866 60.7739 60.2806 60.843 60.3031C63.311 61.1081 64.803 61.4831 66.776 59.8291C66.8035 59.806 66.8353 59.7886 66.8695 59.7778C66.9038 59.7671 66.9398 59.7632 66.9755 59.7663C67.0113 59.7695 67.0461 59.7796 67.0779 59.7962C67.1097 59.8128 67.1379 59.8355 67.161 59.8631C67.184 59.8906 67.2014 59.9223 67.2122 59.9566C67.223 59.9908 67.2269 60.0268 67.2237 60.0626C67.2206 60.0983 67.2104 60.1331 67.1938 60.1649C67.1772 60.1968 67.1545 60.225 67.127 60.2481C66.2479 61.0597 65.0994 61.5171 63.903 61.5321" fill="black"/>
<path d="M47.315 60.944C47.8702 61.3854 48.4709 61.7662 49.107 62.08Z" fill="white"/>
<path d="M49.107 62.352C49.062 62.3522 49.0177 62.3412 48.978 62.32C48.326 61.9971 47.7105 61.6052 47.142 61.151C47.095 61.1022 47.0676 61.0378 47.0653 60.9701C47.063 60.9023 47.0859 60.8362 47.1296 60.7843C47.1732 60.7325 47.2345 60.6986 47.3016 60.6894C47.3687 60.6801 47.4369 60.696 47.493 60.734C48.0339 61.1612 48.6184 61.53 49.237 61.834C49.29 61.8632 49.3319 61.9091 49.356 61.9646C49.3802 62.0201 49.3853 62.082 49.3706 62.1407C49.3559 62.1994 49.3221 62.2516 49.2746 62.2891C49.2271 62.3266 49.1685 62.3473 49.108 62.348" fill="black"/>
<path d="M43.02 70.551L59.455 49.432L63.45 47.851L58.732 57.651L59.007 63.601L53.207 70.075L47.638 69.601L42.638 75.122L43.02 70.551Z" fill="#FFBE00"/>
<path d="M50.143 67.958C50.0826 67.9578 50.0239 67.9377 49.976 67.901L48.488 66.75C48.4586 66.7274 48.4341 66.699 48.416 66.6667C48.398 66.6343 48.3866 66.5986 48.3828 66.5618C48.379 66.5249 48.3827 66.4877 48.3937 66.4523C48.4047 66.4169 48.4229 66.3841 48.447 66.356L54.723 59.013C54.7483 58.9822 54.78 58.9573 54.8159 58.94C54.8519 58.9227 54.8911 58.9135 54.931 58.913C54.9911 58.9129 55.0496 58.9329 55.097 58.97L56.782 60.261C56.8108 60.2845 56.8345 60.3137 56.8517 60.3467C56.8689 60.3797 56.8792 60.4159 56.882 60.453C56.8856 60.4905 56.8813 60.5284 56.8694 60.5642C56.8576 60.6001 56.8383 60.633 56.813 60.661L50.346 67.867C50.3203 67.8954 50.289 67.9182 50.2541 67.9339C50.2191 67.9496 50.1813 67.9578 50.143 67.958V67.958ZM54.97 59.562L49.05 66.493L50.109 67.313L56.209 60.513L54.97 59.562Z" fill="white"/>
<path d="M58.991 56.981C58.9288 56.981 58.8685 56.9598 58.82 56.921L55.76 54.468C55.7034 54.4224 55.6672 54.3562 55.6594 54.2839C55.6516 54.2116 55.6729 54.1391 55.7185 54.0825C55.7641 54.0259 55.8304 53.9897 55.9027 53.9819C55.975 53.9741 56.0474 53.9954 56.104 54.041L59.16 56.499C59.202 56.5349 59.2321 56.5827 59.2464 56.636C59.2608 56.6893 59.2587 56.7457 59.2404 56.7978C59.2221 56.8499 59.1885 56.8953 59.144 56.928C59.0995 56.9607 59.0462 56.9792 58.991 56.981" fill="white"/>
<path d="M60.253 54.518C60.1931 54.5173 60.1351 54.4969 60.088 54.46L57.393 52.363C57.3358 52.3185 57.2987 52.253 57.2898 52.1811C57.2809 52.1092 57.3009 52.0367 57.3455 51.9795C57.39 51.9224 57.4555 51.8852 57.5274 51.8763C57.5993 51.8674 57.6718 51.8875 57.729 51.932L60.421 54.032C60.4661 54.0669 60.4992 54.1151 60.5155 54.1697C60.5319 54.2244 60.5307 54.2828 60.5122 54.3367C60.4937 54.3907 60.4587 54.4375 60.4122 54.4705C60.3657 54.5036 60.31 54.5212 60.253 54.521" fill="white"/>
<path d="M61.28 52.166C61.2208 52.1669 61.163 52.1486 61.115 52.114L58.728 50.374C58.6694 50.3314 58.6301 50.2673 58.6187 50.1958C58.6074 50.1243 58.6249 50.0511 58.6675 49.9925C58.7101 49.9339 58.7742 49.8946 58.8457 49.8833C58.9173 49.8719 58.9904 49.8894 59.049 49.932L61.441 51.672C61.4882 51.7058 61.5233 51.7537 61.5415 51.8088C61.5596 51.8639 61.5597 51.9233 61.5417 51.9785C61.5238 52.0336 61.4887 52.0816 61.4417 52.1155C61.3946 52.1494 61.338 52.1675 61.28 52.167" fill="white"/>
<path d="M62.307 49.894C62.2529 49.894 62.2 49.878 62.155 49.848L60.848 48.969C60.7941 48.9267 60.7581 48.8656 60.7472 48.7979C60.7362 48.7303 60.7511 48.661 60.7889 48.6038C60.8267 48.5466 60.8846 48.5058 60.9511 48.4893C61.0176 48.4729 61.0879 48.482 61.148 48.515L62.46 49.394C62.5087 49.4265 62.5457 49.4739 62.5654 49.5291C62.5851 49.5843 62.5866 49.6443 62.5695 49.7004C62.5525 49.7565 62.5179 49.8056 62.4708 49.8404C62.4237 49.8753 62.3666 49.8941 62.308 49.894" fill="white"/>
<path d="M43.957 74.0069C43.9197 74.0074 43.8826 74.0002 43.8482 73.9857C43.8138 73.9713 43.7828 73.9499 43.757 73.9229C43.451 73.6019 42.956 73.0879 42.845 72.9819C42.8337 72.9715 42.8234 72.9601 42.814 72.9479C42.7665 72.8936 42.7419 72.8229 42.7452 72.7508C42.7486 72.6787 42.7797 72.6107 42.832 72.5609C42.945 72.4579 42.994 72.4129 43.214 72.5999L43.227 72.5899C43.2409 72.6059 43.253 72.6233 43.263 72.6419C43.437 72.7979 43.706 73.0779 44.154 73.5419C44.1915 73.5807 44.2168 73.6297 44.2265 73.6828C44.2362 73.7359 44.23 73.7907 44.2086 73.8402C44.1872 73.8898 44.1516 73.9319 44.1063 73.9612C44.0609 73.9905 44.0079 74.0057 43.954 74.0049" fill="white"/>
<path d="M45.663 72.0769C45.5971 72.0772 45.5335 72.0534 45.484 72.0099L43.479 70.2779C43.4241 70.2306 43.3902 70.1634 43.3849 70.0911C43.3796 70.0188 43.4031 69.9473 43.4505 69.8924C43.4978 69.8375 43.565 69.8037 43.6373 69.7984C43.7096 69.793 43.7811 69.8166 43.836 69.8639L45.841 71.5979C45.8833 71.6343 45.9135 71.6828 45.9274 71.7369C45.9413 71.791 45.9383 71.848 45.9188 71.9003C45.8993 71.9526 45.8642 71.9977 45.8183 72.0295C45.7724 72.0612 45.7178 72.0781 45.662 72.0779" fill="white"/>
<path d="M47.187 70.5C47.1212 70.5 47.0576 70.4762 47.008 70.433L44.826 68.545C44.7712 68.4975 44.7375 68.4302 44.7324 68.3579C44.7272 68.2856 44.751 68.2142 44.7985 68.1595C44.8459 68.1047 44.9132 68.071 44.9855 68.0659C45.0578 68.0607 45.1292 68.0845 45.184 68.132L47.367 70.019C47.4088 70.0556 47.4384 70.1041 47.452 70.158C47.4656 70.2119 47.4625 70.2686 47.443 70.3207C47.4236 70.3728 47.3888 70.4177 47.3433 70.4496C47.2977 70.4814 47.2436 70.4986 47.188 70.499" fill="white"/>
<path d="M49.526 67.319C49.4702 67.3185 49.4159 67.3009 49.3705 67.2686C49.325 67.2363 49.2905 67.1908 49.2717 67.1383C49.2528 67.0858 49.2505 67.0287 49.2651 66.9749C49.2796 66.921 49.3103 66.8729 49.353 66.837C49.3779 66.816 49.4039 66.7963 49.431 66.778C49.4911 66.7375 49.5648 66.7224 49.636 66.7362C49.7071 66.75 49.7699 66.7915 49.8105 66.8515C49.8511 66.9116 49.8661 66.9853 49.8523 67.0565C49.8386 67.1277 49.7971 67.1905 49.737 67.231C49.7249 67.2384 49.7132 67.2464 49.702 67.255C49.6528 67.2965 49.5904 67.3192 49.526 67.319" fill="white"/>
<path d="M50.455 66.229C50.4024 66.2289 50.351 66.2137 50.3069 66.1851C50.2628 66.1566 50.2279 66.1159 50.2064 66.0679C50.1848 66.02 50.1776 65.9668 50.1855 65.9149C50.1934 65.8629 50.2162 65.8144 50.251 65.775L50.282 65.739C50.4397 65.5478 50.6189 65.3754 50.816 65.225C50.8757 65.1834 50.9494 65.1672 51.0211 65.1799C51.0927 65.1927 51.1564 65.2333 51.198 65.293C51.2396 65.3527 51.2559 65.4265 51.2431 65.4981C51.2304 65.5697 51.1897 65.6334 51.13 65.675C50.9686 65.8006 50.8214 65.9435 50.691 66.101L50.66 66.137C50.6349 66.1654 50.6041 66.1882 50.5697 66.2041C50.5353 66.2199 50.4979 66.2284 50.46 66.229" fill="white"/>
<path d="M51.852 64.735C51.7929 64.7354 51.7353 64.7165 51.688 64.681C51.6592 64.6594 51.635 64.6324 51.6168 64.6015C51.5985 64.5705 51.5865 64.5363 51.5815 64.5007C51.5765 64.4651 51.5785 64.4289 51.5875 64.3941C51.5965 64.3593 51.6123 64.3267 51.634 64.298C51.7474 64.1542 51.8703 64.0183 52.002 63.891L52.111 63.775C52.1613 63.7228 52.2302 63.6926 52.3027 63.6912C52.3752 63.6898 52.4453 63.7173 52.4975 63.7675C52.5497 63.8178 52.5799 63.8867 52.5813 63.9592C52.5827 64.0317 52.5553 64.1018 52.505 64.154L52.392 64.271C52.2773 64.3822 52.1701 64.5007 52.071 64.626C52.0455 64.66 52.0125 64.6876 51.9744 64.7065C51.9364 64.7254 51.8945 64.7352 51.852 64.735" fill="white"/>
<path d="M53.069 63.336C53.0184 63.3361 52.9689 63.3221 52.9258 63.2957C52.8828 63.2692 52.8479 63.2313 52.8251 63.1862C52.8023 63.1411 52.7925 63.0906 52.7967 63.0403C52.8009 62.9899 52.819 62.9417 52.849 62.901L52.874 62.867C52.9199 62.7969 52.9739 62.7324 53.035 62.675C53.078 62.632 53.155 62.556 53.323 62.378C53.3476 62.3518 53.3772 62.3306 53.41 62.3158C53.4428 62.3009 53.4782 62.2927 53.5141 62.2915C53.5501 62.2904 53.586 62.2963 53.6197 62.309C53.6534 62.3217 53.6842 62.3409 53.7105 62.3655C53.7367 62.3902 53.7579 62.4197 53.7727 62.4525C53.7876 62.4853 53.7958 62.5207 53.797 62.5567C53.7981 62.5927 53.7922 62.6285 53.7795 62.6622C53.7668 62.6959 53.7476 62.7268 53.723 62.753C53.545 62.939 53.465 63.019 53.419 63.064C53.3796 63.1024 53.345 63.1453 53.316 63.192L53.29 63.225C53.2646 63.2599 53.2314 63.2882 53.193 63.3077C53.1545 63.3271 53.1121 63.3372 53.069 63.337" fill="white"/>
<path d="M54.22 61.947C54.1626 61.9474 54.1065 61.9296 54.06 61.896C54.0308 61.8749 54.0061 61.8482 53.9872 61.8175C53.9684 61.7868 53.9557 61.7527 53.9501 61.7171C53.9444 61.6816 53.9458 61.6452 53.9542 61.6102C53.9626 61.5752 53.9778 61.5421 53.999 61.513C54.1576 61.2845 54.336 61.0703 54.532 60.873C54.5841 60.8226 54.6541 60.795 54.7266 60.7962C54.7625 60.7968 54.7979 60.8045 54.8308 60.8187C54.8637 60.833 54.8935 60.8537 54.9185 60.8795C54.9434 60.9053 54.9631 60.9357 54.9762 60.9691C54.9894 61.0025 54.9959 61.0382 54.9953 61.0741C54.9947 61.11 54.987 61.1454 54.9727 61.1783C54.9584 61.2112 54.9378 61.241 54.912 61.266C54.7385 61.4411 54.5809 61.6311 54.441 61.834C54.4156 61.8691 54.3822 61.8976 54.3436 61.9173C54.305 61.9369 54.2623 61.9471 54.219 61.947" fill="white"/>
<path d="M55.342 60.601C55.2829 60.6024 55.2249 60.5846 55.1768 60.5502C55.1287 60.5158 55.0931 60.4668 55.0752 60.4104C55.0574 60.354 55.0584 60.2933 55.078 60.2376C55.0976 60.1818 55.1348 60.1339 55.184 60.101L55.369 59.95L55.408 59.893C55.429 59.8639 55.4554 59.8391 55.486 59.8202C55.5165 59.8013 55.5504 59.7886 55.5858 59.7828C55.6212 59.777 55.6575 59.7782 55.6924 59.7864C55.7274 59.7946 55.7604 59.8096 55.7895 59.8305C55.8187 59.8515 55.8434 59.878 55.8623 59.9085C55.8813 59.939 55.894 59.9729 55.8998 60.0083C55.9056 60.0438 55.9044 60.08 55.8962 60.1149C55.888 60.1499 55.873 60.1829 55.852 60.212L55.799 60.286C55.7898 60.2977 55.7798 60.3088 55.769 60.319L55.655 60.436C55.644 60.4471 55.6319 60.4571 55.619 60.466L55.5 60.55C55.4541 60.5825 55.3993 60.6 55.343 60.6" fill="white"/>
<path d="M50.41 67.2759C50.3442 67.2759 50.2807 67.252 50.2311 67.2089C50.1815 67.1657 50.1491 67.1061 50.14 67.0409L50.13 66.9679C50.096 66.7139 50.025 66.1959 49.835 66.0539C49.8162 66.0402 49.7948 66.0306 49.772 66.0257C49.7492 66.0209 49.7257 66.021 49.703 66.0259C49.6675 66.0313 49.6312 66.0295 49.5964 66.0208C49.5615 66.0122 49.5287 65.9967 49.4999 65.9753C49.471 65.954 49.4466 65.9272 49.4281 65.8964C49.4096 65.8656 49.3973 65.8315 49.392 65.7959C49.3867 65.7604 49.3884 65.7242 49.3971 65.6893C49.4058 65.6545 49.4212 65.6217 49.4426 65.5928C49.4639 65.5639 49.4908 65.5395 49.5216 65.521C49.5523 65.5025 49.5865 65.4903 49.622 65.4849C49.7163 65.469 49.8129 65.4724 49.9059 65.495C49.9989 65.5175 50.0864 65.5586 50.163 65.6159C50.4813 65.9645 50.6619 66.417 50.671 66.8889L50.68 66.9599C50.6851 66.9955 50.6831 67.0316 50.6742 67.0664C50.6653 67.1012 50.6496 67.1338 50.6281 67.1625C50.6065 67.1912 50.5795 67.2154 50.5486 67.2337C50.5177 67.2519 50.4835 67.2639 50.448 67.2689C50.435 67.27 50.422 67.27 50.409 67.2689" fill="white"/>
<path d="M51.894 65.466C51.8284 65.4659 51.765 65.4422 51.7154 65.3993C51.6658 65.3563 51.6334 65.2969 51.624 65.232C51.6132 65.0585 51.5341 64.8963 51.404 64.781C51.2425 64.6838 51.0491 64.6543 50.866 64.699C50.7964 64.7052 50.7271 64.6846 50.6722 64.6414C50.6173 64.5982 50.581 64.5357 50.5706 64.4666C50.5603 64.3976 50.5767 64.3271 50.6166 64.2698C50.6564 64.2124 50.7167 64.1724 50.785 64.158C50.9463 64.1229 51.113 64.1206 51.2752 64.1514C51.4374 64.1822 51.5918 64.2453 51.729 64.337C51.8524 64.4361 51.9546 64.5591 52.0293 64.6986C52.1041 64.8381 52.1499 64.9913 52.164 65.149C52.1743 65.2207 52.1558 65.2936 52.1125 65.3517C52.0692 65.4098 52.0047 65.4483 51.933 65.459C51.9197 65.46 51.9063 65.46 51.893 65.459" fill="white"/>
<path d="M53.336 64.03C53.2818 64.0301 53.2288 64.0141 53.1838 63.984C53.1387 63.9539 53.1036 63.9111 53.083 63.861C52.863 63.33 52.754 63.274 52.171 63.172C52.0991 63.1594 52.0352 63.1188 51.9933 63.059C51.9514 62.9993 51.9349 62.9254 51.9475 62.8535C51.9601 62.7816 52.0007 62.7177 52.0605 62.6758C52.1202 62.6339 52.1941 62.6174 52.266 62.63C52.5679 62.6337 52.8603 62.7358 53.0989 62.9208C53.3375 63.1057 53.5092 63.3635 53.588 63.655C53.6051 63.6964 53.6117 63.7414 53.6072 63.786C53.6028 63.8306 53.5874 63.8734 53.5625 63.9107C53.5376 63.948 53.5039 63.9785 53.4644 63.9997C53.4249 64.0208 53.3808 64.0319 53.336 64.032" fill="white"/>
<path d="M54.286 62.873C54.2207 62.8728 54.1577 62.8493 54.1082 62.8068C54.0587 62.7643 54.026 62.7055 54.016 62.641C54.0151 62.4416 53.9532 62.2472 53.8386 62.084C53.724 61.9208 53.5622 61.7966 53.375 61.728C53.3079 61.7042 53.2527 61.6552 53.2212 61.5913C53.1898 61.5274 53.1845 61.4538 53.2065 61.3861C53.2286 61.3184 53.2762 61.262 53.3392 61.2289C53.4023 61.1958 53.4758 61.1887 53.544 61.209C53.8282 61.3078 54.0766 61.4889 54.2575 61.7293C54.4384 61.9697 54.5437 62.2585 54.56 62.559C54.5709 62.6307 54.5529 62.7038 54.51 62.7623C54.4671 62.8208 54.4027 62.8599 54.331 62.871C54.317 62.872 54.303 62.872 54.289 62.871" fill="white"/>
<path d="M55.585 61.564C55.5311 61.564 55.4784 61.5481 55.4335 61.5182C55.3887 61.4883 55.3537 61.4458 55.333 61.396C55.2414 61.1625 55.0699 60.969 54.849 60.85C54.6357 60.7223 54.4506 60.5525 54.305 60.351C54.2633 60.2914 54.2471 60.2176 54.2599 60.146C54.2726 60.0743 54.3133 60.0107 54.373 59.969C54.4327 59.9274 54.5064 59.9112 54.5781 59.9239C54.6497 59.9367 54.7133 59.9774 54.755 60.037C54.8624 60.1825 54.9985 60.3044 55.155 60.395C55.4656 60.5739 55.707 60.8522 55.84 61.185C55.8572 61.2266 55.864 61.2717 55.8596 61.3165C55.8553 61.3613 55.84 61.4043 55.8151 61.4418C55.7902 61.4792 55.7564 61.51 55.7168 61.5313C55.6772 61.5526 55.633 61.5639 55.588 61.564" fill="white"/>
<path d="M48.399 91.07C48.1269 91.0708 47.8596 90.9986 47.625 90.861C47.4124 90.7349 47.2295 90.5644 47.089 90.361C46.7984 89.9539 46.6709 89.4527 46.7316 88.9562C46.7923 88.4598 47.0368 88.0041 47.417 87.679C47.7686 87.3618 48.2207 87.1784 48.694 87.161C48.9082 87.1608 49.1202 87.2044 49.317 87.289C49.6313 87.4401 49.8992 87.6729 50.0927 87.963C50.2862 88.253 50.3982 88.5898 50.417 88.938C50.441 89.3055 50.3596 89.6722 50.1825 89.9952C50.0054 90.3181 49.7398 90.5837 49.417 90.761C49.112 90.9546 48.7601 91.0614 48.399 91.07ZM48.699 87.707C48.3496 87.7248 48.0175 87.8642 47.76 88.101C47.4859 88.3391 47.3109 88.6713 47.2694 89.032C47.2279 89.3927 47.323 89.7559 47.536 90.05C47.6281 90.1936 47.7547 90.3119 47.9042 90.3942C48.0537 90.4764 48.2214 90.52 48.392 90.521C48.6559 90.5132 48.9128 90.4337 49.135 90.291C49.3713 90.1658 49.5662 89.9747 49.6961 89.7409C49.826 89.5072 49.8854 89.2408 49.867 88.974C49.8564 88.7261 49.7794 88.4855 49.6441 88.2774C49.5089 88.0693 49.3203 87.9014 49.098 87.791C48.9712 87.7355 48.8343 87.7069 48.696 87.707H48.699Z" fill="white"/>
<path d="M53.394 105.123C53.1751 105.125 52.9605 105.061 52.779 104.939C52.6187 104.829 52.4879 104.681 52.398 104.509C52.2237 104.15 52.1824 103.741 52.2813 103.355C52.3801 102.969 52.6128 102.63 52.938 102.399C53.1559 102.242 53.4167 102.157 53.685 102.153C53.9044 102.154 54.1197 102.213 54.309 102.324C54.5499 102.464 54.7471 102.668 54.8783 102.914C55.0095 103.16 55.0697 103.438 55.052 103.716C55.0196 104.019 54.8965 104.305 54.6988 104.537C54.5011 104.769 54.238 104.936 53.944 105.016C53.7687 105.085 53.5823 105.121 53.394 105.123ZM53.683 102.7C53.5265 102.703 53.3749 102.755 53.249 102.848C53.0339 103.003 52.8794 103.228 52.8123 103.484C52.7451 103.741 52.7694 104.013 52.881 104.253C52.927 104.351 53.0003 104.433 53.0921 104.49C53.1838 104.547 53.29 104.576 53.398 104.574C53.5181 104.571 53.6368 104.546 53.748 104.501C53.9419 104.453 54.1174 104.349 54.2523 104.202C54.3872 104.054 54.4755 103.87 54.506 103.673C54.515 103.498 54.4759 103.324 54.3931 103.17C54.3102 103.016 54.1867 102.887 54.036 102.798C53.9289 102.735 53.8072 102.701 53.683 102.7V102.7Z" fill="white"/>
<path d="M76.863 93.336C76.7403 93.3363 76.618 93.3212 76.499 93.291C76.138 93.199 75.49 92.869 75.206 91.694C75.123 91.1582 75.2428 90.6107 75.542 90.1585C75.8412 89.7063 76.2984 89.382 76.824 89.249C77.0147 89.1896 77.2132 89.1586 77.413 89.157C77.7301 89.1527 78.0405 89.2486 78.3 89.431C78.5642 89.6278 78.7626 89.9001 78.869 90.212C79.0094 90.62 79.0358 91.0585 78.9454 91.4803C78.855 91.9022 78.6512 92.2914 78.356 92.606C78.1712 92.8243 77.943 93.0019 77.6861 93.1276C77.4291 93.2532 77.1488 93.3242 76.863 93.336V93.336ZM77.417 89.705C77.2692 89.7064 77.1224 89.729 76.981 89.772C76.5887 89.8642 76.2444 90.0985 76.0147 90.4296C75.7849 90.7607 75.686 91.1652 75.737 91.565C75.9 92.24 76.21 92.654 76.637 92.765C76.7103 92.7832 76.7855 92.7923 76.861 92.792C77.0707 92.779 77.2756 92.7234 77.4631 92.6287C77.6507 92.5339 77.817 92.402 77.952 92.241C78.182 92.0011 78.3412 91.7022 78.4118 91.3775C78.4824 91.0527 78.4617 90.7147 78.352 90.401C78.2814 90.1725 78.1346 89.9752 77.936 89.842C77.7793 89.7484 77.5994 89.7009 77.417 89.705V89.705Z" fill="white"/>
<path d="M73.411 105.748C73.0886 105.748 72.7782 105.626 72.542 105.406C72.2806 105.213 72.0804 104.948 71.9655 104.643C71.8506 104.339 71.8258 104.008 71.894 103.69C71.9724 103.44 72.1192 103.217 72.3179 103.047C72.5166 102.876 72.7592 102.765 73.018 102.725C73.0947 102.712 73.1723 102.706 73.25 102.706C73.5043 102.713 73.7531 102.781 73.9751 102.905C74.197 103.029 74.3854 103.206 74.524 103.419C74.7471 103.711 74.8505 104.078 74.8134 104.444C74.7762 104.809 74.6013 105.147 74.324 105.389C74.0735 105.616 73.7489 105.743 73.411 105.748V105.748ZM73.25 103.253C73.2018 103.253 73.1536 103.257 73.106 103.265C72.9488 103.288 72.8011 103.354 72.6797 103.457C72.5583 103.559 72.468 103.694 72.419 103.845C72.3821 104.064 72.4084 104.288 72.4947 104.492C72.5809 104.696 72.7236 104.871 72.906 104.997C73.0413 105.125 73.22 105.196 73.406 105.197C73.6119 105.192 73.8092 105.113 73.962 104.975C74.1405 104.824 74.2527 104.609 74.2744 104.376C74.2961 104.143 74.2256 103.911 74.078 103.729C73.9894 103.588 73.8676 103.471 73.7232 103.388C73.5789 103.305 73.4164 103.259 73.25 103.253V103.253Z" fill="white"/>
<path d="M42.32 100.894C42.1957 100.894 42.0722 100.874 41.954 100.836C41.7214 100.785 41.5017 100.687 41.3084 100.548C41.1152 100.408 40.9524 100.231 40.8302 100.027C40.708 99.8225 40.6288 99.5952 40.5977 99.3591C40.5665 99.123 40.584 98.8831 40.649 98.654C40.7548 98.2672 40.9652 97.9171 41.257 97.642C41.5334 97.3643 41.9063 97.2038 42.298 97.194C42.3887 97.1939 42.4792 97.2033 42.568 97.222C42.9003 97.2556 43.2158 97.3848 43.4762 97.5941C43.7366 97.8033 43.9307 98.0836 44.035 98.401C44.112 98.7608 44.0939 99.1344 43.9826 99.4851C43.8712 99.8358 43.6704 100.151 43.4 100.401C43.1185 100.701 42.7307 100.878 42.32 100.894V100.894ZM42.298 97.741C42.0311 97.7526 41.7796 97.8691 41.598 98.065C41.3977 98.268 41.2527 98.519 41.177 98.794C41.1272 98.9562 41.1128 99.1273 41.1347 99.2956C41.1566 99.4639 41.2143 99.6255 41.304 99.7697C41.3936 99.9138 41.5131 100.037 41.6544 100.131C41.7956 100.225 41.9554 100.288 42.123 100.315C42.1876 100.336 42.2551 100.346 42.323 100.345C42.5896 100.323 42.8387 100.203 43.023 100.009C43.2232 99.828 43.3734 99.5985 43.4593 99.3426C43.5451 99.0867 43.5636 98.8131 43.513 98.548C43.4279 98.3304 43.2836 98.141 43.0965 98.0012C42.9093 97.8614 42.6867 97.7768 42.454 97.757C42.4027 97.7462 42.3504 97.7409 42.298 97.741V97.741Z" fill="white"/>
<path d="M86.162 103.947H86.147C85.8599 103.957 85.5777 103.871 85.3456 103.701C85.1135 103.532 84.945 103.29 84.867 103.013V103.013C84.8091 102.776 84.8234 102.527 84.9081 102.298C84.9927 102.069 85.1438 101.871 85.342 101.728C85.5146 101.622 85.7135 101.567 85.916 101.569C86.1655 101.571 86.4089 101.647 86.616 101.786C86.8293 101.934 86.9937 102.142 87.0883 102.384C87.1829 102.626 87.2033 102.891 87.147 103.144C87.1127 103.377 86.9926 103.588 86.8103 103.737C86.628 103.885 86.3968 103.96 86.162 103.947V103.947ZM85.916 102.116C85.8161 102.114 85.7177 102.141 85.632 102.192C85.5262 102.28 85.4486 102.398 85.4088 102.53C85.369 102.662 85.3687 102.803 85.408 102.935C85.443 103.17 85.808 103.396 86.151 103.401H86.162C86.2145 103.408 86.2678 103.404 86.3189 103.39C86.3699 103.376 86.4177 103.352 86.4593 103.319C86.501 103.286 86.5358 103.246 86.5616 103.2C86.5875 103.153 86.6039 103.103 86.61 103.05C86.6497 102.901 86.6421 102.743 86.5884 102.598C86.5347 102.453 86.4374 102.328 86.31 102.241C86.1938 102.162 86.0568 102.118 85.916 102.116V102.116Z" fill="white"/>
<path d="M66.09 91.121C65.6809 91.1011 65.2826 90.9827 64.929 90.776C64.7477 90.6869 64.6007 90.5409 64.5103 90.3603C64.42 90.1796 64.3915 89.9744 64.429 89.776C64.5026 89.4622 64.6704 89.1785 64.91 88.9629C65.1495 88.7473 65.4492 88.6102 65.769 88.57C65.8348 88.5595 65.9013 88.5541 65.968 88.554C66.1968 88.5561 66.4201 88.6243 66.6111 88.7502C66.8022 88.8761 66.9528 89.0545 67.045 89.264C67.1799 89.5105 67.2358 89.7925 67.2052 90.0719C67.1747 90.3512 67.059 90.6144 66.874 90.826C66.7694 90.9247 66.6462 91.0016 66.5116 91.0522C66.377 91.1029 66.2337 91.1262 66.09 91.121V91.121ZM65.963 89.101C65.9255 89.1012 65.888 89.1042 65.851 89.11C65.6456 89.1344 65.4519 89.219 65.2945 89.3531C65.137 89.4873 65.0227 89.665 64.966 89.864C64.9472 89.9496 64.9587 90.0392 64.9987 90.1173C65.0386 90.1953 65.1045 90.2571 65.185 90.292C65.459 90.4546 65.7672 90.5511 66.085 90.574C66.2315 90.5817 66.3753 90.5314 66.485 90.434C66.5861 90.3035 66.6467 90.1462 66.6593 89.9816C66.6719 89.817 66.636 89.6523 66.556 89.508C66.5063 89.3906 66.424 89.2899 66.3189 89.2178C66.2139 89.1457 66.0904 89.1052 65.963 89.101V89.101Z" fill="white"/>
<path d="M79.153 9.16898C79.1005 9.16907 79.0491 9.15403 79.0049 9.12565C78.9608 9.09728 78.9257 9.05677 78.904 9.00898C78.49 7.95679 78.2662 6.83944 78.243 5.70898C78.24 5.67308 78.2442 5.63694 78.2552 5.60267C78.2663 5.56839 78.2841 5.53665 78.3075 5.5093C78.331 5.48195 78.3596 5.45952 78.3918 5.44333C78.424 5.42714 78.4591 5.41751 78.495 5.41498C78.5308 5.41184 78.5668 5.41583 78.601 5.42673C78.6352 5.43764 78.6669 5.45523 78.6943 5.47849C78.7217 5.50175 78.7441 5.53021 78.7604 5.56223C78.7766 5.59425 78.7864 5.62917 78.789 5.66498C78.8071 6.73241 79.0147 7.78814 79.402 8.78298C79.4207 8.82456 79.4287 8.87016 79.4253 8.91562C79.4218 8.96108 79.407 9.00496 79.3823 9.04324C79.3575 9.08152 79.3236 9.113 79.2835 9.13478C79.2435 9.15657 79.1986 9.16799 79.153 9.16798" fill="black"/>
<path d="M81.117 9.11095C81.0883 9.11185 81.0596 9.10814 81.032 9.09995C80.9979 9.08896 80.9663 9.07132 80.9389 9.04805C80.9116 9.02478 80.8892 8.99634 80.873 8.96437C80.8567 8.9324 80.8469 8.89752 80.8442 8.86175C80.8414 8.82598 80.8458 8.79003 80.857 8.75595C81.444 6.97295 81.722 5.79995 81.969 4.76395C82.3107 3.18748 82.8047 1.64791 83.444 0.166953C83.4767 0.107833 83.5301 0.0629049 83.5939 0.0408498C83.6577 0.0187948 83.7274 0.0211777 83.7896 0.0475382C83.8518 0.0738987 83.902 0.122366 83.9305 0.183576C83.959 0.244786 83.9638 0.314394 83.944 0.378953C83.3164 1.83178 82.8327 3.34269 82.5 4.88995C82.251 5.93595 81.968 7.12095 81.377 8.92395C81.3591 8.97872 81.3243 9.02641 81.2776 9.06018C81.2309 9.09395 81.1747 9.11207 81.117 9.11195" fill="black"/>
<path d="M83.242 9.57996C83.1962 9.57986 83.1511 9.56823 83.111 9.54614C83.0709 9.52405 83.0369 9.49222 83.0123 9.45357C82.9877 9.41492 82.9732 9.37069 82.9702 9.32498C82.9672 9.27926 82.9757 9.23352 82.995 9.19196C83.5639 8.08334 84.2448 7.03588 85.027 6.06596C85.175 5.86596 85.327 5.67296 85.468 5.47696C85.5116 5.42062 85.5754 5.38354 85.646 5.37363C85.7165 5.36372 85.7881 5.38176 85.8455 5.4239C85.9029 5.46605 85.9416 5.52896 85.9533 5.59922C85.9649 5.66947 85.9487 5.74151 85.908 5.79996C85.762 5.99996 85.614 6.19996 85.465 6.39296C84.7058 7.33389 84.0441 8.34942 83.49 9.42396C83.4678 9.47096 83.4327 9.51067 83.3888 9.53847C83.3449 9.56627 83.294 9.58101 83.242 9.58096" fill="black"/>
<path d="M85.059 10.647C85.004 10.6469 84.9503 10.6301 84.9049 10.5989C84.8596 10.5677 84.8247 10.5235 84.8049 10.4721C84.7851 10.4208 84.7813 10.3646 84.794 10.3111C84.8067 10.2575 84.8353 10.209 84.876 10.172C86.7527 8.60404 88.794 7.24441 90.964 6.117C91.547 5.787 92.126 5.458 92.692 5.125C92.7229 5.10439 92.7576 5.09028 92.7941 5.08353C92.8305 5.07679 92.868 5.07754 92.9042 5.08576C92.9404 5.09397 92.9745 5.10947 93.0045 5.13131C93.0344 5.15315 93.0597 5.18087 93.0786 5.21278C93.0975 5.24469 93.1097 5.28011 93.1145 5.3169C93.1192 5.35369 93.1165 5.39106 93.1063 5.42673C93.0961 5.46241 93.0788 5.49564 93.0554 5.5244C93.032 5.55316 93.0029 5.57684 92.97 5.594C92.402 5.929 91.82 6.259 91.234 6.594C89.0993 7.70138 87.0906 9.03648 85.243 10.576C85.1924 10.6212 85.1269 10.6462 85.059 10.646" fill="black"/>
<path d="M19.161 16.145C19.1058 16.1451 19.0519 16.1284 19.0064 16.0971C18.9608 16.0659 18.9259 16.0216 18.906 15.97C18.107 13.896 16.627 11.398 15.084 11.187C15.0485 11.1821 15.0142 11.1702 14.9832 11.1521C14.9522 11.1339 14.9251 11.1098 14.9034 11.0811C14.8817 11.0525 14.8659 11.0199 14.8568 10.9851C14.8478 10.9503 14.8456 10.9141 14.8505 10.8785C14.8555 10.843 14.8674 10.8087 14.8855 10.7777C14.9037 10.7467 14.9278 10.7196 14.9564 10.6979C14.9851 10.6762 15.0177 10.6604 15.0525 10.6513C15.0872 10.6422 15.1235 10.6401 15.159 10.645C17.395 10.951 18.983 14.645 19.417 15.773C19.4327 15.8144 19.4382 15.8589 19.4329 15.9027C19.4276 15.9466 19.4117 15.9886 19.3866 16.025C19.3616 16.0614 19.328 16.0911 19.2889 16.1117C19.2498 16.1322 19.2062 16.143 19.162 16.143" fill="black"/>
<path d="M21.107 15.872C21.0499 15.8721 20.9942 15.8543 20.9478 15.8211C20.9013 15.7879 20.8664 15.741 20.848 15.687C19.702 12.306 18.128 7.67697 14.914 5.21097C14.8838 5.18979 14.8582 5.16271 14.8388 5.13137C14.8193 5.10002 14.8065 5.06506 14.8009 5.0286C14.7953 4.99213 14.7972 4.95492 14.8065 4.91921C14.8157 4.8835 14.8321 4.85002 14.8546 4.82081C14.8771 4.7916 14.9053 4.76725 14.9375 4.74924C14.9697 4.73123 15.0052 4.71993 15.0419 4.71602C15.0785 4.71211 15.1156 4.71567 15.1509 4.72649C15.1861 4.73731 15.2188 4.75516 15.247 4.77897C18.592 7.34597 20.197 12.065 21.369 15.512C21.3828 15.5531 21.3867 15.5968 21.3802 15.6397C21.3737 15.6825 21.3572 15.7232 21.3319 15.7584C21.3065 15.7936 21.2732 15.8222 21.2347 15.842C21.1961 15.8617 21.1534 15.872 21.11 15.872" fill="black"/>
<path d="M22.946 13.8719C22.8813 13.8718 22.8187 13.8488 22.7695 13.8068C22.7202 13.7649 22.6874 13.7068 22.677 13.6429C22.1511 10.3158 22.5998 6.90756 23.969 3.82994C24.0018 3.77126 24.055 3.72673 24.1186 3.70489C24.1822 3.68304 24.2516 3.68541 24.3135 3.71154C24.3754 3.73767 24.4255 3.78573 24.4542 3.84651C24.4829 3.90729 24.4882 3.97652 24.469 4.04094C23.1423 7.025 22.7074 10.3292 23.217 13.5549C23.223 13.5939 23.2206 13.6338 23.2098 13.6718C23.199 13.7097 23.1802 13.7449 23.1545 13.7749C23.1289 13.8049 23.0971 13.8291 23.0613 13.8456C23.0254 13.8622 22.9865 13.8708 22.947 13.8709" fill="black"/>
<path d="M24.575 14.671H24.537C24.5011 14.6664 24.4663 14.6548 24.4349 14.6366C24.4035 14.6185 24.376 14.5943 24.354 14.5655C24.332 14.5366 24.316 14.5037 24.3069 14.4686C24.2978 14.4334 24.2958 14.3969 24.301 14.361C24.6848 12.5739 25.5871 10.9397 26.895 9.66297C26.9467 9.61601 27.0144 9.59065 27.0843 9.5921C27.1541 9.59355 27.2207 9.6217 27.2704 9.67075C27.3201 9.71981 27.3491 9.78605 27.3514 9.85584C27.3538 9.92563 27.3293 9.99367 27.283 10.046C26.0575 11.2386 25.2097 12.7652 24.845 14.436C24.8359 14.5011 24.8035 14.5607 24.7539 14.6039C24.7043 14.6471 24.6408 14.6709 24.575 14.671" fill="black"/>
</svg>
