<svg width="470" height="420" viewBox="0 0 470 420" fill="none" xmlns="http://www.w3.org/2000/svg">
<path d="M230.577 285.982C230.987 278.133 245.376 272.495 262.709 273.42C280.042 274.345 293.763 281.44 293.35 289.302C292.937 297.164 278.552 302.79 261.218 301.865C243.884 300.94 230.168 293.844 230.577 285.982Z" fill="black"/>
<path d="M258.663 364.883H258.6C258.495 364.875 258.392 364.846 258.298 364.798C258.204 364.751 258.12 364.685 258.052 364.604C257.983 364.524 257.931 364.431 257.899 364.331C257.866 364.23 257.854 364.124 257.863 364.019L262.477 304.184C262.5 303.975 262.602 303.783 262.761 303.646C262.921 303.509 263.126 303.437 263.336 303.445C263.441 303.453 263.543 303.482 263.637 303.53C263.731 303.577 263.815 303.643 263.883 303.723C263.951 303.803 264.003 303.896 264.036 303.996C264.068 304.096 264.08 304.202 264.072 304.307L259.463 364.145C259.448 364.347 259.357 364.535 259.209 364.673C259.06 364.81 258.865 364.887 258.663 364.886" fill="black"/>
<path d="M237.615 367.867C237.893 362.581 247.563 358.797 259.216 359.405C270.869 360.013 280.088 364.805 279.809 370.091C279.53 375.377 269.864 379.149 258.209 378.541C246.554 377.933 237.339 373.141 237.615 367.867Z" fill="black"/>
<path d="M182.494 177.52C182.448 177.677 174.984 190.257 177.56 190.74C186.934 192.491 196.375 193.904 205.83 195.151C206.741 195.272 208.342 195.718 208.568 194.837C212.787 178.184 219.074 149.571 218.809 149.257C215.246 145.051 212.65 140.951 208.899 142.991C196.48 149.716 186.172 165.266 182.494 177.52Z" fill="white"/>
<path d="M207.551 196.166C207.091 196.154 206.632 196.103 206.18 196.015L206.092 196.001C205.961 195.979 205.837 195.959 205.725 195.944C195.068 194.541 185.807 193.097 177.413 191.529C177.192 191.49 176.984 191.399 176.806 191.261C176.629 191.124 176.488 190.945 176.395 190.741C175.913 189.701 176.062 187.271 181.538 177.589L181.651 177.389L181.751 177.219C182.777 173.903 184.095 170.685 185.69 167.603C187.441 164.174 189.462 160.89 191.734 157.781C196.797 150.841 202.602 145.487 208.518 142.284C209.229 141.878 210.03 141.657 210.848 141.641C213.576 141.641 215.789 144.333 218.131 147.183C218.502 147.635 218.963 148.196 219.422 148.738C219.747 149.124 219.896 149.301 216.154 166.094C213.758 176.848 211.218 187.665 209.347 195.03C209.151 195.794 208.563 196.166 207.551 196.166ZM210.845 143.259C210.296 143.269 209.759 143.419 209.284 143.695C196.899 150.401 186.818 165.903 183.263 177.749C183.18 177.971 183.07 178.182 182.936 178.378C177.88 187.319 177.747 189.514 177.827 189.973C186.153 191.526 195.348 192.958 205.936 194.351C206.093 194.372 206.268 194.401 206.449 194.432C206.824 194.504 207.203 194.55 207.584 194.568C207.661 194.57 207.737 194.563 207.812 194.547C211.895 178.423 217.578 152.559 217.991 149.532C217.647 149.123 217.308 148.712 216.981 148.314L216.892 148.206C214.365 145.129 212.692 143.261 210.845 143.261V143.259Z" fill="black"/>
<path d="M145.19 363.121C152.49 362.579 164.127 365.536 164.127 365.536C164.127 365.536 169.454 343.647 171.601 326.01C172.86 314.431 172.894 302.752 171.701 291.166L213.08 270.171C213.08 270.171 274.002 248.764 254.313 226.887C234.624 205.01 142.566 258.773 139.68 268.021C136.749 277.415 143.38 344.046 145.19 363.121Z" fill="white"/>
<path d="M164.127 366.339C164.06 366.339 163.992 366.331 163.927 366.314V366.314C163.527 366.214 154.047 363.86 147.097 363.86C146.44 363.86 145.818 363.881 145.248 363.923H145.218C145.013 363.93 144.814 363.859 144.66 363.724C144.506 363.589 144.409 363.401 144.389 363.197L143.989 359.021C140.327 320.709 136.433 275.716 138.913 267.782C141.269 260.232 191.77 229.949 225.425 222.595C229.941 221.544 234.557 220.974 239.193 220.895C242.355 220.832 245.505 221.294 248.516 222.26C250.96 223.057 253.16 224.465 254.908 226.351C258.508 230.351 259.763 234.638 258.626 239.085C257.99 241.371 256.922 243.513 255.48 245.397C253.848 247.555 251.984 249.528 249.921 251.278C245.303 255.135 240.285 258.488 234.954 261.278C227.99 265.005 220.769 268.23 213.346 270.929L172.555 291.629C173.682 303.096 173.629 314.649 172.398 326.105C170.263 343.645 164.959 365.515 164.907 365.724C164.864 365.899 164.764 366.054 164.623 366.165C164.481 366.276 164.307 366.337 164.127 366.337V366.339ZM147.127 362.251C150.338 362.305 153.539 362.618 156.699 363.186C159.712 363.686 162.275 364.266 163.534 364.564C164.414 360.854 168.901 341.555 170.805 325.912C172.046 314.397 172.079 302.783 170.905 291.261C170.885 291.098 170.916 290.932 170.994 290.787C171.071 290.642 171.192 290.524 171.339 290.45L212.715 269.455L212.764 269.437C220.043 266.752 227.131 263.574 233.978 259.925C239.183 257.215 244.095 253.975 248.633 250.254C250.636 248.586 252.452 246.705 254.047 244.643C255.437 242.875 256.465 240.852 257.074 238.687C258.074 234.794 256.94 231.004 253.719 227.424C252.12 225.708 250.105 224.434 247.869 223.724C245.076 222.847 242.16 222.43 239.233 222.489C234.699 222.569 230.185 223.129 225.769 224.16C191.618 231.627 142.414 261.96 140.447 268.26C137.747 276.903 143.447 336.449 145.591 358.865L145.916 362.273C146.312 362.259 146.72 362.251 147.127 362.251Z" fill="black"/>
<path d="M193.006 363.098C200.306 362.555 211.943 365.513 211.943 365.513C211.943 365.513 217.27 343.624 219.417 325.985C220.677 314.406 220.711 302.727 219.517 291.142L260.901 270.142C260.901 270.142 286.681 245.332 266.991 223.467C247.301 201.602 190.383 258.737 187.497 267.985C184.565 277.378 191.197 344.022 193.006 363.098Z" fill="white"/>
<path d="M211.943 366.314C211.875 366.314 211.808 366.306 211.743 366.288H211.735C211.466 366.221 209.016 365.616 205.816 365.03C202.224 364.317 198.577 363.916 194.916 363.83C194.258 363.83 193.635 363.851 193.065 363.894H193.016C192.815 363.894 192.621 363.82 192.472 363.686C192.322 363.551 192.228 363.367 192.206 363.167L191.806 358.977C188.143 320.67 184.25 275.676 186.73 267.745C189.188 259.872 225.002 223.697 249.22 218.405C251.175 217.963 253.172 217.731 255.176 217.714C257.557 217.682 259.92 218.126 262.127 219.021C264.213 219.905 266.076 221.241 267.582 222.934C269.859 225.418 271.712 228.261 273.065 231.347C274.204 234.007 274.889 236.839 275.089 239.725C275.352 245.001 274.329 250.261 272.109 255.054C271.151 257.228 270.038 259.329 268.777 261.342C267.715 263.044 266.565 264.689 265.332 266.271C264.133 267.836 262.836 269.324 261.45 270.725C261.393 270.78 261.327 270.826 261.256 270.861L220.371 291.607C221.498 303.074 221.446 314.626 220.214 326.082C218.086 343.571 212.776 365.489 212.723 365.703C212.68 365.878 212.58 366.033 212.439 366.144C212.297 366.255 212.123 366.316 211.943 366.316V366.314ZM194.95 362.227C201.134 362.227 209.068 363.998 211.35 364.54C212.23 360.83 216.717 341.531 218.621 325.887C219.864 314.372 219.898 302.759 218.721 291.237C218.701 291.074 218.732 290.908 218.81 290.763C218.887 290.618 219.008 290.5 219.155 290.426L260.423 269.487C261.857 268.022 263.199 266.47 264.441 264.839C266.893 261.695 268.964 258.271 270.61 254.639C275.734 243.111 274.31 232.805 266.391 224.007C265.034 222.483 263.352 221.284 261.469 220.497C259.459 219.693 257.31 219.294 255.145 219.325C253.267 219.342 251.397 219.559 249.565 219.973C224.714 225.404 190.291 261.726 188.264 268.225C185.564 276.859 191.259 336.372 193.401 358.776L193.406 358.829L193.732 362.253C194.129 362.236 194.538 362.227 194.95 362.227Z" fill="black"/>
<path d="M167.154 360.683L164.335 382.683L141.211 383.079L143.171 360.2L167.154 360.683Z" fill="black"/>
<path d="M214.97 360.647L212.151 382.656L189.027 383.056L190.987 360.165L214.97 360.647Z" fill="black"/>
<path d="M153.847 379.795C153.847 379.795 153.476 371.62 148.445 371.775C143.209 371.945 141.11 377.547 139.745 380.855C135.907 390.186 133.445 397.287 126.634 404.349C118.159 413.141 122.18 418.683 128.295 419.83C134.41 420.977 134.984 415.822 138.546 415.87C140.491 416.062 142.452 415.732 144.228 414.916C146.433 413.732 146.086 411.282 148.241 410.352C149.563 409.785 153.493 410.243 153.984 409.616C154.996 408.299 155.24 407.262 156.34 405.837C157.651 404.137 163.152 404.593 164.201 402.737C165.567 400.322 165.377 376.285 165.162 376.031C164.714 375.521 153.847 379.795 153.847 379.795Z" fill="#FFBE00"/>
<path d="M201.662 379.77C201.662 379.77 201.293 371.586 196.262 371.751C191.025 371.908 188.926 377.51 187.562 380.818C183.724 390.152 181.262 397.262 174.451 404.326C165.976 413.116 169.996 418.646 176.111 419.805C182.226 420.964 182.8 415.785 186.362 415.833C188.306 416.03 190.267 415.705 192.044 414.892C194.249 413.708 193.902 411.257 196.057 410.328C197.379 409.761 201.309 410.219 201.8 409.578C202.812 408.263 203.056 407.236 204.156 405.811C205.467 404.111 210.968 404.555 212.019 402.711C213.384 400.296 213.195 376.247 212.979 376.005C212.533 375.498 201.666 379.772 201.666 379.772" fill="#FFBE00"/>
<path d="M131.046 414.885C130.859 414.889 130.677 414.827 130.53 414.711C130.384 414.594 130.283 414.43 130.246 414.247C130.208 414.064 130.235 413.873 130.323 413.708C130.412 413.543 130.555 413.414 130.728 413.344C143.174 408.011 164.117 394.965 164.328 394.833C164.509 394.72 164.727 394.684 164.934 394.732C165.142 394.78 165.322 394.909 165.435 395.09C165.547 395.27 165.584 395.488 165.535 395.696C165.487 395.903 165.359 396.083 165.178 396.196C164.967 396.326 143.918 409.438 131.366 414.82C131.266 414.862 131.159 414.885 131.05 414.885" fill="white"/>
<path d="M178.862 414.862C178.675 414.866 178.493 414.804 178.346 414.688C178.2 414.571 178.099 414.407 178.062 414.224C178.024 414.041 178.051 413.85 178.139 413.685C178.228 413.52 178.371 413.391 178.544 413.321C190.99 407.988 211.933 394.941 212.144 394.809C212.325 394.696 212.543 394.66 212.75 394.708C212.958 394.756 213.138 394.885 213.25 395.065C213.363 395.246 213.4 395.464 213.351 395.672C213.303 395.879 213.175 396.059 212.994 396.172C212.783 396.302 191.734 409.413 179.182 414.796C179.082 414.838 178.975 414.86 178.866 414.861" fill="white"/>
<path d="M247.154 96.738C250.975 99.044 253.439 74.91 247.833 87.128C247.236 88.42 246.276 89.656 246.176 91.088C246.042 92.996 245.514 95.748 247.154 96.738Z" fill="#FDFDFD"/>
<path d="M230.28 89.325C249.502 73.739 250.865 93.744 258.781 103.499C266.697 113.254 259.242 124.217 261.935 128.358C252.275 127.597 221.645 129.686 221.645 129.686C221.645 129.686 215.045 105.786 237.193 97.861" fill="black"/>
<path d="M227.139 135.361C229.455 130.628 229.839 127.827 230.62 124.145C232.32 116.128 234.405 107.593 234.405 107.593L244.29 104.261C245.777 118.193 244.09 117.698 250.635 134.516C252.41 139.08 272.323 140.009 284.397 152.903C296.471 165.797 298.814 184.703 298.928 186.103C301.498 217.457 225.194 199.746 225.194 199.746L210.129 144.513C210.129 144.513 224.829 140.082 227.139 135.361Z" fill="white"/>
<path d="M266.34 205.568C261.931 205.568 257.087 205.318 251.94 204.825C247.784 204.425 243.416 203.869 238.957 203.167C231.174 201.942 225.616 200.667 225.008 200.529C224.867 200.496 224.737 200.425 224.633 200.324C224.529 200.224 224.453 200.097 224.415 199.957L209.354 144.723C209.298 144.521 209.324 144.306 209.426 144.123C209.527 143.94 209.696 143.804 209.897 143.744C213.891 142.544 224.646 138.621 226.418 135.008C227.931 131.947 228.988 128.682 229.558 125.316L229.834 123.979C231.381 116.693 233.255 108.927 233.615 107.444L233.625 107.403C233.657 107.271 233.722 107.15 233.813 107.05C233.905 106.951 234.021 106.876 234.149 106.833L244.034 103.499C244.116 103.471 244.202 103.457 244.288 103.457C244.487 103.456 244.679 103.529 244.827 103.662C244.974 103.794 245.068 103.977 245.088 104.175C245.438 107.454 245.617 109.991 245.76 112.03V112.056C246.228 118.718 246.422 121.475 251.381 134.221C251.959 135.707 255.746 137.004 260.132 138.505H260.137C267.525 141.038 277.625 144.498 284.982 152.357C288.031 155.661 290.621 159.361 292.682 163.357C294.493 166.847 295.988 170.493 297.148 174.25C298.379 178.089 299.242 182.037 299.725 186.04C300.151 191.24 298.51 195.476 294.846 198.64C289.525 203.237 279.931 205.568 266.34 205.568ZM243.596 105.343L235.081 108.213C234.733 109.652 232.916 117.195 231.405 124.313L231.131 125.639C230.537 129.138 229.436 132.531 227.861 135.711C227.102 137.003 226.041 138.092 224.769 138.884C223.206 139.945 221.555 140.873 219.836 141.657C216.997 142.962 214.082 144.094 211.107 145.048L225.841 199.069C227.404 199.414 233.094 200.63 240.679 201.76C249.236 203.105 257.879 203.825 266.541 203.914V203.914C279.641 203.914 288.806 201.73 293.795 197.424C297.095 194.576 298.51 190.895 298.123 186.171C297.078 178.457 294.735 170.976 291.193 164.045C289.22 160.197 286.735 156.634 283.807 153.453C276.726 145.891 266.844 142.506 259.627 140.034H259.614C254.265 138.204 250.732 136.995 249.882 134.812C244.833 121.836 244.635 119.012 244.155 112.175C244.023 110.285 243.873 108.142 243.591 105.347L243.596 105.343Z" fill="black"/>
<path d="M199.272 147.519C190.768 153.809 184.507 165.484 184.507 165.484L208.865 169.697L206.865 184.897L212.232 196.789C212.232 196.789 216.764 239.504 218.032 239.395C219.056 239.295 270.744 238.55 270.744 238.55L273.944 202.415L272.557 174.032L297.711 168.332C297.711 168.332 294.374 154.992 283.777 147.881C273.18 140.77 256.991 133.502 256.192 135.651C255.393 137.8 244.107 168.538 242.477 168.08C242.345 168.044 222.406 168.88 222.406 168.88C222.406 168.88 220.797 142.062 218.523 140.347C216.586 138.874 207.777 141.228 199.272 147.518" fill="#FFD2E1"/>
<path d="M225.336 114.426C222.573 116.02 220.502 111.794 222.853 110.261C223.136 110.084 223.458 109.977 223.791 109.95C224.124 109.922 224.459 109.975 224.767 110.104" fill="white"/>
<path d="M224.13 115.581C223.609 115.568 223.101 115.422 222.652 115.157C222.204 114.892 221.831 114.517 221.568 114.067C221.088 113.361 220.907 112.492 221.065 111.653C221.224 110.813 221.709 110.071 222.414 109.588C222.805 109.338 223.252 109.187 223.714 109.147C224.177 109.108 224.643 109.181 225.071 109.36C225.169 109.4 225.257 109.459 225.332 109.533C225.407 109.607 225.467 109.695 225.508 109.792C225.549 109.89 225.57 109.994 225.571 110.099C225.571 110.205 225.551 110.309 225.511 110.407C225.471 110.505 225.412 110.594 225.338 110.668C225.264 110.743 225.176 110.803 225.079 110.844C224.981 110.885 224.877 110.906 224.772 110.907C224.666 110.907 224.562 110.887 224.464 110.847C224.275 110.768 224.071 110.734 223.866 110.75C223.662 110.766 223.465 110.831 223.291 110.938C222.942 111.197 222.71 111.583 222.643 112.012C222.577 112.442 222.682 112.88 222.936 113.232C223.026 113.405 223.152 113.556 223.305 113.677C223.458 113.797 223.635 113.884 223.824 113.931C224.013 113.978 224.209 113.985 224.401 113.951C224.593 113.916 224.775 113.842 224.936 113.732C225.12 113.626 225.34 113.598 225.545 113.653C225.75 113.708 225.925 113.843 226.032 114.028C226.138 114.212 226.166 114.431 226.111 114.637C226.055 114.842 225.92 115.017 225.736 115.123C225.251 115.416 224.696 115.575 224.129 115.583" fill="black"/>
<path d="M224.233 123.348C225.252 129.448 230.678 131.497 234.615 131.448C238.765 131.412 244.003 128.768 244.407 122.381C244.877 114.956 244.886 98.705 244.182 95.82C243.478 92.935 241.027 89.663 237.327 87.441C232.393 84.473 224.711 87.853 224.352 92.188C223.167 106.543 223.516 119.062 224.233 123.348Z" fill="white"/>
<path d="M234.465 132.253C231.996 132.275 229.579 131.539 227.541 130.145C226.498 129.414 225.608 128.486 224.92 127.414C224.166 126.217 223.663 124.879 223.442 123.481C222.752 119.365 222.331 106.914 223.552 92.1221C223.722 90.0591 225.312 88.0661 227.804 86.7921C229.415 85.9645 231.2 85.5294 233.011 85.5221C234.67 85.4968 236.305 85.923 237.741 86.7551C241.395 88.9491 244.162 92.3551 244.963 95.6311C245.711 98.7031 245.663 115.27 245.208 122.431C244.784 129.118 239.423 132.208 234.621 132.249L234.465 132.253ZM233.014 87.1221C231.456 87.1311 229.921 87.508 228.536 88.2221C226.542 89.2411 225.276 90.7491 225.152 92.2531C223.943 106.906 224.352 119.18 225.024 123.216C225.226 124.524 225.725 125.769 226.481 126.855C227.142 127.777 227.987 128.553 228.961 129.134C230.639 130.116 232.547 130.638 234.492 130.647H234.604C238.687 130.612 243.245 127.996 243.604 122.334C244.091 114.647 244.057 98.7011 243.404 96.0131C242.704 93.1341 240.216 90.1131 236.916 88.1331C235.731 87.4484 234.382 87.0989 233.014 87.1221V87.1221Z" fill="black"/>
<path d="M229.165 116.191C228.818 116.219 228.471 116.158 228.154 116.015C227.837 115.872 227.561 115.651 227.353 115.373C226.3 113.799 228.328 110.801 228.975 109.919C229.101 109.746 229.29 109.631 229.501 109.598C229.605 109.582 229.712 109.586 229.815 109.611C229.917 109.636 230.014 109.681 230.099 109.743C230.185 109.806 230.257 109.884 230.312 109.974C230.367 110.065 230.404 110.165 230.42 110.269C230.436 110.374 230.432 110.48 230.407 110.583C230.382 110.686 230.337 110.783 230.275 110.868C229.215 112.31 228.43 114.1 228.686 114.483C228.686 114.483 228.942 114.732 230.186 114.43C230.288 114.405 230.395 114.401 230.499 114.417C230.603 114.434 230.703 114.47 230.793 114.525C230.883 114.58 230.961 114.652 231.023 114.738C231.086 114.823 231.13 114.919 231.155 115.022C231.18 115.124 231.184 115.231 231.168 115.335C231.151 115.439 231.115 115.539 231.06 115.629C231.005 115.719 230.933 115.797 230.847 115.859C230.762 115.921 230.665 115.966 230.563 115.991C230.106 116.113 229.636 116.18 229.163 116.191" fill="black"/>
<path d="M232.757 109.536C232.741 109.324 232.81 109.115 232.949 108.955C233.087 108.794 233.284 108.695 233.495 108.679C233.705 108.692 233.901 108.786 234.043 108.941C234.184 109.097 234.259 109.302 234.251 109.512C234.265 109.723 234.195 109.931 234.057 110.091C233.919 110.252 233.724 110.351 233.513 110.369C233.303 110.358 233.105 110.264 232.964 110.108C232.822 109.952 232.748 109.746 232.757 109.536" fill="black"/>
<path d="M225.239 109.294C225.227 109.084 225.297 108.878 225.435 108.72C225.573 108.562 225.768 108.465 225.977 108.449C226.082 108.453 226.184 108.478 226.279 108.522C226.374 108.567 226.459 108.63 226.53 108.707C226.6 108.785 226.654 108.875 226.689 108.974C226.724 109.073 226.739 109.177 226.733 109.282C226.747 109.493 226.678 109.701 226.54 109.862C226.401 110.022 226.206 110.122 225.995 110.139C225.783 110.125 225.586 110.029 225.444 109.871C225.303 109.713 225.229 109.506 225.239 109.294" fill="black"/>
<path d="M242.948 115.452C245.69 117.07 247.813 112.881 245.482 111.323C245.202 111.14 244.882 111.027 244.548 110.996C244.215 110.964 243.879 111.014 243.57 111.142" fill="white"/>
<path d="M244.17 116.62C243.594 116.611 243.03 116.447 242.54 116.144C242.449 116.09 242.37 116.019 242.306 115.935C242.243 115.851 242.197 115.755 242.17 115.653C242.144 115.551 242.138 115.444 242.153 115.34C242.167 115.235 242.202 115.135 242.256 115.044C242.31 114.953 242.381 114.874 242.465 114.81C242.549 114.747 242.645 114.7 242.747 114.674C242.849 114.648 242.956 114.642 243.06 114.656C243.165 114.671 243.265 114.706 243.356 114.76C243.516 114.872 243.698 114.948 243.89 114.984C244.082 115.021 244.279 115.016 244.469 114.97C244.659 114.924 244.837 114.838 244.991 114.718C245.146 114.599 245.273 114.447 245.364 114.275C245.622 113.928 245.732 113.494 245.671 113.066C245.609 112.638 245.381 112.252 245.036 111.992C244.865 111.882 244.67 111.814 244.467 111.796C244.264 111.778 244.06 111.809 243.872 111.887C243.675 111.966 243.454 111.964 243.258 111.881C243.062 111.798 242.907 111.64 242.827 111.442C242.748 111.245 242.75 111.024 242.833 110.828C242.917 110.632 243.075 110.477 243.272 110.398C243.703 110.223 244.171 110.155 244.634 110.201C245.098 110.246 245.543 110.403 245.932 110.659C246.628 111.148 247.102 111.893 247.251 112.73C247.4 113.568 247.211 114.43 246.725 115.129C246.459 115.573 246.086 115.942 245.639 116.202C245.192 116.463 244.687 116.607 244.17 116.62" fill="black"/>
<path d="M226.979 115.826C226.972 115.694 226.963 115.573 226.956 115.44Z" fill="#6295E6"/>
<path d="M247.889 107.049C246.776 112.249 241.746 106.59 236.389 105.021C191.453 91.7729 256.57 66.4349 247.889 107.049Z" fill="black"/>
<path d="M223.655 192.509C223.57 192.508 223.486 192.495 223.405 192.469C213.133 189.114 207.696 187.717 207.638 187.704C207.432 187.651 207.255 187.518 207.146 187.334C207.038 187.151 207.006 186.932 207.06 186.725C207.113 186.519 207.245 186.342 207.429 186.233C207.612 186.125 207.832 186.094 208.038 186.147C208.092 186.161 213.571 187.569 223.903 190.947C224.089 191.003 224.248 191.124 224.351 191.288C224.454 191.452 224.494 191.648 224.463 191.839C224.433 192.031 224.334 192.204 224.185 192.328C224.036 192.452 223.847 192.518 223.653 192.513" fill="black"/>
<path d="M232.256 168.194C232.045 168.194 231.842 168.11 231.692 167.962C231.542 167.813 231.457 167.61 231.456 167.399C231.457 166.904 231.488 166.41 231.547 165.919C231.6 165.486 231.627 165.05 231.629 164.614C231.627 164.509 231.646 164.404 231.685 164.305C231.723 164.207 231.781 164.118 231.855 164.042C231.928 163.966 232.016 163.906 232.113 163.864C232.21 163.822 232.314 163.8 232.42 163.799H232.432C232.643 163.799 232.845 163.882 232.995 164.03C233.144 164.178 233.23 164.379 233.232 164.59C233.231 165.089 233.201 165.588 233.141 166.083C233.089 166.514 233.061 166.949 233.059 167.383C233.061 167.489 233.042 167.594 233.003 167.692C232.964 167.79 232.906 167.879 232.833 167.955C232.759 168.031 232.671 168.091 232.574 168.133C232.477 168.174 232.373 168.196 232.267 168.197L232.256 168.194Z" fill="black"/>
<path d="M135.633 267.08L199.854 278.054L230.089 295.089C230.089 295.089 263.519 287.122 274.772 264.061C286.025 241 274.583 222.929 271.733 218.1C265.974 219.535 218.414 217.664 218.414 217.664C218.414 217.664 190.214 231.753 169.514 244.104C157.75 251.045 146.434 258.719 135.633 267.08" fill="#FF0E11"/>
<path d="M256.108 255.262C255.979 255.262 255.852 255.231 255.738 255.171C255.624 255.111 255.526 255.025 255.452 254.919C255.378 254.813 255.331 254.692 255.315 254.564C255.299 254.436 255.313 254.306 255.358 254.185C256.258 251.729 258.594 244.82 258.558 242.377C258.557 242.272 258.576 242.167 258.615 242.069C258.654 241.971 258.711 241.882 258.785 241.806C258.858 241.731 258.946 241.67 259.043 241.629C259.14 241.587 259.244 241.565 259.349 241.563C259.454 241.562 259.559 241.581 259.657 241.62C259.755 241.659 259.844 241.717 259.92 241.79C259.995 241.863 260.056 241.951 260.098 242.048C260.139 242.145 260.162 242.249 260.163 242.354C260.208 245.592 257.001 254.362 256.865 254.739C256.808 254.894 256.705 255.027 256.569 255.12C256.434 255.214 256.273 255.263 256.108 255.262" fill="black"/>
<path d="M271.86 184.716C255.614 188.133 234.677 190.221 218.865 197.658C216.472 198.781 206.802 204.958 205.426 206.785C204.05 208.612 212.309 205.095 212.309 205.095C212.309 205.095 196.401 209.176 196.077 210.311C195.777 211.386 218.292 210.263 223.097 208.959C227.902 207.655 228.228 207.619 231.062 206.713C235.501 205.3 257.392 204.238 275.499 204.504C288.28 204.673 300.183 203.635 300.183 203.635C300.604 199.705 300.674 195.745 300.393 191.803C299.894 185.972 294.822 169.54 294.822 169.54" fill="white"/>
<path d="M200.825 211.541C197.999 211.541 195.949 211.377 195.537 210.961C195.432 210.845 195.356 210.706 195.316 210.556C195.276 210.405 195.273 210.246 195.306 210.094C195.416 209.704 195.647 208.887 204.8 206.281C206.372 204.244 216.15 198.043 218.523 196.93C230.38 191.356 245.304 188.725 258.468 186.404C263.134 185.582 267.543 184.804 271.695 183.93C271.798 183.908 271.905 183.907 272.008 183.927C272.112 183.946 272.211 183.986 272.299 184.043C272.387 184.101 272.464 184.176 272.523 184.263C272.583 184.35 272.624 184.448 272.646 184.551C272.668 184.654 272.669 184.761 272.649 184.864C272.63 184.968 272.59 185.067 272.532 185.155C272.475 185.243 272.4 185.319 272.313 185.379C272.226 185.438 272.128 185.48 272.025 185.502C267.848 186.381 263.425 187.16 258.746 187.985C245.681 190.285 230.872 192.9 219.207 198.385C215.452 200.455 211.834 202.763 208.374 205.296C209.515 204.991 210.76 204.665 212.108 204.318C212.208 204.284 212.313 204.27 212.418 204.277C212.523 204.284 212.625 204.312 212.719 204.358C212.814 204.405 212.898 204.469 212.967 204.548C213.036 204.627 213.089 204.719 213.123 204.819C213.157 204.918 213.171 205.024 213.164 205.129C213.157 205.233 213.129 205.336 213.083 205.43C213.036 205.524 212.972 205.609 212.893 205.678C212.813 205.747 212.722 205.8 212.622 205.834C206.78 208.32 205.404 208.284 204.9 207.936C202.327 208.679 200.061 209.384 198.56 209.928C204.16 210.102 218.989 209.237 222.888 208.18L225.827 207.388C227.999 206.806 228.727 206.61 230.819 205.944C235.303 204.517 257.019 203.428 275.512 203.696C286.396 203.835 296.782 203.096 299.455 202.883C299.811 199.221 299.858 195.536 299.595 191.866C299.106 186.187 294.104 169.935 294.053 169.772C293.99 169.568 294.011 169.348 294.11 169.16C294.21 168.971 294.38 168.83 294.583 168.767C294.787 168.705 295.007 168.725 295.196 168.825C295.384 168.924 295.525 169.094 295.588 169.298C295.796 169.973 300.688 185.879 301.195 191.729C301.485 195.727 301.414 199.743 300.982 203.729C300.961 203.912 300.877 204.083 300.744 204.211C300.611 204.34 300.438 204.419 300.254 204.434C300.137 204.444 288.172 205.471 275.49 205.306C257.461 205.042 235.582 206.117 231.307 207.478C229.184 208.155 228.443 208.355 226.242 208.944L223.31 209.736C220.745 210.436 208.17 211.543 200.825 211.543" fill="black"/>
<path d="M248.849 92.646C237.177 85.909 246.45 75.043 255.162 77.868C263.874 80.693 258.784 98.38 248.845 92.646" fill="black"/>
<path d="M200.441 276.66C200.259 276.663 200.082 276.605 199.938 276.494C199.795 276.383 199.693 276.227 199.65 276.05C199.606 275.874 199.624 275.688 199.701 275.523C199.777 275.359 199.907 275.225 200.07 275.144C203.85 273.186 207.61 271.066 211.241 269.017C214.911 266.948 218.705 264.808 222.546 262.817C222.64 262.769 222.742 262.739 222.847 262.73C222.952 262.721 223.058 262.733 223.159 262.765C223.259 262.797 223.353 262.848 223.433 262.916C223.514 262.984 223.58 263.067 223.629 263.161C223.678 263.255 223.707 263.357 223.716 263.462C223.725 263.567 223.713 263.673 223.681 263.774C223.649 263.874 223.598 263.968 223.53 264.048C223.462 264.129 223.379 264.196 223.285 264.244C219.47 266.222 215.685 268.354 212.029 270.416C208.373 272.478 204.61 274.599 200.809 276.571C200.694 276.63 200.568 276.66 200.439 276.66" fill="black"/>
<path d="M131.639 218.696C131.534 218.7 131.429 218.683 131.33 218.647C131.232 218.61 131.141 218.555 131.064 218.484C130.908 218.339 130.816 218.139 130.808 217.927C130.8 217.715 130.876 217.508 131.02 217.352C131.165 217.196 131.365 217.104 131.577 217.096L356.463 199.765C356.674 199.753 356.882 199.824 357.042 199.961C357.203 200.099 357.304 200.293 357.325 200.504C357.333 200.609 357.321 200.715 357.288 200.815C357.256 200.916 357.204 201.009 357.135 201.089C357.066 201.169 356.982 201.235 356.888 201.282C356.794 201.33 356.691 201.358 356.586 201.366L131.705 218.694H131.642" fill="black"/>
<path d="M274.101 189.109H274.091C273.985 189.108 273.881 189.086 273.784 189.045C273.687 189.004 273.599 188.943 273.525 188.868C273.451 188.792 273.393 188.703 273.354 188.605C273.315 188.506 273.296 188.402 273.298 188.296C273.034 183.401 272.475 178.526 271.623 173.698C271.599 173.596 271.595 173.489 271.611 173.385C271.628 173.281 271.665 173.181 271.72 173.092C271.775 173.002 271.848 172.924 271.933 172.862C272.018 172.8 272.115 172.756 272.217 172.732C272.32 172.707 272.426 172.703 272.53 172.72C272.634 172.736 272.734 172.773 272.824 172.829C272.914 172.884 272.992 172.956 273.053 173.042C273.115 173.127 273.16 173.224 273.184 173.326C274.069 178.28 274.645 183.284 274.908 188.309C274.906 188.52 274.821 188.722 274.671 188.87C274.521 189.019 274.319 189.102 274.108 189.102" fill="black"/>
<path d="M162.406 214.483L145.506 171.033L214.217 165.878L232.15 209.595L162.406 214.483Z" fill="white"/>
<path d="M162.594 215.46C162.433 215.459 162.275 215.41 162.142 215.319C162.009 215.229 161.906 215.1 161.847 214.95L144.984 171.711C144.939 171.594 144.921 171.469 144.933 171.344C144.945 171.219 144.986 171.099 145.053 170.993C145.12 170.888 145.211 170.799 145.319 170.735C145.426 170.67 145.547 170.632 145.672 170.623L214.241 165.49C214.264 165.49 214.287 165.49 214.311 165.49C214.469 165.492 214.622 165.54 214.753 165.629C214.883 165.718 214.984 165.844 215.043 165.99L232.939 209.49C232.987 209.607 233.006 209.734 232.995 209.86C232.984 209.986 232.944 210.108 232.877 210.216C232.81 210.323 232.718 210.413 232.609 210.478C232.501 210.543 232.378 210.581 232.252 210.59L162.652 215.454L162.594 215.46ZM213.781 167.133L146.873 172.139L163.13 213.819L231.03 209.074L213.781 167.133Z" fill="black"/>
<path d="M221.805 205.454C221.645 205.454 221.489 205.407 221.356 205.318C221.224 205.229 221.121 205.102 221.061 204.954L208.746 174.345L154.792 178.312C154.687 178.322 154.58 178.31 154.479 178.278C154.378 178.246 154.285 178.193 154.205 178.124C154.124 178.055 154.059 177.971 154.012 177.876C153.965 177.781 153.937 177.678 153.931 177.572C153.923 177.467 153.936 177.362 153.969 177.262C154.002 177.162 154.055 177.069 154.124 176.99C154.192 176.91 154.276 176.845 154.37 176.798C154.465 176.751 154.567 176.722 154.672 176.715L209.213 172.703C209.382 172.691 209.551 172.733 209.695 172.823C209.838 172.912 209.95 173.046 210.013 173.203L222.549 204.355C222.588 204.453 222.608 204.557 222.607 204.662C222.606 204.768 222.584 204.872 222.543 204.968C222.501 205.065 222.441 205.153 222.366 205.226C222.291 205.3 222.202 205.358 222.104 205.397C222.009 205.436 221.907 205.455 221.804 205.455" fill="black"/>
<path d="M92.412 34.019L92.164 98.919C92.164 98.919 67.917 100.803 55.114 103.648C42.311 106.493 16.535 108.684 16.535 108.684L10.494 56.728C10.494 56.728 7.826 51.196 30.127 44.151C42.011 40.398 92.412 34.019 92.412 34.019Z" fill="white"/>
<path d="M16.534 109.488C16.3362 109.489 16.145 109.417 15.9973 109.286C15.8495 109.154 15.7558 108.972 15.734 108.776L9.707 56.9209C9.49347 56.1501 9.57439 55.3274 9.934 54.6129C11.053 52.0129 15.423 47.9519 29.888 43.3829C34.6428 42.073 39.4669 41.0294 44.338 40.2569C49.883 39.2739 56.754 38.1779 64.76 36.9999C78.336 34.9999 90.923 33.3999 92.314 33.2199C92.4271 33.2056 92.542 33.2157 92.6509 33.2495C92.7598 33.2833 92.8603 33.3399 92.9455 33.4157C93.0307 33.4915 93.0988 33.5846 93.1451 33.6888C93.1914 33.793 93.2149 33.9059 93.214 34.0199L92.968 98.9129C92.9685 99.1154 92.8923 99.3106 92.7545 99.459C92.6168 99.6075 92.428 99.6982 92.226 99.7129C92.171 99.7129 86.107 100.192 78.392 101.028C71.449 101.78 61.805 102.981 55.292 104.428C42.568 107.254 16.861 109.458 16.607 109.479L16.534 109.488ZM91.605 34.9329C88.079 35.3869 75.559 37.0189 62.467 38.9769C45.721 41.4769 34.921 43.4769 30.367 44.9189C15.753 49.5349 12.216 53.3709 11.408 55.2469C11.2284 55.5949 11.1613 55.9901 11.216 56.3779C11.2548 56.4589 11.2801 56.5457 11.291 56.6349L17.242 107.813C21.542 107.429 43.559 105.389 54.942 102.86C66.431 100.313 87.298 98.5069 91.364 98.1719L91.605 34.9329Z" fill="black"/>
<path d="M49.964 75.491L50.786 150.761C50.786 150.761 36.032 149.902 23.935 142.481C19.6808 139.857 15.6838 136.838 11.997 133.463L10.251 55.469C10.251 55.469 12.095 63.969 28.063 70.395C38.071 74.414 49.963 75.495 49.963 75.495" fill="white"/>
<path d="M50.786 151.564H50.74C47.6114 151.321 44.5053 150.846 41.447 150.143C38.5121 149.493 35.6238 148.648 32.801 147.614C29.5679 146.438 26.458 144.948 23.516 143.164C19.2179 140.507 15.1774 137.455 11.447 134.046C11.3701 133.973 11.3084 133.886 11.2654 133.789C11.2225 133.692 11.1993 133.588 11.197 133.482L9.447 55.4871C9.44168 55.2872 9.51141 55.0925 9.64246 54.9415C9.7735 54.7905 9.95636 54.694 10.155 54.6711C10.1895 54.6665 10.2242 54.6642 10.259 54.6641C10.4418 54.6643 10.619 54.7276 10.7605 54.8433C10.9021 54.9589 10.9994 55.1199 11.036 55.2991C11.6468 57.124 12.6476 58.794 13.969 60.1931C15.5135 61.9481 17.2723 63.5023 19.204 64.8191C22.0671 66.7651 25.1389 68.3848 28.362 69.6481C33.0385 71.4518 37.8821 72.7879 42.822 73.6371C46.976 74.4001 49.913 74.6781 50.036 74.6891C50.2346 74.7065 50.4196 74.7975 50.5546 74.9442C50.6896 75.0909 50.765 75.2827 50.766 75.4821L51.589 150.752C51.5901 150.862 51.5686 150.972 51.5258 151.073C51.483 151.175 51.4197 151.267 51.34 151.343C51.1911 151.486 50.9924 151.565 50.786 151.564V151.564ZM11.136 59.1641L12.792 133.105C16.3766 136.344 20.2467 139.253 24.355 141.795C29.1367 144.636 34.3168 146.744 39.723 148.051C43.0898 148.914 46.5158 149.527 49.973 149.885L49.168 76.2161C46.308 75.8941 36.31 74.5741 27.768 71.1421C23.7367 69.5879 19.9465 67.4691 16.511 64.8491C14.4275 63.2529 12.6129 61.3337 11.136 59.1641V59.1641Z" fill="black"/>
<path d="M190.92 31.5371L190.62 58.3141L155.273 59.8871L154.591 32.6991L190.92 31.5371Z" fill="white"/>
<path d="M155.223 60.692H155.187C154.977 60.692 154.776 60.6098 154.627 60.463C154.477 60.3162 154.391 60.1166 154.387 59.907L153.703 32.72C153.698 32.5083 153.777 32.3033 153.922 32.1491C154.067 31.995 154.267 31.9041 154.479 31.896L190.808 30.733H190.814C191.031 30.7299 191.24 30.8121 191.396 30.962C191.473 31.0385 191.534 31.1297 191.576 31.2301C191.617 31.3306 191.638 31.4383 191.637 31.547L191.337 58.324C191.337 58.5304 191.258 58.7289 191.115 58.878C190.972 59.0271 190.777 59.1152 190.571 59.124L155.223 60.692ZM190.023 32.368L155.328 33.478L155.969 59.046L189.742 57.546L190.023 32.368Z" fill="black"/>
<path d="M124.31 55.324L123.338 88.88L109.777 85.599L103.594 67.804C103.594 67.804 103.077 65.686 107.72 61.812C114.217 56.377 124.31 55.324 124.31 55.324Z" fill="white"/>
<path d="M123.192 89.6861C123.128 89.6859 123.065 89.6782 123.003 89.6631L109.436 86.3821C109.305 86.3507 109.184 86.2867 109.085 86.1962C108.985 86.1056 108.91 85.9914 108.866 85.8641L102.689 68.0701C102.567 67.3406 102.689 66.5912 103.036 65.9381C104.011 64.0792 105.385 62.4589 107.06 61.1931C113.678 55.6551 123.66 54.5671 124.08 54.5231C124.11 54.5196 124.139 54.5179 124.169 54.5181C124.277 54.518 124.383 54.5396 124.482 54.5817C124.581 54.6238 124.671 54.6854 124.746 54.7629C124.82 54.8404 124.879 54.9322 124.917 55.0327C124.955 55.1333 124.973 55.2405 124.969 55.3481L123.997 88.9041C123.991 89.1127 123.904 89.3109 123.755 89.4567C123.606 89.6026 123.406 89.6849 123.197 89.6861H123.192ZM123.336 56.2511C121.069 56.6129 118.835 57.1608 116.658 57.8891C113.546 58.8617 110.64 60.4016 108.088 62.4311C104.045 65.8051 104.236 67.6371 104.236 67.6551L110.236 84.9181L122.416 87.8651L123.336 56.2511Z" fill="black"/>
<path d="M136.004 81.399L135.656 123.017C135.656 123.017 124.966 122.63 116.801 119.494C111.756 117.47 107.39 114.052 104.214 109.64L104.335 67.248C106.563 71.7042 110.312 75.216 114.904 77.148C122.747 80.574 136.004 81.397 136.004 81.397" fill="white"/>
<path d="M135.506 123.821H135.477C135.036 123.805 124.577 123.401 116.364 120.246C111.154 118.175 106.651 114.647 103.394 110.083C103.307 109.951 103.261 109.796 103.261 109.638L103.382 67.2451C103.383 67.0601 103.448 66.8811 103.565 66.7381C103.683 66.5952 103.846 66.497 104.027 66.4601C104.078 66.4501 104.131 66.4451 104.183 66.4451C104.341 66.4446 104.495 66.4908 104.627 66.578C104.759 66.6652 104.862 66.7895 104.923 66.9351C105.538 68.2099 106.31 69.4023 107.223 70.4841C108.156 71.6214 109.206 72.6574 110.356 73.5751C111.797 74.7236 113.384 75.6774 115.074 76.4121C122.703 79.7441 135.774 80.5881 135.904 80.5961C136.11 80.6079 136.303 80.6988 136.444 80.8497C136.584 81.0006 136.661 81.1999 136.658 81.4061L136.31 123.023C136.309 123.131 136.287 123.237 136.244 123.335C136.202 123.434 136.14 123.523 136.063 123.598C135.913 123.742 135.714 123.822 135.506 123.821V123.821ZM104.979 70.2131L104.868 109.389C107.955 113.558 112.131 116.795 116.937 118.745C120.301 119.97 123.782 120.844 127.326 121.353C130.583 121.866 133.351 122.086 134.711 122.171L135.045 82.1511C131.945 81.9091 121.29 80.8851 114.433 77.8911C110.632 76.2563 107.359 73.5983 104.979 70.2131V70.2131Z" fill="black"/>
<path d="M159.712 44.8851H159.612H159.606C159.08 44.8691 158.563 44.7438 158.088 44.517C157.613 44.2903 157.191 43.9671 156.848 43.5681C156.136 42.7536 155.761 41.699 155.799 40.6181C155.794 39.5655 156.202 38.5529 156.935 37.7977C157.669 37.0425 158.669 36.605 159.721 36.5791H159.842C160.368 36.5949 160.884 36.72 161.359 36.9464C161.834 37.1728 162.256 37.4955 162.599 37.8941C163.31 38.709 163.684 39.7635 163.647 40.8441C163.623 41.9159 163.195 42.9391 162.449 43.7091C162.095 44.0791 161.671 44.3739 161.2 44.576C160.73 44.7781 160.224 44.8832 159.712 44.8851V44.8851ZM159.735 38.1851C159.43 38.1874 159.129 38.2526 158.85 38.3766C158.572 38.5007 158.322 38.6809 158.116 38.9061C157.672 39.3842 157.42 40.0089 157.407 40.6611C157.38 41.3343 157.611 41.9923 158.053 42.5011C158.252 42.7336 158.496 42.9221 158.772 43.0547C159.047 43.1873 159.347 43.261 159.653 43.2711H159.719C160.023 43.2684 160.323 43.2029 160.601 43.0787C160.879 42.9544 161.127 42.7741 161.332 42.5491C161.774 42.072 162.026 41.4494 162.04 40.7991C162.067 40.1271 161.838 39.4699 161.399 38.9601C161.201 38.7274 160.956 38.5387 160.68 38.406C160.405 38.2732 160.105 38.1994 159.799 38.1891L159.735 38.1851Z" fill="black"/>
<path d="M160.332 55.59H160.227C159.701 55.5733 159.184 55.4475 158.71 55.2206C158.235 54.9937 157.812 54.6707 157.469 54.272C156.758 53.461 156.383 52.4099 156.419 51.332C156.442 50.2631 156.865 49.2417 157.604 48.469C157.956 48.0978 158.379 47.8018 158.849 47.5992C159.319 47.3965 159.825 47.2913 160.336 47.29H160.46C160.986 47.3062 161.502 47.4313 161.977 47.6575C162.452 47.8837 162.875 48.206 163.219 48.604C163.929 49.416 164.304 50.4679 164.266 51.546C164.242 52.6174 163.815 53.6402 163.069 54.41C162.716 54.7807 162.291 55.0763 161.821 55.279C161.351 55.4818 160.844 55.5876 160.332 55.59V55.59ZM160.319 48.9C159.69 48.9327 159.098 49.21 158.67 49.6727C158.242 50.1355 158.012 50.7471 158.029 51.377C158.004 52.0467 158.235 52.7007 158.675 53.206C158.874 53.4379 159.119 53.6258 159.394 53.758C159.67 53.8902 159.97 53.9638 160.275 53.974H160.375C160.678 53.9717 160.977 53.9058 161.252 53.7805C161.528 53.6553 161.774 53.4735 161.975 53.247C162.41 52.7665 162.657 52.1451 162.67 51.497C162.692 50.8282 162.459 50.176 162.019 49.672C161.82 49.44 161.575 49.2517 161.3 49.1192C161.024 48.9867 160.724 48.9127 160.419 48.902L160.319 48.9Z" fill="black"/>
<path d="M173.203 40.0659C172.993 40.0659 172.791 39.9838 172.641 39.8371C172.491 39.6905 172.404 39.4909 172.398 39.2809C172.393 39.071 172.47 38.8673 172.613 38.7133C172.756 38.5594 172.953 38.4674 173.163 38.4569L189.763 37.5479C189.976 37.5386 190.183 37.6129 190.342 37.755C190.5 37.8971 190.596 38.0956 190.61 38.3079C190.616 38.4134 190.602 38.5191 190.567 38.6189C190.532 38.7187 190.478 38.8107 190.408 38.8894C190.337 38.9682 190.252 39.0322 190.156 39.0778C190.061 39.1233 189.958 39.1495 189.852 39.1549L173.252 40.0629H173.203" fill="black"/>
<path d="M173.203 50.5251C172.993 50.525 172.791 50.4429 172.641 50.2963C172.491 50.1496 172.404 49.95 172.398 49.7401C172.393 49.5301 172.47 49.3264 172.613 49.1725C172.756 49.0185 172.953 48.9265 173.163 48.9161L189.763 47.9951C189.975 47.9865 190.182 48.061 190.341 48.2027C190.499 48.3444 190.595 48.5422 190.61 48.7541C190.622 48.9671 190.549 49.1761 190.406 49.3352C190.264 49.4943 190.065 49.5907 189.852 49.6031L173.252 50.5231H173.203" fill="black"/>
<path d="M173.36 44.2419C173.15 44.2419 172.948 44.1598 172.798 44.0131C172.648 43.8665 172.561 43.6669 172.555 43.4569C172.55 43.247 172.627 43.0433 172.77 42.8894C172.913 42.7354 173.11 42.6434 173.32 42.6329L189.919 41.7119C190.025 41.7061 190.13 41.7211 190.23 41.7561C190.33 41.7911 190.422 41.8454 190.501 41.9159C190.579 41.9865 190.643 42.0718 190.689 42.1671C190.735 42.2624 190.762 42.3658 190.768 42.4714C190.773 42.577 190.758 42.6827 190.723 42.7825C190.688 42.8823 190.634 42.9742 190.563 43.053C190.493 43.1318 190.408 43.1959 190.312 43.2417C190.217 43.2875 190.114 43.3141 190.008 43.3199L173.408 44.2399H173.36" fill="black"/>
<path d="M173.361 54.7001C173.151 54.7001 172.949 54.618 172.799 54.4713C172.649 54.3247 172.562 54.1251 172.556 53.9151C172.551 53.7052 172.628 53.5015 172.771 53.3475C172.914 53.1936 173.111 53.1016 173.321 53.0911L189.919 52.1711C190.131 52.1623 190.339 52.2368 190.497 52.3788C190.655 52.5208 190.752 52.719 190.766 52.9311C190.772 53.0365 190.758 53.1422 190.723 53.2419C190.688 53.3417 190.634 53.4336 190.564 53.5123C190.494 53.591 190.408 53.6551 190.313 53.7007C190.218 53.7463 190.114 53.7726 190.009 53.7781L173.409 54.6981H173.361" fill="black"/>
<path d="M23.847 62.9319C23.6612 62.9318 23.4811 62.8675 23.3373 62.7498C23.1935 62.6321 23.0948 62.4682 23.0581 62.286C23.0213 62.1039 23.0488 61.9146 23.1357 61.7503C23.2226 61.5861 23.3637 61.457 23.535 61.3849C36.625 55.8799 66.667 48.0949 85.867 47.9219H85.874C86.0875 47.921 86.2926 48.0049 86.4442 48.1552C86.5959 48.3055 86.6816 48.5099 86.6825 48.7234C86.6834 48.9369 86.5995 49.142 86.4492 49.2936C86.2989 49.4453 86.0945 49.531 85.881 49.5319C66.881 49.7039 37.125 57.4159 24.161 62.8689C24.0628 62.9101 23.9575 62.9315 23.851 62.9319" fill="black"/>
<path d="M41.237 72.059C41.047 72.058 40.8634 71.9897 40.7189 71.8663C40.5743 71.7429 40.4781 71.5724 40.4472 71.3849C40.4163 71.1974 40.4527 71.005 40.5501 70.8417C40.6474 70.6785 40.7993 70.555 40.979 70.493C53.012 66.338 65.681 64.623 77.937 62.963L78.477 62.89C78.6892 62.8615 78.904 62.9184 79.0742 63.0483C79.2444 63.1782 79.356 63.3703 79.3845 63.5825C79.413 63.7947 79.3561 64.0095 79.2262 64.1797C79.0963 64.3499 78.9042 64.4615 78.692 64.49L78.151 64.564C65.414 66.283 53.385 67.912 41.503 72.016C41.4173 72.0448 41.3274 72.0593 41.237 72.059" fill="black"/>
<path d="M56.213 83.6441C56.023 83.643 55.8394 83.5748 55.6949 83.4514C55.5503 83.328 55.4541 83.1575 55.4232 82.9699C55.3923 82.7824 55.4287 82.59 55.5261 82.4268C55.6234 82.2636 55.7753 82.14 55.955 82.0781C61.332 80.2191 73.951 78.6321 74.486 78.5661C74.5912 78.5521 74.6981 78.5592 74.8005 78.5869C74.9029 78.6146 74.9988 78.6625 75.0826 78.7276C75.1663 78.7927 75.2363 78.8739 75.2884 78.9663C75.3405 79.0588 75.3737 79.1607 75.386 79.2661C75.4 79.3712 75.3929 79.4782 75.3652 79.5806C75.3374 79.683 75.2896 79.7789 75.2245 79.8626C75.1593 79.9464 75.0782 80.0164 74.9857 80.0684C74.8933 80.1205 74.7914 80.1537 74.686 80.1661C74.557 80.1821 61.698 81.7991 56.48 83.6031C56.3939 83.6313 56.3036 83.6451 56.213 83.6441" fill="black"/>
<path d="M53.902 97.1049C53.6919 97.1256 53.4822 97.0624 53.3185 96.9291C53.1549 96.7958 53.0505 96.6032 53.0282 96.3933C53.0059 96.1834 53.0675 95.9732 53.1995 95.8085C53.3315 95.6437 53.5233 95.5379 53.733 95.5139C53.885 95.4799 69.045 92.1539 76.448 91.3719C76.553 91.3604 76.6592 91.3699 76.7606 91.3996C76.8619 91.4294 76.9564 91.479 77.0385 91.5455C77.1206 91.6119 77.1887 91.694 77.2389 91.7869C77.2891 91.8799 77.3204 91.9818 77.331 92.0869C77.3428 92.192 77.3336 92.2984 77.304 92.3999C77.2744 92.5014 77.225 92.5961 77.1586 92.6784C77.0922 92.7607 77.0102 92.829 76.9172 92.8794C76.8242 92.9298 76.7222 92.9612 76.617 92.9719C69.302 93.7459 54.23 97.0529 54.077 97.0859C54.0196 97.0989 53.9609 97.1053 53.902 97.1049" fill="black"/>
<path d="M111.302 106.279H111.278C111.172 106.276 111.068 106.253 110.972 106.209C110.875 106.166 110.788 106.104 110.716 106.027C110.643 105.95 110.587 105.86 110.55 105.761C110.513 105.662 110.495 105.557 110.499 105.451C110.586 102.389 110.377 99.258 110.176 96.232C109.97 93.143 109.759 89.951 109.85 86.762C109.851 86.6559 109.873 86.5512 109.916 86.4539C109.958 86.3567 110.019 86.2689 110.096 86.1959C110.173 86.1228 110.264 86.066 110.363 86.0287C110.462 85.9915 110.568 85.9745 110.674 85.979C110.78 85.9815 110.884 86.0051 110.981 86.0482C111.077 86.0913 111.164 86.1532 111.237 86.2302C111.309 86.3072 111.366 86.3978 111.403 86.4968C111.44 86.5958 111.458 86.7012 111.454 86.807C111.366 89.918 111.576 93.073 111.779 96.123C111.982 99.173 112.193 102.356 112.104 105.497C112.099 105.706 112.013 105.905 111.863 106.051C111.714 106.197 111.513 106.279 111.304 106.279" fill="black"/>
<path d="M119.284 107.636H119.257C119.151 107.633 119.047 107.61 118.951 107.567C118.854 107.523 118.767 107.461 118.695 107.384C118.622 107.308 118.566 107.217 118.529 107.118C118.492 107.019 118.474 106.914 118.478 106.808C118.502 105.936 118.534 105.038 118.566 104.122C118.757 98.6311 118.981 92.4051 117.876 87.3691C117.853 87.266 117.851 87.1596 117.87 87.0557C117.888 86.9519 117.927 86.8527 117.984 86.7638C118.041 86.6749 118.114 86.5981 118.201 86.5378C118.287 86.4774 118.385 86.4347 118.488 86.4121C118.591 86.3894 118.697 86.3873 118.801 86.4058C118.905 86.4243 119.004 86.463 119.093 86.5199C119.182 86.5767 119.259 86.6505 119.319 86.737C119.38 86.8235 119.422 86.921 119.445 87.0241C120.592 92.2581 120.37 98.5901 120.174 104.178C120.141 105.091 120.111 105.985 120.086 106.853C120.081 107.062 119.995 107.261 119.845 107.407C119.696 107.553 119.495 107.635 119.286 107.635" fill="black"/>
<path d="M128.309 108.787H128.288C128.182 108.784 128.078 108.761 127.981 108.717C127.884 108.674 127.797 108.612 127.725 108.534C127.652 108.457 127.596 108.366 127.559 108.267C127.522 108.167 127.505 108.062 127.509 107.956C127.589 105.122 127.609 102.24 127.632 99.4559C127.655 96.6719 127.675 93.7829 127.756 90.9389C127.754 90.8318 127.774 90.7254 127.815 90.6265C127.857 90.5276 127.918 90.4384 127.996 90.3647C128.074 90.291 128.166 90.2343 128.267 90.1984C128.368 90.1624 128.475 90.148 128.582 90.1559C128.688 90.1586 128.792 90.1823 128.888 90.2254C128.985 90.2686 129.072 90.3305 129.144 90.4075C129.217 90.4845 129.273 90.5751 129.31 90.674C129.347 90.773 129.365 90.8783 129.361 90.9839C129.281 93.8109 129.261 96.6839 129.239 99.4659C129.218 102.266 129.196 105.153 129.115 108.004C129.11 108.213 129.024 108.412 128.874 108.558C128.725 108.704 128.524 108.786 128.315 108.786" fill="black"/>
<path d="M126.695 92.493C126.599 92.4933 126.504 92.476 126.415 92.442C125.647 92.155 124.744 91.781 123.762 91.374C120.334 89.952 115.639 88.003 113.071 88.426C112.967 88.443 112.86 88.4393 112.757 88.4151C112.654 88.391 112.557 88.3467 112.472 88.285C112.298 88.1604 112.182 87.9721 112.147 87.7615C112.113 87.5509 112.164 87.3353 112.288 87.1622C112.413 86.989 112.601 86.8724 112.812 86.838C115.827 86.338 120.568 88.306 124.377 89.886C125.338 90.286 126.225 90.651 126.977 90.933C127.154 90.999 127.301 91.1249 127.395 91.2887C127.488 91.4525 127.521 91.6438 127.487 91.8293C127.454 92.0148 127.357 92.1828 127.212 92.3039C127.068 92.425 126.885 92.4916 126.697 92.492" fill="black"/>
<path d="M125.179 98.7751C125.011 98.7749 124.847 98.7221 124.71 98.6241C122.625 97.1211 119.499 96.5191 116.482 95.9361C114.528 95.6153 112.602 95.1395 110.723 94.5131C110.528 94.4349 110.371 94.2836 110.286 94.0916C110.201 93.8996 110.194 93.6819 110.267 93.4849C110.34 93.2879 110.487 93.1272 110.677 93.037C110.867 92.9469 111.084 92.9343 111.283 93.0021C113.078 93.5982 114.918 94.0496 116.785 94.3521C119.977 94.9671 123.276 95.6041 125.649 97.3131C125.787 97.4125 125.891 97.5532 125.944 97.7151C125.998 97.877 125.998 98.0517 125.946 98.2139C125.894 98.3761 125.791 98.5176 125.653 98.6179C125.516 98.7182 125.349 98.7722 125.179 98.7721" fill="black"/>
<path d="M125.996 105.965C125.901 105.965 125.807 105.948 125.718 105.914C124.106 105.402 122.458 105.012 120.787 104.746C117.05 104.034 113.186 103.299 111.241 101.221C111.095 101.066 111.016 100.859 111.023 100.645C111.03 100.432 111.121 100.23 111.276 100.084C111.431 99.938 111.639 99.8595 111.852 99.8661C112.065 99.8727 112.267 99.9637 112.413 100.119C113.998 101.815 117.765 102.532 121.087 103.165C122.845 103.445 124.579 103.86 126.274 104.407C126.451 104.473 126.599 104.598 126.693 104.762C126.787 104.926 126.82 105.117 126.787 105.303C126.754 105.489 126.657 105.657 126.512 105.779C126.367 105.9 126.185 105.967 125.996 105.967" fill="black"/>
<path d="M32.609 86.7859C32.6109 85.2409 33.2257 83.7598 34.3186 82.6677C35.4114 81.5756 36.893 80.9617 38.438 80.9609C39.9798 81.052 41.4228 81.7501 42.4511 82.9025C43.4795 84.0549 44.0094 85.5677 43.925 87.1099C43.9231 88.6544 43.3087 90.1351 42.2165 91.2271C41.1243 92.3192 39.6435 92.9333 38.099 92.9349C36.5566 92.8446 35.1129 92.1469 34.0839 90.9944C33.055 89.8419 32.5246 88.3286 32.609 86.7859" fill="black"/>
<path d="M38.246 93.7411C38.188 93.7411 38.134 93.7411 38.076 93.7411C36.3212 93.6418 34.6768 92.8523 33.5021 91.545C32.3274 90.2376 31.7176 88.5185 31.806 86.7631C31.8441 85.0158 32.5364 83.3465 33.746 82.0851C34.3252 81.4761 35.022 80.991 35.7941 80.6591C36.5662 80.3272 37.3976 80.1554 38.238 80.1541C38.312 80.1541 38.387 80.1541 38.461 80.1541C40.215 80.2548 41.8581 81.0448 43.032 82.352C44.206 83.6591 44.8156 85.3773 44.728 87.1321C44.6868 88.8862 43.9817 90.5594 42.755 91.8141C42.1706 92.4206 41.4704 92.9037 40.6959 93.2347C39.9214 93.5657 39.0883 93.7379 38.246 93.7411V93.7411ZM38.318 81.7661C37.6821 81.7697 37.0534 81.9012 36.4693 82.1527C35.8852 82.4042 35.3576 82.7706 34.918 83.2301C33.9847 84.1909 33.4489 85.4689 33.418 86.8081C33.3424 88.137 33.7949 89.4421 34.6771 90.4389C35.5593 91.4357 36.7997 92.0436 38.128 92.1301H38.29C39.5906 92.0739 40.8194 91.5181 41.7205 90.5785C42.6216 89.6389 43.1254 88.3879 43.127 87.0861C43.2015 85.757 42.7479 84.4523 41.865 83.4561C40.9821 82.4599 39.7414 81.8528 38.413 81.7671H38.313L38.318 81.7661Z" fill="white"/>
<path d="M427.713 107.993C416.266 105.11 404.651 102.943 392.935 101.505C374.362 99.3019 360.912 99.1199 360.912 99.1199L360.441 33.0139C360.441 33.0139 403.79 35.2409 421.302 37.6379C431.65 39.0669 453.767 44.6469 460.541 48.8839C468.925 54.1259 468.986 58.2529 468.986 58.2529L447.004 99.6889L427.713 107.993Z" fill="white"/>
<path d="M427.712 108.798C427.643 108.798 427.574 108.79 427.507 108.773C427.472 108.763 423.346 107.679 416.975 106.336C411.188 105.116 402.303 103.427 392.84 102.304C374.908 100.178 361.471 99.935 360.908 99.925H360.9C360.69 99.9211 360.489 99.8353 360.341 99.6859C360.194 99.5365 360.11 99.3353 360.108 99.125L359.637 33.02C359.636 32.9105 359.658 32.8019 359.7 32.7009C359.743 32.6 359.806 32.5088 359.885 32.433C360.043 32.2871 360.252 32.2073 360.467 32.21H360.481H360.546C365.037 32.449 404.856 34.575 421.41 36.842C432.249 38.337 454.281 44.02 460.964 48.201C469.629 53.618 469.784 58.055 469.787 58.241C469.789 58.3769 469.757 58.5111 469.693 58.631L447.712 100.067C447.626 100.228 447.488 100.356 447.321 100.429L428.03 108.729C427.93 108.774 427.822 108.797 427.712 108.798ZM361.249 33.862L361.708 98.332C365.076 98.416 377.29 98.839 393.029 100.706C400.235 101.561 407.941 102.829 415.929 104.475C422.155 105.757 426.47 106.843 427.645 107.146L446.423 99.062L468.152 58.099C467.878 57.0155 467.366 56.0068 466.652 55.147C464.822 52.913 462.609 51.0234 460.115 49.567C453.594 45.489 431.898 39.91 421.193 38.436C405.413 36.276 368.493 34.247 361.25 33.862H361.249Z" fill="black"/>
<path d="M468.967 57.926L469.196 131.731C469.196 131.731 460.862 141.476 440.838 147.044C418.554 153.242 411.213 152.649 411.213 152.649L411.341 80.115C421.581 78.5835 431.715 76.4126 441.683 73.615C462.242 67.586 468.967 57.926 468.967 57.926Z" fill="white"/>
<path d="M411.851 153.472C411.66 153.472 411.383 153.472 411.151 153.453C410.95 153.435 410.764 153.344 410.627 153.196C410.49 153.048 410.414 152.854 410.412 152.653L410.538 80.1141C410.538 79.9201 410.607 79.7326 410.734 79.5857C410.861 79.4388 411.036 79.3424 411.228 79.3141C421.428 77.7824 431.524 75.6196 441.457 72.8381C445.807 71.5859 450.041 69.9578 454.109 67.9721C457.006 66.5537 459.773 64.8847 462.379 62.9841C464.61 61.4386 466.608 59.5799 468.309 57.4651C468.406 57.3234 468.545 57.2165 468.707 57.1602C468.869 57.1038 469.045 57.101 469.208 57.1521C469.372 57.2031 469.515 57.3055 469.616 57.4439C469.717 57.5824 469.771 57.7497 469.77 57.9211L470 131.727C470 131.92 469.931 132.107 469.806 132.253C469.46 132.658 461.091 142.245 441.051 147.817C434.227 149.777 427.303 151.371 420.309 152.594C417.517 153.105 414.689 153.398 411.851 153.472V153.472ZM468.17 60.1041C465.675 62.6525 462.86 64.8666 459.795 66.6911C454.199 70.0358 448.184 72.625 441.908 74.3911C436.462 75.9791 430.241 77.4711 423.419 78.8211C417.973 79.8991 413.719 80.5711 412.143 80.8091L412.018 151.856C414.847 151.751 417.665 151.441 420.45 150.929C427.251 149.726 433.984 148.171 440.624 146.27C444.624 145.167 448.534 143.757 452.318 142.054C455.22 140.747 458.024 139.232 460.709 137.521C463.501 135.796 466.081 133.749 468.396 131.421L468.17 60.1041Z" fill="black"/>
<path d="M282.175 43.6789C281.894 53.6919 281.894 53.6919 281.614 63.7009C250.025 63.5549 251.228 62.1029 219.639 61.9579C220.034 52.0429 219.981 43.5919 220.374 33.6919C251.85 33.7399 250.699 43.6299 282.174 43.6789" fill="white"/>
<path d="M281.63 64.506C265.814 64.433 258.082 64.027 250.604 63.633C243.145 63.241 235.432 62.833 219.655 62.762C219.547 62.7613 219.44 62.7388 219.341 62.696C219.242 62.6531 219.152 62.5907 219.077 62.5126C219.003 62.4344 218.945 62.342 218.906 62.2409C218.868 62.1398 218.851 62.032 218.855 61.924C219.052 57.057 219.133 52.466 219.217 48.026V47.79C219.304 43.299 219.39 38.657 219.588 33.66C219.595 33.452 219.682 33.2548 219.832 33.1103C219.982 32.9658 220.182 32.8854 220.39 32.886C236.258 32.911 244.027 35.457 251.541 37.92C258.931 40.343 266.572 42.849 282.193 42.873C282.3 42.8729 282.407 42.8945 282.506 42.9365C282.605 42.9784 282.694 43.0398 282.769 43.1171C282.843 43.1944 282.902 43.2859 282.94 43.3862C282.979 43.4866 282.997 43.5936 282.993 43.701L282.431 63.723C282.427 63.9324 282.34 64.1317 282.19 64.2781C282.041 64.4245 281.839 64.5063 281.63 64.506V64.506ZM221.163 34.5C220.989 39.114 220.907 43.489 220.828 47.721V47.821C220.754 51.857 220.67 56.43 220.492 61.158C235.759 61.241 243.348 61.64 250.692 62.026C258.036 62.412 265.592 62.811 280.855 62.893L281.372 44.482C266.06 44.372 258.429 41.871 251.049 39.452H251.044C243.768 37.067 236.252 34.604 221.163 34.5Z" fill="black"/>
<path d="M267.16 50.034C261.802 46.705 257.97 50.349 249.914 50.385C241.858 50.421 240.819 43.691 235.985 41.233C233.319 39.7915 230.301 39.1328 227.277 39.333L226.909 56.643L277.184 59.028C274.28 55.5761 270.905 52.5486 267.16 50.034" fill="#FFD2E1"/>
<path d="M232.549 57.0491H232.517C232.304 57.0393 232.103 56.9453 231.959 56.7878C231.815 56.6304 231.74 56.4223 231.749 56.2091L232.428 40.7621C232.433 40.6571 232.458 40.5539 232.502 40.4587C232.547 40.3634 232.61 40.2778 232.687 40.2068C232.765 40.1358 232.856 40.0808 232.955 40.0449C233.053 40.009 233.158 39.993 233.264 39.9976C233.369 40.0023 233.472 40.0276 233.567 40.0721C233.662 40.1166 233.748 40.1794 233.819 40.257C233.89 40.3346 233.945 40.4254 233.981 40.5243C234.017 40.6231 234.033 40.7281 234.028 40.8331L233.355 56.2801C233.347 56.487 233.26 56.6829 233.11 56.8265C232.961 56.9701 232.762 57.0503 232.555 57.0501" fill="black"/>
<path d="M250.099 58.5499H250.067C249.854 58.5403 249.653 58.4464 249.509 58.2889C249.365 58.1314 249.29 57.9231 249.299 57.7099L249.979 42.2629C249.997 42.0532 250.094 41.8581 250.249 41.7158C250.404 41.5735 250.607 41.4943 250.817 41.4939C250.923 41.4983 251.026 41.5235 251.122 41.5682C251.218 41.6128 251.304 41.6761 251.375 41.7542C251.446 41.8323 251.501 41.9237 251.537 42.0232C251.573 42.1227 251.588 42.2283 251.583 42.3339L250.899 57.7799C250.891 57.9868 250.804 58.1827 250.654 58.3263C250.505 58.4699 250.306 58.55 250.099 58.5499" fill="black"/>
<path d="M268.864 59.0101H268.828C268.722 59.0055 268.618 58.9799 268.523 58.9349C268.427 58.8899 268.341 58.8263 268.27 58.7477C268.199 58.6692 268.144 58.5774 268.109 58.4775C268.073 58.3777 268.058 58.2718 268.064 58.1661L268.653 45.9521C268.67 45.7415 268.766 45.5453 268.923 45.4032C269.079 45.2611 269.284 45.1839 269.495 45.1871C269.601 45.192 269.704 45.2177 269.8 45.2628C269.895 45.3079 269.981 45.3714 270.052 45.4498C270.123 45.5282 270.177 45.6198 270.212 45.7194C270.248 45.819 270.263 45.9246 270.257 46.0301L269.664 58.2441C269.655 58.4503 269.567 58.6452 269.418 58.7879C269.269 58.9307 269.07 59.0103 268.864 59.0101" fill="black"/>
<path d="M454.616 59.9181C454.531 59.9177 454.446 59.9042 454.365 59.8781C439.29 54.9101 414.187 51.0331 397.185 49.7711C396.972 49.7554 396.773 49.6557 396.634 49.4938C396.494 49.332 396.424 49.1213 396.44 48.9081C396.456 48.6948 396.555 48.4965 396.717 48.3568C396.879 48.2171 397.09 48.1474 397.303 48.1631C414.403 49.4321 439.668 53.3371 454.867 58.3451C455.049 58.4047 455.204 58.5273 455.304 58.6908C455.403 58.8543 455.442 59.048 455.411 59.2371C455.381 59.4263 455.284 59.5984 455.139 59.7227C454.993 59.8469 454.808 59.9151 454.616 59.9151" fill="black"/>
<path d="M442.428 70.86C442.371 70.8599 442.315 70.8539 442.259 70.842C428.68 67.942 394.692 61.405 372.414 63.377C372.201 63.3958 371.99 63.3294 371.826 63.1923C371.662 63.0552 371.56 62.8587 371.541 62.646C371.522 62.4333 371.589 62.2218 371.726 62.0581C371.863 61.8944 372.059 61.7918 372.272 61.773C394.766 59.787 428.941 66.351 442.595 69.269C442.789 69.3107 442.961 69.4228 443.077 69.5835C443.194 69.7443 443.247 69.9425 443.226 70.14C443.206 70.3375 443.113 70.5203 442.965 70.6534C442.818 70.7865 442.627 70.8604 442.428 70.861" fill="black"/>
<path d="M390.848 79.1169C390.804 79.1182 390.76 79.1158 390.717 79.1099C378.185 77.0529 367.301 76.9099 354.696 76.7449L352.778 76.7199C352.564 76.7189 352.36 76.6332 352.21 76.4816C352.059 76.33 351.976 76.1249 351.976 75.9114C351.977 75.6979 352.063 75.4935 352.215 75.3432C352.366 75.1929 352.571 75.1089 352.785 75.1099H352.799L354.717 75.1349C367.385 75.3009 378.329 75.4439 390.976 77.5179C391.188 77.5348 391.385 77.6354 391.523 77.7974C391.661 77.9595 391.729 78.1697 391.712 78.3819C391.695 78.594 391.594 78.7908 391.432 78.9288C391.27 79.0668 391.06 79.1348 390.848 79.1179" fill="black"/>
<path d="M387.74 93.437C387.702 93.4373 387.663 93.4346 387.625 93.429C386.125 93.215 384.659 93.002 383.215 92.79C373.118 91.312 364.397 90.036 351.341 89.89C351.127 89.8891 350.923 89.8034 350.773 89.6518C350.622 89.5002 350.539 89.295 350.539 89.0815C350.54 88.868 350.626 88.6637 350.778 88.5133C350.929 88.363 351.134 88.2791 351.348 88.28H351.358C362.112 88.4593 372.838 89.4339 383.448 91.196C384.891 91.407 386.355 91.621 387.853 91.835C388.065 91.8499 388.263 91.9484 388.402 92.1089C388.542 92.2695 388.612 92.4789 388.597 92.691C388.582 92.9032 388.484 93.1008 388.323 93.2403C388.163 93.3798 387.953 93.4499 387.741 93.435" fill="black"/>
<path d="M0 127.96L33.4 128.37L43.325 134.462L41.856 110.396L0.016 108.574L0 127.96Z" fill="#FFD2E1"/>
<path d="M34.843 116.559H34.82L6.91099 115.797C6.69914 115.79 6.49854 115.7 6.35324 115.546C6.20793 115.391 6.1298 115.186 6.13599 114.974C6.14329 114.763 6.23294 114.563 6.38578 114.416C6.53863 114.27 6.74255 114.19 6.95399 114.192L34.865 114.953C34.9704 114.954 35.0746 114.977 35.1714 115.018C35.2683 115.06 35.356 115.12 35.4296 115.196C35.5031 115.271 35.5611 115.361 35.6001 115.459C35.6391 115.557 35.6584 115.661 35.657 115.767C35.6555 115.872 35.6333 115.977 35.5917 116.073C35.55 116.17 35.4896 116.258 35.414 116.332C35.3384 116.405 35.2491 116.463 35.1511 116.502C35.0531 116.541 34.9484 116.56 34.843 116.559" fill="black"/>
<path d="M6.41901 120.224L34.329 120.985Z" fill="white"/>
<path d="M34.329 121.787H34.306L6.398 121.027C6.29284 121.024 6.18933 121 6.09338 120.957C5.99744 120.914 5.91095 120.852 5.83887 120.775C5.76679 120.699 5.71053 120.609 5.67332 120.51C5.63611 120.412 5.61867 120.307 5.622 120.202C5.62313 120.096 5.64537 119.992 5.68741 119.896C5.72944 119.799 5.79043 119.711 5.86676 119.639C5.94309 119.566 6.03323 119.509 6.13185 119.472C6.23048 119.434 6.33559 119.417 6.441 119.421L34.351 120.181C34.4565 120.182 34.5606 120.205 34.6575 120.246C34.7543 120.288 34.842 120.348 34.9156 120.424C34.9891 120.5 35.0471 120.589 35.0861 120.687C35.1251 120.785 35.1444 120.889 35.143 120.995C35.1416 121.1 35.1194 121.205 35.0777 121.301C35.036 121.398 34.9756 121.486 34.9 121.56C34.8244 121.633 34.7351 121.691 34.6371 121.73C34.5392 121.769 34.4345 121.788 34.329 121.787" fill="black"/>
<path d="M442.566 88.465C444.231 81.797 450.061 77.525 455.584 78.905C461.107 80.285 464.239 86.832 462.575 93.488C460.911 100.144 455.08 104.427 449.556 103.046C444.032 101.665 440.901 95.121 442.566 88.465Z" fill="#FFBE00"/>
<path d="M451.811 101.139C451.229 101.139 450.649 101.067 450.084 100.924C445.583 99.788 443.037 94.405 444.408 88.922C445.001 86.3909 446.44 84.1377 448.486 82.534C449.866 81.4461 451.565 80.8412 453.322 80.812C453.907 80.8121 454.49 80.8847 455.057 81.028C456.023 81.2856 456.929 81.7322 457.721 82.3421C458.514 82.952 459.178 83.713 459.674 84.581C461.119 87.1498 461.499 90.1831 460.732 93.029C460.137 95.558 458.699 97.8091 456.654 99.412C455.272 100.502 453.571 101.109 451.811 101.139V101.139ZM445.964 89.312C444.807 93.934 446.831 98.442 450.475 99.36C450.91 99.4703 451.357 99.526 451.806 99.526C453.218 99.4965 454.582 99.0048 455.688 98.126C457.44 96.7452 458.67 94.8095 459.176 92.637C459.839 90.2065 459.524 87.613 458.298 85.412C457.913 84.7223 457.393 84.1171 456.77 83.6325C456.146 83.1478 455.431 82.7936 454.668 82.591C454.233 82.4816 453.786 82.4258 453.337 82.425C451.925 82.4546 450.562 82.9464 449.456 83.825C447.702 85.2032 446.47 87.1389 445.966 89.312H445.964Z" fill="black"/>
<path d="M423.626 137.573C420.05 132.818 420.033 127.118 423.587 124.843C427.141 122.568 432.916 124.577 436.492 129.333C440.068 134.089 440.084 139.789 436.531 142.076C432.978 144.363 427.202 142.342 423.631 137.576" fill="#FFBE00"/>
<path d="M432.498 141.497C429.76 141.497 426.76 139.767 424.671 136.981C423.841 135.962 423.222 134.788 422.853 133.527C422.484 132.266 422.37 130.943 422.52 129.638C422.623 128.947 422.872 128.285 423.249 127.696C423.625 127.108 424.122 126.605 424.707 126.222C425.58 125.678 426.592 125.398 427.62 125.416C430.361 125.416 433.362 127.144 435.45 129.926C436.279 130.945 436.896 132.12 437.264 133.381C437.632 134.642 437.745 135.965 437.595 137.27C437.492 137.961 437.245 138.622 436.868 139.211C436.492 139.799 435.996 140.301 435.412 140.685C434.54 141.233 433.528 141.515 432.498 141.497V141.497ZM427.57 127.043C426.866 127.025 426.171 127.212 425.57 127.58C425.174 127.845 424.839 128.191 424.586 128.595C424.333 128.998 424.169 129.451 424.103 129.923C423.991 131.01 424.097 132.109 424.414 133.155C424.732 134.201 425.254 135.174 425.951 136.016C426.807 137.161 427.884 138.122 429.12 138.842C430.154 139.475 431.335 139.829 432.547 139.869C433.252 139.886 433.947 139.698 434.547 139.328C434.943 139.063 435.279 138.717 435.532 138.313C435.785 137.909 435.95 137.456 436.016 136.984C436.127 135.897 436.021 134.799 435.703 133.753C435.386 132.707 434.864 131.735 434.168 130.893C433.313 129.748 432.235 128.788 431 128.069C429.964 127.436 428.783 127.083 427.57 127.043V127.043Z" fill="black"/>
<path d="M282.937 11.4989C280.575 8.3519 280.563 4.5769 282.91 3.0759C285.257 1.5749 289.072 2.9069 291.433 6.0409C293.794 9.1749 293.807 12.9509 291.461 14.4639C289.115 15.9769 285.298 14.6329 282.938 11.4989" fill="#FFBE00"/>
<path d="M288.802 14.3518C287.73 14.2757 286.688 13.9591 285.755 13.4256C284.821 12.8921 284.02 12.1553 283.41 11.2698C282.84 10.5655 282.417 9.7545 282.165 8.88437C281.913 8.01424 281.838 7.10255 281.943 6.20283C282.017 5.70953 282.195 5.23745 282.464 4.81748C282.733 4.39751 283.088 4.03914 283.505 3.76583C284.122 3.376 284.84 3.17509 285.57 3.18783C286.642 3.26431 287.683 3.58104 288.617 4.11454C289.55 4.64805 290.351 5.38466 290.961 6.26983C291.531 6.97385 291.954 7.78463 292.207 8.65459C292.459 9.52454 292.535 10.4361 292.43 11.3358C292.356 11.8289 292.178 12.3008 291.909 12.7208C291.641 13.1409 291.287 13.4996 290.87 13.7738C290.252 14.1636 289.533 14.3645 288.802 14.3518V14.3518ZM285.56 4.79983C285.141 4.78904 284.727 4.90058 284.37 5.12083C284.141 5.27737 283.948 5.47971 283.801 5.71503C283.655 5.95036 283.559 6.21352 283.52 6.48783C283.454 7.16915 283.523 7.85685 283.724 8.51128C283.925 9.1657 284.253 9.77391 284.69 10.3008C285.23 11.0217 285.906 11.6289 286.681 12.0878C287.322 12.4874 288.056 12.7122 288.811 12.7398C289.231 12.7504 289.645 12.6385 290.002 12.4178C290.23 12.2607 290.423 12.058 290.57 11.8226C290.716 11.5872 290.811 11.3241 290.851 11.0498C290.917 10.3686 290.848 9.68099 290.647 9.02672C290.446 8.37245 290.117 7.76446 289.68 7.23783C289.141 6.51723 288.464 5.91027 287.69 5.45183C287.049 5.05237 286.315 4.82759 285.56 4.79983V4.79983Z" fill="black"/>
<path d="M344.949 85.464C341.067 88.364 336.307 88.502 334.32 85.742C332.333 82.982 333.866 78.396 337.749 75.492C341.632 72.588 346.392 72.454 348.379 75.213C350.366 77.972 348.831 82.559 344.948 85.463" fill="#FFBE00"/>
<path d="M339.202 86.7229C338.899 86.7237 338.596 86.701 338.296 86.6549C337.716 86.5854 337.157 86.3989 336.651 86.1067C336.146 85.8144 335.705 85.4226 335.356 84.9549C333.609 82.5349 334.862 78.6679 338.21 76.1559C339.727 74.9741 341.578 74.3017 343.5 74.2349C343.801 74.2342 344.102 74.256 344.4 74.2999C344.98 74.3696 345.54 74.5562 346.045 74.8484C346.551 75.1406 346.992 75.5323 347.342 75.9999C349.09 78.4219 347.835 82.2879 344.486 84.7999C342.971 85.982 341.122 86.6551 339.202 86.7229V86.7229ZM343.478 75.8419C341.909 75.9101 340.401 76.4706 339.169 77.4439C336.62 79.3599 335.469 82.3669 336.655 84.0119C336.883 84.3033 337.167 84.5465 337.49 84.7272C337.813 84.908 338.168 85.0228 338.536 85.0649C338.76 85.098 338.987 85.1143 339.214 85.1139C340.783 85.0462 342.291 84.4864 343.524 83.5139C346.076 81.5989 347.224 78.5909 346.04 76.9459C345.812 76.6542 345.528 76.4109 345.205 76.2299C344.882 76.049 344.526 75.9341 344.158 75.8919C343.933 75.8586 343.706 75.8419 343.478 75.8419V75.8419Z" fill="black"/>
<path d="M358.764 8.192C361.436 10.9706 363.525 14.2564 364.906 17.8555C366.288 21.4546 366.934 25.294 366.807 29.147C366.627 36.7513 363.455 43.9778 357.979 49.257C355.441 51.7143 352.437 53.6407 349.145 54.9233C345.854 56.206 342.339 56.8192 338.807 56.727C334.713 56.6106 330.703 55.538 327.097 53.595C323.674 51.754 354.035 3.313 358.764 8.192Z" fill="#FFD2E1"/>
<path d="M340.395 0.0069911C336.68 -0.0795017 332.988 0.610303 329.556 2.03228C326.123 3.45425 323.024 5.57709 320.459 8.26499C317.017 11.824 327.47 20.336 333.68 24.912C333.738 24.96 333.824 24.9 333.868 24.96C333.995 25.142 334.312 25.347 334.49 25.541C334.514 25.565 334.541 25.602 334.563 25.626C336.579 27.091 337.955 28.026 337.955 28.026C337.955 28.026 337.742 27.953 337.731 27.953C338.131 28.195 338.368 28.389 338.839 28.653C338.909 28.701 339.383 28.944 339.728 29.137L358.78 8.17999C358.78 8.17999 353.337 0.321991 340.395 0.0069911Z" fill="#FF0E11"/>
<path d="M320.568 24.391C316.08 24.088 312.474 24.754 312.392 27.599C312.182 34.246 314.269 40.7624 318.301 46.051C320.673 49.1619 323.676 51.7365 327.112 53.606L339.736 28.806C339.736 28.806 335.125 27.757 334.18 26.933C329.729 25.6747 325.173 24.8238 320.568 24.391" fill="#FFBE00"/>
<path d="M312.406 27.5999C312.708 24.8125 313.254 22.0569 314.038 19.3649C315.318 15.232 317.509 11.4389 320.45 8.26489L339.836 29.2229L312.406 27.5999Z" fill="#00B2B2"/>
<path d="M341.003 171.235C335.749 165.047 336.951 155.859 341.047 147.22C341.782 145.67 345.802 145.12 345.802 145.12C345.802 145.12 344.854 140.494 345.575 139.464C347.374 136.875 349.385 134.441 351.587 132.185C353.254 130.477 357.743 130.901 357.743 130.901C357.743 130.901 360.212 125.366 361.879 124.701C365.337 123.32 368.355 123.538 370.239 126.021C378.253 136.594 355.939 151.03 351.756 157.763C349.013 162.188 344.919 175.849 341.003 171.235Z" fill="#00B2B2"/>
<path d="M335.143 179.362C329.556 183.177 316.294 146.033 322.404 139.07C323.36 137.992 325.683 139.121 326.538 139.721C328.005 140.763 329.493 143.027 330.874 145.994C331.314 146.939 330.63 150.894 330.63 150.894C330.63 150.894 333.268 152.057 333.766 153.694C337.007 164.255 338.51 177.056 335.142 179.357" fill="#00B2B2"/>
<path d="M344.652 189.717C333.177 183.597 367.379 145.197 379.325 147.826C395.806 151.459 347.798 191.397 344.652 189.717Z" fill="#00B2B2"/>
<path d="M340.076 196.783C339.97 196.783 339.866 196.762 339.768 196.721C339.67 196.681 339.582 196.621 339.507 196.546C339.433 196.471 339.374 196.382 339.335 196.284C339.295 196.186 339.275 196.081 339.276 195.975C339.383 162.835 350.876 144.484 360.495 134.924C360.647 134.775 360.852 134.691 361.065 134.693C361.279 134.695 361.482 134.781 361.632 134.933C361.782 135.085 361.865 135.29 361.863 135.503C361.861 135.717 361.775 135.921 361.623 136.07C352.218 145.414 340.986 163.392 340.876 195.98C340.876 196.192 340.792 196.396 340.642 196.546C340.492 196.696 340.288 196.78 340.076 196.78" fill="black"/>
<path d="M339.501 196.867C339.307 196.867 339.12 196.796 338.975 196.669C338.829 196.541 338.735 196.365 338.709 196.173C336.601 181.016 332.212 165.675 324.471 146.431C324.431 146.334 324.411 146.229 324.412 146.124C324.412 146.018 324.434 145.914 324.474 145.817C324.515 145.72 324.575 145.632 324.65 145.558C324.725 145.484 324.813 145.425 324.911 145.385C325.009 145.345 325.113 145.325 325.218 145.326C325.324 145.326 325.428 145.348 325.525 145.388C325.622 145.429 325.71 145.489 325.784 145.564C325.859 145.639 325.917 145.728 325.957 145.825C333.748 165.199 338.171 180.657 340.296 195.951C340.312 196.056 340.306 196.162 340.28 196.265C340.254 196.368 340.208 196.464 340.144 196.549C340.081 196.633 340.001 196.705 339.91 196.758C339.819 196.812 339.718 196.847 339.613 196.861C339.576 196.866 339.538 196.868 339.501 196.868" fill="black"/>
<path d="M340.243 195.875C340.194 195.875 340.144 195.871 340.096 195.862C339.886 195.822 339.701 195.701 339.58 195.525C339.46 195.349 339.414 195.133 339.453 194.923C342.022 180.993 352.853 172.223 363.319 163.745C366.019 161.557 368.573 159.489 370.987 157.336C371.146 157.195 371.355 157.123 371.567 157.135C371.672 157.141 371.775 157.168 371.87 157.214C371.965 157.26 372.05 157.325 372.119 157.404C372.189 157.482 372.243 157.574 372.278 157.674C372.312 157.773 372.327 157.879 372.32 157.984C372.314 158.089 372.287 158.192 372.241 158.287C372.195 158.381 372.131 158.466 372.052 158.536C369.614 160.719 367.043 162.798 364.33 164.999C354.086 173.299 343.494 181.873 341.03 195.216C340.997 195.401 340.9 195.568 340.756 195.689C340.612 195.809 340.43 195.875 340.242 195.875" fill="black"/>
<path d="M331.798 191.666L344.467 190.842C345.788 190.76 347.087 191.206 348.08 192.081C349.073 192.956 349.679 194.188 349.765 195.509C349.85 196.83 349.409 198.13 348.537 199.126C347.665 200.122 346.434 200.731 345.114 200.821L332.444 201.645C331.124 201.724 329.827 201.278 328.836 200.403C327.845 199.528 327.24 198.296 327.155 196.977C327.07 195.658 327.51 194.358 328.38 193.363C329.25 192.368 330.479 191.758 331.798 191.666" fill="black"/>
<path d="M348.115 155.45C347.93 155.45 347.75 155.385 347.607 155.268C347.464 155.15 347.367 154.986 347.331 154.804C346.46 150.51 347.166 144.446 348.19 140.632C348.216 140.53 348.263 140.434 348.327 140.349C348.391 140.265 348.471 140.194 348.562 140.141C348.654 140.088 348.755 140.053 348.859 140.039C348.964 140.026 349.071 140.033 349.173 140.06C349.379 140.117 349.554 140.252 349.66 140.437C349.766 140.622 349.795 140.841 349.74 141.047C348.732 144.803 348.121 150.624 348.902 154.484C348.924 154.588 348.925 154.694 348.905 154.798C348.885 154.902 348.845 155.001 348.787 155.089C348.729 155.177 348.654 155.253 348.567 155.312C348.479 155.371 348.381 155.412 348.277 155.433C348.224 155.444 348.169 155.449 348.115 155.449" fill="black"/>
<path d="M331.791 168.802C330.191 168.802 326.637 166.871 325.572 165.111C325.517 165.021 325.48 164.921 325.464 164.817C325.448 164.713 325.452 164.607 325.477 164.504C325.501 164.402 325.546 164.305 325.608 164.22C325.67 164.135 325.749 164.063 325.838 164.008C325.928 163.953 326.028 163.916 326.132 163.9C326.237 163.883 326.343 163.888 326.445 163.912C326.548 163.937 326.645 163.982 326.73 164.044C326.815 164.106 326.887 164.184 326.942 164.274C327.897 165.415 329.128 166.293 330.518 166.825C330.418 166.734 330.318 166.637 330.2 166.532C329.064 165.527 326.97 163.54 325.718 162.355L324.818 161.506C324.662 161.361 324.569 161.16 324.561 160.947C324.553 160.733 324.63 160.526 324.775 160.369C324.92 160.213 325.121 160.12 325.335 160.112C325.548 160.104 325.756 160.181 325.912 160.326L326.818 161.182C328.064 162.363 330.15 164.337 331.264 165.327C332.686 166.597 333.157 167.361 332.942 168.052C332.875 168.255 332.749 168.434 332.58 168.566C332.411 168.697 332.207 168.776 331.993 168.791C331.927 168.8 331.86 168.804 331.793 168.803" fill="black"/>
</svg>
