<svg width="320" height="470" viewBox="0 0 320 470" fill="none" xmlns="http://www.w3.org/2000/svg">
<path d="M91.802 391.37L92.002 393.37L93.036 395.5L92.902 389.078L91.802 391.37Z" fill="#030100"/>
<path d="M187.396 175.201C187.396 175.201 140.044 183.684 127.23 185.391C127.23 185.391 134.222 313.899 138.081 331.531C139.389 337.501 132.94 373.703 132.138 394.048C130.573 433.77 132.889 466.04 132.889 466.04C132.889 466.04 175.374 469.34 184.549 466.435C193.724 463.53 178.673 458.09 169.549 456.579C160.425 455.068 155.923 449.579 155.717 442.703C154.874 414.144 185.294 357.403 183.517 326.94C181.26 288.244 187.396 175.201 187.396 175.201Z" fill="white"/>
<path d="M168.829 468.608C153.342 468.608 133.016 467.028 132.812 467.008C132.579 466.99 132.361 466.889 132.196 466.724C132.031 466.559 131.93 466.341 131.912 466.108C131.906 466.029 131.328 457.869 130.945 444.681C130.6 432.787 130.357 414.34 131.157 394.007C131.543 384.207 133.24 370.707 134.737 358.79V358.759C136.293 346.375 137.763 334.679 137.119 331.737C136.243 327.737 135.141 317.809 133.844 302.231C132.807 289.694 131.632 273.464 130.36 253.995C128.204 220.981 126.447 188.983 126.252 185.443C126.238 185.197 126.318 184.956 126.476 184.767C126.634 184.578 126.857 184.456 127.101 184.425C139.665 182.749 186.776 174.325 187.223 174.24C187.28 174.23 187.337 174.225 187.395 174.225C187.528 174.225 187.659 174.252 187.781 174.304C187.903 174.356 188.013 174.433 188.105 174.529C188.196 174.625 188.267 174.739 188.313 174.863C188.359 174.988 188.38 175.12 188.373 175.253C188.358 175.529 186.808 204.353 185.573 237.167C184.854 256.294 184.373 273.139 184.15 287.234C183.869 304.826 183.984 318.165 184.493 326.882C185.424 342.837 177.65 365.851 170.131 388.106C163.015 409.168 156.294 429.063 156.697 442.668C156.897 449.546 161.646 454.268 169.714 455.611C173.341 456.211 188.061 459.611 188.38 464.067C188.48 465.478 187.292 466.586 184.845 467.359C182.237 468.189 176.852 468.608 168.829 468.608ZM186.352 176.377C181.775 177.195 141.234 184.419 128.252 186.235C128.977 199.345 135.418 314.795 139.035 331.325C139.751 334.597 138.397 345.369 136.682 359.007L136.674 359.07C135.184 370.935 133.496 384.382 133.113 394.088C131.713 429.703 133.445 459.518 133.807 465.133C137.262 465.388 155.207 466.661 169.089 466.661C176.736 466.661 181.836 466.273 184.252 465.509C186.071 464.932 186.44 464.379 186.428 464.215C186.309 462.55 177.864 458.948 169.391 457.544C160.316 456.025 154.977 450.625 154.743 442.725C154.33 428.771 161.105 408.716 168.278 387.483C175.738 365.402 183.451 342.568 182.542 326.992C180.428 290.771 185.742 187.978 186.352 176.377Z" fill="black"/>
<path d="M129.918 468.988L130.118 463.327L166.208 463.576C166.208 463.576 167.686 456.768 170.698 455.096C173.71 453.424 178.262 456.886 178.262 456.886L175.197 464.119C175.197 464.119 185.523 464.162 188.905 465.438C192.287 466.714 190.352 469.795 190.352 469.795L129.918 468.988Z" fill="black"/>
<path d="M151.148 175.406C151.148 175.406 103.797 183.889 90.981 185.598L95.493 322.128C95.493 322.128 90.64 352.066 89.572 368.35C87.832 394.84 93.858 429.781 94.747 443.833C95.574 456.933 96.641 466.245 96.641 466.245C96.641 466.245 139.127 469.545 148.3 466.645C157.473 463.745 142.427 458.299 133.3 456.789C124.177 455.264 119.672 449.789 119.468 442.911C118.623 414.366 143.303 355.311 141.525 324.845C139.272 286.148 151.148 175.406 151.148 175.406Z" fill="white"/>
<path d="M132.587 468.813C117.094 468.813 96.7679 467.233 96.5649 467.213C96.338 467.197 96.124 467.101 95.9597 466.944C95.7954 466.787 95.6911 466.577 95.6649 466.351C95.6549 466.273 94.5789 456.77 93.7649 443.891C93.5159 439.961 92.8529 434.308 92.0849 427.762L92.0659 427.603C90.0659 410.613 87.3379 387.346 88.5899 368.284C89.6289 352.443 94.3079 323.298 94.5069 322.065L90.0039 185.63C89.9956 185.388 90.0776 185.152 90.234 184.967C90.3904 184.782 90.6099 184.662 90.8499 184.63C103.514 182.942 150.539 174.525 150.98 174.445C151.035 174.435 151.091 174.43 151.147 174.43C151.284 174.43 151.42 174.458 151.545 174.514C151.671 174.569 151.783 174.651 151.875 174.753C151.966 174.855 152.036 174.975 152.078 175.105C152.12 175.236 152.135 175.374 152.12 175.51C152.091 175.781 149.12 203.551 146.433 236.248C144.887 255.037 143.749 271.612 143.051 285.513C142.18 302.861 141.997 316.075 142.505 324.786C143.438 340.778 137.166 364.517 131.105 387.474C125.42 408.991 120.051 429.313 120.453 442.874C120.653 449.753 125.402 454.474 133.469 455.819C137.095 456.419 151.815 459.809 152.135 464.274C152.235 465.685 151.045 466.793 148.6 467.567C145.991 468.395 140.605 468.813 132.587 468.813ZM150.039 176.595C139.464 178.48 104.025 184.762 91.9859 186.445L96.4689 322.097C96.4715 322.16 96.4674 322.222 96.4569 322.284C96.4089 322.584 91.5929 352.46 90.5459 368.414C89.3059 387.295 92.0259 410.458 94.0129 427.371V427.39C94.7919 434.029 95.4649 439.76 95.7189 443.772C96.3809 454.259 97.1999 462.344 97.5189 465.333C100.987 465.588 118.992 466.863 132.847 466.864C140.487 466.864 145.584 466.477 147.999 465.713C149.821 465.135 150.189 464.582 150.176 464.413C150.058 462.748 141.613 459.146 133.14 457.743C124.07 456.23 118.73 450.83 118.495 442.93C118.085 429.084 123.489 408.63 129.209 386.975L129.217 386.944C135.24 364.144 141.468 340.57 140.552 324.896C140.069 316.62 140.207 304.296 140.961 288.268C141.576 275.204 142.602 259.61 144.012 241.919C146.505 210.655 149.47 182.019 150.039 176.595Z" fill="black"/>
<path d="M93.67 469.194L93.87 463.532L129.96 463.795C129.96 463.795 131.437 456.976 134.45 455.302C137.463 453.628 142.014 457.093 142.014 457.093L138.951 464.324C138.951 464.324 149.277 464.368 152.658 465.659C156.039 466.95 154.107 470.001 154.107 470.001L93.67 469.194Z" fill="black"/>
<path d="M170.451 141.746C192.572 158.959 190.065 195.071 193.849 248.071C197.633 301.071 192.008 353.221 192.008 353.221C192.008 353.221 145.246 357.211 112.499 355.905C108.423 355.744 102.684 327.595 102.684 327.595C102.684 327.595 90.671 354.471 86.476 353.912C81.1529 353.11 75.9454 351.672 70.965 349.629C70.965 349.629 76.175 299.329 82.152 258.104C88.129 216.879 85.176 196.812 94.875 184.704C103.303 174.192 163.141 136.059 170.451 141.746Z" fill="#00B2B2"/>
<path d="M144.774 210.133C138.992 205.798 148.744 196.67 153.366 193.205C154.652 192.243 156.355 188.883 157.179 190.26C159.7 194.467 148.492 212.92 144.774 210.133Z" fill="#FFD2E1"/>
<path d="M93.6839 284.709C87.9029 280.382 97.6539 271.25 102.278 267.786C103.562 266.824 105.265 263.464 106.091 264.84C108.612 269.047 97.4029 287.496 93.6839 284.709Z" fill="#FFD2E1"/>
<path d="M172.361 229.448C166.579 225.113 176.331 215.985 180.953 212.52C182.239 211.558 183.942 208.198 184.768 209.575C187.287 213.782 176.079 232.233 172.361 229.448Z" fill="#FFD2E1"/>
<path d="M170.682 279.869C164.899 275.543 174.65 266.41 179.274 262.946C180.56 261.985 182.263 258.625 183.085 260.001C185.607 264.207 174.399 282.656 170.682 279.869Z" fill="#FFD2E1"/>
<path d="M118.045 341.987C112.263 337.648 122.014 328.525 126.637 325.063C127.923 324.095 129.626 320.736 130.45 322.115C132.972 326.324 121.763 344.777 118.045 341.987Z" fill="#FFD2E1"/>
<path d="M113.756 243.94C108.031 246.05 110.931 213.033 115.318 230.86C115.784 232.76 116.757 234.66 116.526 236.598C116.216 239.198 116.213 243.033 113.756 243.94Z" fill="#FFD2E1"/>
<path d="M137.854 298.789C132.127 300.904 135.029 267.88 139.415 285.704C139.882 287.611 140.855 289.504 140.624 291.439C140.314 294.039 140.311 297.878 137.854 298.788" fill="#FFD2E1"/>
<path d="M93.064 323.28C87.339 325.397 90.239 292.375 94.626 310.197C95.092 312.104 96.064 313.997 95.834 315.932C95.524 318.532 95.521 322.371 93.064 323.281" fill="#FFD2E1"/>
<path d="M155.306 252.649C149.581 254.761 152.481 221.742 156.868 239.57C157.334 241.47 158.307 243.37 158.076 245.307C157.766 247.907 157.763 251.742 155.306 252.649Z" fill="#FFD2E1"/>
<path d="M177.033 339.444C171.307 341.556 174.207 308.537 178.593 326.374C179.06 328.266 180.033 330.158 179.801 332.109C179.491 334.709 179.49 338.534 177.033 339.443" fill="#FFD2E1"/>
<path d="M157.067 10.838C152.996 10.998 149.112 13.323 144.956 13.487C138.848 13.726 132.448 12.138 126.478 16.98C120.423 21.897 123.617 27.257 117.114 31.241C109.514 35.898 100.548 30.494 95.296 39.222C88.106 51.173 96.748 61.101 97.516 65.296C99.008 73.429 92.77 75.515 90.896 81.047C89.996 83.702 91.745 86.668 92.78 88.947C97.842 100.077 104.724 104.633 116.801 106.235C127.653 107.674 125.63 93.174 134.428 90.088C142.493 87.26 161.492 86.917 169.597 80.694C179.362 73.194 171.811 39.594 169.723 28.213C169.499 26.979 155.148 16.953 154.263 16.381" fill="#FFBE00"/>
<path d="M157.067 10.838C152.996 10.998 149.112 13.323 144.956 13.487C138.848 13.726 132.448 12.138 126.478 16.98C120.423 21.897 123.617 27.257 117.114 31.241C109.514 35.898 100.548 30.494 95.296 39.222C88.106 51.173 96.748 61.101 97.516 65.296C99.008 73.429 92.77 75.515 90.896 81.047C89.996 83.702 91.745 86.668 92.78 88.947C97.842 100.077 104.724 104.633 116.801 106.235C127.653 107.674 125.63 93.174 134.428 90.088C142.493 87.26 161.492 86.917 169.597 80.694C179.362 73.194 171.811 39.594 169.723 28.213C169.499 26.979 155.148 16.953 154.263 16.381" fill="#FFBE00"/>
<path d="M273.622 103.137C274.755 95.967 266.017 83.571 256.687 97.17C254.064 100.991 245.357 113.844 243.487 115.07C229.799 124.057 210.572 142.753 207.125 141.178C192.548 134.52 193.105 112.154 190.825 97.865C187.918 79.61 164.699 62.89 155.506 78.365C146.655 93.265 169.999 171.891 197.06 173.365C226.274 174.959 246.48 130.978 258.429 120.538C262.414 117.057 272.68 109.1 273.621 103.138" fill="white"/>
<path d="M198.615 174.395C198.082 174.395 197.541 174.38 197.008 174.351C185.424 173.715 175.815 160.159 169.787 148.895C156.338 123.747 148.707 87.904 154.665 77.875C155.807 75.8717 157.433 74.1869 159.394 72.975C161.285 71.8531 163.447 71.272 165.646 71.295C166.612 71.2984 167.575 71.3928 168.523 71.577C179.023 73.577 189.894 85.795 191.793 97.718C192.209 100.318 192.525 103.154 192.861 106.155V106.185V106.19C194.382 119.73 196.102 135.076 207.532 140.295C207.597 140.314 207.664 140.324 207.732 140.323C208.649 140.323 210.84 139.023 214.432 136.347C217.525 134.042 221.103 131.132 224.26 128.565L224.625 128.265L224.686 128.215C230.593 123.415 237.286 117.971 242.948 114.256C244.516 113.227 252.537 101.503 255.172 97.651L255.878 96.619C257.204 94.551 258.944 92.7804 260.989 91.419C262.273 90.5913 263.762 90.139 265.289 90.113C266.182 90.113 267.067 90.2826 267.897 90.613C272.578 92.471 275.29 98.841 274.588 103.294C273.705 108.876 265.639 115.705 260.82 119.785C260.189 120.32 259.58 120.836 259.071 121.28C255.861 124.08 251.96 129.48 247.443 135.735L247.43 135.753C244.53 139.761 241.253 144.304 237.753 148.695C234.284 153.134 230.499 157.316 226.428 161.211C224.435 163.092 222.332 164.853 220.128 166.482C218.002 168.055 215.751 169.451 213.397 170.656C211.112 171.824 208.709 172.744 206.228 173.402C203.743 174.055 201.185 174.388 198.615 174.395V174.395ZM165.647 73.248C163.966 73.2289 162.306 73.626 160.815 74.404C158.941 75.4508 157.394 76.9968 156.346 78.87C150.772 88.251 158.567 123.77 171.511 147.977C179.692 163.27 188.784 171.943 197.111 172.398C197.605 172.425 198.106 172.438 198.6 172.438C201.055 172.432 203.498 172.109 205.87 171.475C208.252 170.83 210.557 169.932 212.747 168.795C215.014 167.617 217.181 166.255 219.227 164.725C221.356 163.134 223.389 161.419 225.315 159.588C229.265 155.781 232.941 151.699 236.315 147.373C239.723 143.086 242.933 138.643 245.765 134.723L245.845 134.612C250.437 128.256 254.403 122.766 257.784 119.812C258.291 119.368 258.905 118.848 259.554 118.298C263.864 114.648 271.887 107.853 272.654 102.99C273.22 99.415 270.901 93.905 267.172 92.426C266.563 92.1803 265.913 92.053 265.256 92.051C263.845 92.1018 262.488 92.6037 261.383 93.483C259.859 94.671 258.543 96.105 257.491 97.726L256.786 98.756C251.14 107.012 245.684 114.802 244.025 115.895C238.425 119.568 231.753 124.995 225.863 129.784C220.393 134.232 216.663 137.2 213.8 139.21C210.8 141.31 208.891 142.25 207.6 142.25C207.299 142.255 207 142.194 206.725 142.071C194.286 136.39 192.425 119.762 190.925 106.401C190.592 103.422 190.278 100.608 189.864 98.026C188.079 86.823 177.936 75.36 168.157 73.495C167.33 73.3342 166.49 73.2515 165.647 73.248V73.248Z" fill="black"/>
<path d="M163.056 66.613C161.209 61.136 161.191 58.031 160.867 53.913C160.16 44.937 159.112 35.356 159.112 35.356L148.812 30.313C145.198 45.264 147.105 44.971 137.565 62.34C134.979 67.053 111.62 67.452 111.62 67.452C111.62 67.452 106.278 82.153 105.953 83.658C98.662 117.419 155.953 136.972 155.953 136.972L174.753 94.236C174.753 94.236 164.903 72.091 163.053 66.613" fill="white"/>
<path d="M155.957 137.945C155.85 137.945 155.743 137.928 155.641 137.894C145.795 134.307 136.407 129.569 127.672 123.78C109.767 111.62 101.926 97.675 104.998 83.451C105.344 81.851 110.648 67.266 110.698 67.119C110.765 66.9328 110.886 66.7713 111.047 66.6562C111.208 66.5411 111.4 66.4779 111.598 66.475C120.41 66.324 135.019 64.941 136.704 61.875C143.93 48.718 144.534 45.749 145.996 38.575C146.414 36.516 146.987 33.696 147.859 30.088C147.893 29.9458 147.959 29.8131 148.052 29.6999C148.144 29.5867 148.261 29.4958 148.394 29.434C148.527 29.3707 148.673 29.3382 148.821 29.3387C148.968 29.3392 149.114 29.3728 149.247 29.437L159.547 34.479C159.695 34.5512 159.822 34.6597 159.916 34.7943C160.011 34.929 160.069 35.0854 160.087 35.249V35.268C160.196 36.278 161.175 45.377 161.842 53.834L161.954 55.334C162.092 59.0686 162.775 62.763 163.982 66.3C165.647 71.253 173.959 90.037 175.608 93.755L175.645 93.838C175.7 93.9621 175.729 94.0965 175.729 94.2325C175.729 94.3685 175.7 94.5029 175.645 94.627L156.845 137.364C156.768 137.536 156.644 137.682 156.486 137.785C156.329 137.888 156.145 137.944 155.957 137.945V137.945ZM149.481 31.725C148.788 34.675 148.325 36.949 147.917 38.956V38.967C146.417 46.348 145.79 49.403 138.426 62.808C135.849 67.502 117.788 68.284 112.314 68.408C110.547 73.276 107.147 82.766 106.908 83.863C106.126 87.4264 106.098 91.1141 106.826 94.689C107.564 98.1233 108.889 101.405 110.742 104.389C114.047 109.837 119.21 115.155 126.083 120.198C131.715 124.262 137.701 127.812 143.968 130.805C149.422 133.453 153.8 135.14 155.43 135.742L173.684 94.237C171.384 89.058 163.768 71.782 162.13 66.922C160.865 63.2291 160.148 59.3708 160.002 55.47L159.892 53.988C159.292 46.398 158.444 38.297 158.198 35.994L149.481 31.725Z" fill="black"/>
<path d="M168.019 44.087C170.802 46.214 173.664 41.914 171.319 39.911C171.035 39.6787 170.7 39.5176 170.341 39.4409C169.982 39.3642 169.61 39.3741 169.256 39.47" fill="white"/>
<path d="M169.588 45.633C168.801 45.6218 168.04 45.3504 167.424 44.861C167.317 44.7851 167.226 44.6883 167.157 44.5765C167.088 44.4647 167.042 44.3401 167.023 44.2102C167.003 44.0803 167.01 43.9478 167.043 43.8206C167.076 43.6934 167.134 43.5741 167.214 43.47C167.294 43.3658 167.394 43.2788 167.508 43.2143C167.623 43.1498 167.749 43.109 167.88 43.0944C168.01 43.0799 168.142 43.0918 168.268 43.1295C168.394 43.1673 168.511 43.23 168.612 43.314C168.761 43.4509 168.938 43.554 169.131 43.6163C169.324 43.6786 169.528 43.6985 169.729 43.6748C169.93 43.651 170.124 43.5842 170.297 43.4788C170.47 43.3734 170.618 43.2319 170.731 43.064C171.042 42.7365 171.212 42.2995 171.203 41.8479C171.194 41.3962 171.008 40.9661 170.684 40.651C170.519 40.5217 170.327 40.4329 170.122 40.3917C169.917 40.3506 169.705 40.3582 169.503 40.414C169.253 40.4803 168.987 40.4445 168.763 40.3146C168.539 40.1846 168.376 39.9711 168.31 39.721C168.244 39.4709 168.279 39.2047 168.409 38.981C168.539 38.7572 168.753 38.5943 169.003 38.528C169.51 38.3883 170.044 38.3737 170.558 38.4853C171.072 38.597 171.551 38.8315 171.955 39.169C172.674 39.8087 173.109 40.7075 173.165 41.6679C173.221 42.6283 172.894 43.5718 172.255 44.291C171.941 44.7018 171.538 45.036 171.076 45.2685C170.614 45.5009 170.105 45.6256 169.588 45.633" fill="black"/>
<path d="M172.273 20.027C171.509 35.818 169.337 49.389 167.943 53.952C165.957 60.444 159.752 61.905 155.464 61.296C150.947 60.66 145.619 57.028 146.094 50.018C146.642 41.881 148.959 24.18 150.14 21.146C151.321 18.112 154.464 14.893 158.812 13.005C164.612 10.484 172.503 15.257 172.274 20.03" fill="white"/>
<path d="M157.321 62.401C156.655 62.4013 155.989 62.3548 155.329 62.262C150.06 61.519 144.618 57.351 145.117 49.952C145.648 42.086 147.967 24.032 149.227 20.792C150.585 17.312 154.105 13.984 158.422 12.107C159.648 11.5862 160.969 11.3244 162.301 11.338C164.819 11.3633 167.271 12.1452 169.339 13.582C171.897 15.344 173.359 17.771 173.249 20.074C172.463 36.347 170.219 49.848 168.876 54.236C168.477 55.5749 167.841 56.8314 166.999 57.946C166.232 58.9474 165.294 59.8058 164.229 60.482C162.156 61.7667 159.759 62.4325 157.321 62.401V62.401ZM162.315 13.283C161.246 13.2708 160.186 13.4799 159.202 13.897C155.346 15.572 152.223 18.485 151.05 21.497C149.95 24.314 147.635 41.645 147.066 50.082C146.65 56.239 151.199 59.71 155.602 60.329C156.132 60.4024 156.667 60.4384 157.202 60.437C159.147 60.4554 161.064 59.9821 162.777 59.061C163.803 58.4843 164.704 57.7111 165.431 56.7855C166.157 55.86 166.694 54.8003 167.011 53.667C168.323 49.367 170.521 36.08 171.3 19.979C171.378 18.356 170.231 16.565 168.232 15.187C166.495 13.9736 164.434 13.3102 162.315 13.283V13.283Z" fill="black"/>
<path d="M172.273 20.027C171.509 35.818 169.337 49.389 167.943 53.952C165.957 60.444 159.752 61.905 155.464 61.296C150.947 60.66 145.619 57.028 146.094 50.018C146.642 41.881 148.959 24.18 150.14 21.146C151.321 18.112 154.464 14.893 158.812 13.005C164.612 10.484 172.503 15.257 172.274 20.03" fill="white"/>
<path d="M157.321 62.401C156.655 62.4013 155.989 62.3548 155.329 62.262C150.06 61.519 144.618 57.351 145.117 49.952C145.648 42.086 147.967 24.032 149.227 20.792C150.585 17.312 154.105 13.984 158.422 12.107C159.648 11.5862 160.969 11.3244 162.301 11.338C164.819 11.3633 167.271 12.1452 169.339 13.582C171.897 15.344 173.359 17.771 173.249 20.074C172.463 36.347 170.219 49.848 168.876 54.236C168.477 55.5749 167.841 56.8314 166.999 57.946C166.232 58.9474 165.294 59.8058 164.229 60.482C162.156 61.7667 159.759 62.4325 157.321 62.401V62.401ZM162.315 13.283C161.246 13.2708 160.186 13.4799 159.202 13.897C155.346 15.572 152.223 18.485 151.05 21.497C149.95 24.314 147.635 41.645 147.066 50.082C146.65 56.239 151.199 59.71 155.602 60.329C156.132 60.4024 156.667 60.4384 157.202 60.437C159.147 60.4554 161.064 59.9821 162.777 59.061C163.803 58.4843 164.704 57.7111 165.431 56.7855C166.157 55.86 166.694 54.8003 167.011 53.667C168.323 49.367 170.521 36.08 171.3 19.979C171.378 18.356 170.231 16.565 168.232 15.187C166.495 13.9736 164.434 13.3102 162.315 13.283V13.283Z" fill="black"/>
<path d="M172.273 20.027C171.509 35.818 169.337 49.389 167.943 53.952C165.957 60.444 159.752 61.905 155.464 61.296C150.947 60.66 145.619 57.028 146.094 50.018C146.642 41.881 148.959 24.18 150.14 21.146C151.321 18.112 154.464 14.893 158.812 13.005C164.612 10.484 172.503 15.257 172.274 20.03" fill="white"/>
<path d="M157.321 62.401C156.655 62.4013 155.989 62.3548 155.329 62.262C150.06 61.519 144.618 57.351 145.117 49.952C145.648 42.086 147.967 24.032 149.227 20.792C150.585 17.312 154.105 13.984 158.422 12.107C159.648 11.5862 160.969 11.3244 162.301 11.338C164.819 11.3633 167.271 12.1452 169.339 13.582C171.897 15.344 173.359 17.771 173.249 20.074C172.463 36.347 170.219 49.848 168.876 54.236C168.477 55.5749 167.841 56.8314 166.999 57.946C166.232 58.9474 165.294 59.8058 164.229 60.482C162.156 61.7667 159.759 62.4325 157.321 62.401V62.401ZM162.315 13.283C161.246 13.2708 160.186 13.4799 159.202 13.897C155.346 15.572 152.223 18.485 151.05 21.497C149.95 24.314 147.635 41.645 147.066 50.082C146.65 56.239 151.199 59.71 155.602 60.329C156.132 60.4024 156.667 60.4384 157.202 60.437C159.147 60.4554 161.064 59.9821 162.777 59.061C163.803 58.4843 164.704 57.7111 165.431 56.7855C166.157 55.86 166.694 54.8003 167.011 53.667C168.323 49.367 170.521 36.08 171.3 19.979C171.378 18.356 170.231 16.565 168.232 15.187C166.495 13.9736 164.434 13.3102 162.315 13.283V13.283Z" fill="black"/>
<path d="M165.002 45.884C163.986 45.8037 162.991 45.5507 162.06 45.136C161.939 45.0912 161.828 45.0227 161.733 44.9347C161.639 44.8466 161.562 44.7406 161.509 44.6229C161.456 44.5052 161.427 44.378 161.423 44.2489C161.419 44.1197 161.441 43.9911 161.487 43.8705C161.534 43.7499 161.603 43.6396 161.693 43.5462C161.782 43.4528 161.889 43.378 162.007 43.3263C162.126 43.2745 162.253 43.2467 162.382 43.2446C162.512 43.2425 162.64 43.2661 162.76 43.314C163.455 43.6266 164.193 43.8355 164.949 43.934C164.881 43.2707 164.759 42.6142 164.583 41.971C164.287 40.7935 164.06 39.5994 163.906 38.395C163.877 38.1374 163.951 37.8788 164.112 37.6759C164.273 37.4729 164.508 37.3424 164.766 37.313C165.024 37.2835 165.282 37.3576 165.485 37.5189C165.688 37.6802 165.819 37.9154 165.848 38.173C165.993 39.3013 166.205 40.42 166.484 41.523C166.912 43.339 167.22 44.65 166.305 45.45C165.941 45.7513 165.477 45.9061 165.005 45.884" fill="black"/>
<path d="M165.002 45.884C163.986 45.8037 162.991 45.5507 162.06 45.136C161.939 45.0912 161.828 45.0227 161.733 44.9347C161.639 44.8466 161.562 44.7406 161.509 44.6229C161.456 44.5052 161.427 44.378 161.423 44.2489C161.419 44.1197 161.441 43.9911 161.487 43.8705C161.534 43.7499 161.603 43.6396 161.693 43.5462C161.782 43.4528 161.889 43.378 162.007 43.3263C162.126 43.2745 162.253 43.2467 162.382 43.2446C162.512 43.2425 162.64 43.2661 162.76 43.314C163.455 43.6266 164.193 43.8355 164.949 43.934C164.881 43.2707 164.759 42.6142 164.583 41.971C164.287 40.7935 164.06 39.5994 163.906 38.395C163.877 38.1374 163.951 37.8788 164.112 37.6759C164.273 37.4729 164.508 37.3424 164.766 37.313C165.024 37.2835 165.282 37.3576 165.485 37.5189C165.688 37.6802 165.819 37.9154 165.848 38.173C165.993 39.3013 166.205 40.42 166.484 41.523C166.912 43.339 167.22 44.65 166.305 45.45C165.941 45.7513 165.477 45.9061 165.005 45.884" fill="black"/>
<path d="M160.63 37.7C160.676 37.4726 160.629 37.2365 160.502 37.0431C160.374 36.8496 160.175 36.7144 159.948 36.667C159.717 36.6489 159.488 36.7229 159.311 36.8727C159.134 37.0225 159.023 37.236 159.003 37.467C158.957 37.6946 159.003 37.9312 159.13 38.1251C159.258 38.3191 159.458 38.4545 159.685 38.502C159.916 38.52 160.145 38.4461 160.322 38.2963C160.499 38.1465 160.61 37.9329 160.63 37.702" fill="black"/>
<path d="M168.857 38.523C168.903 38.2957 168.857 38.0594 168.729 37.8659C168.601 37.6724 168.402 37.5372 168.175 37.49C167.944 37.472 167.715 37.546 167.539 37.6958C167.362 37.8457 167.252 38.0593 167.232 38.29C167.186 38.5171 167.231 38.7532 167.359 38.9468C167.486 39.1403 167.685 39.2756 167.912 39.323C168.143 39.341 168.372 39.2671 168.549 39.1173C168.726 38.9675 168.837 38.754 168.857 38.523" fill="black"/>
<path d="M168.857 38.523C168.903 38.2957 168.857 38.0594 168.729 37.8659C168.601 37.6724 168.402 37.5372 168.175 37.49C167.944 37.472 167.715 37.546 167.539 37.6958C167.362 37.8457 167.252 38.0593 167.232 38.29C167.186 38.5171 167.231 38.7532 167.359 38.9468C167.486 39.1403 167.685 39.2756 167.912 39.323C168.143 39.341 168.372 39.2671 168.549 39.1173C168.726 38.9675 168.837 38.754 168.857 38.523" fill="black"/>
<path d="M148.676 42.685C145.452 44.063 143.739 39.191 146.504 37.827C146.837 37.6716 147.202 37.5978 147.569 37.6119C147.936 37.626 148.294 37.7275 148.614 37.908" fill="white"/>
<path d="M147.578 43.898C146.923 43.8931 146.284 43.6957 145.74 43.3303C145.196 42.9649 144.772 42.4477 144.52 41.843C144.078 40.9886 143.994 39.9938 144.285 39.077C144.575 38.1602 145.218 37.3963 146.072 36.953C146.545 36.7259 147.066 36.6164 147.591 36.6338C148.116 36.6512 148.629 36.795 149.086 37.053C149.198 37.1149 149.297 37.1984 149.378 37.2986C149.458 37.3989 149.517 37.514 149.553 37.6373C149.588 37.7606 149.599 37.8897 149.585 38.0172C149.571 38.1447 149.531 38.2682 149.469 38.3805C149.407 38.4927 149.323 38.5917 149.223 38.6716C149.123 38.7515 149.007 38.8109 148.884 38.8462C148.761 38.8815 148.632 38.8922 148.504 38.8776C148.377 38.863 148.253 38.8234 148.141 38.761C147.96 38.657 147.757 38.5975 147.548 38.5872C147.339 38.5769 147.131 38.6163 146.941 38.702C146.55 38.9272 146.264 39.2971 146.144 39.7318C146.023 40.1666 146.079 40.6311 146.299 41.025C146.368 41.2163 146.477 41.3905 146.619 41.5356C146.762 41.6807 146.934 41.7933 147.124 41.8658C147.314 41.9382 147.517 41.9688 147.72 41.9554C147.923 41.942 148.12 41.8849 148.299 41.788C148.537 41.6859 148.806 41.6825 149.046 41.7785C149.286 41.8745 149.479 42.0621 149.581 42.3C149.683 42.5379 149.687 42.8066 149.59 43.0471C149.494 43.2875 149.307 43.4799 149.069 43.582C148.601 43.786 148.097 43.8932 147.586 43.897" fill="black"/>
<path d="M166.026 45.373C166.054 45.237 166.079 45.1 166.107 44.964Z" fill="#6294E5"/>
<path d="M179.611 28.883C178.685 30.95 168.775 35.183 158.719 25.583C148.663 15.983 143.47 37.41 141.912 37.178C137.974 36.593 142.168 26.601 146.393 17.396C153.332 2.27902 186.275 13.996 179.611 28.883" fill="#FFBE00"/>
<path d="M179.611 28.883C178.685 30.95 168.775 35.183 158.719 25.583C148.663 15.983 143.47 37.41 141.912 37.178C137.974 36.593 142.168 26.601 146.393 17.396C153.332 2.27902 186.275 13.996 179.611 28.883" fill="#FFBE00"/>
<path d="M178.823 28.206C177.896 30.273 167.987 34.506 157.931 24.906C147.875 15.306 142.681 36.733 141.124 36.501C137.185 35.916 141.38 25.924 145.605 16.719C152.55 1.60198 185.486 13.315 178.823 28.206Z" fill="#FFBE00"/>
<path d="M90.7029 88.997C83.1289 73.877 92.3499 70.354 109.429 66.566C119.442 64.345 127.877 71.545 137.046 73.576C143.762 75.065 153.139 78.229 160.546 74.576C163.746 72.995 164.346 70.33 165.609 69.776C165.609 69.776 174.218 74.16 175.009 73.596C175.822 73.017 185.966 119.031 185.966 119.031L177.529 150.439C177.529 150.439 165.134 167.839 156.235 175.454C150.335 180.5 143.172 185.515 135.635 187.605C78.3089 203.505 78.7149 133.281 83.6739 93.67" fill="#FFD2E1"/>
<path d="M157.399 44.06C155.434 44.005 153.571 43.1736 152.218 41.7478C150.865 40.322 150.132 38.418 150.18 36.453C150.132 34.488 150.865 32.5842 152.218 31.1586C153.571 29.7329 155.434 28.9017 157.399 28.847C159.363 28.902 161.226 29.7333 162.579 31.159C163.932 32.5846 164.664 34.4883 164.616 36.453C164.664 38.4178 163.932 40.3216 162.579 41.7474C161.226 43.1732 159.364 44.0047 157.399 44.06V44.06ZM157.399 30.798C155.952 30.853 154.586 31.4788 153.599 32.5386C152.612 33.5984 152.086 35.0058 152.134 36.453C152.086 37.9003 152.612 39.3078 153.599 40.3677C154.586 41.4277 155.952 42.0537 157.399 42.109C158.846 42.0535 160.212 41.4273 161.198 40.3673C162.184 39.3074 162.711 37.9 162.662 36.453C162.71 35.0061 162.184 33.599 161.198 32.5393C160.211 31.4796 158.846 30.8535 157.399 30.798V30.798Z" fill="black"/>
<path d="M172.377 45.84C170.412 45.785 168.549 44.9536 167.196 43.5278C165.843 42.102 165.11 40.198 165.158 38.233C165.11 36.2679 165.843 34.364 167.196 32.9382C168.549 31.5124 170.412 30.681 172.377 30.626C174.342 30.6812 176.204 31.5128 177.557 32.9385C178.91 34.3643 179.643 36.2681 179.595 38.233C179.643 40.1979 178.91 42.1016 177.557 43.5274C176.204 44.9532 174.342 45.7847 172.377 45.84V45.84ZM172.377 32.577C170.93 32.6322 169.564 33.2583 168.577 34.3182C167.59 35.3782 167.064 36.7857 167.112 38.233C167.064 39.6803 167.59 41.0878 168.577 42.1477C169.564 43.2077 170.93 43.8337 172.377 43.889C173.824 43.8337 175.19 43.2077 176.177 42.1477C177.164 41.0878 177.69 39.6803 177.642 38.233C177.69 36.7857 177.164 35.3782 176.177 34.3182C175.19 33.2583 173.824 32.6322 172.377 32.577V32.577Z" fill="black"/>
<path d="M172.377 45.84C170.412 45.785 168.549 44.9536 167.196 43.5278C165.843 42.102 165.11 40.198 165.158 38.233C165.11 36.2679 165.843 34.364 167.196 32.9382C168.549 31.5124 170.412 30.681 172.377 30.626C174.342 30.6812 176.204 31.5128 177.557 32.9385C178.91 34.3643 179.643 36.2681 179.595 38.233C179.643 40.1979 178.91 42.1016 177.557 43.5274C176.204 44.9532 174.342 45.7847 172.377 45.84V45.84ZM172.377 32.577C170.93 32.6322 169.564 33.2583 168.577 34.3182C167.59 35.3782 167.064 36.7857 167.112 38.233C167.064 39.6803 167.59 41.0878 168.577 42.1477C169.564 43.2077 170.93 43.8337 172.377 43.889C173.824 43.8337 175.19 43.2077 176.177 42.1477C177.164 41.0878 177.69 39.6803 177.642 38.233C177.69 36.7857 177.164 35.3782 176.177 34.3182C175.19 33.2583 173.824 32.6322 172.377 32.577V32.577Z" fill="black"/>
<path d="M172.377 45.84C170.412 45.785 168.549 44.9536 167.196 43.5278C165.843 42.102 165.11 40.198 165.158 38.233C165.11 36.2679 165.843 34.364 167.196 32.9382C168.549 31.5124 170.412 30.681 172.377 30.626C174.342 30.6812 176.204 31.5128 177.557 32.9385C178.91 34.3643 179.643 36.2681 179.595 38.233C179.643 40.1979 178.91 42.1016 177.557 43.5274C176.204 44.9532 174.342 45.7847 172.377 45.84V45.84ZM172.377 32.577C170.93 32.6322 169.564 33.2583 168.577 34.3182C167.59 35.3782 167.064 36.7857 167.112 38.233C167.064 39.6803 167.59 41.0878 168.577 42.1477C169.564 43.2077 170.93 43.8337 172.377 43.889C173.824 43.8337 175.19 43.2077 176.177 42.1477C177.164 41.0878 177.69 39.6803 177.642 38.233C177.69 36.7857 177.164 35.3782 176.177 34.3182C175.19 33.2583 173.824 32.6322 172.377 32.577V32.577Z" fill="black"/>
<path d="M166.128 36.558C165.95 36.5581 165.775 36.509 165.623 36.416C165.263 36.2249 164.862 36.1256 164.455 36.127C164.349 36.1929 164.23 36.2368 164.106 36.256C163.983 36.2751 163.856 36.2691 163.735 36.2384C163.614 36.2077 163.5 36.1529 163.4 36.0772C163.301 36.0016 163.217 35.9066 163.155 35.798C163.025 35.5689 162.989 35.2982 163.055 35.0431C163.121 34.788 163.283 34.5685 163.508 34.431C164.482 33.819 166.141 34.45 166.636 34.749C166.818 34.8594 166.959 35.0265 167.038 35.2247C167.116 35.423 167.127 35.6414 167.07 35.8466C167.012 36.0518 166.889 36.2325 166.719 36.361C166.549 36.4894 166.341 36.5586 166.128 36.558" fill="black"/>
<path d="M145.815 38.882C145.602 38.882 145.395 38.8123 145.225 38.6836C145.055 38.5549 144.932 38.3741 144.875 38.169L143.541 33.414C143.498 33.2603 143.493 33.0985 143.527 32.9426C143.562 32.7868 143.633 32.6417 143.737 32.52C143.84 32.3984 143.971 32.304 144.12 32.2451C144.268 32.1861 144.428 32.1645 144.587 32.182L151.55 32.939C151.681 32.9478 151.809 32.983 151.926 33.0425C152.043 33.102 152.147 33.1845 152.232 33.2852C152.316 33.3859 152.38 33.5026 152.418 33.6283C152.456 33.7541 152.468 33.8863 152.454 34.0169C152.44 34.1475 152.4 34.274 152.335 34.3886C152.271 34.5032 152.184 34.6037 152.08 34.6839C151.976 34.7642 151.857 34.8226 151.73 34.8556C151.603 34.8886 151.47 34.8955 151.34 34.876L145.812 34.276L146.757 37.644C146.797 37.7891 146.803 37.9415 146.774 38.0893C146.746 38.2372 146.684 38.3764 146.592 38.4962C146.501 38.616 146.384 38.7132 146.249 38.7801C146.114 38.847 145.966 38.8819 145.815 38.882" fill="black"/>
<path d="M206.447 89.684C204.684 89.683 202.925 89.5095 201.196 89.166C191.952 87.327 184.316 80.814 179.696 70.828C175.308 61.339 174.164 49.739 176.477 38.163C178.79 26.587 184.298 16.308 191.995 9.226C195.061 6.35112 198.598 4.02338 202.451 2.344C205.984 0.814803 209.79 0.0174202 213.639 0C215.403 0.000705153 217.163 0.1742 218.894 0.518C228.139 2.357 235.774 8.869 240.394 18.855C244.781 28.343 245.924 39.944 243.612 51.52C241.3 63.096 235.792 73.375 228.095 80.458C225.028 83.3332 221.49 85.6609 217.636 87.34C214.103 88.869 210.297 89.6664 206.447 89.684V89.684ZM213.7 9.308C210.992 9.32991 208.318 9.91497 205.848 11.026C203.073 12.2768 200.525 13.9793 198.308 16.064C192.051 21.821 187.541 30.315 185.608 39.982C183.675 49.649 184.586 59.216 188.153 66.931C191.489 74.145 196.768 78.8 203.016 80.046C204.126 80.2658 205.255 80.3763 206.387 80.376C209.095 80.3542 211.769 79.7695 214.239 78.659C217.015 77.4085 219.564 75.706 221.782 73.621C228.04 67.86 232.549 59.366 234.478 49.7C236.407 40.034 235.508 30.47 231.937 22.754C228.598 15.539 223.319 10.881 217.072 9.639C215.962 9.41839 214.832 9.30752 213.7 9.308V9.308Z" fill="black"/>
<path d="M188.234 35.788C188 35.7886 187.773 35.7048 187.596 35.552C186.81 35.2462 185.952 35.1807 185.129 35.364C185.035 35.4005 184.937 35.4228 184.837 35.43C184.619 35.4442 184.402 35.3888 184.218 35.2718C184.034 35.1548 183.892 34.9822 183.812 34.779C183.742 34.5757 183.74 34.3549 183.808 34.1507C183.875 33.9465 184.008 33.7702 184.186 33.649C184.573 33.384 187.5 32.891 188.872 34.073C189.023 34.2028 189.131 34.376 189.181 34.5691C189.231 34.7622 189.22 34.966 189.151 35.1529C189.081 35.3399 188.956 35.501 188.792 35.6145C188.628 35.7281 188.433 35.7886 188.234 35.788" fill="black"/>
<path d="M165.954 132.466C165.734 132.467 165.52 132.393 165.347 132.257C165.174 132.12 165.053 131.93 165.002 131.715C164.951 131.501 164.974 131.276 165.067 131.077C165.16 130.877 165.318 130.715 165.515 130.617C172.748 127.107 179.575 122.816 185.875 117.821C186.077 117.659 186.335 117.584 186.592 117.613C186.85 117.641 187.085 117.771 187.247 117.973C187.409 118.175 187.484 118.433 187.455 118.691C187.427 118.948 187.297 119.183 187.095 119.345C180.688 124.426 173.745 128.791 166.39 132.363C166.254 132.43 166.105 132.464 165.954 132.463" fill="black"/>
<path d="M151.24 82.258C135.93 82.258 116.832 73.205 109.53 67.268C109.335 67.1026 109.213 66.8674 109.19 66.6128C109.166 66.3583 109.244 66.1048 109.405 65.9067C109.567 65.7087 109.8 65.582 110.054 65.5538C110.308 65.5256 110.563 65.5982 110.764 65.756C118.678 72.188 142.297 82.937 157.371 79.706C162.496 78.606 166.135 75.971 168.185 71.877C168.302 71.6482 168.505 71.475 168.75 71.3949C168.994 71.3148 169.26 71.3344 169.491 71.4493C169.721 71.5642 169.896 71.7652 169.979 72.0088C170.062 72.2523 170.045 72.5186 169.933 72.75C167.604 77.4 163.515 80.382 157.78 81.614C155.627 82.0575 153.434 82.2734 151.236 82.258" fill="black"/>
<path d="M203.644 83.496L198.811 121.296C199.341 121.895 200.018 122.346 200.774 122.606C201.526 122.73 202.298 122.631 202.995 122.323L208.445 84.365L203.644 83.496Z" fill="black"/>
<path d="M177.866 2.34399C172.734 2.54399 167.84 5.48999 162.604 5.69599C154.904 5.99599 146.835 3.98299 139.31 10.117C131.678 16.338 135.705 23.117 127.51 28.164C117.933 34.055 106.628 27.218 100.01 38.264C90.947 53.389 101.839 65.953 102.81 71.264C104.684 81.552 96.821 84.191 94.459 91.192C93.327 94.551 95.529 98.304 96.833 101.184C103.214 115.269 111.889 121.033 127.113 123.061C140.79 124.882 138.24 106.534 149.332 102.629C159.496 99.05 183.446 98.613 193.662 90.744C205.972 81.256 196.453 38.73 193.821 24.332C193.538 22.77 175.446 10.083 174.333 9.35899" fill="#FFBE00"/>
<path d="M191.671 44.419C195.179 47.112 198.786 41.671 195.833 39.136C195.475 38.8424 195.052 38.6387 194.599 38.542C194.147 38.4453 193.678 38.4583 193.231 38.58" fill="white"/>
<path d="M193.613 46.121C192.688 46.1058 191.795 45.7808 191.076 45.198C190.87 45.0405 190.734 44.8074 190.7 44.5501C190.665 44.2928 190.734 44.0323 190.892 43.826C191.049 43.6197 191.283 43.4844 191.54 43.4499C191.797 43.4154 192.058 43.4845 192.264 43.642C192.479 43.8343 192.732 43.9787 193.007 44.0657C193.282 44.1527 193.572 44.1803 193.859 44.1468C194.145 44.1132 194.421 44.0192 194.669 43.871C194.916 43.7228 195.129 43.5237 195.294 43.287C195.728 42.8195 195.961 42.1999 195.942 41.562C195.924 40.9242 195.655 40.3193 195.194 39.878C194.956 39.6872 194.676 39.5555 194.378 39.4938C194.079 39.4321 193.77 39.4421 193.476 39.523C193.352 39.5558 193.222 39.5639 193.095 39.5467C192.968 39.5295 192.845 39.4873 192.734 39.4227C192.51 39.2922 192.346 39.0779 192.28 38.827C192.214 38.5761 192.25 38.3092 192.38 38.0849C192.511 37.8606 192.725 37.6973 192.976 37.631C193.576 37.4653 194.207 37.4479 194.815 37.5805C195.424 37.7131 195.99 37.9916 196.467 38.392C197.321 39.1615 197.836 40.2377 197.9 41.3856C197.963 42.5335 197.57 43.66 196.806 44.519C196.425 45.0053 195.941 45.401 195.389 45.6777C194.837 45.9543 194.23 46.1051 193.613 46.119" fill="black"/>
<path d="M197.033 13.973C196.071 33.956 193.333 51.129 191.574 56.906C189.074 65.12 181.25 66.963 175.847 66.201C170.152 65.392 163.436 60.801 164.033 51.925C164.724 41.625 167.646 19.225 169.133 15.389C170.62 11.553 174.582 7.47501 180.063 5.08301C187.376 1.89301 197.322 7.93301 197.033 13.973Z" fill="white"/>
<path d="M178.186 67.342C177.359 67.3415 176.532 67.2837 175.713 67.169C169.184 66.244 162.439 61.059 163.059 51.859C163.726 41.92 166.642 19.12 168.224 15.033C169.906 10.688 174.294 6.53301 179.674 4.18301C181.188 3.53849 182.819 3.21501 184.465 3.23301C187.59 3.26623 190.631 4.24215 193.192 6.03301C196.345 8.21201 198.145 11.199 198.008 14.022C197.019 34.594 194.195 51.652 192.507 57.193C192.013 58.8565 191.226 60.4181 190.182 61.804C189.232 63.0481 188.07 64.1151 186.75 64.956C184.182 66.5526 181.21 67.3805 178.186 67.342V67.342ZM184.476 5.18301C183.094 5.16929 181.725 5.44167 180.454 5.98301C175.535 8.12701 171.547 11.868 170.045 15.745C168.655 19.329 165.725 41.305 165.007 51.992C164.471 59.945 170.319 64.433 175.984 65.233C176.665 65.3279 177.352 65.3747 178.039 65.373C180.539 65.3963 183.004 64.7842 185.202 63.594C187.867 62.0834 189.823 59.5769 190.641 56.625C192.3 51.171 195.077 34.319 196.058 13.931C196.158 11.787 194.673 9.43701 192.082 7.64501C189.852 6.07864 187.201 5.22067 184.476 5.18301V5.18301Z" fill="black"/>
<path d="M187.863 46.441C186.615 46.3367 185.395 46.0223 184.252 45.511C184.009 45.4182 183.814 45.2328 183.708 44.9957C183.602 44.7585 183.595 44.489 183.687 44.2465C183.78 44.004 183.966 43.8082 184.203 43.7024C184.44 43.5965 184.709 43.5892 184.952 43.682C187.439 44.638 188.001 44.496 188.091 44.456C188.025 43.5166 187.857 42.5872 187.591 41.684C187.22 40.2019 186.937 38.6993 186.743 37.184C186.721 37.0532 186.726 36.9193 186.758 36.7906C186.79 36.6618 186.847 36.5408 186.927 36.435C187.007 36.3292 187.108 36.2407 187.223 36.175C187.338 36.1094 187.465 36.0678 187.597 36.0529C187.729 36.038 187.862 36.0501 187.989 36.0885C188.116 36.1268 188.234 36.1906 188.335 36.2759C188.437 36.3613 188.52 36.4664 188.58 36.5848C188.639 36.7033 188.674 36.8326 188.682 36.965C188.866 38.4035 189.135 39.8297 189.489 41.236C190.009 43.446 190.383 45.044 189.344 45.953C188.928 46.2943 188.4 46.4683 187.863 46.441" fill="black"/>
<path d="M192.728 37.38C192.786 37.0922 192.728 36.7931 192.566 36.548C192.405 36.3029 192.152 36.1318 191.865 36.072C191.573 36.0507 191.285 36.1454 191.063 36.3355C190.841 36.5255 190.702 36.7956 190.678 37.087C190.62 37.3741 190.678 37.6724 190.839 37.9171C191 38.1618 191.251 38.3332 191.537 38.394C191.829 38.4164 192.118 38.3224 192.341 38.1325C192.565 37.9425 192.703 37.672 192.728 37.38" fill="black"/>
<path d="M206.28 25.182C205.114 27.798 192.622 33.159 179.946 20.999C167.27 8.83899 160.729 35.972 158.764 35.679C153.798 34.937 159.084 22.292 164.411 10.645C173.161 -8.48501 214.68 6.33699 206.28 25.182Z" fill="#FFBE00"/>
<path d="M197.165 46.383C194.751 46.3085 192.466 45.2807 190.809 43.5248C189.151 41.7688 188.257 39.4277 188.322 37.014C188.257 34.6 189.151 32.2585 190.808 30.5022C192.465 28.7459 194.751 27.7178 197.165 27.643C199.579 27.7178 201.864 28.7459 203.522 30.5022C205.179 32.2585 206.073 34.6 206.008 37.014C206.073 39.4277 205.179 41.7688 203.521 43.5248C201.864 45.2807 199.578 46.3085 197.165 46.383ZM197.165 29.6C195.27 29.6742 193.481 30.4958 192.19 31.8851C190.899 33.2745 190.21 35.1185 190.275 37.014C190.211 38.9094 190.899 40.7532 192.191 42.1422C193.482 43.5312 195.271 44.3523 197.166 44.426C199.061 44.352 200.849 43.5308 202.14 42.1418C203.432 40.7529 204.12 38.9093 204.056 37.014C204.121 35.1183 203.432 33.2742 202.141 31.8848C200.849 30.4955 199.06 29.674 197.165 29.6V29.6Z" fill="black"/>
<path d="M207.138 90.72C205.42 90.7213 203.706 90.5538 202.021 90.22C183.535 86.521 172.457 63.575 177.327 39.065C178.378 33.7213 180.172 28.5513 182.659 23.706C184.927 19.2582 187.849 15.1763 191.33 11.597C194.491 8.3189 198.211 5.62993 202.315 3.65603C206.142 1.81032 210.33 0.836921 214.579 0.80603C216.296 0.806195 218.009 0.975344 219.693 1.31103C238.18 5.00503 249.259 27.951 244.393 52.461C243.344 57.807 241.549 62.9792 239.061 67.826C236.793 72.2736 233.87 76.3552 230.389 79.934C227.228 83.2103 223.508 85.8976 219.405 87.87C215.577 89.7161 211.388 90.6895 207.138 90.72V90.72ZM214.46 10.12C208.46 10.12 202.313 13.21 197.16 18.82C194.516 21.737 192.304 25.0173 190.589 28.561C188.68 32.4725 187.29 36.6161 186.452 40.887C182.584 60.354 190.385 78.379 203.841 81.068C204.967 81.2921 206.112 81.405 207.26 81.405C213.271 81.405 219.416 78.315 224.565 72.705C227.207 69.7879 229.419 66.5077 231.132 62.964C233.039 59.0522 234.429 54.9087 235.267 50.638C239.136 31.172 231.335 13.147 217.879 10.458C216.754 10.2334 215.609 10.1202 214.462 10.12H214.46Z" fill="black"/>
<path d="M210.122 132.211C211.381 123.419 202.045 100.131 191.67 116.805C188.754 121.492 188.287 127.387 185.627 132.223C184.232 134.416 182.376 136.279 180.187 137.68C164.963 148.7 123.258 169.621 119.422 167.691C103.21 159.526 114.122 118.634 115.383 100.948C116.722 82.2291 96.661 60.0761 86.436 79.0541C76.592 97.3221 74.747 121.492 74.091 141.694C73.333 164.968 78.444 205.513 108.547 207.323C141.038 209.279 172.855 164.859 195.138 148.923C204.624 142.137 209.079 139.531 210.126 132.215" fill="white"/>
<path d="M110.678 208.362C109.934 208.362 109.198 208.34 108.489 208.296C94.789 207.473 84.806 198.928 78.832 182.896C72.976 167.184 72.883 148.827 73.115 141.664C73.799 120.642 75.814 96.709 85.576 78.591C86.8109 76.0843 88.6749 73.9408 90.986 72.37C92.5691 71.3639 94.4063 70.8304 96.282 70.832C97.3177 70.8354 98.3476 70.9855 99.341 71.278C108.98 74.078 117.251 88.532 116.358 101.017C116.078 104.929 115.325 110.011 114.529 115.392V115.399C111.697 134.539 107.817 160.752 119.865 166.819C120.008 166.863 120.158 166.884 120.308 166.879C121.647 166.879 124.902 165.815 129.719 163.801C134.319 161.879 139.996 159.241 146.143 156.172C152.491 153.003 158.831 149.623 164.478 146.399C169.686 143.493 174.741 140.319 179.622 136.891C181.691 135.57 183.45 133.817 184.778 131.752C185.921 129.476 186.829 127.089 187.487 124.629C188.238 121.714 189.368 118.91 190.848 116.289C191.973 114.335 193.484 112.63 195.288 111.278C196.418 110.454 197.772 109.997 199.17 109.967C199.883 109.97 200.591 110.097 201.26 110.344C207.624 112.663 212.038 125.763 211.094 132.344C210.069 139.5 205.984 142.402 197.847 148.183L195.707 149.707C189.291 154.297 181.957 161.385 174.194 168.889L174.185 168.897C164.451 178.309 154.389 188.032 143.745 195.583C138.692 199.271 133.232 202.364 127.472 204.803C124.773 205.916 121.982 206.794 119.132 207.427C116.355 208.039 113.521 208.352 110.678 208.362V208.362ZM96.27 72.776C94.4939 72.7865 92.771 73.3842 91.37 74.476C89.6665 75.8441 88.2777 77.5631 87.298 79.516C77.723 97.28 75.741 120.932 75.065 141.727C74.726 152.161 74.751 204.314 108.607 206.35C109.289 206.391 109.985 206.412 110.674 206.412C113.426 206.402 116.169 206.093 118.855 205.491C121.626 204.866 124.338 204.001 126.96 202.907C132.589 200.496 137.923 197.448 142.86 193.825C153.289 186.39 163.203 176.806 172.79 167.539L172.837 167.493L172.907 167.425C180.699 159.897 188.059 152.786 194.575 148.125L196.72 146.598C204.643 140.97 208.259 138.398 209.165 132.074C209.983 126.36 205.977 114.139 200.593 112.174C200.138 112.007 199.658 111.921 199.174 111.919C196.974 111.919 194.736 113.736 192.507 117.319C191.117 119.795 190.058 122.442 189.356 125.193C188.664 127.786 187.704 130.299 186.491 132.693C185.029 135.014 183.076 136.986 180.769 138.471C177.551 140.799 172.693 143.848 166.718 147.286C160.951 150.604 154.568 154.044 148.266 157.232C141.693 160.558 135.674 163.37 130.861 165.363C125.466 167.597 121.791 168.732 119.936 168.732C119.61 168.748 119.284 168.69 118.984 168.562C105.684 161.862 109.678 134.846 112.597 115.118V115.107L112.606 115.045C113.395 109.717 114.14 104.685 114.412 100.879C115.229 89.413 107.494 75.679 98.796 73.151C97.9759 72.9077 97.1255 72.7814 96.27 72.776V72.776Z" fill="black"/>
<path d="M201.001 124.252C200.797 124.252 200.594 124.239 200.392 124.212C199.547 124.089 198.757 123.72 198.12 123.151C197.483 122.582 197.028 121.838 196.811 121.012C196.742 120.77 196.769 120.511 196.886 120.289C197.004 120.066 197.202 119.898 197.441 119.819C197.68 119.739 197.94 119.755 198.167 119.863C198.394 119.971 198.571 120.163 198.66 120.398C198.766 120.875 199.012 121.309 199.367 121.644C199.722 121.98 200.169 122.201 200.651 122.279C201.495 122.299 202.33 122.106 203.08 121.718C203.829 121.33 204.47 120.76 204.941 120.06C205.009 119.946 205.099 119.847 205.206 119.77C205.313 119.692 205.435 119.637 205.564 119.607C205.693 119.578 205.827 119.575 205.957 119.6C206.087 119.624 206.211 119.674 206.321 119.748C206.431 119.821 206.525 119.916 206.597 120.027C206.669 120.138 206.718 120.263 206.74 120.393C206.763 120.524 206.758 120.658 206.727 120.786C206.696 120.915 206.639 121.036 206.56 121.142C205.938 122.057 205.111 122.814 204.145 123.354C203.179 123.893 202.101 124.201 200.996 124.252" fill="black"/>
<path d="M206.097 127.065C205.903 127.066 205.713 127.009 205.552 126.902C205.39 126.794 205.265 126.641 205.19 126.462C205.116 126.283 205.097 126.086 205.136 125.896C205.174 125.706 205.268 125.531 205.406 125.395C205.727 125.084 206.063 124.789 206.414 124.513C207.35 123.756 207.764 123.378 207.764 122.365C207.772 122.112 207.878 121.872 208.061 121.695C208.243 121.519 208.486 121.42 208.74 121.42C208.993 121.42 209.236 121.519 209.419 121.695C209.601 121.872 209.707 122.112 209.715 122.365C209.709 123.102 209.516 123.826 209.154 124.468C208.791 125.109 208.271 125.648 207.643 126.034C207.345 126.267 207.059 126.515 206.788 126.779C206.697 126.87 206.59 126.942 206.471 126.991C206.352 127.04 206.225 127.065 206.097 127.065Z" fill="black"/>
<path d="M207.762 131.86C207.553 131.86 207.349 131.792 207.181 131.668C207.012 131.543 206.889 131.367 206.828 131.167C206.768 130.966 206.773 130.752 206.844 130.555C206.915 130.357 207.047 130.188 207.221 130.072C207.412 129.946 207.598 129.833 207.777 129.724C208.355 129.376 208.644 129.19 208.845 128.785C208.965 128.561 209.167 128.393 209.409 128.316C209.651 128.239 209.914 128.259 210.141 128.372C210.368 128.486 210.543 128.683 210.627 128.923C210.711 129.163 210.698 129.426 210.591 129.656C210.181 130.407 209.551 131.015 208.785 131.397C208.629 131.491 208.467 131.588 208.302 131.697C208.143 131.803 207.955 131.86 207.764 131.86" fill="black"/>
<path d="M207.27 136.951C207.022 136.948 206.784 136.85 206.605 136.678C206.426 136.505 206.32 136.271 206.308 136.023C206.295 135.775 206.378 135.531 206.54 135.342C206.701 135.153 206.928 135.032 207.175 135.005L207.92 134.924L208.341 134.503C208.524 134.32 208.772 134.217 209.031 134.216C209.29 134.216 209.538 134.319 209.722 134.502C209.905 134.684 210.008 134.933 210.008 135.191C210.008 135.45 209.906 135.699 209.723 135.882L209.234 136.371C209.189 136.416 209.139 136.456 209.086 136.491L208.793 136.691C208.66 136.781 208.507 136.836 208.347 136.852L207.369 136.952C207.337 136.952 207.303 136.952 207.269 136.952" fill="black"/>
<path d="M4.615 177.694C4.59024 174.117 5.62841 170.613 7.59787 167.626C9.56733 164.64 12.3793 162.305 15.6773 160.919C18.9753 159.533 22.6106 159.157 26.1223 159.84C29.634 160.523 32.8638 162.233 35.4022 164.754C37.9406 167.275 39.6732 170.492 40.3803 173.999C41.0873 177.506 40.7371 181.144 39.3738 184.451C38.0106 187.759 35.6958 190.587 32.723 192.577C29.7503 194.567 26.2534 195.63 22.676 195.63C17.9026 195.646 13.3182 193.766 9.93123 190.402C6.54422 187.039 4.63194 182.467 4.615 177.694" fill="#00B2B2"/>
<path d="M222.267 306.955L260.881 316.999C260.881 316.999 249.181 333.836 236.046 330.699C222.378 327.438 222.267 306.955 222.267 306.955Z" fill="#FF0E11"/>
<path d="M1.284 223.284V299.053L54.59 294.312L54.074 218.773L1.284 223.284Z" fill="white"/>
<path d="M0.977019 302.639C0.84839 302.639 0.72098 302.614 0.602129 302.565C0.483278 302.516 0.375336 302.443 0.284521 302.352C0.193706 302.261 0.121814 302.153 0.0729855 302.034C0.0241575 301.915 -0.000640962 301.788 1.89484e-05 301.659V225.734C-0.00151142 225.489 0.0897088 225.252 0.255357 225.072C0.421005 224.892 0.648812 224.78 0.893019 224.761L53.859 220.239C53.885 220.239 53.912 220.239 53.939 220.239C54.1831 220.239 54.4185 220.33 54.6 220.493C54.6993 220.584 54.7788 220.694 54.8337 220.817C54.8885 220.94 54.9176 221.072 54.919 221.207L55.437 296.901C55.4401 297.146 55.35 297.384 55.1848 297.565C55.0196 297.747 54.7916 297.859 54.547 297.879L1.06402 302.63C1.03302 302.633 1.00002 302.639 0.977019 302.639ZM52.977 222.28L1.95402 226.629V300.594L53.478 296.016L52.977 222.28Z" fill="black"/>
<path d="M14.933 247.716C12.8827 247.743 10.9053 246.956 9.43435 245.527C7.96341 244.099 7.11891 242.145 7.086 240.095C7.11891 238.045 7.96347 236.092 9.43448 234.663C10.9055 233.235 12.8829 232.448 14.933 232.476C16.9832 232.448 18.9607 233.235 20.4319 234.663C21.903 236.092 22.7478 238.045 22.781 240.095C22.7481 242.145 21.9035 244.099 20.4323 245.528C18.9611 246.956 16.9835 247.743 14.933 247.716V247.716ZM14.933 234.426C13.4004 234.398 11.9194 234.98 10.8147 236.042C9.70999 237.105 9.07178 238.562 9.04 240.095C9.07205 241.627 9.71033 243.085 10.815 244.147C11.9196 245.21 13.4005 245.791 14.933 245.764C16.4655 245.791 17.9464 245.21 19.051 244.147C20.1557 243.085 20.794 241.627 20.826 240.095C20.7937 238.563 20.1553 237.106 19.0507 236.043C17.9461 234.981 16.4654 234.4 14.933 234.427V234.426Z" fill="black"/>
<path d="M26.382 237.571C26.1318 237.568 25.8922 237.469 25.7129 237.295C25.5335 237.12 25.428 236.883 25.4183 236.633C25.4085 236.383 25.4952 236.139 25.6604 235.951C25.8256 235.763 26.0568 235.645 26.306 235.623L43.54 234.188C43.7969 234.172 44.0498 234.256 44.2463 234.423C44.4428 234.589 44.5677 234.824 44.595 235.08C44.6158 235.338 44.5341 235.593 44.3676 235.79C44.2011 235.988 43.9634 236.112 43.706 236.135L26.464 237.568H26.382" fill="black"/>
<path d="M26.412 244.032C26.1617 244.029 25.9222 243.93 25.7428 243.755C25.5635 243.581 25.458 243.344 25.4483 243.094C25.4385 242.844 25.5252 242.6 25.6904 242.412C25.8556 242.224 26.0867 242.106 26.336 242.084L43.569 240.649C43.8258 240.633 44.0788 240.717 44.2753 240.883C44.4718 241.05 44.5967 241.285 44.624 241.541C44.6448 241.799 44.5625 242.055 44.3952 242.253C44.2278 242.45 43.989 242.574 43.731 242.596L26.494 244.029H26.412" fill="black"/>
<path d="M8.437 257.228C8.18861 257.225 7.95086 257.127 7.77218 256.954C7.59351 256.781 7.48737 256.547 7.47538 256.299C7.4634 256.051 7.54647 255.808 7.70768 255.619C7.86889 255.43 8.09609 255.309 8.343 255.282L44.415 251.716C44.672 251.694 44.9273 251.774 45.1268 251.937C45.3262 252.101 45.454 252.336 45.483 252.592C45.4956 252.72 45.4829 252.848 45.4456 252.971C45.4084 253.093 45.3473 253.208 45.266 253.307C45.1846 253.406 45.0845 253.488 44.9715 253.548C44.8584 253.608 44.7345 253.646 44.607 253.658L8.534 257.224C8.502 257.224 8.46867 257.224 8.434 257.224" fill="black"/>
<path d="M8.974 265.18C8.72409 265.179 8.48415 265.082 8.30362 264.909C8.1231 264.736 8.01575 264.501 8.0037 264.251C7.99165 264.001 8.07581 263.757 8.23885 263.567C8.40188 263.378 8.63137 263.258 8.88 263.233L44.953 259.666C45.0821 259.65 45.2131 259.66 45.3382 259.696C45.4634 259.731 45.5802 259.792 45.6817 259.873C45.7833 259.954 45.8675 260.055 45.9296 260.169C45.9916 260.284 46.0301 260.409 46.0429 260.539C46.0557 260.668 46.0425 260.799 46.0041 260.923C45.9656 261.047 45.9027 261.163 45.8191 261.262C45.7354 261.362 45.6327 261.444 45.5169 261.503C45.4012 261.563 45.2747 261.598 45.145 261.608L9.071 265.176C9.039 265.176 9.00567 265.176 8.971 265.176" fill="black"/>
<path d="M9.51203 273.132C9.26212 273.131 9.02217 273.034 8.84165 272.861C8.66113 272.688 8.55378 272.453 8.54172 272.203C8.52967 271.953 8.61384 271.709 8.77687 271.519C8.93991 271.33 9.16939 271.21 9.41803 271.185L45.49 267.618C45.6192 267.602 45.7501 267.612 45.8753 267.648C46.0004 267.683 46.1172 267.744 46.2187 267.825C46.3203 267.906 46.4045 268.007 46.4666 268.121C46.5286 268.236 46.5672 268.361 46.58 268.491C46.5928 268.62 46.5796 268.751 46.5411 268.875C46.5027 268.999 46.4398 269.115 46.3561 269.214C46.2725 269.314 46.1697 269.396 46.054 269.455C45.9382 269.515 45.8117 269.55 45.682 269.56L9.60903 273.127C9.57703 273.127 9.54369 273.127 9.50903 273.127" fill="black"/>
<path d="M10.049 281.088C9.80061 281.085 9.56286 280.987 9.38418 280.814C9.20551 280.641 9.09937 280.407 9.08738 280.159C9.0754 279.911 9.15847 279.668 9.31968 279.479C9.48089 279.29 9.70809 279.169 9.955 279.142L46.028 275.573C46.1571 275.557 46.2881 275.567 46.4132 275.603C46.5384 275.638 46.6552 275.699 46.7567 275.78C46.8583 275.861 46.9425 275.962 47.0046 276.076C47.0666 276.191 47.1051 276.316 47.1179 276.446C47.1307 276.575 47.1175 276.706 47.0791 276.83C47.0406 276.954 46.9777 277.07 46.8941 277.169C46.8104 277.269 46.7077 277.351 46.5919 277.41C46.4762 277.47 46.3497 277.505 46.22 277.515L10.146 281.084C10.114 281.084 10.0807 281.084 10.046 281.084" fill="black"/>
<path d="M10.589 289.039C10.3391 289.038 10.0991 288.941 9.91862 288.768C9.73809 288.595 9.63074 288.36 9.61869 288.11C9.60664 287.86 9.6908 287.616 9.85384 287.426C10.0169 287.237 10.2464 287.117 10.495 287.092L46.567 283.524C46.6961 283.508 46.8271 283.518 46.9522 283.554C47.0774 283.589 47.1942 283.65 47.2957 283.731C47.3972 283.812 47.4815 283.913 47.5435 284.027C47.6056 284.142 47.6441 284.267 47.6569 284.397C47.6697 284.526 47.6565 284.657 47.6181 284.781C47.5796 284.905 47.5167 285.021 47.4331 285.12C47.3494 285.22 47.2467 285.302 47.1309 285.361C47.0152 285.421 46.8887 285.456 46.759 285.466L10.686 289.034C10.654 289.034 10.6207 289.034 10.586 289.034" fill="black"/>
<path d="M253.345 223.631L293.299 220.222L292.993 277.179L252.793 280.508L253.345 223.631Z" fill="#FFD2E1"/>
<path d="M263.874 240.452C262.264 240.473 260.711 239.854 259.557 238.732C258.402 237.609 257.739 236.075 257.714 234.465C257.739 232.855 258.402 231.32 259.556 230.198C260.711 229.075 262.264 228.456 263.874 228.477C265.484 228.457 267.036 229.076 268.191 230.198C269.345 231.321 270.007 232.855 270.032 234.465C270.007 236.075 269.345 237.609 268.19 238.731C267.036 239.853 265.484 240.472 263.874 240.452V240.452ZM263.874 230.428C262.781 230.407 261.725 230.821 260.937 231.577C260.148 232.334 259.692 233.372 259.668 234.465C259.692 235.557 260.149 236.595 260.937 237.352C261.726 238.108 262.782 238.522 263.874 238.501C264.966 238.52 266.02 238.106 266.808 237.35C267.595 236.593 268.05 235.555 268.074 234.464C268.05 233.373 267.594 232.335 266.807 231.579C266.02 230.822 264.965 230.409 263.874 230.428V230.428Z" fill="black"/>
<path d="M272.511 232.8C272.261 232.797 272.021 232.698 271.842 232.523C271.662 232.349 271.557 232.112 271.547 231.862C271.537 231.612 271.624 231.368 271.789 231.18C271.955 230.992 272.186 230.874 272.435 230.852L285.435 229.766C285.563 229.753 285.693 229.766 285.816 229.804C285.939 229.842 286.053 229.905 286.151 229.988C286.25 230.071 286.331 230.172 286.389 230.287C286.447 230.402 286.482 230.527 286.491 230.656C286.512 230.914 286.43 231.17 286.262 231.367C286.095 231.565 285.856 231.688 285.598 231.709L272.598 232.792H272.514" fill="black"/>
<path d="M272.531 237.673C272.281 237.67 272.041 237.571 271.862 237.396C271.682 237.222 271.577 236.985 271.567 236.735C271.558 236.485 271.644 236.241 271.809 236.053C271.975 235.865 272.206 235.747 272.455 235.725L285.455 234.642C285.713 234.622 285.968 234.704 286.166 234.87C286.363 235.037 286.487 235.275 286.511 235.532C286.532 235.79 286.449 236.046 286.282 236.243C286.115 236.441 285.876 236.565 285.618 236.587L272.618 237.668H272.534" fill="black"/>
<path d="M258.972 247.628C258.722 247.627 258.482 247.53 258.302 247.357C258.121 247.184 258.014 246.949 258.002 246.699C257.99 246.449 258.074 246.205 258.237 246.015C258.4 245.826 258.629 245.706 258.878 245.681L286.089 242.989C286.346 242.965 286.603 243.043 286.803 243.207C287.003 243.37 287.131 243.606 287.159 243.863C287.184 244.121 287.106 244.378 286.941 244.578C286.777 244.779 286.54 244.905 286.282 244.931L259.069 247.623C259.037 247.623 259.004 247.623 258.969 247.623" fill="black"/>
<path d="M258.413 253.554C258.16 253.557 257.915 253.462 257.731 253.288C257.547 253.114 257.438 252.876 257.426 252.623C257.415 252.37 257.502 252.123 257.67 251.933C257.838 251.743 258.073 251.627 258.325 251.607L285.646 249.124C285.774 249.112 285.902 249.126 286.025 249.164C286.147 249.202 286.261 249.264 286.359 249.346C286.458 249.428 286.539 249.528 286.599 249.642C286.659 249.755 286.695 249.879 286.707 250.007C286.719 250.135 286.705 250.263 286.667 250.386C286.629 250.508 286.567 250.622 286.485 250.72C286.403 250.819 286.303 250.9 286.189 250.96C286.076 251.02 285.952 251.056 285.824 251.068L258.504 253.549C258.473 253.549 258.444 253.549 258.413 253.549" fill="black"/>
<path d="M258.348 259.558C258.098 259.558 257.857 259.463 257.676 259.29C257.494 259.118 257.386 258.883 257.373 258.633C257.36 258.383 257.444 258.138 257.607 257.948C257.769 257.758 257.999 257.638 258.248 257.613C258.508 257.585 284.073 255.002 285.86 254.747C285.988 254.726 286.119 254.73 286.246 254.76C286.372 254.791 286.491 254.846 286.596 254.922C286.701 254.999 286.789 255.096 286.856 255.208C286.923 255.319 286.966 255.443 286.985 255.571C287.003 255.7 286.996 255.831 286.963 255.957C286.93 256.082 286.872 256.2 286.793 256.303C286.713 256.406 286.614 256.492 286.502 256.556C286.389 256.621 286.264 256.662 286.135 256.677C284.307 256.935 259.503 259.447 258.448 259.552C258.415 259.556 258.381 259.558 258.348 259.558" fill="black"/>
<path d="M258.282 265.692C258.032 265.691 257.792 265.594 257.612 265.421C257.431 265.248 257.324 265.013 257.312 264.763C257.3 264.513 257.384 264.269 257.547 264.079C257.71 263.89 257.939 263.77 258.188 263.745L285.967 261C286.225 260.976 286.481 261.055 286.682 261.22C286.882 261.384 287.009 261.621 287.036 261.878C287.061 262.136 286.983 262.393 286.819 262.593C286.655 262.794 286.418 262.92 286.16 262.946L258.379 265.687C258.347 265.687 258.314 265.687 258.279 265.687" fill="black"/>
<path d="M258.348 271.629C258.1 271.626 257.862 271.528 257.683 271.355C257.505 271.182 257.398 270.948 257.386 270.7C257.374 270.452 257.457 270.209 257.619 270.02C257.78 269.831 258.007 269.71 258.254 269.683L286.162 266.94C286.291 266.924 286.422 266.934 286.547 266.97C286.672 267.005 286.789 267.066 286.891 267.147C286.992 267.228 287.077 267.329 287.139 267.443C287.201 267.558 287.239 267.683 287.252 267.813C287.265 267.942 287.252 268.073 287.213 268.197C287.175 268.321 287.112 268.437 287.028 268.536C286.944 268.636 286.842 268.718 286.726 268.777C286.61 268.837 286.484 268.872 286.354 268.882L258.445 271.625C258.413 271.625 258.379 271.625 258.345 271.625" fill="black"/>
<path d="M229.79 72.472L308.271 65.772L309.039 177.925L229.79 184.972V72.472Z" fill="#FFBE00"/>
<path d="M250.871 104.57C247.957 104.612 245.146 103.496 243.055 101.467C240.963 99.4381 239.762 96.6624 239.715 93.7489C239.762 90.8355 240.963 88.0598 243.055 86.031C245.146 84.0022 247.957 82.8862 250.871 82.9279C253.784 82.8873 256.595 84.0036 258.687 86.0321C260.778 88.0605 261.98 90.8356 262.029 93.7489C261.98 96.6622 260.778 99.4374 258.687 101.466C256.595 103.494 253.784 104.611 250.871 104.57V104.57ZM250.871 84.8789C248.476 84.839 246.163 85.7502 244.438 87.4129C242.714 89.0755 241.719 91.354 241.671 93.7489C241.719 96.1439 242.714 98.4224 244.438 100.085C246.163 101.748 248.476 102.659 250.871 102.619C253.266 102.659 255.579 101.747 257.304 100.085C259.028 98.4221 260.023 96.1438 260.071 93.7489C260.023 91.354 259.028 89.0757 257.304 87.4132C255.579 85.7506 253.266 84.8393 250.871 84.8789V84.8789Z" fill="black"/>
<path d="M267.436 89.536C267.186 89.533 266.946 89.4341 266.767 89.2595C266.587 89.085 266.482 88.8482 266.472 88.5981C266.463 88.348 266.549 88.1038 266.714 87.9158C266.88 87.7278 267.111 87.6104 267.36 87.588L292.897 85.463C293.025 85.4525 293.153 85.4672 293.275 85.5064C293.397 85.5455 293.51 85.6083 293.608 85.6911C293.705 85.774 293.786 85.8752 293.844 85.9891C293.903 86.103 293.939 86.2274 293.949 86.355C293.96 86.4826 293.945 86.6111 293.906 86.7331C293.866 86.855 293.804 86.9681 293.721 87.0657C293.638 87.1634 293.537 87.2438 293.423 87.3024C293.309 87.361 293.185 87.3965 293.057 87.407L267.518 89.533H267.436" fill="black"/>
<path d="M267.477 99.109C267.227 99.106 266.987 99.007 266.808 98.8325C266.628 98.6579 266.523 98.4212 266.513 98.1711C266.503 97.921 266.59 97.6767 266.755 97.4887C266.921 97.3007 267.152 97.1834 267.401 97.161L292.939 95.035C293.197 95.0137 293.452 95.0958 293.65 95.2631C293.847 95.4304 293.97 95.6692 293.991 95.927C294.012 96.1848 293.93 96.4404 293.763 96.6377C293.596 96.835 293.357 96.9577 293.099 96.979L267.559 99.106H267.477" fill="black"/>
<path d="M240.844 118.665C240.596 118.662 240.358 118.564 240.179 118.391C240 118.218 239.894 117.984 239.882 117.736C239.87 117.488 239.953 117.245 240.115 117.056C240.276 116.867 240.503 116.746 240.75 116.719L294.199 111.441C294.456 111.415 294.713 111.493 294.913 111.657C295.113 111.821 295.24 112.058 295.265 112.315C295.291 112.573 295.213 112.83 295.049 113.03C294.885 113.23 294.648 113.356 294.391 113.382L240.941 118.661C240.909 118.661 240.876 118.661 240.841 118.661" fill="black"/>
<path d="M241.642 130.448C241.392 130.447 241.152 130.35 240.972 130.177C240.791 130.004 240.684 129.769 240.672 129.519C240.66 129.269 240.744 129.025 240.907 128.835C241.07 128.646 241.299 128.526 241.548 128.501L294.997 123.224C295.254 123.199 295.511 123.276 295.711 123.44C295.911 123.604 296.038 123.841 296.064 124.098C296.089 124.356 296.011 124.613 295.847 124.813C295.683 125.013 295.446 125.14 295.189 125.165L241.739 130.444C241.707 130.444 241.674 130.444 241.639 130.444" fill="black"/>
<path d="M242.438 142.229C242.19 142.226 241.952 142.128 241.773 141.955C241.595 141.782 241.488 141.548 241.476 141.3C241.464 141.052 241.547 140.809 241.709 140.62C241.87 140.431 242.097 140.31 242.344 140.283L295.794 135.005C296.051 134.98 296.308 135.057 296.508 135.221C296.708 135.385 296.835 135.622 296.861 135.879C296.886 136.137 296.808 136.394 296.644 136.594C296.48 136.794 296.243 136.921 295.986 136.946L242.535 142.225C242.503 142.225 242.47 142.225 242.435 142.225" fill="black"/>
<path d="M243.236 154.011C242.986 154.01 242.746 153.913 242.566 153.74C242.385 153.567 242.278 153.332 242.266 153.082C242.254 152.832 242.338 152.588 242.501 152.398C242.664 152.209 242.893 152.089 243.142 152.064L296.592 146.788C296.849 146.762 297.106 146.84 297.306 147.004C297.506 147.168 297.633 147.405 297.658 147.662C297.684 147.92 297.606 148.177 297.442 148.377C297.278 148.577 297.041 148.703 296.784 148.729L243.333 154.007C243.301 154.007 243.268 154.007 243.233 154.007" fill="black"/>
<path d="M244.034 165.794C243.786 165.791 243.548 165.693 243.369 165.52C243.19 165.347 243.084 165.113 243.072 164.865C243.06 164.617 243.143 164.374 243.305 164.185C243.466 163.996 243.693 163.875 243.94 163.848L297.389 158.569C297.646 158.543 297.903 158.621 298.103 158.785C298.303 158.949 298.43 159.186 298.455 159.443C298.481 159.701 298.403 159.958 298.239 160.158C298.075 160.358 297.838 160.484 297.581 160.51L244.131 165.79C244.099 165.79 244.066 165.79 244.031 165.79" fill="black"/>
<path d="M299.563 84.154L311.361 77.139C311.724 76.9178 312.128 76.7706 312.548 76.706C312.969 76.6414 313.398 76.6606 313.81 76.7625C314.223 76.8644 314.612 77.0471 314.954 77.2999C315.296 77.5527 315.585 77.8707 315.803 78.2355C316.022 78.6004 316.166 79.0049 316.228 79.4257C316.289 79.8466 316.267 80.2755 316.162 80.6877C316.057 81.0999 315.872 81.4872 315.617 81.8274C315.361 82.1677 315.041 82.454 314.675 82.67L302.876 89.683C302.513 89.9194 302.105 90.0801 301.678 90.1555C301.251 90.2309 300.814 90.2195 300.391 90.1219C299.969 90.0243 299.57 89.8425 299.22 89.5874C298.869 89.3323 298.574 89.0092 298.351 88.6373C298.128 88.2654 297.983 87.8524 297.923 87.423C297.863 86.9936 297.891 86.5566 298.004 86.1381C298.117 85.7195 298.314 85.3281 298.581 84.9872C298.849 84.6463 299.183 84.3629 299.563 84.154" fill="white"/>
<path d="M301.227 91.119C300.498 91.1187 299.782 90.9301 299.148 90.5715C298.514 90.2128 297.983 89.6963 297.607 89.072C297.037 88.116 296.87 86.9728 297.142 85.8935C297.414 84.8142 298.104 83.8872 299.059 83.316L310.858 76.302C311.508 75.9148 312.25 75.7099 313.007 75.709C313.726 75.7095 314.433 75.8918 315.062 76.239C315.709 76.5971 316.251 77.1196 316.632 77.754C316.915 78.2273 317.101 78.7517 317.181 79.2972C317.261 79.8427 317.233 80.3986 317.098 80.9332C316.963 81.4677 316.723 81.9703 316.394 82.4123C316.064 82.8543 315.651 83.227 315.177 83.509L303.377 90.524C302.727 90.9121 301.984 91.1177 301.227 91.119V91.119ZM313.014 77.661C312.609 77.661 312.211 77.7706 311.863 77.978L300.065 84.993C299.683 85.22 299.377 85.5554 299.185 85.9567C298.994 86.3579 298.926 86.807 298.99 87.2468C299.055 87.6867 299.248 88.0976 299.546 88.4273C299.844 88.7571 300.234 88.9909 300.665 89.099C300.951 89.1713 301.248 89.1865 301.54 89.1436C301.832 89.1007 302.112 89.0005 302.365 88.849L314.165 81.834C314.419 81.6835 314.64 81.4844 314.817 81.2481C314.993 81.0117 315.122 80.7428 315.194 80.4568C315.266 80.1708 315.282 79.8734 315.239 79.5815C315.196 79.2896 315.096 79.0091 314.944 78.756C314.743 78.4234 314.46 78.148 314.122 77.9562C313.784 77.7645 313.403 77.6628 313.014 77.661V77.661Z" fill="black"/>
<path d="M301.342 90.851L313.141 83.836C313.504 83.6148 313.908 83.4676 314.328 83.403C314.749 83.3384 315.178 83.3576 315.59 83.4595C316.003 83.5615 316.392 83.7441 316.734 83.9969C317.076 84.2497 317.365 84.5677 317.583 84.9326C317.802 85.2974 317.946 85.7019 318.008 86.1228C318.069 86.5436 318.047 86.9725 317.942 87.3847C317.837 87.7969 317.652 88.1842 317.397 88.5245C317.141 88.8647 316.821 89.151 316.455 89.367L304.656 96.38C304.293 96.6153 303.886 96.7751 303.459 96.8497C303.033 96.9244 302.596 96.9124 302.174 96.8145C301.752 96.7166 301.354 96.5348 301.004 96.2799C300.655 96.0251 300.359 95.7024 300.137 95.331C299.914 94.9597 299.769 94.5473 299.709 94.1186C299.649 93.6898 299.676 93.2533 299.789 92.8353C299.901 92.4172 300.097 92.0261 300.364 91.6852C300.63 91.3443 300.963 91.0606 301.342 90.851" fill="white"/>
<path d="M303.006 97.817C302.656 97.8169 302.307 97.7736 301.967 97.688C301.16 97.4875 300.431 97.0515 299.873 96.4356C299.314 95.8196 298.951 95.0515 298.831 94.2289C298.71 93.4062 298.836 92.5663 299.194 91.8158C299.552 91.0652 300.125 90.4381 300.84 90.014L312.639 82.998C313.29 82.6109 314.034 82.4064 314.791 82.406C315.51 82.4063 316.217 82.5883 316.846 82.935C317.492 83.2919 318.032 83.8131 318.412 84.4459C318.792 85.0786 318.998 85.8004 319.009 86.5383C319.02 87.2762 318.836 88.004 318.476 88.648C318.116 89.2921 317.592 89.8295 316.957 90.206L305.157 97.221C304.507 97.6094 303.764 97.8153 303.006 97.817V97.817ZM314.794 84.359C314.389 84.3591 313.992 84.4682 313.644 84.675L301.845 91.69C301.463 91.9173 301.157 92.2528 300.966 92.654C300.775 93.0551 300.708 93.504 300.772 93.9436C300.836 94.3833 301.03 94.794 301.327 95.1237C301.625 95.4535 302.014 95.6875 302.445 95.796C302.627 95.8412 302.813 95.864 303 95.864C303.405 95.8639 303.803 95.754 304.151 95.546L315.951 88.529C316.205 88.3785 316.426 88.1794 316.603 87.9431C316.779 87.7068 316.908 87.4379 316.98 87.1519C317.052 86.8659 317.068 86.5684 317.025 86.2765C316.982 85.9846 316.882 85.7041 316.73 85.451C316.529 85.1178 316.244 84.8422 315.905 84.6509C315.566 84.4596 315.183 84.3591 314.794 84.359V84.359Z" fill="black"/>
<path d="M302.331 97.745L314.13 90.73C314.493 90.5088 314.897 90.3616 315.317 90.297C315.737 90.2324 316.167 90.2516 316.579 90.3535C316.992 90.4555 317.381 90.6381 317.723 90.8909C318.065 91.1437 318.354 91.4617 318.572 91.8265C318.791 92.1914 318.935 92.5959 318.997 93.0167C319.058 93.4376 319.036 93.8665 318.931 94.2787C318.826 94.6909 318.641 95.0782 318.386 95.4184C318.13 95.7587 317.81 96.045 317.444 96.261L305.645 103.274C305.282 103.509 304.875 103.669 304.448 103.744C304.022 103.818 303.585 103.806 303.163 103.708C302.741 103.611 302.343 103.429 301.993 103.174C301.643 102.919 301.348 102.596 301.126 102.225C300.903 101.854 300.758 101.441 300.698 101.013C300.638 100.584 300.665 100.147 300.778 99.7293C300.89 99.3112 301.086 98.92 301.353 98.5791C301.619 98.2382 301.952 97.9545 302.331 97.745" fill="white"/>
<path d="M303.994 104.708C303.276 104.708 302.569 104.525 301.94 104.178C301.293 103.82 300.752 103.297 300.372 102.663C300.088 102.19 299.901 101.665 299.821 101.119C299.741 100.574 299.769 100.017 299.904 99.4825C300.039 98.9477 300.279 98.4448 300.609 98.0029C300.939 97.5609 301.354 97.1885 301.828 96.907L313.627 89.891C314.278 89.5038 315.021 89.2993 315.778 89.299C316.496 89.2994 317.203 89.4814 317.832 89.828C318.48 90.1859 319.021 90.7085 319.402 91.343C319.685 91.8164 319.872 92.341 319.952 92.8868C320.032 93.4325 320.003 93.9886 319.868 94.5233C319.732 95.058 319.493 95.5607 319.163 96.0027C318.833 96.4447 318.419 96.8173 317.945 97.099L306.145 104.114C305.494 104.502 304.751 104.707 303.994 104.708V104.708ZM315.781 91.252C315.377 91.2521 314.98 91.3613 314.632 91.568L302.833 98.583C302.579 98.7335 302.357 98.9327 302.181 99.1691C302.004 99.4055 301.876 99.6745 301.803 99.9606C301.731 100.247 301.716 100.544 301.759 100.836C301.802 101.128 301.902 101.409 302.054 101.662C302.361 102.173 302.859 102.542 303.437 102.688C304.016 102.834 304.629 102.745 305.142 102.44L316.942 95.423C317.196 95.2726 317.418 95.0735 317.594 94.8371C317.771 94.6007 317.9 94.3317 317.972 94.0455C318.044 93.7594 318.059 93.4617 318.016 93.1697C317.973 92.8777 317.873 92.5971 317.721 92.344C317.519 92.0107 317.234 91.7351 316.894 91.5439C316.554 91.3526 316.171 91.2521 315.781 91.252V91.252Z" fill="black"/>
</svg>
